<svg xmlns="http://www.w3.org/2000/svg" width="469.742" height="444.022" viewBox="0 0 469.742 444.022"><g transform="translate(-149.833 -2205.798)"><g transform="translate(228.603 2214.261)"><path d="M138.248,130.255h0a36.2,36.2,0,0,1-36.2-36.2h0a36.2,36.2,0,0,1,36.2-36.2h0a36.2,36.2,0,0,1,36.2,36.2h0A36.2,36.2,0,0,1,138.248,130.255Z" transform="translate(-102.047 -57.853)" fill="#ebebeb"/><g transform="translate(19.066 16.029)"><rect width="7.492" height="24.204" transform="translate(0.72 12.102)" fill="#fff"/><path d="M124.521,81.955a4.467,4.467,0,1,0-4.431-4.468A4.449,4.449,0,0,0,124.521,81.955Z" transform="translate(-120.09 -73.022)" fill="#fff"/><path d="M139.582,96.013c0-3.4,1.566-5.43,4.565-5.43,2.755,0,4.079,1.946,4.079,5.43v12.706h7.457V93.394c0-6.484-3.675-9.618-8.806-9.618a8.439,8.439,0,0,0-7.294,4v-3.26h-7.187v24.2h7.187Z" transform="translate(-119.392 -72.412)" fill="#fff"/></g></g><path d="M378.434,256.273l3.718,6.8,6.8,3.718-6.8,3.718-3.718,6.8-3.718-6.8-6.8-3.718,6.8-3.718Z" transform="translate(141.627 2167.656)" fill="#ebebeb"/><path d="M388.076,224.508l1.678,3.067,3.067,1.677-3.067,1.677L388.076,234,386.4,230.93l-3.067-1.677,3.067-1.677Z" transform="translate(142.501 2165.855)" fill="#e0e0e0"/><g transform="translate(171.492 2445.611)"><g transform="translate(0 0)"><path d="M70.331,297.89a10.96,10.96,0,0,0,6.4-10.222c-.054-6.054-4.7-10.923-10.376-10.875s-10.234,4.993-10.18,11.047a10.94,10.94,0,0,0,6.681,10.147c-15.785,2.588-14.845,19.767-14.845,19.767l37.4-.312S86.04,300.054,70.331,297.89Z" transform="translate(-48 -276.792)" fill="#e0e0e0"/></g></g><g transform="translate(529.504 2575.264)"><path d="M409.873,404.19a5.822,5.822,0,0,0-11.482.341,5.822,5.822,0,0,0-11.484-.241,7.858,7.858,0,0,0,1.411,5.67,23.4,23.4,0,0,0,4.105,4.339c2.09,1.86,4.022,3.609,6.112,5.468,2.073-1.878,3.837-3.643,5.91-5.521a23.284,23.284,0,0,0,4.067-4.376A7.858,7.858,0,0,0,409.873,404.19Z" transform="translate(-386.806 -399.49)" fill="#ebebeb"/></g><g transform="translate(565.021 2334.423)"><g transform="translate(11.909 0)"><path d="M431.688,194.373l4.007-.795,6.329-13.923-1.587-8s6.119-1.609,7.468,9.01,1.608,7.8,1.608,7.8,13.163-2.557,14.483-1.632c.959.672,3.91,13.666,5.452,20.725a7.822,7.822,0,0,1-3.9,8.806,5.889,5.889,0,0,1-1.378.471c-3.281.651-20.572,1.307-20.572,1.307l-6.922,1.373Z" transform="translate(-431.688 -171.569)" fill="#e0e0e0"/></g><g transform="translate(0 21.586)"><path d="M420.418,193.3l7.9,26.922,6.864-1.361L429.856,192Z" transform="translate(-420.418 -191.997)" fill="#e0e0e0"/></g></g><g transform="translate(149.833 2648.781)"><path d="M495.579,469.338c0,.152-104.791.275-234.026.275-129.281,0-234.05-.122-234.05-.275s104.768-.275,234.05-.275C390.788,469.063,495.579,469.186,495.579,469.338Z" transform="translate(-27.503 -469.063)" fill="#263238"/></g><g transform="translate(474.784 2265.108)"><g transform="translate(0 0)"><path d="M396.744,187.525h0a42.933,42.933,0,0,1-57.387-19.831h0a42.933,42.933,0,0,1,19.831-57.388h0a42.935,42.935,0,0,1,57.388,19.831h0A42.934,42.934,0,0,1,396.744,187.525Z" transform="translate(-335.022 -105.973)" fill="#9866b7"/><g transform="translate(21.057 33.321) rotate(-25)"><g transform="translate(0 0)"><path d="M7.179,24.942c-.856,0-1.659.008-2.461,0a4.677,4.677,0,0,1-4.606-3.69A4.962,4.962,0,0,1,.006,20.2Q0,14.028,0,7.855a4.661,4.661,0,0,1,4.746-4.74c2.423-.005,4.846,0,7.269,0h.463c0-.547-.012-1.077,0-1.606a1.546,1.546,0,0,1,3.086-.088c.029.545.005,1.092.005,1.694h.453q3.6,0,7.2,0A4.671,4.671,0,0,1,28.058,7.95q0,6.081,0,12.163a4.685,4.685,0,0,1-4.812,4.829c-.774,0-1.549,0-2.369,0,.4,1.154.775,2.256,1.154,3.357.447,1.3.9,2.594,1.338,3.9a1.544,1.544,0,0,1-.754,1.9,1.58,1.58,0,0,1-2.03-.431,2.741,2.741,0,0,1-.335-.722q-1.281-3.819-2.539-7.645a.438.438,0,0,0-.511-.358q-3.178.019-6.355,0a.414.414,0,0,0-.484.343q-1.25,3.926-2.533,7.84a1.64,1.64,0,0,1-1.5,1.182,1.515,1.515,0,0,1-1.585-2.037c.783-2.3,1.541-4.611,2.309-6.917C7.088,25.234,7.123,25.119,7.179,24.942ZM14.023,18.7q3.013,0,6.025,0a2.489,2.489,0,0,0,.65-.062,1.55,1.55,0,0,0-.509-3.038q-6.153-.006-12.306,0c-.073,0-.146,0-.219.007a1.552,1.552,0,0,0,.224,3.1C9.933,18.7,11.978,18.7,14.023,18.7Zm-3.137-6.229c1.022,0,2.043,0,3.065,0a1.56,1.56,0,1,0,.015-3.119q-3.047-.017-6.094,0a1.562,1.562,0,1,0,.021,3.119C8.891,12.47,9.889,12.467,10.886,12.467Z" fill="#fff"/></g></g></g></g><g transform="translate(560.336 2410.482)"><path d="M435.035,300.828h0a29.611,29.611,0,0,1-17.092-38.23h0a29.611,29.611,0,0,1,38.23-17.092h0a29.612,29.612,0,0,1,17.092,38.23h0A29.611,29.611,0,0,1,435.035,300.828Z" transform="translate(-415.985 -243.548)" fill="#9866b7"/><g transform="translate(21.847 16.923) rotate(16)"><g transform="translate(0 0)"><path d="M21.941,2.391V17.732a.185.185,0,0,0-.032.053,2.745,2.745,0,0,1-2.883,2.336H5.806c-1.014,0-2.028.008-3.042,0A2.742,2.742,0,0,1,0,17.335Q0,10.061,0,2.787a2.906,2.906,0,0,1,.067-.636A2.748,2.748,0,0,1,2.85,0H15c1.386,0,2.771,0,4.157,0a2.753,2.753,0,0,1,2.725,2.166C21.9,2.244,21.921,2.317,21.941,2.391Zm-1.832,2.2H1.842c0,.074-.009.137-.009.2q0,6.256,0,12.511a.909.909,0,0,0,.985.989h16.3a1.241,1.241,0,0,0,.255-.019.922.922,0,0,0,.732-1.011q0-6.213,0-12.426Z" fill="#fff"/><path d="M4.114,0c.864,0,1.728,0,2.592,0A1.431,1.431,0,0,1,8.228,1.515q.006,2.6,0,5.206A1.439,1.439,0,0,1,6.714,8.227q-2.6.006-5.207,0A1.427,1.427,0,0,1,0,6.718Q0,4.115,0,1.512A1.42,1.42,0,0,1,1.521,0C2.385,0,3.249,0,4.114,0Zm2.7,1.436c-.04,0-.089-.008-.138-.009C4.991,1.41,3.306,1.4,1.621,1.37c-.2,0-.253.059-.252.254.007,1.649,0,3.3,0,4.948,0,.068.008.136.014.243H6.814Z" transform="translate(10.059 6.408)" fill="#fff"/><path d="M7.312,0q3.181,0,6.362,0A.905.905,0,0,1,14.6,1.131a.862.862,0,0,1-.677.67,1.575,1.575,0,0,1-.361.032q-6.244,0-12.489,0a1.507,1.507,0,0,1-.463-.062A.89.89,0,0,1,.01.794.9.9,0,0,1,.907,0C1.721,0,2.535,0,3.349,0Z" transform="translate(3.658 15.546)" fill="#fff"/><path d="M2.272,1.836c-.435,0-.87,0-1.3,0A.921.921,0,0,1,0,.933.92.92,0,0,1,.945.007q1.347-.012,2.695,0a.915.915,0,1,1-.021,1.828C3.17,1.838,2.721,1.836,2.272,1.836Z" transform="translate(3.655 8.226)" fill="#fff"/><path d="M2.259,1.823c-.436,0-.871,0-1.307,0A.91.91,0,1,1,.944,0Q2.283,0,3.622,0A.91.91,0,1,1,3.63,1.823H2.259Z" transform="translate(3.656 11.891)" fill="#fff"/><path d="M0,2.046C0,1.61,0,1.175,0,.739A.685.685,0,0,1,1.073.117Q2.189.774,3.293,1.45a.68.68,0,0,1,0,1.208q-1.1.676-2.22,1.332A.685.685,0,0,1,0,3.373C0,2.931,0,2.488,0,2.046Z" transform="translate(12.341 8.464)" fill="#fff"/></g></g></g><g transform="translate(172.2 2285.263)"><path d="M70.842,170.664h0a22.58,22.58,0,0,1-22.579-22.58h0A22.58,22.58,0,0,1,70.842,125.5h0a22.58,22.58,0,0,1,22.58,22.579h0A22.58,22.58,0,0,1,70.842,170.664Z" transform="translate(-48.263 -125.504)" fill="#9866b7"/><g transform="translate(13.737 14.793)"><g transform="translate(0 0)"><path d="M391.372,63.156V75.139a.145.145,0,0,0-.025.041A2.144,2.144,0,0,1,389.1,77H378.769c-.792,0-1.584.006-2.376,0a2.142,2.142,0,0,1-2.158-2.175q0-5.682,0-11.363a2.267,2.267,0,0,1,.053-.5,2.147,2.147,0,0,1,2.171-1.678h9.489c1.082,0,2.164,0,3.247,0a2.15,2.15,0,0,1,2.129,1.692C391.338,63.041,391.356,63.1,391.372,63.156Zm-1.431,1.717H375.673c0,.058-.007.107-.007.156q0,4.886,0,9.772a.71.71,0,0,0,.769.773H389.17a.969.969,0,0,0,.2-.015.72.72,0,0,0,.572-.79q0-4.853,0-9.705Z" transform="translate(-374.234 -61.289)" fill="#fff"/><path d="M553.149,173.212c.675,0,1.35,0,2.025,0a1.117,1.117,0,0,1,1.189,1.182q.005,2.033,0,4.067a1.124,1.124,0,0,1-1.183,1.176q-2.034,0-4.067,0a1.115,1.115,0,0,1-1.175-1.179q0-2.033,0-4.067a1.109,1.109,0,0,1,1.186-1.18C551.8,173.21,552.474,173.212,553.149,173.212Zm2.109,1.121c-.031,0-.07-.006-.108-.007-1.316-.014-2.632-.025-3.948-.045-.159,0-.2.046-.2.2.005,1.288,0,2.576,0,3.865,0,.053.006.106.011.19h4.239Z" transform="translate(-542.079 -168.206)" fill="#fff"/><path d="M443.836,332.828q2.485,0,4.969,0a.707.707,0,0,1,.721.881.673.673,0,0,1-.529.523,1.23,1.23,0,0,1-.282.025q-4.877,0-9.755,0a1.176,1.176,0,0,1-.361-.048.7.7,0,0,1-.466-.762.7.7,0,0,1,.7-.617c.636-.005,1.272,0,1.907,0Z" transform="translate(-435.267 -320.685)" fill="#fff"/><path d="M439.861,206.4c-.34,0-.679,0-1.019,0a.715.715,0,1,1-.017-1.429q1.052-.01,2.1,0a.714.714,0,1,1-.016,1.428C440.562,206.4,440.212,206.4,439.861,206.4Z" transform="translate(-435.231 -198.544)" fill="#fff"/><path d="M439.851,270.423c-.34,0-.681,0-1.021,0a.711.711,0,1,1-.006-1.42q1.046-.007,2.092,0a.711.711,0,1,1,.006,1.421h-1.071Z" transform="translate(-435.232 -259.711)" fill="#fff"/><path d="M589.8,210.738c0-.34,0-.68,0-1.02a.535.535,0,0,1,.837-.486q.871.513,1.734,1.041a.531.531,0,0,1,0,.943q-.862.528-1.734,1.041a.535.535,0,0,1-.84-.481C589.8,211.429,589.8,211.084,589.8,210.738Z" transform="translate(-580.163 -202.529)" fill="#fff"/></g></g></g><g transform="translate(187.016 2507.118)"><path d="M110.6,411.729h0a38.889,38.889,0,0,1-46.843-28.818h0a38.89,38.89,0,0,1,28.819-46.844h0a38.891,38.891,0,0,1,46.844,28.819h0A38.889,38.889,0,0,1,110.6,411.729Z" transform="translate(-62.691 -335)" fill="#2f2f2f"/><g transform="translate(20.694 30.023) rotate(-19)"><g transform="translate(0 0)"><path d="M28.642,10.979l.005,1.481c-.056.3-.1.6-.184.9A6.584,6.584,0,0,1,23.17,18.3a1.4,1.4,0,0,0-.9.646,8.833,8.833,0,0,1-7.494,4.507A8.911,8.911,0,0,1,6.319,18.8a.839.839,0,0,0-.672-.462A6.687,6.687,0,0,1,5.842,5.1a.486.486,0,0,0,.39-.286,8.89,8.89,0,0,1,7.734-4.8,8.93,8.93,0,0,1,8.509,4.861.383.383,0,0,0,.313.221,6.7,6.7,0,0,1,5.677,5.019C28.539,10.394,28.588,10.687,28.642,10.979ZM12.928,9.2a.809.809,0,0,0,.705-.4A.766.766,0,0,1,14.5,8.39a.834.834,0,0,1,.666.675.826.826,0,0,1-.413.877,2.541,2.541,0,0,0-1.136,1.435,3.742,3.742,0,0,0-.121,1.21.821.821,0,0,0,.821.8h.046a.822.822,0,0,0,.821-.836q0-.123-.008-.246a1.028,1.028,0,0,1,.536-.992,2.514,2.514,0,0,0-2.273-4.453,2.594,2.594,0,0,0-1.283,1.1.821.821,0,0,0,.707,1.24Zm.593,6.722v.012a.821.821,0,0,0,.821.821h0a.821.821,0,0,0,.821-.821v-.012a.821.821,0,0,0-.821-.821h0A.821.821,0,0,0,13.52,15.924Z" fill="#fff"/><path d="M2.347,5.036a.807.807,0,0,1-.3-.056,4.96,4.96,0,0,1-1.022-.459,2.455,2.455,0,0,1-.8-3.036,2.517,2.517,0,1,1,2.815,3.5c-.025.005-.049.012-.073.019a.812.812,0,0,1-.239.036Z" transform="translate(3.421 23.602)" fill="#fff"/></g></g></g><g transform="translate(511.369 2513.348)"><path d="M387.78,377.168h0a18.137,18.137,0,0,1-18.136-18.137h0a18.136,18.136,0,0,1,18.136-18.136h0a18.136,18.136,0,0,1,18.136,18.136h0A18.137,18.137,0,0,1,387.78,377.168Z" transform="translate(-369.644 -340.895)" fill="#2f2f2f"/><g transform="matrix(0.978, 0.208, -0.208, 0.978, 13.998, 10.11)"><g transform="translate(0 0)"><path d="M2.925,10.162c-.349,0-.676,0-1,0a1.906,1.906,0,0,1-1.877-1.5A2.024,2.024,0,0,1,0,8.23Q0,5.715,0,3.2A1.9,1.9,0,0,1,1.935,1.269c.987,0,1.974,0,2.961,0h.189c0-.223,0-.439,0-.654A.63.63,0,0,1,6.343.579c.012.222,0,.445,0,.69H9.461a1.9,1.9,0,0,1,1.97,1.97q0,2.478,0,4.955A1.909,1.909,0,0,1,9.47,10.162c-.316,0-.631,0-.965,0l.47,1.368c.182.529.368,1.057.545,1.588a.629.629,0,0,1-.307.773.644.644,0,0,1-.827-.176,1.118,1.118,0,0,1-.137-.294Q7.728,11.864,7.215,10.3a.179.179,0,0,0-.208-.146q-1.295.008-2.589,0a.169.169,0,0,0-.2.14q-.509,1.6-1.032,3.194a.668.668,0,0,1-.611.481.617.617,0,0,1-.646-.83c.319-.938.628-1.878.941-2.818C2.888,10.28,2.9,10.234,2.925,10.162ZM5.713,7.617q1.227,0,2.455,0a1.015,1.015,0,0,0,.265-.025.632.632,0,0,0-.207-1.238q-2.507,0-5.014,0c-.03,0-.06,0-.089,0a.632.632,0,0,0,.091,1.261C4.047,7.619,4.88,7.617,5.713,7.617ZM4.435,5.079c.416,0,.833,0,1.249,0A.636.636,0,1,0,5.69,3.808q-1.241-.007-2.483,0a.636.636,0,1,0,.009,1.271C3.622,5.08,4.029,5.079,4.435,5.079Z" fill="#fff"/></g></g></g><g transform="translate(290.226 2220.975)"><g transform="translate(0 0)"><path d="M337.788,493.051l-145.7-.086a31.739,31.739,0,0,1-31.72-31.745l.072-365.28a31.739,31.739,0,0,1,31.757-31.733l145.7.087a31.739,31.739,0,0,1,31.72,31.745l-.072,365.281A31.736,31.736,0,0,1,337.788,493.051Z" transform="translate(-160.365 -64.207)" fill="#263238"/><g transform="translate(9.655 12.921)"><path d="M337.224,76.52,308.975,76.5a7.017,7.017,0,0,0-6.86,7.166l0,5.125a7.017,7.017,0,0,1-6.86,7.166l-55.065-.033a7.023,7.023,0,0,1-6.858-7.175V83.63a7.023,7.023,0,0,0-6.859-7.175l-9.935-.006-24.724-.014a22.227,22.227,0,0,0-22.241,22.223L169.5,455.2a22.229,22.229,0,0,0,22.215,22.234l145.413.085a22.228,22.228,0,0,0,22.24-22.223l.07-356.542A22.228,22.228,0,0,0,337.224,76.52Z" transform="translate(-169.502 -76.435)" fill="#fff"/></g><g transform="translate(163.093 41.853)"><path d="M331.12,103.933c0,.1-3.672.2-8.2.241s-8.206-.01-8.207-.106,3.672-.2,8.205-.241S331.12,103.837,331.12,103.933Z" transform="translate(-314.709 -103.815)" fill="#263238"/><g transform="translate(0.035 4.199)"><path d="M331.153,107.907c0,.1-3.673.2-8.2.241s-8.206-.011-8.207-.106,3.672-.2,8.2-.241S331.152,107.811,331.153,107.907Z" transform="translate(-314.742 -107.789)" fill="#263238"/></g><g transform="translate(0.07 8.398)"><path d="M331.186,111.88c0,.1-3.673.2-8.2.241s-8.207-.01-8.207-.1,3.672-.2,8.2-.241S331.185,111.785,331.186,111.88Z" transform="translate(-314.775 -111.763)" fill="#263238"/></g></g><g transform="translate(24.775 37.152)"><path d="M184.031,116.679a3.368,3.368,0,0,1,.43-.029l1.2-.039,4.417-.106-.123.125q-.024-1.469-.052-3.2c.006-.595-.051-1.156.006-1.844a1.7,1.7,0,0,1,1.483-1.361c.711-.014,1.338-.047,2.109-.011a1.715,1.715,0,0,1,1.449,1.705c.017,1.493.035,3.053.053,4.671l-.205-.2,5.571-.057-.211.216c-.02-2.243-.041-4.564-.062-6.941q-.006-.889-.015-1.768a1.8,1.8,0,0,0-.783-1.317l-2.436-2.4q-1.2-1.179-2.349-2.318l-1.139-1.124c-.391-.377-.7-.767-1.152-.86a1.5,1.5,0,0,0-1.279.244c-.337.285-.7.689-1.037,1.02q-1.029,1.038-2,2.016c-1.257,1.306-2.567,2.5-3.519,3.628a3.938,3.938,0,0,0-.28,2.078q0,1.037,0,1.963-.011,1.805-.02,3.163c-.01.807-.017,1.475-.022,2.021a7.184,7.184,0,0,1-.027.729,5.3,5.3,0,0,1-.038-.67c-.015-.538-.034-1.2-.056-1.991q-.03-1.366-.072-3.187-.017-.946-.037-2-.008-.534-.017-1.095a2.317,2.317,0,0,1,.307-1.167c1.03-1.263,2.26-2.381,3.527-3.725l1.983-2.032c.357-.351.65-.7,1.076-1.065a1.893,1.893,0,0,1,1.615-.318,3.008,3.008,0,0,1,1.338.956l1.143,1.12q1.155,1.133,2.357,2.311l2.44,2.4a4.644,4.644,0,0,1,.622.674,1.825,1.825,0,0,1,.292.939q.008.883.016,1.776c.018,2.378.036,4.7.053,6.942l0,.213h-.213l-5.572.036h-.2v-.2c-.008-1.617-.016-3.177-.024-4.671a1.344,1.344,0,0,0-1.125-1.353c-.641-.034-1.4-.012-2.02-.006a1.367,1.367,0,0,0-1.2,1.083c-.054.56-.013,1.213-.024,1.781q0,1.731,0,3.2v.125h-.123l-4.49-.032-1.169-.02A2.2,2.2,0,0,1,184.031,116.679Z" transform="translate(-183.811 -99.366)" fill="#263238"/></g><g transform="translate(21.25 320.124)"><g transform="translate(61.009 12.668)"><path d="M277.064,379.421a8.1,8.1,0,0,1-1.527.108l-4.163.088c-3.516.05-8.372.08-13.736.08s-10.222-.031-13.737-.08l-4.163-.088a8.1,8.1,0,0,1-1.527-.108,8.164,8.164,0,0,1,1.527-.107l4.163-.088c3.515-.05,8.372-.08,13.737-.08s10.22.031,13.736.08l4.163.088A8.164,8.164,0,0,1,277.064,379.421Z" transform="translate(-238.211 -379.146)" fill="#455a64"/><g transform="translate(0 9.559)"><path d="M338.131,388.467c0,.152-22.37.275-49.958.275s-49.962-.123-49.962-.275,22.365-.275,49.962-.275S338.131,388.315,338.131,388.467Z" transform="translate(-238.211 -388.192)" fill="#455a64"/></g><g transform="translate(0 18.55)"><path d="M306.906,396.977c0,.151-15.379.275-34.345.275s-34.35-.124-34.35-.275,15.376-.276,34.35-.276S306.906,396.825,306.906,396.977Z" transform="translate(-238.211 -396.701)" fill="#455a64"/></g></g><g transform="translate(156.844 39.917)"><path d="M334.965,414.013l-3.1-3.114-2.956,2.948.014-8.913,6.06.01Zm-3.1-3.5.1.1,2.733,2.742.013-8.133-5.512-.008-.013,7.977Z" transform="translate(-328.905 -404.934)" fill="#263238"/></g><g transform="translate(74.656 41.695)"><path d="M256.707,412.758l-1.095-.488a3,3,0,1,1,1.6-2.636,3.034,3.034,0,0,1-.758,2.029Zm-2.56-5.934a2.835,2.835,0,0,0,.045,5.669,2.924,2.924,0,0,0,1.364-.43l.045-.026.808.361-.184-.795.037-.04a2.83,2.83,0,0,0-2.117-4.739Z" transform="translate(-251.126 -406.616)" fill="#263238"/></g><g transform="translate(83.671 42.111)"><path d="M263.268,412.266l-1.256-3.064-2.354-2.146,5.711-.045Zm-3.077-5.006L262.2,409.1l1.069,2.61,1.794-4.49Z" transform="translate(-259.657 -407.01)" fill="#263238"/></g><g transform="translate(86.154 42.11)"><rect width="3.715" height="0.209" transform="translate(0 2.026) rotate(-33.054)" fill="#263238"/></g><g transform="translate(64.253 41.377)"><path d="M248.279,407.735a1.767,1.767,0,0,0-3.484.116,1.767,1.767,0,0,0-3.485-.06,2.384,2.384,0,0,0,.434,1.719,7.092,7.092,0,0,0,1.25,1.311c.636.562,1.225,1.091,1.861,1.653.627-.572,1.16-1.11,1.787-1.682a7.027,7.027,0,0,0,1.23-1.331A2.391,2.391,0,0,0,248.279,407.735Z" transform="translate(-241.281 -406.316)" fill="#e8505b"/></g><path d="M349.742,424.039s-.013-.342-.019-.994-.011-1.626-.019-2.891c-.011-2.55-.025-6.3-.044-11.156-.023-9.712-.057-23.841-.1-41.565l.182.182-168.982.094h-.011l.276-.276c0,19.672-.006,38.755-.01,56.607l-.266-.266,120.921.124,35.3.074,9.473.035,2.455.017c.554.005.845.017.845.017s-.268.011-.811.017l-2.424.017-9.415.034-35.238.075-121.1.124h-.266v-.266c0-17.852-.005-36.934-.008-56.607v-.275h.285l168.982.094h.182v.181c-.042,17.77-.076,31.936-.1,41.674-.019,4.84-.034,8.575-.044,11.115q-.013,1.877-.019,2.859C349.754,423.721,349.742,424.039,349.742,424.039Z" transform="translate(-180.475 -367.158)" fill="#263238"/><g transform="translate(6.81 9.485)"><rect width="37.424" height="46.811" transform="matrix(0.006, -1, 1, 0.006, 0.28, 37.672)" fill="#ebebeb"/><path d="M234.223,376.649a1.847,1.847,0,0,1-.235.013l-.664.011-2.555.015-9.6.011-33.76-.069.247-.245c-.055,11.143-.117,23.91-.184,37.42.058.065-.513-.521-.265-.274h.394l.4,0,.81,0,1.614.01,3.2.019,6.307.038,12.145.078,21.923.159-.23.227c.113-11.237.207-20.56.273-27.105.044-3.255.078-5.817.1-7.6q.024-1.29.037-2.013c.012-.458.03-.706.03-.706s.016.216.021.657q.006.708.015,1.97c0,1.768.009,4.314.017,7.547-.01,6.58-.022,15.953-.037,27.251v.228h-.23l-21.922-.091-12.146-.059-6.307-.034-3.2-.018-1.614-.008-.81,0-.4,0h-.394c.241.247-.343-.335-.282-.28.088-13.511.17-26.278.242-37.419v-.247l.246,0,33.919.316,9.542.119,2.506.043.636.018A.9.9,0,0,1,234.223,376.649Z" transform="translate(-186.92 -376.134)" fill="#263238"/><rect width="32.712" height="43.522" transform="matrix(0.006, -1, 1, 0.006, 1.907, 35.325)" fill="#e0e0e0"/><path d="M188.725,410.65,204.041,390.4l9.344,12.775,6.425-6.764L232.246,410.9Z" transform="translate(-186.817 -375.325)" fill="#f5f5f5"/><g transform="translate(23.798 9.217)"><path d="M216.295,388.3a3.427,3.427,0,1,1-3.408-3.446A3.429,3.429,0,0,1,216.295,388.3Z" transform="translate(-209.441 -384.857)" fill="#f5f5f5"/></g></g></g><g transform="translate(28.037 238.316)"><g transform="translate(0 41.804)"><g transform="translate(139.6 0.617)"><path d="M328.015,343.377,323.4,338.75l-4.394,4.381.021-13.246,9.006.014Zm-4.611-5.2.144.143,4.062,4.076.019-12.086-8.191-.013-.019,11.855Z" transform="translate(-319.009 -329.885)" fill="#263238"/></g><g transform="translate(20.477 0.625)"><path d="M217.263,341.983l-2.157-.962a5.907,5.907,0,1,1,3.15-5.188,5.969,5.969,0,0,1-1.491,3.994ZM212.222,330.3a5.579,5.579,0,1,0,.09,11.159,5.75,5.75,0,0,0,2.687-.847l.089-.05,1.589.709-.359-1.562.072-.079a5.573,5.573,0,0,0-4.168-9.33Z" transform="translate(-206.277 -329.892)" fill="#263238"/></g><g transform="translate(38.221 1.445)"><path d="M230.175,341.014l-2.472-6.033-4.635-4.224,11.241-.09Zm-6.057-9.855,3.948,3.623,2.1,5.139,3.531-8.839Z" transform="translate(-223.069 -330.668)" fill="#263238"/></g><g transform="translate(43.108 1.444)"><rect width="7.313" height="0.411" transform="matrix(0.838, -0.545, 0.545, 0.838, 0, 3.988)" fill="#263238"/></g><path d="M200.672,332.095a3.477,3.477,0,0,0-6.857.229,3.477,3.477,0,0,0-6.859-.118,4.692,4.692,0,0,0,.855,3.382,13.886,13.886,0,0,0,2.461,2.583c1.252,1.106,2.409,2.147,3.661,3.254,1.234-1.126,2.285-2.184,3.519-3.311a13.94,13.94,0,0,0,2.42-2.622A4.693,4.693,0,0,0,200.672,332.095Z" transform="translate(-186.898 -329.301)" fill="#9866b7"/></g><g transform="translate(2.901)"><g transform="translate(0 11.893)"><path d="M332.469,301.27c0,.152-31.975.275-71.41.275s-71.416-.123-71.416-.275,31.968-.276,71.416-.276S332.469,301.118,332.469,301.27Z" transform="translate(-189.643 -300.994)" fill="#455a64"/></g><path d="M332.469,290.014c0,.152-31.975.276-71.41.276s-71.416-.124-71.416-.276,31.968-.275,71.416-.275S332.469,289.862,332.469,290.014Z" transform="translate(-189.643 -289.739)" fill="#455a64"/><g transform="translate(0 23.946)"><path d="M267.384,312.675c0,.152-17.4.276-38.869.276s-38.872-.124-38.872-.276,17.4-.275,38.872-.275S267.384,312.524,267.384,312.675Z" transform="translate(-189.643 -312.4)" fill="#455a64"/></g></g></g><g transform="translate(93.017 389.025)"><path d="M254.461,435.456a3.035,3.035,0,1,1-3.021-3.093A3.056,3.056,0,0,1,254.461,435.456Z" transform="translate(-248.392 -432.363)" fill="#263238"/><g transform="translate(9.402 0.043)"><path d="M263.359,435.5a3.035,3.035,0,1,1-3.021-3.093A3.055,3.055,0,0,1,263.359,435.5Z" transform="translate(-257.29 -432.404)" fill="#263238"/></g><g transform="translate(18.805 0.087)"><path d="M272.257,435.538a3.035,3.035,0,1,1-3.021-3.093A3.053,3.053,0,0,1,272.257,435.538Z" transform="translate(-266.188 -432.445)" fill="#263238"/></g></g><g transform="translate(22.538 75.399)"><rect width="168.993" height="103.348" transform="translate(0 27.043)" fill="#e0e0e0"/><path d="M196.457,262.452l48.426-64.815L274.9,238.171l20.347-21.679,39.907,45.921Z" transform="translate(-180.857 -132.043)" fill="#f5f5f5"/><g transform="translate(84.929 46.726)"><path d="M283.91,190.7a10.921,10.921,0,1,1-10.925-10.918A10.921,10.921,0,0,1,283.91,190.7Z" transform="translate(-262.067 -179.781)" fill="#f5f5f5"/></g><g transform="translate(32.567 0)"><path d="M267.86,237.443v1.57h.041q1.06-1.835,2.233-1.836a2.6,2.6,0,0,1,.479.061v2.906a6,6,0,0,0-1-.092q-1.631,0-1.632,2.11v4.66h-2.957v-9.381Z" transform="translate(-254.793 -232.456)" fill="#844fa0"/><path d="M441.8,204.736h2.947V219.1H441.78V217.87h-.041a2.746,2.746,0,0,1-2.233,1.55,2.386,2.386,0,0,1-2.106-1.366,7.2,7.2,0,0,1-.8-3.65,7,7,0,0,1,.816-3.63,2.442,2.442,0,0,1,2.151-1.356,2.828,2.828,0,0,1,2.233,1.4Zm0,9.606q0-2.314-1.122-2.314-1.152,0-1.152,2.458a3.72,3.72,0,0,0,.311,1.688.951.951,0,0,0,.862.6.9.9,0,0,0,.806-.632,4.34,4.34,0,0,0,.3-1.795" transform="translate(-401.394 -204.736)"/><path d="M507.635,239H510.6v6.036a1.321,1.321,0,0,0,.219.78.692.692,0,0,0,.6.311q.856,0,.857-1.254V239h2.966v5.435a4.636,4.636,0,0,1-.969,3.166,4.262,4.262,0,0,1-5.736-.025,4.333,4.333,0,0,1-.9-2.8Z" transform="translate(-462.09 -234.013)"/><path d="M576.942,243.592v2.447a3.791,3.791,0,0,1-2.131.713,2.946,2.946,0,0,1-2.534-1.371,6.353,6.353,0,0,1-.953-3.686,6.021,6.021,0,0,1,.979-3.569,2.98,2.98,0,0,1,2.529-1.377,3.594,3.594,0,0,1,2.131.765v2.427a2.373,2.373,0,0,0-1.081-.316,1.38,1.38,0,0,0-1.152.576,2.472,2.472,0,0,0-.439,1.535,2.63,2.63,0,0,0,.428,1.591,1.368,1.368,0,0,0,1.163.581,2.392,2.392,0,0,0,1.06-.316" transform="translate(-516.509 -232.09)"/><path d="M623.463,246.576v-1.234h-.041a4.873,4.873,0,0,1-1.045,1.173,1.929,1.929,0,0,1-1.188.377,2.4,2.4,0,0,1-2.131-1.366,7.383,7.383,0,0,1-.8-3.712,6.916,6.916,0,0,1,.806-3.589,2.41,2.41,0,0,1,2.121-1.336,1.99,1.99,0,0,1,1.193.352,4.531,4.531,0,0,1,1.02,1.127h.041V237.2h2.967v9.381Zm0-4.742q0-2.335-1.142-2.335t-1.152,2.335q0,2.427,1.194,2.427,1.1,0,1.1-2.427" transform="translate(-556.616 -232.209)"/><path d="M685.731,221.831H688.7v2.5h1.152V226.8h-1.173v6.914h-2.947v-6.934h-1.122V224.33h1.122Z" transform="translate(-613.307 -219.343)"/><path d="M730.987,210.548a1.561,1.561,0,1,1,1.56,1.57,1.585,1.585,0,0,1-1.56-1.57m.082,2.815h2.967v9.381h-2.967Z" transform="translate(-652.934 -208.376)"/><path d="M768.394,236.753a3.692,3.692,0,0,1,3.09,1.351,5.943,5.943,0,0,1,1.06,3.758,5.45,5.45,0,0,1-1.1,3.645,3.8,3.8,0,0,1-3.049,1.29,3.655,3.655,0,0,1-2.962-1.315,5.487,5.487,0,0,1-1.1-3.62,6.008,6.008,0,0,1,1.045-3.758,3.582,3.582,0,0,1,3.013-1.351m.02,7.393a.935.935,0,0,0,.872-.54,4.191,4.191,0,0,0,.291-1.846,4.087,4.087,0,0,0-.285-1.815.921.921,0,0,0-.856-.52.939.939,0,0,0-.857.5,4.013,4.013,0,0,0-.3,1.851q0,2.366,1.132,2.366" transform="translate(-681.429 -232.093)"/><path d="M835.671,237.192v1.275h.051a3.008,3.008,0,0,1,2.539-1.58,1.97,1.97,0,0,1,1.555.653,2.572,2.572,0,0,1,.576,1.764v7.27h-2.967v-5.782a1.3,1.3,0,0,0-.224-.785.691.691,0,0,0-.581-.306q-.948,0-.948,1.193v5.679h-2.957v-9.381Z" transform="translate(-739.855 -232.205)"/><path d="M331.948,225.289c-.47-.138-.991-.269-1.564-.385a12.081,12.081,0,0,1,1.564.385" transform="translate(-310.638 -221.969)" fill="#fdfdfd"/><path d="M337.52,219.9a12.3,12.3,0,0,0-1.212-.527,9.176,9.176,0,0,1,1.212.527" transform="translate(-315.7 -217.246)" fill="#fdfdfd"/><path d="M341.407,227.634l-.091-.023-.123-.042.214.064" transform="translate(-319.874 -224.247)" fill="#fdfdfd"/><path d="M343.028,228.131c-.118-.04-.24-.079-.366-.119.124.033.246.074.366.119" transform="translate(-321.129 -224.624)" fill="#fdfdfd"/><path d="M363.9,237.106c-.034-.032-.068-.065-.1-.1l.1.1" transform="translate(-339.189 -232.309)" fill="#fff"/><path d="M366.61,240.157l-.007-.009.007.006v0" transform="translate(-341.586 -234.994)"/><path d="M368.9,211.407a6.97,6.97,0,0,1,1.02-1.7,10.418,10.418,0,0,1,4.592-3.3c.129-.049.158-.008.165.108.02.323.038.647.065.969.009.107-.028.148-.128.179a12.13,12.13,0,0,0-3.463,1.655c-.119.084-.236.169-.351.258-.191.149-.37.3-.537.445a12.744,12.744,0,0,0-1.363,1.387" transform="translate(-343.548 -206.146)" fill="#fdfdfd"/><path d="M377.295,232.257c-.034.029-.068.056-.1.086l.025-.023.077-.063" transform="translate(-350.634 -228.251)"/><path d="M368.325,241.611s0,0,0,0h0Z" transform="translate(-343.056 -236.244)"/><path d="M380.83,233.592v.015a.025.025,0,0,1-.008-.009l.008-.005" transform="translate(-353.735 -229.392)"/><path d="M383.332,232.4l-.01-.009h0l.007.01" transform="translate(-355.871 -228.366)"/><path d="M384.9,231.692l-.009.016,0-.013.005,0" transform="translate(-357.211 -227.769)"/><path d="M385.619,231.4H385.6l.012,0,.008,0" transform="translate(-357.818 -227.517)"/><path d="M387.211,230.77l-.008,0h0l.01,0" transform="translate(-359.184 -226.981)"/><path d="M390.072,229.282c-.078.026-.158.052-.236.08l.013-.007.223-.073" transform="translate(-361.437 -225.709)"/><path d="M417.515,243.153c0,.01,0,.007,0,0" transform="translate(-385.087 -237.562)"/><path d="M368.118,328.3h0Z" transform="translate(-342.879 -310.316)"/><path d="M400.082,313.712l.137-.029-.017,0-.119.025" transform="translate(-370.192 -297.826)"/><path d="M402.5,313.253c.036-.007.071-.015.108-.02l-.066.013-.042.007" transform="translate(-372.258 -297.441)"/><path d="M403.49,312.923l-.247.045.153-.029c.032,0,.064-.01.095-.016" transform="translate(-372.893 -297.177)"/><path d="M414.669,311.483l-.073,0a.2.2,0,0,1-.064.019.321.321,0,0,0,.064-.02l.073,0" transform="translate(-382.539 -295.946)"/><path d="M366.61,240.157l-.007-.009.007.006v0" transform="translate(-341.586 -234.994)"/><path d="M377.942,300.489l.167-.089a.549.549,0,0,1,.049-.028c-.073.036-.146.076-.217.116m.6-.309-.052.026c.017-.007.035-.016.052-.025.124-.058.247-.115.373-.169-.125.052-.249.109-.373.167" transform="translate(-351.274 -286.146)"/><path d="M382.147,229.356l-.013.007c.079-.028.159-.054.237-.08l-.224.073m-.617.234-.012,0h.019l-.007,0m-.112.047a.079.079,0,0,1,0,.013c0-.007.006-.01.009-.016l-.006,0m-.227.1h0l.01.009-.006-.01m-.368.179a.045.045,0,0,0,.007.01v-.015s0,0-.007,0" transform="translate(-353.736 -225.71)"/><path d="M341.407,227.634l-.091-.023-.123-.042.214.064" transform="translate(-319.874 -224.247)" fill="#f05941"/><path d="M343.028,228.131c-.118-.04-.24-.079-.366-.119.124.033.246.074.366.119" transform="translate(-321.129 -224.624)" fill="#f05941"/><path d="M363.9,237.106c-.034-.032-.068-.065-.1-.1l.1.1" transform="translate(-339.189 -232.309)" fill="#fff"/><path d="M366.61,240.157l-.007-.009.007.006v0" transform="translate(-341.586 -234.994)"/><path d="M387.211,230.77l-.008,0h0l.01,0" transform="translate(-359.184 -226.981)"/><path d="M385.619,231.4H385.6l.012,0,.008,0" transform="translate(-357.818 -227.517)"/><path d="M384.9,231.692l-.009.016,0-.013.005,0" transform="translate(-357.211 -227.769)"/><path d="M377.295,232.257c-.034.029-.068.056-.1.086l.025-.023.077-.063" transform="translate(-350.634 -228.251)"/><path d="M366.61,240.157l-.007-.009.007.006v0" transform="translate(-341.586 -234.994)"/><path d="M374.619,207.663a12.134,12.134,0,0,0-3.463,1.655c-.119.084-.236.169-.351.258-.185.14-.365.288-.537.445a12.733,12.733,0,0,0-1.363,1.387,6.966,6.966,0,0,1,1.02-1.7,10.418,10.418,0,0,1,4.591-3.3c.129-.049.158-.008.165.108.02.323.038.647.065.969.009.107-.028.148-.128.179" transform="translate(-343.552 -206.146)" fill="#8a8685"/><path d="M320.1,229.2c0-.821,0-1.64,0-2.461a.449.449,0,0,0,0-.062c0-.006,0-.007,0-.009l0-.009-.06-.036s0,0-.007-.006c-.028-.016-.055-.035-.064-.041l-.1-.084c-.07-.057-.143-.111-.214-.164s-.144-.1-.218-.156-.148-.1-.223-.147-.15-.095-.226-.141l-.229-.131c-.029-.017-.058-.032-.087-.048-.125-.07-.252-.135-.377-.2l-.015-.007c-.036-.018-.073-.036-.118-.057a.722.722,0,0,0-.066-.032c-.07-.034-.14-.065-.212-.1l-.087-.038c-.031-.013-.061-.028-.092-.039a12.8,12.8,0,0,0-1.324-.475c-.426-.128-.834-.227-1.205-.306-.023,0-.047-.01-.07-.013h-.007c-.137-.028-.268-.052-.391-.074-.355-.061-.713-.108-1.074-.137l-.081,0c-.048-.009-.1-.022-.147-.026-.445-.044-.889-.058-1.335-.087-.156-.01-.182.038-.181.18q0,4.362,0,8.728v3.589c0,.09-.01.159.125.162a17.693,17.693,0,0,1,2.45.21A13.339,13.339,0,0,1,317.973,238a11.139,11.139,0,0,1,2.035,1.231.669.669,0,0,1,.061.051.023.023,0,0,0,0-.01.046.046,0,0,0,.007-.015.338.338,0,0,0,0-.115.159.159,0,0,1,0-.025v-.039c0-.017,0-.035,0-.051v-.208c0-.076,0-.153,0-.229,0-.635,0-1.268,0-1.9v-.067a.051.051,0,0,0,0-.019.052.052,0,0,1,0-.021c0-.008,0-.017.005-.025a.187.187,0,0,0,0-.025v-7.144c.009.006.019.006.032-.009a.313.313,0,0,1-.019-.178m-4.538,6.5-.047-.019a2.11,2.11,0,0,1-1.385-1.848c0-1.418.006-3.26.006-4.561l0-.831c-.01-1.094,1.126-1.707,2.289-1.23l.065.027a2.1,2.1,0,0,1,1.35,1.833v5.408c0,1.08-1.12,1.683-2.274,1.223" transform="translate(-294.829 -221.293)" fill="#844fa0"/><path d="M333.579,211.594c-.048-.061-.146-.146-.194-.206s-.1-.12-.151-.179-.1-.117-.154-.175l-.158-.172c-.052-.057-.108-.112-.162-.168s-.109-.11-.166-.164l-.168-.162c-.056-.053-.115-.106-.172-.158s-.116-.1-.175-.154-.119-.1-.179-.15-.12-.1-.181-.147l-.184-.142c-.061-.047-.125-.094-.188-.139s-.126-.091-.19-.136l-.192-.131c-.064-.044-.131-.086-.2-.128s-.131-.084-.2-.124l-.2-.119c-.066-.039-.136-.077-.2-.115l-.2-.111-.207-.107c-.069-.035-.14-.068-.21-.1s-.141-.067-.213-.1l-.213-.094c-.07-.031-.145-.06-.216-.089s-.145-.056-.218-.084-.146-.055-.219-.079-.146-.051-.22-.076l-.223-.07-.223-.064a.21.21,0,0,1-.113-.061.2.2,0,0,1-.025-.143q.037-.493.074-.986c0-.03.008-.065.035-.079a.092.092,0,0,1,.069,0l.1.037.209.076c.069.026.137.053.206.081l.2.086.2.09c.068.03.133.063.2.1s.133.065.2.1l.2.1.194.108c.065.037.128.074.19.112s.126.078.188.117.125.08.186.121.123.082.183.125.121.085.181.129.119.087.177.133.116.09.174.137l.172.14.168.145c.056.048.111.1.166.149l.162.151c.053.051.106.1.158.155s.1.1.155.158.1.108.151.162.1.11.149.166.1.112.144.168.1.113.141.172l.137.173c.046.059.089.119.133.179s.086.119.128.18.083.121.125.184.081.123.12.185.078.125.116.189.076.126.112.192l.107.193c.035.064.069.131.1.2.017.033.034.067.049.1a.5.5,0,0,1,.05.12" transform="translate(-308.309 -206.224)" fill="#c39ce2"/><path d="M368.525,260.067l-.04.035h0l.04-.034" transform="translate(-343.194 -252.014)"/><path d="M368.549,309.658h0Z" transform="translate(-343.248 -294.387)" fill="#844fa0"/><path d="M343.028,228.131c-.118-.04-.24-.079-.366-.119.124.033.246.074.366.119" transform="translate(-321.129 -224.624)" fill="#fceae9"/><path d="M376.539,224.449c0-.383,0-.383-.384-.326l-.173,0a14.932,14.932,0,0,0-2.129.214.293.293,0,0,0-.146.019l-.013.007c-.054.007-.109.013-.164.023-.39.064-.774.16-1.157.255-.2.054-.4.112-.6.176l-.087.029c-.079.026-.159.052-.237.08h0l-.115.041c-.02.007-.039.013-.058.022l-.1.035-.092.035s-.007,0-.01,0l-.01,0h0l-.166.065-.012.006a.334.334,0,0,0-.041.016l.007,0h-.019l-.095.039-.009.016a.076.076,0,0,0,0-.013l-.079.033c-.02.007-.039.017-.06.025l-.089.041.006.01-.01-.009q-.057.024-.114.052h-.007l0,0-.035.016h0l-.127.06-.067.032-.007,0-.074.038s-.006,0-.006,0l-.063.031a8.865,8.865,0,0,0-1.368.856c-.029.022-.058.045-.086.068-.05.036-.095.074-.141.112a.171.171,0,0,0-.025.02c-.019.015-.035.029-.052.045h0v.077c0,.821,0,1.64,0,2.461a.313.313,0,0,0,.019.178l.041-.035.032-.026a.181.181,0,0,0,.041-.022,11.79,11.79,0,0,1,5.77-2.262c.456-.064.913-.1,1.37-.151l.083,0c.243-.007.485-.022.728-.02.118,0,.14-.039.138-.148,0-.75,0-1.5,0-2.247m-6.4,1.044a.042.042,0,0,1-.007-.01.012.012,0,0,0,.007,0Z" transform="translate(-343.049 -221.278)"/><path d="M376.411,260.3c0,.1-.017.138-.128.14a14.133,14.133,0,0,0-7.506,2.092q-.3.193-.592.4c-.044-.853-.009-1.715-.008-2.568,0-.262.353-.4.546-.526q.42-.268.859-.5a13.673,13.673,0,0,1,3.348-1.262,14.017,14.017,0,0,1,1.769-.3q.436-.044.873-.061a1.859,1.859,0,0,1,.742,0c.182.1.093.725.094.952,0,.543,0,1.085,0,1.626" transform="translate(-342.918 -249.974)"/><path d="M376.383,294.437c0-.226,0-.451,0-.675v-1.351a.178.178,0,0,0-.221-.226c-.485.031-.977.042-1.46.1-.114.015-.229.029-.341.047a.241.241,0,0,0-.045,0c-.07.009-.14.017-.21.028-.178.023-.355.049-.53.08l-.1.016c-.17.028-.339.061-.508.1a12.542,12.542,0,0,0-2.485.773c-.243.106-.477.224-.706.352a.529.529,0,0,0-.049.028,17.875,17.875,0,0,0-1.553,1.014.086.086,0,0,0-.028.028.028.028,0,0,0,0,.01h0a.06.06,0,0,1,0,.023v.067c0,.635,0,1.268,0,1.9,0,.076,0,.153,0,.229V297c0,.07,0,.159,0,.239v.039a.152.152,0,0,0,0,.025.338.338,0,0,1,0,.115.045.045,0,0,1-.007.015.022.022,0,0,1,0,.01,11.247,11.247,0,0,1,3.767-1.873c.332-.1.665-.183,1-.258l-.119.025.137-.029.039-.009c.058-.013.118-.025.176-.036.036-.007.071-.015.108-.02l.153-.029c.032,0,.064-.01.095-.016a18.02,18.02,0,0,1,2.563-.256.539.539,0,0,0,.255-.051.182.182,0,0,0,.082-.1,1.19,1.19,0,0,0-.006-.352m-6.224-.95-.052.025.052-.026c.124-.058.247-.115.373-.167-.125.054-.249.111-.373.169m4.79,1.5a.2.2,0,0,1-.064.019.332.332,0,0,0,.064-.02l.073,0-.073,0" transform="translate(-342.892 -279.451)"/><path d="M368.2,323.832c0-.048,0-.084,0-.1,0-.044,0-.087,0-.132,0,.076,0,.153,0,.229" transform="translate(-342.953 -306.302)"/><path d="M368.207,309.977c0-.013,0-.028,0-.041a.061.061,0,0,1,0-.023.061.061,0,0,1,0,.023Z" transform="translate(-342.954 -294.605)"/><path d="M368.174,327.248a.337.337,0,0,1,0,.115.044.044,0,0,1-.007.015,1,1,0,0,0,.01-.154.155.155,0,0,0,0,.025" transform="translate(-342.917 -309.395)"/><path d="M381.754,300.18c.124-.058.247-.115.373-.167-.125.054-.249.111-.373.169l-.052.025Z" transform="translate(-354.487 -286.146)"/><path d="M400.082,313.712l.137-.029-.017,0-.119.025" transform="translate(-370.192 -297.826)"/><path d="M401.466,313.253c.036-.007.071-.015.108-.02l-.065.013-.218.044c.058-.013.118-.025.176-.036" transform="translate(-371.224 -297.441)"/><path d="M414.669,311.483l-.073,0a.2.2,0,0,1-.064.019.321.321,0,0,0,.064-.02l.073,0" transform="translate(-382.539 -295.946)"/><path d="M380.83,233.592v.015a.025.025,0,0,1-.008-.009l.008-.005" transform="translate(-353.735 -229.392)"/><path d="M380.83,233.592v.015a.025.025,0,0,1-.008-.009l.008-.005" transform="translate(-353.735 -229.392)"/><path d="M383.332,232.4l-.01-.009h0l.007.01" transform="translate(-355.871 -228.366)"/><path d="M384.9,231.692l-.009.016,0-.013.005,0" transform="translate(-357.211 -227.769)"/><path d="M385.619,231.4H385.6l.012,0,.008,0" transform="translate(-357.818 -227.517)"/><path d="M383.332,232.4l-.01-.009h0l.007.01" transform="translate(-355.871 -228.366)"/><path d="M363.9,237.106c-.034-.032-.068-.065-.1-.1l.1.1" transform="translate(-339.189 -232.309)" fill="#fff"/><path d="M375.427,216a14.7,14.7,0,0,0-1.815.278c-.185.039-.37.08-.554.125l-.131.033-.03.008-.066.017c-.016.005-.033.009-.048.013l-.08.022a14.64,14.64,0,0,0-1.865.634,10.271,10.271,0,0,0-1.286.645,5.867,5.867,0,0,0-1.13.852c.2-.229.412-.442.631-.65s.424-.412.646-.608c.034-.03.068-.058.1-.086a10.119,10.119,0,0,1,3.544-1.97,16.333,16.333,0,0,1,2.135-.575c.091-.02.1.01.1.086.008.32.009.639.034.957.012.16-.04.207-.19.218" transform="translate(-343.139 -213.274)"/><path d="M337.518,218.517a11.824,11.824,0,0,0-1.7-.83,8.889,8.889,0,0,1,1.7.83" transform="translate(-315.282 -215.802)" fill="#d6a7fc"/><path d="M326.025,218.638c-.017-.018-.045-.047-.084-.086s-.075-.071-.125-.116l-.007-.006c-.077-.068-.175-.149-.3-.239h0a10.068,10.068,0,0,0-2.822-1.408c-.121-.045-.242-.086-.366-.119-.07-.022-.141-.044-.214-.065l-.009,0a12.07,12.07,0,0,0-1.564-.385l-.015,0-.308-.056c-.394-.069-.789-.128-1.189-.157-.133-.01-.175-.059-.166-.2.021-.324.025-.648.033-.973,0-.071.007-.111.1-.092a15.892,15.892,0,0,1,2.4.67l.007,0a12.308,12.308,0,0,1,1.212.527,11.011,11.011,0,0,1,.969.547,14.042,14.042,0,0,1,1.139.834l.519.477.069.069a1.2,1.2,0,0,0,.093.111h0c.032.035.066.068.1.1l0,0,.112.114c.064.067.128.135.192.2l.022.024.134.148.062.071" transform="translate(-300.791 -213.276)" fill="#9f6dbf"/><path d="M201.769,211a4.526,4.526,0,0,0-3.236-1.15H194.72v13.578H197.8V218.26h.53a4.9,4.9,0,0,0,3.422-1.124,4.449,4.449,0,0,0,.016-6.138Zm-2.436,4.262a2.617,2.617,0,0,1-1.531.4v-3.2a2.676,2.676,0,0,1,1.546.381,1.456,1.456,0,0,1,.479,1.236A1.4,1.4,0,0,1,199.332,215.26Z" transform="translate(-194.72 -209.105)" fill="#844fa0"/></g></g><g transform="translate(21.808 67.782)"><path d="M350.27,362.409c0-2.211-.1-95.572-.249-233.781l.249.25L181.3,128.9h-.019l.275-.276c-.019,87.429-.037,168.342-.052,233.781l-.223-.224,168.992.224-168.992.224h-.224v-.224c-.015-65.44-.033-146.352-.052-233.781v-.275h.295l168.973.025h.249v.249c-.051,69.173-.093,127.643-.124,168.83-.028,20.563-.051,36.81-.067,47.923-.013,5.541-.023,9.8-.03,12.683q-.009,2.146-.015,3.254C350.28,362.046,350.27,362.409,350.27,362.409Z" transform="translate(-181.003 -128.353)" fill="#263238"/></g></g></g><g transform="translate(221.163 2283.16)"><g transform="translate(0 0)"><g transform="translate(112.268 211.287)"><path d="M269.716,380.374l3.739-12.561c.652-2.724,1.519-5.938,2.684-9.6,1.048-3.3,3.736-6.759,6.188-9.252,3.817-3.881,5.631-3.908,8.2-5.967.233-.15.493-.363.714-.483a4.046,4.046,0,0,0,1.247-1.079c2.211-2.391.088-6.092-4.4-5.74-3.38.265-8.892,1.232-17.854,10.478-.112.141-.229.258-.339.4-4.7,6.114-9.121-11.34-9.918-17.837a6.808,6.808,0,0,0-9.2-5.281l-21.832,10.212a10.19,10.19,0,0,0-6.373.216,6.489,6.489,0,0,0-4.159,7.7l8.855,35.347-26.008,86.535h56.056Z" transform="translate(-201.252 -323.009)" fill="#ffbe9d"/></g><g transform="translate(125.415 176.959)"><g transform="translate(0)"><path d="M312.074,302.739l-17.329,33.954-8.664-2.407L242.53,369.714a8.822,8.822,0,0,1-12.254-1.089l-16.581-19.269s33.435-14.4,39.618-26.325-.962-14.627-.962-14.627l15.736-17.882Z" transform="translate(-213.694 -290.522)" fill="#9866b7"/></g></g><path d="M296.327,242.87s-25.365-5.61-61.058-39.934-52.464-79.9-56.834-79.682-23.446-8.634-59.728,70.291S96.716,290.8,103.935,290.651s56.244-13.81,86.865-10.329,69.979,19.44,69.979,19.44Z" transform="translate(-95.007 -123.056)" fill="#9866b7"/><g transform="translate(160.319 104.941)"><path d="M341.61,280.261l-8.653,16.453-3.877,7.369a21.472,21.472,0,0,1-27.989,9.509L246.725,294.65l31.662-72.282L332.7,251.314A21.474,21.474,0,0,1,341.61,280.261Z" transform="translate(-246.725 -222.368)" fill="#9866b7"/></g><g transform="translate(160.319 104.941)" opacity="0.4"><path d="M341.61,280.261l-8.653,16.453-3.877,7.369a21.472,21.472,0,0,1-27.989,9.509L246.725,294.65l31.662-72.282L332.7,251.314A21.474,21.474,0,0,1,341.61,280.261Z" transform="translate(-246.725 -222.368)"/></g><g transform="translate(4.751 1.81)"><path d="M121.383,194.885c-19.309,42.754-27.347,80.852-17.953,85.1S136.093,253,155.4,210.25s27.347-80.852,17.953-85.095S140.694,152.131,121.383,194.885Z" transform="translate(-99.503 -124.769)" fill="#9866b7"/></g><g transform="translate(4.751 1.81)" opacity="0.5"><path d="M121.383,194.885c-19.309,42.754-27.347,80.852-17.953,85.1S136.093,253,155.4,210.25s27.347-80.852,17.953-85.095S140.694,152.131,121.383,194.885Z" transform="translate(-99.503 -124.769)"/></g><g transform="translate(245.134 164.641)"><path d="M341.726,300.831,326.991,296.2l9.119-17.338,11.051,6.87Z" transform="translate(-326.991 -278.865)" fill="#9866b7"/></g><g transform="translate(245.134 164.641)" opacity="0.6"><path d="M336.109,278.865,326.991,296.2l3.028.952,7.413-17.468Z" transform="translate(-326.991 -278.865)"/></g><g transform="translate(212.024 154.094)"><path d="M327.733,283.43c-.217.477-7.571-2.382-16.424-6.384s-15.864-7.635-15.647-8.11,7.567,2.383,16.425,6.386S327.946,282.955,327.733,283.43Z" transform="translate(-295.656 -268.884)" fill="#9866b7"/></g><g transform="translate(219.733 144.034)"><path d="M331.85,273.644c-.232.47-6.886-2.335-14.864-6.264s-14.26-7.5-14.027-7.965,6.882,2.337,14.863,6.267S332.081,273.175,331.85,273.644Z" transform="translate(-302.952 -259.364)" fill="#9866b7"/></g><g transform="translate(209.142 166.42)"><path d="M322.171,293.6c-.078.252-1.828-.153-4.621-1.015-1.395-.431-3.047-.976-4.877-1.609-1.816-.658-3.7-1.612-5.724-2.528-8.061-3.743-14.217-7.406-14.015-7.841.238-.512,6.818,2.415,14.8,6.12,2,.908,3.862,1.907,5.614,2.64,1.758.711,3.336,1.375,4.653,1.959C320.642,292.5,322.247,293.35,322.171,293.6Z" transform="translate(-292.929 -280.549)" fill="#9866b7"/></g><g transform="translate(28.415 59.287)"><path d="M159.481,182.294s-22.046-13.67-34.108,16.114,11.133,34.683,11.133,34.683A198.446,198.446,0,0,0,159.481,182.294Z" transform="translate(-121.897 -179.163)" fill="#9866b7"/></g><g transform="translate(26.281 26.921)" opacity="0.5"><path d="M183.041,148.533c.129.022-.184,2.045-.863,5.69-.7,3.64-1.683,8.924-3.1,15.41-.932,3.2-1.951,6.684-3.043,10.423q-.829,2.812-1.713,5.805-.444,1.5-.9,3.035c-.33,1.018-.759,2.016-1.142,3.044-1.588,4.1-3.254,8.4-4.98,12.85q-.65,1.672-1.312,3.371c-.429,1.138-1.036,2.208-1.55,3.329q-1.617,3.333-3.276,6.756T157.878,225c-.562,1.1-1.031,2.237-1.659,3.279L154.38,231.4l-7.025,11.862c-.573.937-1.09,1.891-1.688,2.779q-.927,1.312-1.832,2.589-1.809,2.547-3.51,4.944c-2.268,3.172-4.383,6.134-6.32,8.844-4.215,5.108-7.751,9.137-10.179,11.934s-3.842,4.284-3.942,4.2,1.106-1.741,3.374-4.669l9.712-12.314,6.083-8.914q1.645-2.4,3.4-4.952l1.781-2.586c.58-.889,1.086-1.845,1.643-2.782l6.883-11.838,1.811-3.1c.62-1.036,1.081-2.168,1.638-3.261q1.6-3.311,3.254-6.711l3.262-6.7c.515-1.111,1.121-2.174,1.55-3.3s.882-2.236,1.319-3.34c1.75-4.411,3.439-8.667,5.049-12.725.392-1.018.831-2,1.171-3.009q.472-1.523.933-3,.922-2.959,1.792-5.742c1.166-3.7,2.252-7.144,3.249-10.3l3.668-15.214C182.355,150.489,182.914,148.511,183.041,148.533Z" transform="translate(-119.877 -148.533)"/></g><g transform="translate(130.698 203.229)" opacity="0.4"><path d="M218.693,345.581c2.011,3.651,4.063,7.359,7.04,10.276s7.063,4.984,11.209,4.567,8.076-3.862,8.121-8.03c1.991,1.5,5.041.686,6.69-1.18s2.184-4.458,2.382-6.939c2.7,1.595,6.463.33,8.266-2.238s1.916-6.027,1.042-9.042a31.661,31.661,0,0,0-4.34-8.312c2.081.168,4.286.313,6.148-.631s3.12-3.407,2.033-5.19a5.172,5.172,0,0,0-3.031-1.933c-3.262-1.021-5.551-1.839-8.946-1.445-.789.008,1.359,8.956-19.954,21.2C222.771,343.906,218.693,345.581,218.693,345.581Z" transform="translate(-218.693 -315.383)"/></g><g transform="translate(157.042 245.852)"><path d="M265.274,356.224c-.014.1-1.433-.174-3.732-.112a21.1,21.1,0,0,0-15.664,7.51c-1.488,1.754-2.164,3.031-2.25,2.98a3.263,3.263,0,0,1,.417-.925,16.879,16.879,0,0,1,1.531-2.3,19.965,19.965,0,0,1,15.962-7.652,17.013,17.013,0,0,1,2.754.246A3.253,3.253,0,0,1,265.274,356.224Z" transform="translate(-243.624 -355.72)" fill="#eb996e"/></g><path d="M220.008,339.6c3.433,3.3,5.781,6.939,9.382,10.26,1.636,1.509,4.178,4.368,6.372,4.749s3.6.089,4.467-1.961c.7-1.66-.56-3.929-1.432-5.3-2.294-3.6-4.488-6.412-6.206-9.21-.805-1.31.237-1.581.617-.974,1.653,1.713,4.117,3.2,5.6,5.063,2.027,2.554,2.394,5.935,7.7,4.866a4.78,4.78,0,0,0,1.969-.818c2-1.528,2.079-4.184,1.239-6.313a17.279,17.279,0,0,0-2.952-4.467c2.257,2.549,4.721,5.233,8.311,5.522a4.944,4.944,0,0,0,5.026-2.72c1.062-2.411-.461-4.742-1.989-6.628a69.026,69.026,0,0,0-9.012-9.207,6.857,6.857,0,0,0-4.381-1.624c-1.856-.013-4.179.337-5.327,1.952a7.206,7.206,0,0,0-1.441,5.523s-4.656-2.361-8.4.108a11.864,11.864,0,0,0-4.666,6.712Z" transform="translate(-87.921 -111.845)" fill="#ffbe9d"/><path d="M243.524,320.41a5.577,5.577,0,0,1-.658-6.3c.791-1.551,1.791-3.059,2.8-3.4,4.429-1.494,23.778,1.853,23.6,6.149-.181,4.41-1.589,6.35-12.091,4.833-1.847-.266-4.746-.631-4.746-.631l-2.534,3.8Z" transform="translate(-86.663 -112.439)" fill="#ffbe9d"/></g><g transform="translate(149.663 216.275)"><path d="M247.3,337.406a25.4,25.4,0,0,0-10.662-9.667,6.183,6.183,0,0,1,2.048.722,18.376,18.376,0,0,1,7.7,6.976A6.184,6.184,0,0,1,247.3,337.406Z" transform="translate(-236.641 -327.729)" fill="#eb996e"/></g><g transform="translate(157.202 208.981)"><path d="M250.156,324.6c-.1.09-1.374-.952-3.116-2.018a21.907,21.907,0,0,0-2.271-1.252c-.6-.281-.994-.358-.993-.441s.455-.127,1.128.076a10.4,10.4,0,0,1,2.426,1.149C249.115,323.207,250.285,324.485,250.156,324.6Z" transform="translate(-243.776 -320.826)" fill="#eb996e"/></g><g transform="translate(160.011 206.214)"><path d="M253.254,320.758a8.36,8.36,0,0,1-3.727-.419,6.811,6.811,0,0,1-2.385-1.25c-.532-.452-.752-.829-.7-.875a15.6,15.6,0,0,0,3.248,1.6C251.609,320.369,253.282,320.576,253.254,320.758Z" transform="translate(-246.434 -318.208)" fill="#eb996e"/></g><g transform="translate(132.651 221.629)"><path d="M235.916,342.435a13.472,13.472,0,0,1-1.764-2.293,20.805,20.805,0,0,0-4.517-5.133,9.1,9.1,0,0,0-6.4-1.695,11.633,11.633,0,0,0-2.695.857c-.019-.024.184-.221.617-.488a6.022,6.022,0,0,1,2.015-.752,8.989,8.989,0,0,1,6.781,1.632,18.382,18.382,0,0,1,4.521,5.366A17.189,17.189,0,0,1,235.916,342.435Z" transform="translate(-220.542 -332.796)" fill="#eb996e"/></g><g transform="translate(146.95 274.021)"><path d="M249.952,382.42a58.162,58.162,0,0,1-7.909,1.137,58.2,58.2,0,0,1-7.968.59,58.114,58.114,0,0,1,7.909-1.137A58.181,58.181,0,0,1,249.952,382.42Z" transform="translate(-234.074 -382.378)" fill="#eb996e"/></g></g><g transform="translate(172.243 2205.798)"><path d="M406.813,49.844l1.193,2.181,2.181,1.193-2.181,1.193-1.193,2.181L405.62,54.41l-2.181-1.193,2.181-1.193Z" transform="translate(-28.603 -49.844)" fill="#9866b7"/><path d="M430.417,101.014l1.193,2.181,2.181,1.193-2.181,1.193-1.193,2.181-1.193-2.181-2.181-1.193,2.181-1.193Z" transform="translate(-27.264 -46.943)" fill="#9866b7"/><path d="M52.084,237.533l1.193,2.181,2.181,1.193L53.277,242.1l-1.193,2.181L50.892,242.1l-2.181-1.193,2.181-1.193Z" transform="translate(-48.711 -39.204)" fill="#2f2f2f"/><path d="M376.08,62.562l2.755,5.037,5.037,2.755-5.037,2.755-2.755,5.037-2.755-5.037-5.037-2.755,5.037-2.755Z" transform="translate(-30.595 -49.123)" fill="#9866b7"/><path d="M73.478,205.1l2.749,5.025,5.025,2.749-5.025,2.749-2.749,5.026L70.73,215.62,65.7,212.871l5.026-2.749Z" transform="translate(-47.747 -41.043)" fill="#2f2f2f"/><path d="M437.075,318.565l2.749,5.025,5.026,2.749-5.026,2.749-2.749,5.026-2.749-5.026L429.3,326.34l5.026-2.749Z" transform="translate(-27.137 -34.611)" fill="#2f2f2f"/></g></g></svg>