<svg xmlns="http://www.w3.org/2000/svg" width="41.378" height="36.187" viewBox="0 0 41.378 36.187"><g transform="translate(656.174 -252.314)"><g transform="translate(-656.174 252.314)"><path d="M-656.174,299.735c.049-.219.106-.437.147-.658a7.682,7.682,0,0,1,6.428-6.138c.186-.026.37-.062.656-.111a5.339,5.339,0,0,1-3.593-1.913,5.126,5.126,0,0,1-1.193-3.789,5.285,5.285,0,0,1,4.871-4.829,5.338,5.338,0,0,1,5.536,4.063,5.43,5.43,0,0,1-4.354,6.485,8.8,8.8,0,0,1,4.532,1.207c2.089,1.053,4.188,2.087,6.283,3.129.094.047.19.089.315.148.1-.191.193-.366.281-.543.752-1.5,1.5-3.008,2.258-4.508a1.184,1.184,0,0,1,1.281-.712,1.084,1.084,0,0,1,.981.88,1.98,1.98,0,0,1-.173,1.037c-.889,1.84-1.822,3.658-2.721,5.493a1.223,1.223,0,0,0-.1.684,3.14,3.14,0,0,1-1.063,2.978,3,3,0,0,1-3.226.655c-1.136-.441-2.211-1.042-3.312-1.574-.312-.151-.622-.308-1-.494-.011.219-.026.383-.026.548q0,6.362-.007,12.724a2.306,2.306,0,0,1-.143.864,1.116,1.116,0,0,1-1.1.678c-2.572.008-5.143.014-7.715,0a1.212,1.212,0,0,1-1.25-1.338q-.009-3.151,0-6.3c0-.214-.019-.365-.262-.468a3.715,3.715,0,0,1-2.238-2.678c-.028-.115-.062-.228-.094-.342Z" transform="translate(656.174 -279.858)" fill="#fff"/><path d="M-447.884,274.211c.069.2.117.349.172.5q2.19,5.961,4.372,11.925a1.965,1.965,0,0,1,.112.9,1.122,1.122,0,0,1-1.018.944,1.166,1.166,0,0,1-1.179-.611,5.789,5.789,0,0,1-.311-.742q-2.3-6.263-4.592-12.531c-.128-.354-.316-.374-.62-.391-.327-.018-.431.132-.529.4q-2.326,6.426-4.678,12.843a2.1,2.1,0,0,1-.583.837,1.112,1.112,0,0,1-1.321-.015,1.145,1.145,0,0,1-.457-1.315c.43-1.259.89-2.507,1.344-3.758q1.548-4.264,3.1-8.526c.05-.137.09-.277.147-.456h-1.633c.039-.711.071-1.39.119-2.068a.975.975,0,0,1,.135-.333c.8-1.613,1.615-3.221,2.411-4.838a3.6,3.6,0,0,0-.317-3.989,3.612,3.612,0,0,0-5.839.187c-.584.947-1.039,1.973-1.553,2.963-.067.129-.135.258-.214.408-.934-.464-1.851-.913-2.757-1.382a.453.453,0,0,1-.187-.342c-.009-2.908-.036-5.817,0-8.725a3.772,3.772,0,0,1,3.984-3.78q8.887-.007,17.774,0a4.338,4.338,0,0,1,1.155.142,3.7,3.7,0,0,1,2.847,3.664q.039,7.129,0,14.259a3.778,3.778,0,0,1-3.908,3.821c-1.831.015-3.663,0-5.494,0Zm-3.03-14.285h1.131c1.8,0,3.607.006,5.41-.008a1.182,1.182,0,0,0,1.194-1.133,1.211,1.211,0,0,0-1.065-1.261,3.362,3.362,0,0,0-.483-.021h-11.224c-.458,0-.915-.008-1.373,0a1.2,1.2,0,0,0-1.168.777,1.2,1.2,0,0,0,1.2,1.639C-455.166,259.932-453.04,259.926-450.913,259.926Zm3.775,9.1c.833,0,1.666,0,2.5,0a2.426,2.426,0,0,0,.558-.058,1.19,1.19,0,0,0,.9-1.267,1.16,1.16,0,0,0-1.109-1.083q-2.821-.025-5.643,0a1.13,1.13,0,0,0-1.071.979,1.2,1.2,0,0,0,1.248,1.426C-448.886,269.04-448.012,269.026-447.138,269.027Zm.025-6.958v-.015c-.875,0-1.75-.012-2.625,0a1.206,1.206,0,0,0-1.294,1.2,1.21,1.21,0,0,0,1.288,1.21c.525.015,1.05,0,1.575,0,1.2,0,2.4.023,3.594-.015a1.888,1.888,0,0,0,1-.329,1.042,1.042,0,0,0,.334-1.24,1.091,1.091,0,0,0-1.044-.815C-445.229,262.051-446.171,262.069-447.114,262.069Z" transform="translate(479.351 -252.314)" fill="#fff"/></g></g></svg>