<svg xmlns="http://www.w3.org/2000/svg" width="35.725" height="42.448" viewBox="0 0 35.725 42.448"><g transform="translate(200.083 31.431)"><g transform="translate(-200.083 -31.431)"><path d="M-94.706-31.431a18.306,18.306,0,0,1,1.829.5,7.021,7.021,0,0,1,4.455,7.226A7.041,7.041,0,0,1-94.545-17.4a7.055,7.055,0,0,1-7.887-5.9,7.042,7.042,0,0,1,6-8.064,1.515,1.515,0,0,0,.233-.072Z" transform="translate(113.312 31.431)" fill="#fff"/><path d="M-156.88,165.283l-4.7-1.755-7.493-2.8a1.359,1.359,0,0,1-1.086-1.582c0-.756,0-1.513,0-2.285.326-.02.617-.015.9-.058a3.583,3.583,0,0,0,3.2-3.215,22.372,22.372,0,0,0,0-4.262,3.628,3.628,0,0,0-3.719-3.267c-.109,0-.217,0-.359,0,0-1.016-.059-2.01.018-2.993a1.2,1.2,0,0,1,1.71-.912c1.777.654,3.548,1.322,5.322,1.986,1.968.736,3.934,1.476,5.9,2.206.219.081.329.167.328.433q-.014,9.142-.008,18.285C-156.864,165.113-156.872,165.168-156.88,165.283Z" transform="translate(173.475 -122.835)" fill="#fff"/><path d="M-14.41,156.9c0,.941.024,1.824-.009,2.706a1.242,1.242,0,0,1-.942,1.137q-2.779,1.029-5.551,2.076Q-24.056,164-27.2,165.174c-.152.057-.309.1-.5.163v-.363q0-9.039-.007-18.078a.449.449,0,0,1,.351-.5q5.519-2.049,11.031-4.119c1.155-.432,1.919.1,1.92,1.329,0,.825,0,1.651,0,2.454a13.117,13.117,0,0,0-1.384.207,3.672,3.672,0,0,0-2.766,3.515c-.017,1.105-.01,2.211,0,3.317a3.735,3.735,0,0,0,3.776,3.8C-14.674,156.9-14.565,156.9-14.41,156.9Z" transform="translate(46.804 -122.899)" fill="#fff"/><path d="M-107.326,107.636l-1.007.378c-2.767,1.037-5.532,2.078-8.3,3.1a1.045,1.045,0,0,1-.665.028c-3.058-1.126-6.109-2.271-9.16-3.413-.064-.024-.124-.057-.3-.137.708-.511,1.334-1.024,2.019-1.439a24.3,24.3,0,0,1,2.247-1.146.661.661,0,0,1,.526.025,9.455,9.455,0,0,0,9.863.011.592.592,0,0,1,.413-.1A14.047,14.047,0,0,1-107.326,107.636Z" transform="translate(134.882 -89.826)" fill="#fff"/><path d="M-195.1,203.5c0,.525.006,1.05,0,1.575a1.25,1.25,0,0,1-1.3,1.312,4.278,4.278,0,0,1-2.033-.285,2.9,2.9,0,0,1-1.576-3.245,2.9,2.9,0,0,1,2.765-2.27q.436-.011.872,0a1.243,1.243,0,0,1,1.27,1.256C-195.1,202.4-195.105,202.952-195.1,203.5Z" transform="translate(200.083 -174.881)" fill="#fff"/><path d="M77.334,203.506c0-.524-.007-1.048,0-1.572a1.235,1.235,0,0,1,1.276-1.284,7.353,7.353,0,0,1,1.4.075,2.871,2.871,0,0,1,2.3,3.091,2.916,2.916,0,0,1-2.785,2.63c-.317.011-.636.013-.953,0a1.241,1.241,0,0,1-1.234-1.245C77.324,204.637,77.334,204.071,77.334,203.506Z" transform="translate(-46.597 -174.937)" fill="#fff"/></g></g></svg>