<svg xmlns="http://www.w3.org/2000/svg" width="36.667" height="41.477" viewBox="0 0 36.667 41.477"><g transform="translate(44.009 -372.995)"><g transform="translate(-44.009 372.995)"><path d="M73.919,372.995a5.366,5.366,0,0,1,.638.649c.458.65.892,1.319,1.316,1.992a1.312,1.312,0,0,0,.826.595c.821.216,1.638.446,2.454.681a.89.89,0,0,1,.485,1.57c-.529.648-1.088,1.274-1.583,1.948a1.652,1.652,0,0,0-.306.916c0,.849.085,1.7.125,2.547.045.932-.507,1.33-1.366.99-.764-.3-1.529-.6-2.288-.92a1.33,1.33,0,0,0-1.093,0c-.744.315-1.5.6-2.253.9-.911.361-1.448-.027-1.4-1.017.041-.822.083-1.645.143-2.466a1.309,1.309,0,0,0-.334-1c-.543-.636-1.071-1.286-1.6-1.936a.869.869,0,0,1,.474-1.517c.828-.24,1.657-.478,2.491-.7a1.356,1.356,0,0,0,.848-.63c.415-.663.843-1.319,1.294-1.958a5.411,5.411,0,0,1,.638-.649Z" transform="translate(-55.342 -372.995)" fill="#fff"/><path d="M76.794,550.567q0-5.306,0-10.611a1.339,1.339,0,0,1,1.534-1.536H85.82a1.322,1.322,0,0,1,1.488,1.5q0,10.692,0,21.384c0,.57-.119.688-.685.688H77.47c-.568,0-.676-.111-.676-.694Q76.793,555.933,76.794,550.567Z" transform="translate(-63.72 -520.517)" fill="#fff"/><path d="M197.851,618.4q0-3.38,0-6.761c0-1.025.48-1.5,1.515-1.5q3.745,0,7.49,0a1.3,1.3,0,0,1,1.485,1.49q0,6.822,0,13.644c0,.583-.1.677-.686.677h-9.109c-.611,0-.694-.085-.695-.708Q197.85,621.822,197.851,618.4Z" transform="translate(-171.676 -584.475)" fill="#fff"/><path d="M-38.763,672.818q-2.307,0-4.614,0c-.51,0-.629-.112-.629-.611q0-4.067,0-8.135a1.282,1.282,0,0,1,1.4-1.376q3.845-.005,7.69,0a1.283,1.283,0,0,1,1.4,1.378q.008,4.068,0,8.135c0,.495-.121.608-.631.608Q-36.457,672.82-38.763,672.818Z" transform="translate(44.009 -631.342)" fill="#fff"/><path d="M-11.1,452.275a1.3,1.3,0,0,1,1.359.942,1.235,1.235,0,0,1-.6,1.45c-1.072.535-2.155,1.051-3.25,1.537a1.251,1.251,0,0,1-1.635-.64,1.248,1.248,0,0,1,.547-1.667c1.071-.536,2.163-1.032,3.249-1.538A1.359,1.359,0,0,1-11.1,452.275Z" transform="translate(18.454 -443.695)" fill="#fff"/><path d="M-10.989,383.6a4.3,4.3,0,0,1-.611-.182q-1.467-.677-2.922-1.379a1.292,1.292,0,0,1-.721-1.764,1.3,1.3,0,0,1,1.825-.559c.988.461,1.977.921,2.957,1.4a1.284,1.284,0,0,1,.729,1.434A1.355,1.355,0,0,1-10.989,383.6Z" transform="translate(18.473 -378.841)" fill="#fff"/><path d="M215.179,383.364a1.309,1.309,0,0,1-1.349-.953,1.225,1.225,0,0,1,.58-1.422c1.069-.539,2.149-1.057,3.244-1.542a1.275,1.275,0,0,1,1.1,2.289c-1.066.545-2.157,1.04-3.241,1.547A1.33,1.33,0,0,1,215.179,383.364Z" transform="translate(-185.884 -378.66)" fill="#fff"/><path d="M219.357,455.039a1.258,1.258,0,0,1-1.735,1.209c-1.088-.466-2.154-.987-3.209-1.523a1.279,1.279,0,0,1,1.092-2.3c1.082.481,2.148,1,3.209,1.524A1.193,1.193,0,0,1,219.357,455.039Z" transform="translate(-185.864 -443.736)" fill="#fff"/></g></g></svg>