<svg xmlns="http://www.w3.org/2000/svg" width="37.388" height="34.868" viewBox="0 0 37.388 34.868"><g transform="translate(991.509 132.348)"><g transform="translate(-991.509 -132.348)"><path d="M-972.8-132.348h13.474a4.992,4.992,0,0,1,5.209,5.3c-.07,5.588-.11,11.175,0,16.762a5,5,0,0,1-5.21,5.351h-26.986a5,5,0,0,1-5.188-5.39c.158-5.509.257-11.021,0-16.526a5.014,5.014,0,0,1,5.184-5.5Zm-5.75,6.248a7.488,7.488,0,0,0-7.953,7.948,7.5,7.5,0,0,0,6.967,6.975,7.489,7.489,0,0,0,7.957-7.951A7.5,7.5,0,0,0-978.555-126.1Zm10.719,3.7h7.476a1.223,1.223,0,0,0,1.223-1.223h0a1.223,1.223,0,0,0-1.223-1.222h-7.476a1.223,1.223,0,0,0-1.223,1.222h0A1.223,1.223,0,0,0-967.836-122.4Zm7.488,2.546h-7.474a1.223,1.223,0,0,0-1.223,1.223h0a1.223,1.223,0,0,0,1.223,1.223h7.474a1.223,1.223,0,0,0,1.223-1.223h0A1.223,1.223,0,0,0-960.348-119.859Zm-7.488,7.424h7.476a1.223,1.223,0,0,0,1.223-1.223h0a1.223,1.223,0,0,0-1.223-1.223h-7.476a1.223,1.223,0,0,0-1.223,1.223h0A1.223,1.223,0,0,0-967.836-112.435Z" transform="translate(991.509 132.348)" fill="#fff"/><path d="M-895.559,159.073h0a1.23,1.23,0,0,1,1.23-1.23h2.82a.91.91,0,0,0,.91-.91V156.6a1.23,1.23,0,0,1,1.23-1.23h5.019a1.23,1.23,0,0,1,1.229,1.23v.321a.91.91,0,0,0,.91.91h2.838a1.23,1.23,0,0,1,1.23,1.23v.008a1.23,1.23,0,0,1-1.23,1.23h-14.956A1.23,1.23,0,0,1-895.559,159.073Z" transform="translate(905.543 -125.435)" fill="#fff"/><path d="M-914.646-48.506a5,5,0,0,1,4.967,4.992,5,5,0,0,1-5.022,4.977,5,5,0,0,1-4.947-5.013A5,5,0,0,1-914.646-48.506Zm-.4,7.567,2.693-1.8a.946.946,0,0,0,0-1.575l-2.692-1.794a.945.945,0,0,0-1.469.826q.068,1.758,0,3.513A.945.945,0,0,0-915.043-40.939Z" transform="translate(927.126 57.231)" fill="#fff"/></g></g></svg>