<svg xmlns="http://www.w3.org/2000/svg" xmlns:xlink="http://www.w3.org/1999/xlink" width="424.427" height="433.939" viewBox="0 0 424.427 433.939"><defs><linearGradient id="a" x1="0.5" x2="0.5" y2="1" gradientUnits="objectBoundingBox"><stop offset="0" stop-color="#e0b154"/><stop offset="0.204" stop-color="#c18829"/><stop offset="0.495" stop-color="#ebc55c"/><stop offset="0.73" stop-color="#ddae45"/><stop offset="1" stop-color="#be8122"/></linearGradient></defs><g transform="translate(-23.236 -18.688)"><g transform="translate(35.006 18.688)"><g transform="translate(75.085 12.286)"><path d="M179.831,59.038A32.07,32.07,0,1,1,143.35,32.18,32.035,32.035,0,0,1,179.831,59.038Z" transform="translate(-116.046 -31.817)" fill="#f5f5f5"/><g transform="translate(7.631 7.614)"><path d="M172.808,60.7a24.44,24.44,0,1,1-27.8-20.468A24.412,24.412,0,0,1,172.808,60.7Z" transform="translate(-124.2 -39.953)" fill="#ebebeb"/></g><g transform="translate(7.183 6.687)"><path d="M172.658,59.878c-.146.027-.409-1.018-1.077-2.81a25.954,25.954,0,0,0-3.9-6.987,24.979,24.979,0,0,0-3.861-3.909,24.475,24.475,0,0,0-5.357-3.273,23.98,23.98,0,0,0-6.655-1.877,23.606,23.606,0,0,0-3.656-.194,23.863,23.863,0,0,0-7.4,1.352,23.891,23.891,0,0,0-3.352,1.476,24,24,0,0,0-5.558,4.113,24.493,24.493,0,0,0-3.85,4.959,25.01,25.01,0,0,0-2.226,5.024,25.94,25.94,0,0,0-1.174,7.914c.01,1.912.136,2.983-.011,3.008-.108.022-.477-1.007-.717-2.965a22.617,22.617,0,0,1,.629-8.322,24.5,24.5,0,0,1,6.12-10.826,23.663,23.663,0,0,1,2.721-2.428,23.948,23.948,0,0,1,3.191-2.084,24.867,24.867,0,0,1,3.606-1.62,25.015,25.015,0,0,1,7.98-1.46,24.957,24.957,0,0,1,3.945.239,24.929,24.929,0,0,1,7.127,2.127,24.48,24.48,0,0,1,9.559,7.956,22.627,22.627,0,0,1,3.538,7.56C172.747,58.766,172.765,59.859,172.658,59.878Z" transform="translate(-123.721 -38.962)" fill="#e0e0e0"/></g><g transform="translate(21.193 14.954)"><path d="M154.478,78.845l.7,4.2-3.75.62-.677-4.087c-3.75.389-7.5-.182-9.833-1.454l1.3-4.917a15.359,15.359,0,0,0,7.716,1.459L148.9,68.4c-4.33-.322-9.21-.94-10.1-6.3-.658-3.975,1.665-7.865,7.477-9.52l-.689-4.164,3.75-.62.677,4.089a17.174,17.174,0,0,1,7.99,1.027l-1.111,4.923a15.57,15.57,0,0,0-6.06-1l1.056,6.376c4.324.284,9.128.916,10,6.2C162.539,73.312,160.247,77.159,154.478,78.845Zm-6.493-15.954-.882-5.324c-1.912.779-2.519,2-2.314,3.235C145.005,62.113,146.248,62.641,147.985,62.891Zm7.946,7.971c-.217-1.313-1.422-1.845-3.128-2.141l.856,5.175C155.466,73.173,156.129,72.061,155.931,70.861Z" transform="translate(-138.692 -47.796)" fill="#e0e0e0"/></g></g><g transform="translate(291.988 196.767)"><path d="M386.964,245.653a19.681,19.681,0,1,1-22.387-16.483A19.658,19.658,0,0,1,386.964,245.653Z" transform="translate(-347.821 -228.947)" fill="#f5f5f5"/><g transform="translate(4.683 4.673)"><path d="M382.655,246.671a15,15,0,1,1-17.06-12.561A14.98,14.98,0,0,1,382.655,246.671Z" transform="translate(-352.825 -233.94)" fill="#ebebeb"/></g><g transform="translate(4.408 4.104)"><path d="M382.563,246.168a8.807,8.807,0,0,1-.661-1.725,15.908,15.908,0,0,0-2.4-4.287,15.314,15.314,0,0,0-2.37-2.4,15.032,15.032,0,0,0-3.288-2.008,14.7,14.7,0,0,0-4.083-1.152,14.465,14.465,0,0,0-2.244-.119,14.63,14.63,0,0,0-4.54.83,14.589,14.589,0,0,0-2.057.906,14.684,14.684,0,0,0-3.411,2.524,15.01,15.01,0,0,0-2.363,3.042,15.29,15.29,0,0,0-1.366,3.084,15.89,15.89,0,0,0-.721,4.857,8.774,8.774,0,0,1-.007,1.845,4.405,4.405,0,0,1-.44-1.819,13.883,13.883,0,0,1,.386-5.108A15.044,15.044,0,0,1,356.758,238a15.239,15.239,0,0,1,3.629-2.769,15.313,15.313,0,0,1,2.212-.995,15.43,15.43,0,0,1,4.9-.9,15.331,15.331,0,0,1,2.421.147,15.269,15.269,0,0,1,4.374,1.305,15.023,15.023,0,0,1,5.866,4.882,13.889,13.889,0,0,1,2.171,4.639A4.4,4.4,0,0,1,382.563,246.168Z" transform="translate(-352.531 -233.332)" fill="#e0e0e0"/></g><g transform="translate(13.005 9.177)"><path d="M371.406,257.808l.428,2.577-2.3.38-.414-2.508a11.043,11.043,0,0,1-6.034-.892l.8-3.017a9.431,9.431,0,0,0,4.735.895l-.637-3.843c-2.657-.2-5.651-.577-6.2-3.868-.4-2.44,1.022-4.827,4.589-5.842l-.423-2.556,2.3-.381.416,2.509a10.544,10.544,0,0,1,4.9.631l-.682,3.021a9.553,9.553,0,0,0-3.719-.614l.648,3.913c2.653.175,5.6.562,6.139,3.806C376.353,254.412,374.947,256.772,371.406,257.808Zm-3.984-9.792-.542-3.267c-1.174.478-1.546,1.226-1.421,1.985C365.592,247.54,366.355,247.863,367.422,248.017Zm4.876,4.892c-.133-.806-.873-1.132-1.919-1.314l.525,3.175C372.012,254.327,372.419,253.645,372.3,252.908Z" transform="translate(-361.718 -238.753)" fill="#e0e0e0"/></g></g><g transform="translate(0 210.02)"><path d="M88.917,265.771A26.7,26.7,0,1,1,58.544,243.41,26.67,26.67,0,0,1,88.917,265.771Z" transform="translate(-35.813 -243.108)" fill="#f5f5f5"/><g transform="translate(6.353 6.34)"><path d="M83.07,267.153a20.347,20.347,0,1,1-23.145-17.041A20.324,20.324,0,0,1,83.07,267.153Z" transform="translate(-42.601 -249.882)" fill="#ebebeb"/></g><g transform="translate(5.98 5.567)"><path d="M82.945,266.47a11.932,11.932,0,0,1-.9-2.34,21.6,21.6,0,0,0-3.251-5.816,20.77,20.77,0,0,0-3.215-3.255,20.367,20.367,0,0,0-4.46-2.725,19.995,19.995,0,0,0-5.54-1.563,19.838,19.838,0,0,0-3.044-.162,19.863,19.863,0,0,0-6.159,1.127,19.752,19.752,0,0,0-2.791,1.229,19.041,19.041,0,0,0-2.486,1.58,18.851,18.851,0,0,0-2.142,1.844,20.38,20.38,0,0,0-3.206,4.128A20.913,20.913,0,0,0,43.9,264.7a21.618,21.618,0,0,0-.977,6.589,12.013,12.013,0,0,1-.009,2.5,5.956,5.956,0,0,1-.6-2.469,18.8,18.8,0,0,1,.523-6.929,20.389,20.389,0,0,1,5.1-9.013,19.688,19.688,0,0,1,2.266-2.022,19.964,19.964,0,0,1,2.657-1.735,20.728,20.728,0,0,1,3-1.349,20.842,20.842,0,0,1,6.643-1.216,20.784,20.784,0,0,1,3.284.2,20.752,20.752,0,0,1,5.934,1.771,20.383,20.383,0,0,1,7.958,6.624,18.833,18.833,0,0,1,2.946,6.294A5.972,5.972,0,0,1,82.945,266.47Z" transform="translate(-42.202 -249.056)" fill="#e0e0e0"/></g><g transform="translate(17.644 12.45)"><path d="M67.81,282.262l.579,3.5-3.123.516-.562-3.4a15,15,0,0,1-8.187-1.211l1.086-4.093a12.786,12.786,0,0,0,6.424,1.215l-.864-5.215c-3.6-.269-7.666-.783-8.406-5.248-.547-3.309,1.386-6.548,6.225-7.926l-.574-3.466,3.123-.518.563,3.4a14.3,14.3,0,0,1,6.652.854l-.925,4.1a12.981,12.981,0,0,0-5.046-.834l.879,5.309c3.6.237,7.6.763,8.329,5.164C74.521,277.655,72.613,280.858,67.81,282.262ZM62.4,268.979l-.735-4.433c-1.592.649-2.1,1.663-1.928,2.693C59.923,268.332,60.958,268.771,62.4,268.979Zm6.616,6.636c-.182-1.093-1.185-1.536-2.605-1.784l.713,4.31C68.632,277.539,69.185,276.614,69.02,275.615Z" transform="translate(-54.667 -256.411)" fill="#e0e0e0"/></g></g><g transform="translate(199.217)"><path d="M417.318,185.687,254.273,134.936a7.942,7.942,0,0,1-5.223-9.945L280.4,24.272a7.942,7.942,0,0,1,9.945-5.223L453.391,69.8a7.943,7.943,0,0,1,5.223,9.944L427.263,180.464A7.943,7.943,0,0,1,417.318,185.687Z" transform="translate(-248.689 -18.688)" fill="#e0e0e0"/><g transform="translate(22.682 76.018)"><path d="M277.023,100.96l-3.08,9.894-1.017-.316,2.8-8.989-2.331-.725.282-.9Z" transform="translate(-272.926 -99.918)" fill="#fff"/><g transform="translate(4.252 2.681)"><path d="M284.69,113.3l-.281.9-6.939-2.16.225-.721,5.366-2.749c1.459-.753,1.878-1.352,2.09-2.031.357-1.145-.229-2.1-1.741-2.573a3.524,3.524,0,0,0-3.044.262l-.526-.847a4.657,4.657,0,0,1,3.945-.322c2.007.624,2.963,2.038,2.447,3.692-.294.947-.855,1.7-2.588,2.589l-4.394,2.259Z" transform="translate(-277.47 -102.783)" fill="#fff"/></g><g transform="translate(13.836 6.413)"><path d="M296.29,115.1l-1.978-.616-.81,2.6-1.017-.316.809-2.6-5.582-1.738.229-.735,7.285-4.925,1.131.351-7.049,4.813,4.3,1.338.712-2.29.988.309-.712,2.288,1.979.617Z" transform="translate(-287.711 -106.771)" fill="#fff"/></g><g transform="translate(29 11.132)"><path d="M312.491,120.144l-1.977-.616-.81,2.6-1.018-.316.81-2.6-5.582-1.738.228-.735,7.285-4.926,1.13.352-7.048,4.813,4.3,1.337.712-2.289.99.308-.713,2.289,1.978.616Z" transform="translate(-303.914 -111.813)" fill="#fff"/></g><g transform="translate(38.646 13.014)"><path d="M321.9,122.654c-.523,1.682-2.107,2.631-4.522,1.879a5.345,5.345,0,0,1-3.152-2.377l.746-.651a4.487,4.487,0,0,0,2.681,2.091c1.683.523,2.828-.02,3.2-1.221.395-1.271-.151-2.309-2.666-3.092l-2.106-.655,2.053-4.8,5.413,1.684-.282.9-4.523-1.408-1.319,3.046,1.273.4C321.676,119.376,322.441,120.9,321.9,122.654Z" transform="translate(-314.222 -113.824)" fill="#fff"/></g><g transform="translate(48.883 16.656)"><path d="M332.389,125.9a3.228,3.228,0,0,1-4.324,1.987c-2.628-.818-3.489-3.085-2.517-6.209,1.048-3.362,3.43-4.544,6.116-3.708a4.742,4.742,0,0,1,2.179,1.267l-.665.692a3.639,3.639,0,0,0-1.775-1.063c-2.134-.664-3.932.279-4.768,2.965-.071.226-.145.513-.208.818a3.309,3.309,0,0,1,3.551-.753C331.942,122.51,332.953,124.1,332.389,125.9Zm-1.013-.284c.406-1.3-.3-2.433-1.823-2.908a2.4,2.4,0,0,0-3.216,1.37c-.339,1.088.245,2.4,1.955,2.934A2.265,2.265,0,0,0,331.376,125.62Z" transform="translate(-325.16 -117.716)" fill="#fff"/></g><g transform="translate(61.947 20.02)"><path d="M346.784,130.462c-.514,1.654-2.11,2.552-4.5,1.809a5.387,5.387,0,0,1-3.166-2.382l.745-.65a4.538,4.538,0,0,0,2.711,2.1c1.639.51,2.781.029,3.163-1.2.37-1.188-.221-2.224-2.059-2.8l-.706-.22.232-.75,3.812-2.58-5.06-1.575.282-.9,6.36,1.979-.225.722-3.895,2.647C346.566,127.432,347.278,128.879,346.784,130.462Z" transform="translate(-339.12 -121.311)" fill="#fff"/></g><g transform="translate(72.339 23.957)"><path d="M357.452,133.707a3.227,3.227,0,0,1-4.323,1.987c-2.63-.818-3.49-3.085-2.517-6.209,1.047-3.363,3.43-4.543,6.114-3.708a4.751,4.751,0,0,1,2.18,1.267l-.664.693a3.633,3.633,0,0,0-1.777-1.065c-2.134-.664-3.93.28-4.767,2.966-.071.226-.145.513-.209.818a3.311,3.311,0,0,1,3.552-.754C357.006,130.312,358.016,131.9,357.452,133.707Zm-1.012-.284c.4-1.3-.3-2.433-1.823-2.908a2.4,2.4,0,0,0-3.216,1.37c-.339,1.088.244,2.4,1.954,2.934A2.267,2.267,0,0,0,356.441,133.422Z" transform="translate(-350.225 -125.518)" fill="#fff"/></g><g transform="translate(82.503 25.778)"><path d="M369.409,129.724l-.225.722-7,7.883-1.1-.344,6.869-7.721-5.089-1.584-.576,1.851-1-.312.858-2.756Z" transform="translate(-361.086 -127.463)" fill="#fff"/></g><g transform="translate(96.647 30.18)"><path d="M384.522,134.428l-.225.722-7,7.883-1.1-.343,6.869-7.722-5.089-1.583-.576,1.851-1-.313.858-2.756Z" transform="translate(-376.2 -132.167)" fill="#fff"/></g><g transform="translate(104.686 33.928)"><path d="M392.586,144.854c-.545,1.752-2.367,2.378-4.727,1.643s-3.478-2.276-2.932-4.028a2.585,2.585,0,0,1,2.664-1.837,2.34,2.34,0,0,1-.877-2.661c.5-1.612,2.185-2.188,4.277-1.537s3.178,2.09,2.676,3.7a2.346,2.346,0,0,1-2.259,1.684A2.609,2.609,0,0,1,392.586,144.854Zm-1.039-.341c.378-1.215-.431-2.3-2.184-2.85s-3.022-.1-3.4,1.113.413,2.313,2.164,2.859S391.164,145.743,391.548,144.513Zm-1.933-3.655c1.541.48,2.675.074,3.009-1,.348-1.116-.416-2.1-1.9-2.56s-2.656-.083-3,1.02C387.386,139.405,388.074,140.379,389.614,140.858Z" transform="translate(-384.79 -136.172)" fill="#fff"/></g><g transform="translate(114.507 36.91)"><path d="M403.577,145.773c-1.047,3.363-3.431,4.543-6.115,3.709a4.75,4.75,0,0,1-2.179-1.268l.663-.692a3.644,3.644,0,0,0,1.777,1.064c2.135.663,3.932-.28,4.767-2.966.071-.226.146-.513.21-.818a3.312,3.312,0,0,1-3.553.753c-1.963-.611-2.974-2.2-2.411-4.005a3.228,3.228,0,0,1,4.323-1.988C403.69,140.382,404.549,142.649,403.577,145.773Zm-.788-2.4c.338-1.088-.244-2.4-1.954-2.933a2.266,2.266,0,0,0-3.085,1.4c-.406,1.3.3,2.433,1.824,2.909A2.4,2.4,0,0,0,402.789,143.373Z" transform="translate(-395.284 -139.359)" fill="#fff"/></g><g transform="translate(130.247 40.542)"><path d="M416.2,144.283l-3.079,9.894-1.018-.316,2.8-8.99-2.331-.725.282-.9Z" transform="translate(-412.104 -143.24)" fill="#fff"/></g><g transform="translate(134.5 43.224)"><path d="M423.868,156.622l-.281.9-6.939-2.16.225-.722,5.366-2.748c1.459-.754,1.879-1.352,2.09-2.032.357-1.145-.23-2.1-1.742-2.572a3.513,3.513,0,0,0-3.042.262l-.528-.847a4.656,4.656,0,0,1,3.946-.322c2.006.624,2.962,2.038,2.448,3.692-.3.946-.856,1.7-2.589,2.589l-4.393,2.26Z" transform="translate(-416.648 -146.105)" fill="#fff"/></g><g transform="translate(143.533 45.416)"><path d="M433.964,157.6c-.514,1.654-2.111,2.553-4.5,1.809a5.385,5.385,0,0,1-3.163-2.381l.744-.651a4.538,4.538,0,0,0,2.71,2.1c1.64.511,2.782.03,3.164-1.2.371-1.187-.223-2.224-2.058-2.8l-.707-.22.232-.749,3.811-2.581-5.06-1.575.283-.9,6.36,1.979-.225.722L431.66,153.8C433.746,154.569,434.458,156.015,433.964,157.6Z" transform="translate(-426.3 -148.448)" fill="#fff"/></g></g><g transform="translate(93.405 117.097)"><g transform="translate(0 0)"><g transform="translate(0)"><rect width="4.499" height="82.991" transform="translate(0 4.296) rotate(-72.712)" fill="#fff"/></g></g></g><g transform="translate(129.335 137.69)"><g transform="translate(0 0)"><g transform="translate(0)"><rect width="4.5" height="42.565" transform="matrix(0.297, -0.955, 0.955, 0.297, 0, 4.297)" fill="#fff"/></g></g></g><g transform="translate(23.399 41.814)" opacity="0.5"><g transform="translate(0 0)"><path d="M4.964,0h24.9a4.963,4.963,0,0,1,4.963,4.963V21.05a4.964,4.964,0,0,1-4.964,4.964H4.964A4.964,4.964,0,0,1,0,21.05V4.964A4.964,4.964,0,0,1,4.964,0Z" transform="translate(7.732 0) rotate(17.29)" fill="#ebebeb"/></g></g><g transform="translate(25.538 49.422)"><path d="M275.978,81.852l.5-1.593,17.118,5.33a3.753,3.753,0,1,0,2.231-7.167l-17.12-5.33.5-1.594,17.118,5.33A5.422,5.422,0,0,1,293.1,87.182Z" transform="translate(-275.978 -71.499)" fill="#e0e0e0"/></g><g transform="translate(48.403 60.489)"><g transform="translate(0 0)"><rect width="1.669" height="12.306" transform="matrix(0.298, -0.955, 0.955, 0.298, 0, 1.593)" fill="#e0e0e0"/></g></g><g transform="translate(39.135 22.597)"><g transform="translate(0 0)"><rect width="89.557" height="7.686" transform="translate(2.285 0) rotate(17.293)" fill="#fff"/></g></g><rect width="18.025" height="18.025" rx="3.149" transform="translate(172.51 57.996) rotate(17.293)" fill="#fff"/></g></g><g transform="translate(23.236 433.259)"><path d="M447.663,461.929c0,.135-95.019.243-212.2.243-117.225,0-212.224-.109-212.224-.243s95-.244,212.224-.244C352.644,461.685,447.663,461.794,447.663,461.929Z" transform="translate(-23.236 -461.685)" fill="#263238"/></g><g transform="translate(31.453 304.493)"><g transform="translate(4.186)"><path d="M8.755,0H138.4a8.755,8.755,0,0,1,8.755,8.755V120.226a8.755,8.755,0,0,1-8.755,8.755H8.756A8.756,8.756,0,0,1,0,120.226V8.755A8.755,8.755,0,0,1,8.755,0Z" fill="#455a64"/></g><g transform="translate(4.186 80.85)" opacity="0.3"><path d="M36.49,414.214h53.6a3.731,3.731,0,0,0,3.731-3.731H36.639Z" transform="translate(-36.49 -410.483)"/></g><g transform="translate(0 47.595)"><g transform="translate(0.244 0.244)"><rect width="63.483" height="33.473" rx="4.986" fill="#455a64"/></g><path d="M91.077,408.665a5.587,5.587,0,0,0,1.818-.422,4.737,4.737,0,0,0,1.766-1.375,4.624,4.624,0,0,0,.985-2.847c-.018-4.724-.044-11.525-.076-19.919q0-1.578-.008-3.228a13.563,13.563,0,0,0-.052-1.641,4.455,4.455,0,0,0-3.056-3.628,5.094,5.094,0,0,0-1.722-.215l-1.839,0-15.788.023-36.176.019a4.435,4.435,0,0,0-3.779,2.128,4.327,4.327,0,0,0-.639,2.125c-.018.767,0,1.566-.009,2.342q0,4.687,0,9.23t-.006,8.908c.009,1.445-.027,2.921.021,4.3a4.449,4.449,0,0,0,3.895,3.946c.635.063,1.351.021,2.019.035l4.008,0,7.664.012,13.757.03,19.918.078,5.416.046,1.407.024c.317.008.48.024.48.024s-.163.017-.48.025l-1.407.024-5.416.046-19.918.077-13.757.03-7.664.012-4.008.006c-.686-.013-1.338.034-2.069-.033a4.9,4.9,0,0,1-4.3-4.34c-.055-1.469-.017-2.876-.031-4.342q0-4.366-.006-8.908t0-9.23c0-.785-.009-1.556.008-2.361a4.82,4.82,0,0,1,.709-2.36,4.924,4.924,0,0,1,4.194-2.362l36.176.02,15.788.023,1.839,0a5.465,5.465,0,0,1,1.842.24,4.854,4.854,0,0,1,2.75,2.275,4.8,4.8,0,0,1,.551,1.673,13.837,13.837,0,0,1,.049,1.692q0,1.65-.008,3.228c-.033,8.4-.06,15.2-.079,19.92a4.73,4.73,0,0,1-2.9,4.311,4.914,4.914,0,0,1-1.376.332C91.24,408.674,91.077,408.665,91.077,408.665Z" transform="translate(-32.017 -374.948)" fill="#263238"/></g><g transform="translate(38.681 58.804)" opacity="0.3"><circle cx="9.398" cy="9.398" r="9.398"/></g><g transform="translate(34.789 51.64)"><g transform="translate(0 0)"><circle cx="9.398" cy="9.398" r="9.398" transform="translate(0 13.291) rotate(-45)" fill="#ebebeb"/></g><g transform="translate(3.649 3.693)"><path d="M92.13,392.814a21.112,21.112,0,0,0-.386-2.271,9.368,9.368,0,0,0-3.431-5.062,9.2,9.2,0,0,0-8.706-1.282,9.205,9.205,0,0,0-4.251,3.2,9.131,9.131,0,0,0,0,10.827,9.207,9.207,0,0,0,4.252,3.2,9.2,9.2,0,0,0,8.707-1.283,9.371,9.371,0,0,0,3.43-5.062,21.109,21.109,0,0,0,.386-2.271,7.213,7.213,0,0,1-.2,2.318,9.356,9.356,0,0,1-3.4,5.289,9.465,9.465,0,0,1-4.019,1.823,9.608,9.608,0,0,1-5.05-.392,9.606,9.606,0,0,1-4.484-3.343,9.566,9.566,0,0,1,0-11.392,9.605,9.605,0,0,1,4.483-3.341,9.6,9.6,0,0,1,5.05-.392,9.454,9.454,0,0,1,4.018,1.822,9.357,9.357,0,0,1,3.406,5.29A7.207,7.207,0,0,1,92.13,392.814Z" transform="translate(-73.09 -383.217)" fill="#263238"/></g></g></g><g transform="translate(341.75 209.277)"><g transform="translate(0 74.949)"><g transform="translate(0 0)"><circle cx="32.642" cy="32.642" r="32.642" transform="translate(0 11.281) rotate(-9.951)" fill="#9866b7"/><g transform="translate(5.141 7.324)" opacity="0.1"><path d="M390.018,310.259a32.641,32.641,0,0,0-18.752,42.183s21.777-7.274,23.612-17.876S390.018,310.259,390.018,310.259Z" transform="translate(-369.083 -310.259)" fill="#fff"/></g><g transform="translate(5.092 5.463)"><g transform="translate(0 0)"><circle cx="24.815" cy="24.815" r="24.815" transform="translate(0 17.695) rotate(-20.888)" fill="#9866b7"/></g></g><g transform="translate(5.092 5.463)" opacity="0.2"><g transform="translate(0 0)"><circle cx="24.815" cy="24.815" r="24.815" transform="translate(0 17.695) rotate(-20.888)"/></g></g><g transform="translate(13.971 13.6)"><path d="M425.857,332.668A24.481,24.481,0,1,1,394.22,318.6,24.48,24.48,0,0,1,425.857,332.668Z" transform="translate(-378.519 -316.965)" fill="#9866b7"/></g><g transform="translate(13.971 13.6)" opacity="0.2"><path d="M425.857,332.668A24.481,24.481,0,1,1,394.22,318.6,24.48,24.48,0,0,1,425.857,332.668Z" transform="translate(-378.519 -316.965)" fill="#fff"/></g><g transform="translate(26.735 23.141)"><g transform="translate(1.29)"><path d="M404.118,339.777l-2.247-5.845.028-.012a12.857,12.857,0,0,1,3.419-.385,10.488,10.488,0,0,1,1.808.358l.008-.211.093-2.451.022-.564-1.463-.693-.414.418a11.722,11.722,0,0,0-4.705.406l-1.236-3.216-1.311-.422.31.807-1.374.529,1.259,3.273c-4.352,2.172-5.5,5.574-4.367,8.528,1.548,4.026,5.4,3.743,8.911,3.289l2.228,5.793a11.919,11.919,0,0,1-6.64.026l-.179,3.427a13.591,13.591,0,0,0,8.021-.325l.933,2.427-1.123.455,1.426.332,2.375-.912-1.247-3.245c4.369-2.211,5.562-5.6,4.425-8.551C411.529,338.989,407.634,339.323,404.118,339.777Zm-2.608.3c-1.87.153-3.361,0-3.9-1.4-.49-1.275-.021-2.651,1.912-3.76Zm.359-6.156Zm5.568,14.482-1.972-5.127c1.928-.176,3.458,0,4,1.42C409.949,345.947,409.429,347.277,407.438,348.408Z" transform="translate(-393.536 -327.161)" fill="#9866b7"/></g><g transform="translate(1.29)" opacity="0.3"><path d="M404.118,339.777l-2.247-5.845.028-.012a12.857,12.857,0,0,1,3.419-.385,10.488,10.488,0,0,1,1.808.358l.008-.211.093-2.451.022-.564-1.463-.693-.414.418a11.722,11.722,0,0,0-4.705.406l-1.236-3.216-1.311-.422.31.807-1.374.529,1.259,3.273c-4.352,2.172-5.5,5.574-4.367,8.528,1.548,4.026,5.4,3.743,8.911,3.289l2.228,5.793a11.919,11.919,0,0,1-6.64.026l-.179,3.427a13.591,13.591,0,0,0,8.021-.325l.933,2.427-1.123.455,1.426.332,2.375-.912-1.247-3.245c4.369-2.211,5.562-5.6,4.425-8.551C411.529,338.989,407.634,339.323,404.118,339.777Zm-2.608.3c-1.87.153-3.361,0-3.9-1.4-.49-1.275-.021-2.651,1.912-3.76Zm.359-6.156Zm5.568,14.482-1.972-5.127c1.928-.176,3.458,0,4,1.42C409.949,345.947,409.429,347.277,407.438,348.408Z" transform="translate(-393.536 -327.161)"/></g><g transform="translate(0 0.002)"><path d="M407.276,351.149l1.248,3.245-2.376.913-1.236-3.217a13.585,13.585,0,0,1-8.022.325l.179-3.427a11.918,11.918,0,0,0,6.64-.026l-2.227-5.794c-3.517.455-7.365.737-8.913-3.289-1.136-2.955.016-6.358,4.369-8.53l-1.259-3.273,2.375-.913,1.236,3.216a13.313,13.313,0,0,1,6.561-.494l-.064,3.383a12.839,12.839,0,0,0-5.294.24l2.25,5.852c3.517-.454,7.412-.788,8.96,3.239C412.839,345.552,411.646,348.937,407.276,351.149Zm-7.142-11.485-1.983-5.156c-1.934,1.11-2.4,2.487-1.912,3.761C396.773,339.659,398.263,339.817,400.133,339.664Zm7.961,4.62c-.546-1.42-2.077-1.595-4-1.42l1.972,5.128C408.054,346.86,408.573,345.531,408.094,344.284Z" transform="translate(-392.158 -327.163)" fill="#9866b7"/></g></g><g transform="translate(6.186 36.339)"><path d="M381.354,366.985a1.3,1.3,0,0,1-.232-.181l-.636-.555c-.278-.24-.61-.542-.97-.919s-.8-.782-1.217-1.287l-.677-.776c-.234-.272-.453-.575-.693-.877-.488-.6-.943-1.289-1.436-2a32.441,32.441,0,0,1-4.449-10.332c-.182-.85-.37-1.654-.469-2.42-.055-.383-.125-.749-.162-1.105s-.067-.7-.1-1.027c-.078-.652-.076-1.248-.1-1.768a13.207,13.207,0,0,1,0-1.336l.034-.844a1.274,1.274,0,0,1,.029-.293,1.479,1.479,0,0,1,.021.295c0,.218.007.5.012.842,0,.366,0,.812.042,1.331s.046,1.109.134,1.757q.055.488.113,1.018c.041.354.115.718.175,1.1.107.761.3,1.558.488,2.4a33.453,33.453,0,0,0,4.419,10.261c.484.714.929,1.4,1.408,2,.234.3.448.607.677.88s.45.532.662.782c.41.509.833.924,1.185,1.3s.67.7.938.945l.6.588A1.365,1.365,0,0,1,381.354,366.985Z" transform="translate(-370.2 -341.264)" fill="#fff"/></g><g transform="translate(27.427 31.825)"><path d="M395.527,342.136a2.043,2.043,0,0,1-.929-.41,3.836,3.836,0,0,1-1.511-4.391,2.056,2.056,0,0,1,.481-.895c.037.021-.166.353-.315.942a3.977,3.977,0,0,0,1.446,4.2C395.18,341.961,395.544,342.1,395.527,342.136Z" transform="translate(-392.897 -336.44)" fill="#fff"/></g><g transform="translate(31.07 24.757)"><path d="M397.539,330.793c-.063.024-.277-.383-.479-.909a2.232,2.232,0,0,1-.253-1c.063-.023.277.383.479.909A2.252,2.252,0,0,1,397.539,330.793Z" transform="translate(-396.789 -328.887)" fill="#fff"/></g><g transform="translate(14.442 12.93)"><path d="M394.662,316.252a5.112,5.112,0,0,1-.756.256c-.245.072-.545.164-.886.291s-.737.247-1.157.43-.889.357-1.373.592c-.492.215-1,.492-1.531.772a25.543,25.543,0,0,0-6.206,4.771c-.408.445-.8.861-1.14,1.281-.352.407-.653.807-.926,1.173s-.5.71-.713,1.008-.376.563-.508.782a5.167,5.167,0,0,1-.443.663,5.015,5.015,0,0,1,.361-.712c.12-.227.275-.5.475-.807s.411-.667.688-1.035.561-.786.91-1.2c.33-.43.725-.853,1.132-1.307a24.276,24.276,0,0,1,6.263-4.813c.543-.278,1.054-.549,1.555-.759.491-.229.962-.41,1.394-.57s.829-.285,1.176-.4.652-.195.9-.253A4.88,4.88,0,0,1,394.662,316.252Z" transform="translate(-379.022 -316.249)" fill="#fff"/></g><g transform="translate(38.081 65.254)"><path d="M418.812,372.163a2.911,2.911,0,0,1-.487.357c-.32.219-.8.509-1.411.841a23.575,23.575,0,0,1-10.391,2.813c-.693.021-1.255.013-1.642-.015a2.884,2.884,0,0,1-.6-.062,2.822,2.822,0,0,1,.6-.033c.386,0,.945-.02,1.632-.063a26.372,26.372,0,0,0,10.319-2.793c.616-.31,1.107-.576,1.441-.77A2.888,2.888,0,0,1,418.812,372.163Z" transform="translate(-404.281 -372.162)" fill="#fff"/></g></g></g><g transform="translate(2.949 143.01)"><g transform="translate(3.086)"><g transform="translate(0.018 0.257)"><g transform="translate(0 0)"><rect width="69.106" height="13.935" transform="translate(69.106 13.935) rotate(180)" fill="#9866b7"/></g></g><g transform="translate(64.381 0.489)"><path d="M439.133,375.683c-.166,0-.3,3.025-.3,6.756s.134,6.757.3,6.757.3-3.025.3-6.757S439.3,375.683,439.133,375.683Z" transform="translate(-438.834 -375.683)" fill="#263238"/></g><g transform="translate(57.973 0.489)"><path d="M432.287,375.683c-.166,0-.3,3.025-.3,6.756s.135,6.757.3,6.757.3-3.025.3-6.757S432.453,375.683,432.287,375.683Z" transform="translate(-431.987 -375.683)" fill="#263238"/></g><g transform="translate(51.64 0.489)"><path d="M425.52,375.683c-.166,0-.3,3.025-.3,6.756s.135,6.757.3,6.757.3-3.025.3-6.757S425.686,375.683,425.52,375.683Z" transform="translate(-425.22 -375.683)" fill="#263238"/></g><g transform="translate(45.342 0.489)"><path d="M418.79,375.683c-.167,0-.3,3.025-.3,6.756s.134,6.757.3,6.757a76.386,76.386,0,0,0,0-13.512Z" transform="translate(-418.49 -375.683)" fill="#263238"/></g><g transform="translate(39.044 0.489)"><path d="M412.059,375.683a76.37,76.37,0,0,0,0,13.512c.166,0,.3-3.025.3-6.757S412.225,375.683,412.059,375.683Z" transform="translate(-411.76 -375.683)" fill="#263238"/></g><g transform="translate(32.745 0.489)"><path d="M405.329,375.683c-.166,0-.3,3.025-.3,6.756s.135,6.757.3,6.757a76.386,76.386,0,0,0,0-13.512Z" transform="translate(-405.029 -375.683)" fill="#263238"/></g><g transform="translate(26.447 0.489)"><path d="M398.6,375.683c-.166,0-.3,3.025-.3,6.756s.134,6.757.3,6.757.3-3.025.3-6.757S398.764,375.683,398.6,375.683Z" transform="translate(-398.299 -375.683)" fill="#263238"/></g><g transform="translate(20.148 0.489)"><path d="M391.868,375.683a76.123,76.123,0,0,0,0,13.512c.166,0,.3-3.025.3-6.757S392.034,375.683,391.868,375.683Z" transform="translate(-391.568 -375.683)" fill="#263238"/></g><g transform="translate(13.849 0.489)"><path d="M385.138,375.683a76.123,76.123,0,0,0,0,13.512c.166,0,.3-3.025.3-6.757S385.3,375.683,385.138,375.683Z" transform="translate(-384.838 -375.683)" fill="#263238"/></g><g transform="translate(7.551 0.489)"><path d="M378.408,375.683c-.166,0-.3,3.025-.3,6.756s.134,6.757.3,6.757a76.123,76.123,0,0,0,0-13.512Z" transform="translate(-378.108 -375.683)" fill="#263238"/></g><g transform="translate(1.252 0.489)"><path d="M371.677,375.683c-.166,0-.3,3.025-.3,6.756s.135,6.757.3,6.757a76.37,76.37,0,0,0,0-13.512Z" transform="translate(-371.377 -375.683)" fill="#263238"/></g><g transform="translate(1.123 0.271)" opacity="0.3"><path d="M438.129,375.451a251.844,251.844,0,0,1-66.89.014Z" transform="translate(-371.239 -375.451)"/></g><path d="M370.039,375.461c0,.166,15.444.3,34.49.3s34.493-.134,34.493-.3-15.44-.3-34.493-.3S370.039,375.3,370.039,375.461Z" transform="translate(-370.039 -375.161)" fill="#263238"/></g><g transform="translate(1.535 13.702)"><g transform="translate(0.018 0.257)"><g transform="translate(0 0)"><rect width="69.106" height="13.935" transform="translate(69.106 13.935) rotate(180)" fill="#9866b7"/></g></g><g transform="translate(64.381 0.489)"><path d="M437.475,390.325a76.371,76.371,0,0,0,0,13.513c.166,0,.3-3.025.3-6.757S437.641,390.325,437.475,390.325Z" transform="translate(-437.176 -390.325)" fill="#263238"/></g><g transform="translate(57.973 0.489)"><path d="M430.629,390.325c-.166,0-.3,3.026-.3,6.756s.134,6.757.3,6.757.3-3.025.3-6.757S430.794,390.325,430.629,390.325Z" transform="translate(-430.329 -390.325)" fill="#263238"/></g><g transform="translate(51.64 0.489)"><path d="M423.861,390.325c-.166,0-.3,3.026-.3,6.756s.134,6.757.3,6.757a76.123,76.123,0,0,0,0-13.513Z" transform="translate(-423.562 -390.325)" fill="#263238"/></g><g transform="translate(45.341 0.489)"><path d="M417.131,390.325c-.166,0-.3,3.026-.3,6.756s.135,6.757.3,6.757a76.386,76.386,0,0,0,0-13.513Z" transform="translate(-416.831 -390.325)" fill="#263238"/></g><g transform="translate(39.043 0.489)"><path d="M410.4,390.325c-.166,0-.3,3.026-.3,6.756s.135,6.757.3,6.757a76.371,76.371,0,0,0,0-13.513Z" transform="translate(-410.101 -390.325)" fill="#263238"/></g><g transform="translate(32.745 0.489)"><path d="M403.67,390.325a76.355,76.355,0,0,0,0,13.513c.166,0,.3-3.025.3-6.757S403.836,390.325,403.67,390.325Z" transform="translate(-403.371 -390.325)" fill="#263238"/></g><g transform="translate(26.446 0.489)"><path d="M396.94,390.325c-.166,0-.3,3.026-.3,6.756s.135,6.757.3,6.757.3-3.025.3-6.757S397.106,390.325,396.94,390.325Z" transform="translate(-396.64 -390.325)" fill="#263238"/></g><g transform="translate(20.148 0.489)"><path d="M390.209,390.325a76.355,76.355,0,0,0,0,13.513,76.123,76.123,0,0,0,0-13.513Z" transform="translate(-389.91 -390.325)" fill="#263238"/></g><g transform="translate(13.849 0.489)"><path d="M383.479,390.325a76.371,76.371,0,0,0,0,13.513c.166,0,.3-3.025.3-6.757S383.645,390.325,383.479,390.325Z" transform="translate(-383.18 -390.325)" fill="#263238"/></g><g transform="translate(7.55 0.489)"><path d="M376.749,390.325c-.166,0-.3,3.026-.3,6.756s.135,6.757.3,6.757.3-3.025.3-6.757S376.915,390.325,376.749,390.325Z" transform="translate(-376.449 -390.325)" fill="#263238"/></g><g transform="translate(1.252 0.489)"><path d="M370.018,390.325c-.166,0-.3,3.026-.3,6.756s.134,6.757.3,6.757.3-3.025.3-6.757S370.184,390.325,370.018,390.325Z" transform="translate(-369.719 -390.325)" fill="#263238"/></g><g transform="translate(1.122 0.271)" opacity="0.3"><path d="M436.47,390.093a251.849,251.849,0,0,1-66.89.014Z" transform="translate(-369.58 -390.093)"/></g><path d="M368.381,390.1c0,.166,15.443.3,34.49.3s34.493-.134,34.493-.3-15.44-.3-34.493-.3S368.381,389.938,368.381,390.1Z" transform="translate(-368.381 -389.803)" fill="#263238"/></g><g transform="translate(8.096 27.188)"><g transform="translate(0.018 0.256)"><g transform="translate(0 0)"><rect width="69.105" height="13.935" transform="translate(69.105 13.935) rotate(180)" fill="#9866b7"/></g></g><g transform="translate(64.38 0.488)"><path d="M444.486,404.735a76.145,76.145,0,0,0,0,13.512c.166,0,.3-3.024.3-6.756S444.652,404.735,444.486,404.735Z" transform="translate(-444.186 -404.735)" fill="#263238"/></g><g transform="translate(57.973 0.488)"><path d="M437.64,404.735c-.166,0-.3,3.025-.3,6.756s.134,6.756.3,6.756.3-3.024.3-6.756S437.805,404.735,437.64,404.735Z" transform="translate(-437.34 -404.735)" fill="#263238"/></g><g transform="translate(51.64 0.488)"><path d="M430.872,404.735a76.361,76.361,0,0,0,0,13.512c.166,0,.3-3.024.3-6.756S431.038,404.735,430.872,404.735Z" transform="translate(-430.573 -404.735)" fill="#263238"/></g><g transform="translate(45.341 0.488)"><path d="M424.142,404.735c-.166,0-.3,3.025-.3,6.756s.135,6.756.3,6.756a76.361,76.361,0,0,0,0-13.512Z" transform="translate(-423.842 -404.735)" fill="#263238"/></g><g transform="translate(39.043 0.488)"><path d="M417.412,404.735c-.166,0-.3,3.025-.3,6.756s.135,6.756.3,6.756a76.377,76.377,0,0,0,0-13.512Z" transform="translate(-417.112 -404.735)" fill="#263238"/></g><g transform="translate(32.745 0.488)"><path d="M410.681,404.735a76.361,76.361,0,0,0,0,13.512c.166,0,.3-3.024.3-6.756A38.278,38.278,0,0,0,410.681,404.735Z" transform="translate(-410.382 -404.735)" fill="#263238"/></g><g transform="translate(26.446 0.488)"><path d="M403.951,404.735a76.145,76.145,0,0,0,0,13.512c.166,0,.3-3.024.3-6.756S404.117,404.735,403.951,404.735Z" transform="translate(-403.651 -404.735)" fill="#263238"/></g><g transform="translate(20.148 0.488)"><path d="M397.221,404.735c-.166,0-.3,3.025-.3,6.756s.134,6.756.3,6.756.3-3.024.3-6.756A38.282,38.282,0,0,0,397.221,404.735Z" transform="translate(-396.921 -404.735)" fill="#263238"/></g><g transform="translate(13.848 0.488)"><path d="M390.49,404.735a38.282,38.282,0,0,0-.3,6.756c0,3.732.135,6.756.3,6.756a76.361,76.361,0,0,0,0-13.512Z" transform="translate(-390.19 -404.735)" fill="#263238"/></g><g transform="translate(7.55 0.488)"><path d="M383.76,404.735c-.166,0-.3,3.025-.3,6.756s.135,6.756.3,6.756a76.33,76.33,0,0,0,0-13.512Z" transform="translate(-383.46 -404.735)" fill="#263238"/></g><g transform="translate(1.252 0.488)"><path d="M377.03,404.735c-.166,0-.3,3.025-.3,6.756s.134,6.756.3,6.756.3-3.024.3-6.756A38.285,38.285,0,0,0,377.03,404.735Z" transform="translate(-376.73 -404.735)" fill="#263238"/></g><g transform="translate(1.122 0.27)" opacity="0.3"><path d="M443.481,404.5a251.887,251.887,0,0,1-66.89.015Z" transform="translate(-376.591 -404.502)"/></g><path d="M375.392,404.512c0,.166,15.443.3,34.489.3s34.494-.135,34.494-.3-15.44-.3-34.494-.3S375.392,404.347,375.392,404.512Z" transform="translate(-375.392 -404.213)" fill="#263238"/></g><g transform="translate(0 41.018)"><g transform="translate(0.018 0.258)"><g transform="translate(0 0)"><rect width="69.106" height="13.402" transform="translate(69.106 13.402) rotate(180)" fill="#9866b7"/></g></g><g transform="translate(64.381 0.482)"><path d="M435.836,419.506a70.443,70.443,0,0,0,0,12.995,70.643,70.643,0,0,0,0-12.995Z" transform="translate(-435.536 -419.506)" fill="#263238"/></g><g transform="translate(57.974 0.482)"><path d="M428.99,419.506a70.614,70.614,0,0,0,0,12.995,70.414,70.414,0,0,0,0-12.995Z" transform="translate(-428.69 -419.506)" fill="#263238"/></g><g transform="translate(51.64 0.482)"><path d="M422.222,419.506a70.4,70.4,0,0,0,0,12.995,70.657,70.657,0,0,0,0-12.995Z" transform="translate(-421.922 -419.506)" fill="#263238"/></g><g transform="translate(45.342 0.482)"><path d="M415.492,419.506a70.414,70.414,0,0,0,0,12.995,70.614,70.614,0,0,0,0-12.995Z" transform="translate(-415.192 -419.506)" fill="#263238"/></g><g transform="translate(39.044 0.482)"><path d="M408.761,419.506a70.643,70.643,0,0,0,0,12.995,70.414,70.414,0,0,0,0-12.995Z" transform="translate(-408.462 -419.506)" fill="#263238"/></g><g transform="translate(32.745 0.482)"><path d="M402.031,419.506a70.457,70.457,0,0,0,0,12.995c.166,0,.3-2.909.3-6.5S402.2,419.506,402.031,419.506Z" transform="translate(-401.731 -419.506)" fill="#263238"/></g><g transform="translate(26.447 0.482)"><path d="M395.3,419.506a70.643,70.643,0,0,0,0,12.995,70.428,70.428,0,0,0,0-12.995Z" transform="translate(-395.001 -419.506)" fill="#263238"/></g><g transform="translate(20.148 0.482)"><path d="M388.57,419.506a70.643,70.643,0,0,0,0,12.995,70.614,70.614,0,0,0,0-12.995Z" transform="translate(-388.271 -419.506)" fill="#263238"/></g><g transform="translate(13.849 0.482)"><path d="M381.84,419.506a70.414,70.414,0,0,0,0,12.995,70.657,70.657,0,0,0,0-12.995Z" transform="translate(-381.54 -419.506)" fill="#263238"/></g><g transform="translate(7.551 0.482)"><path d="M375.109,419.506a70.643,70.643,0,0,0,0,12.995,70.414,70.414,0,0,0,0-12.995Z" transform="translate(-374.81 -419.506)" fill="#263238"/></g><g transform="translate(1.252 0.482)"><path d="M368.379,419.506a70.428,70.428,0,0,0,0,12.995,70.628,70.628,0,0,0,0-12.995Z" transform="translate(-368.079 -419.506)" fill="#263238"/></g><g transform="translate(1.123 0.272)" opacity="0.3"><path d="M434.831,419.282a197.714,197.714,0,0,1-66.89.019Z" transform="translate(-367.941 -419.282)"/></g><path d="M366.741,419.291c0,.166,15.444.3,34.49.3s34.493-.134,34.493-.3-15.44-.3-34.493-.3S366.741,419.126,366.741,419.291Z" transform="translate(-366.741 -418.991)" fill="#263238"/></g><g transform="translate(4.443 54.428)"><g transform="translate(0.018 0.258)"><g transform="translate(0 0)"><rect width="69.106" height="13.402" transform="translate(69.106 13.402) rotate(180)" fill="#9866b7"/></g></g><g transform="translate(64.381 0.481)"><path d="M440.584,433.835c-.167,0-.3,2.91-.3,6.5s.134,6.5.3,6.5a70.644,70.644,0,0,0,0-12.995Z" transform="translate(-440.284 -433.835)" fill="#263238"/></g><g transform="translate(57.973 0.481)"><path d="M433.737,433.835c-.166,0-.3,2.91-.3,6.5s.135,6.5.3,6.5a70.615,70.615,0,0,0,0-12.995Z" transform="translate(-433.437 -433.835)" fill="#263238"/></g><g transform="translate(51.64 0.481)"><path d="M426.97,433.835a70.444,70.444,0,0,0,0,12.995c.166,0,.3-2.908.3-6.5S427.136,433.835,426.97,433.835Z" transform="translate(-426.67 -433.835)" fill="#263238"/></g><g transform="translate(45.342 0.481)"><path d="M420.24,433.835a70.63,70.63,0,0,0,0,12.995c.167,0,.3-2.908.3-6.5S420.406,433.835,420.24,433.835Z" transform="translate(-419.94 -433.835)" fill="#263238"/></g><g transform="translate(39.044 0.481)"><path d="M413.509,433.835a70.644,70.644,0,0,0,0,12.995,70.415,70.415,0,0,0,0-12.995Z" transform="translate(-413.21 -433.835)" fill="#263238"/></g><g transform="translate(32.745 0.481)"><path d="M406.779,433.835a70.43,70.43,0,0,0,0,12.995,70.615,70.615,0,0,0,0-12.995Z" transform="translate(-406.479 -433.835)" fill="#263238"/></g><g transform="translate(26.447 0.481)"><path d="M400.048,433.835a70.63,70.63,0,0,0,0,12.995,70.4,70.4,0,0,0,0-12.995Z" transform="translate(-399.749 -433.835)" fill="#263238"/></g><g transform="translate(20.148 0.481)"><path d="M393.318,433.835c-.166,0-.3,2.91-.3,6.5s.135,6.5.3,6.5a70.63,70.63,0,0,0,0-12.995Z" transform="translate(-393.018 -433.835)" fill="#263238"/></g><g transform="translate(13.849 0.481)"><path d="M386.588,433.835c-.167,0-.3,2.91-.3,6.5s.134,6.5.3,6.5a70.658,70.658,0,0,0,0-12.995Z" transform="translate(-386.288 -433.835)" fill="#263238"/></g><g transform="translate(7.551 0.481)"><path d="M379.857,433.835a70.63,70.63,0,0,0,0,12.995,70.43,70.43,0,0,0,0-12.995Z" transform="translate(-379.558 -433.835)" fill="#263238"/></g><g transform="translate(1.252 0.481)"><path d="M373.127,433.835a70.415,70.415,0,0,0,0,12.995,70.644,70.644,0,0,0,0-12.995Z" transform="translate(-372.827 -433.835)" fill="#263238"/></g><g transform="translate(1.123 0.272)" opacity="0.3"><path d="M439.579,433.612a175.079,175.079,0,0,1-66.89.021Z" transform="translate(-372.689 -433.612)"/></g><path d="M371.489,433.62c0,.166,15.444.3,34.49.3s34.493-.135,34.493-.3-15.44-.3-34.493-.3S371.489,433.455,371.489,433.62Z" transform="translate(-371.489 -433.321)" fill="#263238"/></g><g transform="translate(0.495 67.647)"><g transform="translate(0.018 0.258)"><g transform="translate(0 0)"><rect width="69.105" height="13.402" transform="translate(69.105 13.402) rotate(180)" fill="#9866b7"/></g></g><g transform="translate(64.381 0.481)"><path d="M436.365,447.96a70.455,70.455,0,0,0,0,13c.166,0,.3-2.909.3-6.5S436.531,447.96,436.365,447.96Z" transform="translate(-436.065 -447.96)" fill="#263238"/></g><g transform="translate(57.973 0.481)"><path d="M429.518,447.96c-.166,0-.3,2.91-.3,6.5s.135,6.5.3,6.5a70.655,70.655,0,0,0,0-13Z" transform="translate(-429.218 -447.96)" fill="#263238"/></g><g transform="translate(51.64 0.481)"><path d="M422.751,447.96a70.412,70.412,0,0,0,0,13,70.64,70.64,0,0,0,0-13Z" transform="translate(-422.451 -447.96)" fill="#263238"/></g><g transform="translate(45.342 0.481)"><path d="M416.021,447.96a70.44,70.44,0,0,0,0,13,70.64,70.64,0,0,0,0-13Z" transform="translate(-415.721 -447.96)" fill="#263238"/></g><g transform="translate(39.044 0.481)"><path d="M409.29,447.96a70.64,70.64,0,0,0,0,13,70.44,70.44,0,0,0,0-13Z" transform="translate(-408.991 -447.96)" fill="#263238"/></g><g transform="translate(32.745 0.481)"><path d="M402.56,447.96a70.44,70.44,0,0,0,0,13,70.626,70.626,0,0,0,0-13Z" transform="translate(-402.26 -447.96)" fill="#263238"/></g><g transform="translate(26.447 0.481)"><path d="M395.829,447.96a70.64,70.64,0,0,0,0,13,70.426,70.426,0,0,0,0-13Z" transform="translate(-395.53 -447.96)" fill="#263238"/></g><g transform="translate(20.148 0.481)"><path d="M389.1,447.96c-.166,0-.3,2.91-.3,6.5s.135,6.5.3,6.5a70.626,70.626,0,0,0,0-13Z" transform="translate(-388.799 -447.96)" fill="#263238"/></g><g transform="translate(13.849 0.481)"><path d="M382.369,447.96a70.455,70.455,0,0,0,0,13c.166,0,.3-2.909.3-6.5S382.535,447.96,382.369,447.96Z" transform="translate(-382.069 -447.96)" fill="#263238"/></g><g transform="translate(7.551 0.481)"><path d="M375.639,447.96c-.166,0-.3,2.91-.3,6.5s.134,6.5.3,6.5a70.469,70.469,0,0,0,0-13Z" transform="translate(-375.339 -447.96)" fill="#263238"/></g><g transform="translate(1.252 0.481)"><path d="M368.908,447.96a70.426,70.426,0,0,0,0,13,70.655,70.655,0,0,0,0-13Z" transform="translate(-368.608 -447.96)" fill="#263238"/></g><g transform="translate(1.123 0.272)" opacity="0.3"><path d="M435.36,447.737a197.736,197.736,0,0,1-66.89.018Z" transform="translate(-368.47 -447.737)"/></g><path d="M367.27,447.745c0,.166,15.444.3,34.49.3s34.493-.135,34.493-.3-15.44-.3-34.493-.3S367.27,447.58,367.27,447.745Z" transform="translate(-367.27 -447.446)" fill="#263238"/></g><g transform="translate(68.758 0.3)"><path d="M441.074,456.488a.994.994,0,0,1-.021-.229c-.006-.175-.012-.4-.021-.674-.009-.624-.022-1.5-.039-2.608-.017-2.3-.039-5.6-.068-9.707v-.149h.15l3.808-.017-.166.167c-.011-3.914-.024-8.449-.039-13.409l.2.2-4.443.008h-.213v-.213c0-4.143-.008-8.633-.013-13.3v-.226h8.322l-.227.227c0-4.959.009-9.723.013-14.191l.213.213-6.561-.012h-.2v-.2c.015-4.85.029-9.225.041-13v-.16h.159l1.692.007-.153.154c-.014-4.318-.025-7.782-.034-10.2.005-1.171.01-2.086.013-2.741.005-.292.01-.526.014-.709a1.016,1.016,0,0,1,.02-.241,1.089,1.089,0,0,1,.023.241c.007.183.017.416.029.708.016.654.038,1.57.067,2.74.041,2.419.1,5.884.172,10.2l0,.153h-.155l-1.692.007.16-.16c.012,3.771.025,8.146.041,13l-.2-.2,6.561-.012h.213v.214c0,4.468.008,9.232.012,14.191v.226h-8.322l.227-.226c0,4.666-.009,9.156-.013,13.3l-.213-.213,4.443.008h.206v.2c-.014,4.961-.027,9.495-.038,13.409v.167h-.166l-3.808-.017.15-.15c-.029,4.107-.052,7.4-.068,9.707-.017,1.113-.03,1.984-.039,2.608-.009.277-.015.5-.021.674A.888.888,0,0,1,441.074,456.488Z" transform="translate(-440.213 -375.482)" fill="#263238"/></g></g><g transform="translate(41.034)"><path d="M464.28,249.782a28.43,28.43,0,1,1-29.406-27.419A28.43,28.43,0,0,1,464.28,249.782Z" transform="translate(-407.437 -222.345)" fill="#9866b7"/><g transform="translate(0 0.018)" opacity="0.1"><path d="M434.874,222.364a28.428,28.428,0,0,0-27.419,29.407s20,.195,24.518-8.014S434.874,222.364,434.874,222.364Z" transform="translate(-407.437 -222.364)" fill="#fff"/></g><g transform="translate(6.351 6.383)"><path d="M457.436,250.023a21.613,21.613,0,1,1-22.355-20.844A21.612,21.612,0,0,1,457.436,250.023Z" transform="translate(-414.224 -229.166)" fill="#9866b7"/></g><g transform="translate(6.351 6.383)" opacity="0.2"><path d="M457.436,250.023a21.613,21.613,0,1,1-22.355-20.844A21.612,21.612,0,0,1,457.436,250.023Z" transform="translate(-414.224 -229.166)"/></g><g transform="translate(7.573 7.542)"><path d="M458.162,250.981a21.322,21.322,0,1,1-22.055-20.564A21.323,21.323,0,0,1,458.162,250.981Z" transform="translate(-415.53 -230.404)" fill="#9866b7"/></g><g transform="translate(7.573 7.542)" opacity="0.2"><path d="M458.162,250.981a21.322,21.322,0,1,1-22.055-20.564A21.323,21.323,0,0,1,458.162,250.981Z" transform="translate(-415.53 -230.404)" fill="#fff"/></g><g transform="translate(20.21 14.897)"><g transform="translate(0.943)"><path d="M438.567,250.354l-.191-5.451.027,0a11.182,11.182,0,0,1,2.923.654,9.11,9.11,0,0,1,1.388.809l.066-.171.772-1.992.178-.458-1.007-.986-.46.227a10.2,10.2,0,0,0-3.99-1l-.1-3-.96-.719.026.751-1.281.045.107,3.053c-4.2.552-6.114,3.026-6.017,5.782.131,3.755,3.379,4.615,6.4,5.239l.189,5.4a10.375,10.375,0,0,1-5.474-1.864l-1.12,2.771a11.832,11.832,0,0,0,6.7,2.01l.079,2.264-1.054.055,1.079.679,2.215-.078-.106-3.026c4.225-.58,6.168-3.028,6.072-5.783C444.893,251.809,441.591,250.978,438.567,250.354Zm-2.235-.489c-1.582-.405-2.765-.958-2.81-2.255-.042-1.188.735-2.189,2.642-2.553Zm2.044-4.966Zm.473,13.505-.168-4.78c1.637.4,2.847.982,2.894,2.3C441.615,257.09,440.81,258.037,438.849,258.4Z" transform="translate(-430.04 -238.263)" fill="url(#a)"/></g><g transform="translate(0.943)" opacity="0.3"><path d="M438.567,250.354l-.191-5.451.027,0a11.182,11.182,0,0,1,2.923.654,9.11,9.11,0,0,1,1.388.809l.066-.171.772-1.992.178-.458-1.007-.986-.46.227a10.2,10.2,0,0,0-3.99-1l-.1-3-.96-.719.026.751-1.281.045.107,3.053c-4.2.552-6.114,3.026-6.017,5.782.131,3.755,3.379,4.615,6.4,5.239l.189,5.4a10.375,10.375,0,0,1-5.474-1.864l-1.12,2.771a11.832,11.832,0,0,0,6.7,2.01l.079,2.264-1.054.055,1.079.679,2.215-.078-.106-3.026c4.225-.58,6.168-3.028,6.072-5.783C444.893,251.809,441.591,250.978,438.567,250.354Zm-2.235-.489c-1.582-.405-2.765-.958-2.81-2.255-.042-1.188.735-2.189,2.642-2.553Zm2.044-4.966Zm.473,13.505-.168-4.78c1.637.4,2.847.982,2.894,2.3C441.615,257.09,440.81,258.037,438.849,258.4Z" transform="translate(-430.04 -238.263)"/></g><g transform="translate(0 0.007)"><path d="M437.945,260.639l.107,3.026-2.215.078-.106-3a11.83,11.83,0,0,1-6.7-2.011l1.12-2.77a10.38,10.38,0,0,0,5.475,1.863l-.189-5.4c-3.024-.624-6.273-1.485-6.4-5.24-.1-2.756,1.818-5.23,6.018-5.783l-.107-3.053,2.215-.078.1,3a11.592,11.592,0,0,1,5.543,1.456l-1.013,2.767a11.2,11.2,0,0,0-4.427-1.305l.191,5.457c3.024.625,6.326,1.456,6.457,5.211C444.115,257.611,442.172,260.059,437.945,260.639Zm-2.619-11.485-.168-4.809c-1.907.364-2.684,1.365-2.642,2.554C432.56,248.2,433.743,248.75,435.326,249.155Zm5.243,6.065c-.047-1.324-1.257-1.9-2.894-2.306l.167,4.781C439.8,257.329,440.609,256.381,440.569,255.22Z" transform="translate(-429.032 -238.271)" fill="#9866b7"/></g></g><g transform="translate(27.746 7.185)"><path d="M438.6,273.235a1.062,1.062,0,0,1,.174-.025l.513-.054.834-.081a8.16,8.16,0,0,0,1.13-.152l1.4-.273a5.788,5.788,0,0,0,.79-.206l.845-.253c.289-.1.6-.158.9-.289l.932-.382c.316-.138.655-.251.98-.417l.993-.524a22.688,22.688,0,0,0,4.109-2.854l.984-.959c.166-.164.339-.323.5-.494l.462-.546c.305-.371.637-.728.933-1.123l.856-1.232.218-.313c.068-.108.126-.222.191-.332q.188-.335.378-.675t.384-.682c.136-.225.22-.477.334-.716.208-.488.442-.97.635-1.475l.51-1.556a21.309,21.309,0,0,0-.468-13.408q-.312-.765-.618-1.517c-.228-.49-.5-.956-.737-1.427-.13-.231-.232-.477-.383-.692l-.43-.654c-.142-.216-.284-.432-.425-.646-.071-.107-.138-.216-.214-.319l-.239-.3q-.477-.591-.942-1.169c-.322-.372-.678-.707-1.009-1.055l-.5-.512c-.174-.159-.359-.306-.534-.458l-1.05-.888a22.6,22.6,0,0,0-4.3-2.56l-1.028-.454c-.335-.143-.681-.233-1.007-.347l-.956-.315c-.307-.11-.622-.151-.917-.226l-.861-.193a5.919,5.919,0,0,0-.8-.15l-1.419-.174a8.038,8.038,0,0,0-1.138-.073l-.838-.022-.515-.019a1.025,1.025,0,0,1-.176-.013,1.035,1.035,0,0,1,.175-.008l.516,0,.839,0a7.867,7.867,0,0,1,1.144.053l1.427.156a5.819,5.819,0,0,1,.808.142l.867.185c.3.073.615.111.925.219l.965.31c.328.112.677.2,1.015.343l1.037.449a22.6,22.6,0,0,1,4.345,2.558l1.061.891c.179.153.365.3.541.46l.5.514c.335.35.7.686,1.022,1.061l.953,1.176.241.3c.077.1.144.214.216.321l.43.651.436.659c.152.217.256.464.387.7.245.475.516.945.747,1.439l.626,1.531a21.423,21.423,0,0,1,.473,13.538q-.261.792-.516,1.57c-.2.509-.433,1-.644,1.488a7.926,7.926,0,0,1-.339.722l-.388.688-.384.679c-.064.112-.124.226-.194.335l-.22.315-.869,1.24c-.3.4-.635.757-.944,1.13l-.468.548c-.165.172-.34.332-.507.5l-1,.964a22.588,22.588,0,0,1-4.154,2.854l-1,.521c-.328.166-.67.277-.989.413l-.941.376a9.455,9.455,0,0,1-.908.284l-.852.246a5.817,5.817,0,0,1-.8.2l-1.412.256a8,8,0,0,1-1.137.133l-.838.061-.515.034A.993.993,0,0,1,438.6,273.235Z" transform="translate(-437.085 -230.023)" fill="#263238"/></g><g transform="translate(0.886 18.282)"><path d="M412.2,266.205a1.121,1.121,0,0,1-.139-.215c-.1-.165-.216-.376-.366-.637-.161-.277-.349-.62-.538-1.032s-.433-.87-.636-1.4l-.338-.832c-.115-.29-.209-.6-.321-.918-.232-.633-.411-1.329-.613-2.058a28.217,28.217,0,0,1-.729-9.77c.092-.751.165-1.466.3-2.126.064-.329.11-.651.181-.955s.143-.594.211-.873c.122-.559.292-1.048.421-1.483s.26-.8.378-1.1l.268-.685a1.192,1.192,0,0,1,.107-.233,1.259,1.259,0,0,1-.066.249c-.06.181-.136.412-.229.7-.107.3-.229.67-.344,1.108s-.277.927-.388,1.484c-.063.278-.128.569-.2.871s-.109.623-.168.952c-.127.657-.194,1.369-.28,2.115a29.16,29.16,0,0,0,.725,9.7c.2.725.367,1.42.591,2.049.107.317.2.628.307.917l.323.832c.193.536.423,1,.6,1.411s.355.763.5,1.044.245.485.33.655A1.119,1.119,0,0,1,412.2,266.205Z" transform="translate(-408.384 -241.881)" fill="#fff"/></g><g transform="translate(20.81 20.765)"><path d="M431,249.78a1.78,1.78,0,0,1-.648-.6,3.344,3.344,0,0,1,0-4.045,1.78,1.78,0,0,1,.649-.6c.024.027-.236.242-.527.686a3.462,3.462,0,0,0,0,3.872C430.766,249.537,431.026,249.753,431,249.78Z" transform="translate(-429.674 -244.534)" fill="#fff"/></g><g transform="translate(26.531 15.795)"><path d="M435.929,241a3.767,3.767,0,1,1,.075-.892A1.95,1.95,0,0,1,435.929,241Z" transform="translate(-435.787 -239.223)" fill="#fff"/></g><g transform="translate(12.85 5.623)"><path d="M437.46,228.5a4.286,4.286,0,0,1-.7,0c-.223-.01-.5-.02-.812-.012s-.678-.006-1.075.025-.833.041-1.3.1c-.467.037-.96.122-1.48.2a22.25,22.25,0,0,0-6.466,2.167c-.462.25-.907.479-1.3.731-.406.235-.767.479-1.1.7s-.617.441-.873.627-.47.357-.641.5a4.43,4.43,0,0,1-.553.421,4.4,4.4,0,0,1,.5-.485c.164-.153.37-.334.621-.529s.527-.432.86-.657.685-.487,1.089-.731c.395-.26.84-.5,1.3-.754a21.144,21.144,0,0,1,6.523-2.185c.526-.075,1.024-.154,1.5-.183.47-.05.909-.064,1.31-.074s.764,0,1.082.008.591.024.815.048A4.449,4.449,0,0,1,437.46,228.5Z" transform="translate(-421.169 -228.354)" fill="#fff"/></g><g transform="translate(19.752 54.363)"><path d="M441.624,281.325a2.532,2.532,0,0,1-.5.155c-.326.09-.8.192-1.4.292a20.541,20.541,0,0,1-9.355-.635c-.576-.18-1.037-.345-1.349-.479a2.471,2.471,0,0,1-.475-.221,2.5,2.5,0,0,1,.5.144c.318.109.783.252,1.362.413a23.006,23.006,0,0,0,9.29.63c.594-.08,1.075-.16,1.4-.225A2.512,2.512,0,0,1,441.624,281.325Z" transform="translate(-428.544 -280.436)" fill="#fff"/></g></g></g><g transform="translate(165.145 59.608)"><g transform="translate(94.249 393.019)"><path d="M275.586,482.38" transform="translate(-275.586 -482.38)" fill="none" stroke="#fbfbfb" stroke-miterlimit="10" stroke-width="1"/></g><path d="M329.128,436.034l-126.767-.586a27.613,27.613,0,0,1-27.486-27.73l1.344-317.807a27.614,27.614,0,0,1,27.741-27.5L330.727,63A27.613,27.613,0,0,1,358.212,90.73l-1.343,317.807A27.613,27.613,0,0,1,329.128,436.034Z" transform="translate(-174.875 -62.414)" fill="#263238"/><g transform="translate(8.418 10.97)"><path d="M331.123,74.72l-24.578-.113-71.781-.331-8.643-.04-21.512-.1a19.34,19.34,0,0,0-19.428,19.258L183.87,403.6a19.34,19.34,0,0,0,19.25,19.421l126.513.584a19.339,19.339,0,0,0,19.428-19.257l1.311-310.2A19.339,19.339,0,0,0,331.123,74.72Z" transform="translate(-183.87 -74.136)" fill="#fafafa"/></g><g transform="translate(153.401 38.157)"><g transform="translate(0.042)"><path d="M342,104.776a1.583,1.583,0,1,1-1.577-1.589A1.582,1.582,0,0,1,342,104.776Z" transform="translate(-338.839 -103.187)" fill="#263238"/></g><g transform="translate(0.021 5.695)"><path d="M341.982,110.861a1.583,1.583,0,1,1-1.577-1.589A1.583,1.583,0,0,1,341.982,110.861Z" transform="translate(-338.816 -109.272)" fill="#263238"/></g><g transform="translate(0 11.388)"><path d="M341.96,116.945a1.583,1.583,0,1,1-1.578-1.589A1.584,1.584,0,0,1,341.96,116.945Z" transform="translate(-338.794 -115.356)" fill="#263238"/></g></g><g transform="translate(26.183 202.52)"><rect width="35.008" height="35.008" rx="8.782" fill="#9866b7"/><g transform="translate(6.932 10.353)"><path d="M224.287,302.39h-7.65a.453.453,0,0,1-.439-.342l-2.83-11.261h-2.656a.452.452,0,0,1,0-.9h3.008a.451.451,0,0,1,.438.342l2.831,11.261h7.3a.452.452,0,1,1,0,.9Z" transform="translate(-210.261 -289.883)" fill="#fff"/><g transform="translate(5.941 12.782)"><path d="M218.494,307.311a1.885,1.885,0,1,1,1.886-1.885A1.886,1.886,0,0,1,218.494,307.311Zm0-2.867a.982.982,0,1,0,.982.982A.983.983,0,0,0,218.494,304.445Z" transform="translate(-216.609 -303.541)" fill="#fff"/></g><g transform="translate(13.897 12.782)"><path d="M227,307.311a1.885,1.885,0,1,1,1.886-1.885A1.887,1.887,0,0,1,227,307.311Zm0-2.867a.982.982,0,1,0,.982.982A.983.983,0,0,0,227,304.445Z" transform="translate(-225.111 -303.541)" fill="#fff"/></g><g transform="translate(3.643 1.872)"><path d="M227.526,300.438h-10.9a.452.452,0,1,1,0-.9h10.521l1.2-6.743H214.6a.452.452,0,0,1,0-.9c.022-.009,1.6,0,3.73,0h10.549a.452.452,0,0,1,.445.531l-1.359,7.648A.453.453,0,0,1,227.526,300.438Z" transform="translate(-214.154 -291.884)" fill="#fff"/></g></g><g transform="translate(46.617 6.151)"><rect width="71.017" height="8.454" rx="3.774" fill="#e0e0e0"/></g><g transform="translate(46.617 22.761)"><rect width="35.9" height="8.454" rx="3.774" fill="#e0e0e0"/></g></g><g transform="translate(8.253 189.091)"><path d="M348.77,264.713c0,.135-36.957.244-82.534.244-45.594,0-82.542-.109-82.542-.244s36.949-.243,82.542-.243C311.813,264.47,348.77,264.579,348.77,264.713Z" transform="translate(-183.694 -264.47)" fill="#e0e0e0"/></g><g transform="translate(37.841 251.562)"><rect width="107.657" height="36.302" rx="16.207" fill="#9866b7"/><g transform="translate(44.481 13.467)"><path d="M270.067,348.58c0,1.821-1.374,2.955-3.562,2.955h-1.4v2.1h-2.268v-8.016h3.665C268.694,345.614,270.067,346.748,270.067,348.58Zm-2.29,0c0-.744-.47-1.179-1.408-1.179h-1.261v2.348h1.261C267.308,349.749,267.777,349.313,267.777,348.58Z" transform="translate(-262.841 -345.614)" fill="#fff"/><path d="M276.615,352.073h-3.39l-.63,1.557h-2.312l3.538-8.016h2.233l3.55,8.016h-2.359Zm-.664-1.672-1.03-2.565L273.89,350.4Z" transform="translate(-263.319 -345.614)" fill="#fff"/><path d="M284.615,350.756v2.874h-2.268v-2.909l-3.057-5.108h2.393l1.9,3.184,1.9-3.184h2.2Z" transform="translate(-263.896 -345.614)" fill="#fff"/></g></g><g transform="translate(19.916 39.572)"><circle cx="6.987" cy="6.987" r="6.987" transform="translate(0 13.598) rotate(-76.674)" fill="#9866b7"/></g><g transform="translate(64.619 44.393)"><rect width="52.346" height="6.127" rx="2.735" fill="#e0e0e0"/></g><g transform="translate(43.534 298.329)"><rect width="106.859" height="7.137" fill="#263238"/></g><g transform="translate(48.592 301.898)"><g transform="translate(0.001)"><path d="M226.8,385.012c.939.313,13.454.313,13.454,25.03s-.626,55.381,12.515,56.319,82.289,0,82.289,0V404.327a18.8,18.8,0,0,0-18.69-18.8Z" transform="translate(-226.799 -385.012)" fill="#fafafa"/></g><path d="M226.8,385.012l51.974.154,26.373.1,7.23.034a42.282,42.282,0,0,1,7.471.369,19.032,19.032,0,0,1,15.278,16.3,33.086,33.086,0,0,1,.164,4.128q0,2.065,0,4.151,0,8.35.006,17.035c0,11.571,0,23.55,0,35.82v3.5l-.24,0c-24.183.291-47.181.508-68.08.343-2.613-.021-5.192-.065-7.737-.121-2.551-.1-5.041-.066-7.548-.407a8.516,8.516,0,0,1-3.391-1.591,12.489,12.489,0,0,1-2.433-2.76,24.99,24.99,0,0,1-2.792-6.541,72.851,72.851,0,0,1-2.223-13.258c-.383-4.3-.548-8.428-.646-12.371-.2-7.885-.046-15.02-.138-21.27-.122-6.228-1.089-11.632-3.019-15.583a16.99,16.99,0,0,0-3.346-4.722,12.817,12.817,0,0,0-3.527-2.354,17.527,17.527,0,0,0-3.382-.957l.887.134a12.284,12.284,0,0,1,2.532.735,12.723,12.723,0,0,1,3.588,2.34,17.019,17.019,0,0,1,3.416,4.744c1.973,3.974,2.972,9.406,3.12,15.659.118,6.262-.016,13.388.21,21.266.109,3.938.284,8.064.676,12.346a72.682,72.682,0,0,0,2.237,13.18,24.6,24.6,0,0,0,2.753,6.427,12.062,12.062,0,0,0,2.346,2.656,8.1,8.1,0,0,0,3.216,1.5c2.395.322,4.946.3,7.474.388,2.543.051,5.12.093,7.731.11,20.891.14,43.891-.091,68.07-.383l-.24.243V463.1c0-12.27,0-24.249,0-35.82q0-8.678.006-17.035,0-2.086,0-4.151a32.558,32.558,0,0,0-.156-4.072,18.6,18.6,0,0,0-2.631-7.458,18.793,18.793,0,0,0-5.324-5.6,18.577,18.577,0,0,0-6.949-2.88,41.921,41.921,0,0,0-7.373-.373l-7.194-.05-26.242-.207Z" transform="translate(-226.798 -385.012)" fill="#263238"/></g><g transform="translate(74.88 330.718)"><path d="M254.889,468.337s10.818,0,13.136-15.957c2.762-19.012,0-35.668,14.706-36.294s54.129,0,54.129,0v52.251Z" transform="translate(-254.889 -415.808)" fill="#e0e0e0"/></g><g transform="translate(100.873 330.427)"><g transform="translate(0.001 0.204)"><path d="M282.665,416.267s11.86-1.439,11.86,18.273.313,32.749,13.454,34.208,93.865,0,93.865,0-12.828-6.049-13.767-23.883-4.693-28.716-17.522-29.063S282.665,416.267,282.665,416.267Z" transform="translate(-282.665 -415.715)" fill="#fafafa"/></g><path d="M282.665,416.253l.8-.034,2.335-.048,8.988-.136,33.086-.362,22.873-.158,12.751-.019c2.193.01,4.417.02,6.674.065a19.13,19.13,0,0,1,6.773,1.3,13.775,13.775,0,0,1,5.5,4.423,22.855,22.855,0,0,1,3.247,6.463,63.548,63.548,0,0,1,2.466,14.655c.084,1.259.151,2.531.289,3.782l.187,1.889.352,1.873.176.94.256.922.528,1.846a32.564,32.564,0,0,0,1.485,3.559,25.767,25.767,0,0,0,10.517,11.3l.819.448-.918.016-2.237.038c-21.664.355-42.3.592-61.077.588-9.386-.021-18.308-.045-26.656-.4a37.41,37.41,0,0,1-6.144-.663,12.333,12.333,0,0,1-5.32-2.68,13.161,13.161,0,0,1-3.3-4.679,24.641,24.641,0,0,1-1.579-5.243,66.4,66.4,0,0,1-1.014-10.091c-.121-3.2-.127-6.215-.131-9.035.01-1.41,0-2.77-.062-4.074-.034-.652-.024-1.3-.092-1.918s-.152-1.232-.226-1.83q-.055-.448-.109-.886c-.065-.286-.128-.571-.192-.851q-.188-.842-.37-1.644l-.519-1.517-.255-.727-.332-.672a11.56,11.56,0,0,0-3.105-4.161,9.1,9.1,0,0,0-3.337-1.841,8.944,8.944,0,0,0-2.321-.427c-.267-.02-.469-.015-.6-.013h-.205a1.512,1.512,0,0,1,.2-.026,5.2,5.2,0,0,1,.607-.011,8.562,8.562,0,0,1,2.347.382,9.119,9.119,0,0,1,3.4,1.824,11.647,11.647,0,0,1,3.183,4.19c1.858,3.588,2.282,8.59,2.257,14.2.017,2.818.036,5.832.168,9.023a66.376,66.376,0,0,0,1.043,10.036,24.3,24.3,0,0,0,1.571,5.164,12.791,12.791,0,0,0,3.216,4.542,11.95,11.95,0,0,0,5.164,2.584,37.223,37.223,0,0,0,6.072.638c8.332.337,17.254.347,26.637.355,18.769-.021,39.407-.27,61.069-.625l2.236-.039-.1.464A26.2,26.2,0,0,1,391,457.428a33.011,33.011,0,0,1-1.509-3.62l-.535-1.875-.259-.937-.179-.953-.357-1.9-.189-1.914c-.139-1.277-.2-2.535-.286-3.791a63.235,63.235,0,0,0-2.432-14.544,22.367,22.367,0,0,0-3.17-6.333,13.329,13.329,0,0,0-5.317-4.288A18.72,18.72,0,0,0,370.158,416c-2.251-.049-4.473-.062-6.664-.076l-12.749-.007-22.871.1-33.087.208-8.989.046h-2.339Z" transform="translate(-282.664 -415.497)" fill="#263238"/></g><g transform="translate(74.562 331.069)"><path d="M283.988,416.264c0,.058-.948-.039-2.621.195a11.27,11.27,0,0,0-6.29,3.064c-2.207,2.051-3.848,5.4-4.673,9.295-.85,3.909-.9,8.341-1.1,12.974a64.216,64.216,0,0,1-1.51,13.016,31.75,31.75,0,0,1-1.936,5.4,20.035,20.035,0,0,1-2.557,4.3,10.617,10.617,0,0,1-3.161,2.668,10.775,10.775,0,0,1-2.95,1.021,11.347,11.347,0,0,1-1.959.18,3.533,3.533,0,0,1-.684-.019,3.549,3.549,0,0,1,.679-.079,13.971,13.971,0,0,0,1.926-.269,10.981,10.981,0,0,0,2.855-1.073,10.487,10.487,0,0,0,3.025-2.645,20.045,20.045,0,0,0,2.457-4.254,31.979,31.979,0,0,0,1.87-5.344,65.808,65.808,0,0,0,1.459-12.928c.2-4.621.259-9.082,1.146-13.048.86-3.945,2.572-7.37,4.875-9.45a11.225,11.225,0,0,1,6.5-3,9.01,9.01,0,0,1,1.133-.079,6.794,6.794,0,0,1,.831.007A3.54,3.54,0,0,1,283.988,416.264Z" transform="translate(-254.549 -416.183)" fill="#263238"/></g><g transform="translate(75.656 315.977)"><path d="M323.438,400.3c0,.135-15.161.244-33.858.244s-33.861-.109-33.861-.244,15.158-.243,33.861-.243S323.438,400.165,323.438,400.3Z" transform="translate(-255.718 -400.056)" fill="#e0e0e0"/></g><g transform="translate(79.293 326.05)"><path d="M325.086,411.064c0,.135-14.66.243-32.739.243s-32.742-.109-32.742-.243,14.657-.244,32.742-.244S325.086,410.929,325.086,411.064Z" transform="translate(-259.605 -410.82)" fill="#e0e0e0"/></g><g transform="translate(123.227 345.639)"><path d="M374.271,432c0,.135-15.161.244-33.858.244s-33.861-.11-33.861-.244,15.158-.243,33.861-.243S374.271,431.861,374.271,432Z" transform="translate(-306.551 -431.752)" fill="#e0e0e0"/></g><g transform="translate(129.664 357.392)"><path d="M375.552,444.554c0,.135-13.907.243-31.06.243s-31.062-.109-31.062-.243,13.9-.243,31.062-.243S375.552,444.42,375.552,444.554Z" transform="translate(-313.429 -444.311)" fill="#e0e0e0"/></g></g><g transform="translate(26.398 96.975)"><g transform="translate(0.175 0.178)"><path d="M69.9,146.773l-6.191-.747A23.776,23.776,0,1,1,69.83,140.1l.01-.008Z" transform="translate(-26.802 -102.533)" fill="#fff"/></g><path d="M69.886,146.76s-.012-.158-.021-.45c-.007-.309-.018-.737-.031-1.291-.022-1.143-.053-2.8-.094-4.937l.142.067-.01.008a.086.086,0,0,1-.123-.012.09.09,0,0,1,0-.107,23.7,23.7,0,0,0,4.165-10.578,24.256,24.256,0,0,0-.2-7.493,23.617,23.617,0,0,0-3.066-7.931,24.062,24.062,0,0,0-6.41-6.856,23.029,23.029,0,0,0-9.3-4.02,24.088,24.088,0,0,0-10.762.465,23.048,23.048,0,0,0-9.8,5.58,24.158,24.158,0,0,0-3.71,4.467c-.478.831-.97,1.655-1.379,2.511l-.562,1.306-.276.651-.211.674a24.017,24.017,0,0,0-.974,10.836,22.961,22.961,0,0,0,3.663,9.548,24.1,24.1,0,0,0,6.667,6.714,23.707,23.707,0,0,0,7.865,3.375l1.962.344c.645.1,1.289.111,1.916.17a21.313,21.313,0,0,0,3.633-.068,23.686,23.686,0,0,0,10.685-3.79.09.09,0,0,1,.057-.014l4.562.6,1.2.165c.271.038.419.066.419.066s-.127,0-.391-.031l-1.184-.124-4.626-.508.057-.013a23.636,23.636,0,0,1-10.751,3.922,21.557,21.557,0,0,1-3.676.093c-.635-.056-1.288-.066-1.942-.162l-1.99-.34a23.967,23.967,0,0,1-7.993-3.388,24.436,24.436,0,0,1-6.792-6.8,23.329,23.329,0,0,1-3.746-9.7,24.4,24.4,0,0,1,.978-11.031l.213-.686.281-.664q.285-.664.572-1.331c.416-.871.915-1.712,1.4-2.558a24.573,24.573,0,0,1,3.775-4.548,23.437,23.437,0,0,1,9.984-5.678,24.47,24.47,0,0,1,10.953-.46,23.391,23.391,0,0,1,9.453,4.108,24.387,24.387,0,0,1,6.487,6.984,23.853,23.853,0,0,1,3.077,8.059,24.467,24.467,0,0,1,.158,7.59,23.659,23.659,0,0,1-4.3,10.642l-.126-.119.01-.008a.087.087,0,0,1,.123.012.089.089,0,0,1,.02.055c0,2.162-.006,3.837-.007,4.992,0,.545-.007.967-.009,1.271C69.894,146.626,69.886,146.76,69.886,146.76Z" transform="translate(-26.615 -102.343)" fill="#263238"/><g transform="translate(13.431 15.653)"><path d="M40.966,128.788,43.94,125.6l6.117,5.076L61.33,119.069l2.963,2.981L49.819,136.633Z" transform="translate(-40.966 -119.069)" fill="#9866b7"/></g></g><g transform="translate(60.789 87.835)"><g transform="translate(25.883)"><g transform="translate(2.52 8.057)"><path d="M96.706,116.406a17.962,17.962,0,0,1,19.056-15.173l.928.068c9.959,1.313,14.409,10.5,12.821,20.425l-3.467,35.21-.168,7.277-23.721,2.151.51-15.366s-9.506-2.2-8.925-11.818C94.02,134.533,95.378,125.01,96.706,116.406Z" transform="translate(-93.714 -101.186)" fill="#ffbf9d"/><g transform="translate(8.865 47.024)"><path d="M103.194,154.2a23.384,23.384,0,0,0,12.866-2.77s-3.343,6.94-12.872,5.375Z" transform="translate(-103.187 -151.434)" fill="#ff9a6c"/></g><g transform="translate(6.71 23.662)"><path d="M100.891,127.617a1.376,1.376,0,0,0,1.223,1.481,1.316,1.316,0,0,0,1.5-1.135,1.378,1.378,0,0,0-1.221-1.482A1.318,1.318,0,0,0,100.891,127.617Z" transform="translate(-100.884 -126.47)" fill="#263238"/></g><g transform="translate(4.698 18.817)"><path d="M98.752,122.551c.157.192,1.253-.5,2.731-.391,1.477.091,2.506.929,2.679.761.084-.075-.066-.411-.512-.789a3.78,3.78,0,0,0-2.129-.83,3.627,3.627,0,0,0-2.19.535C98.851,122.152,98.674,122.465,98.752,122.551Z" transform="translate(-98.734 -121.293)" fill="#263238"/></g><g transform="translate(20.554 24.982)"><path d="M115.684,129.028a1.376,1.376,0,0,0,1.223,1.48,1.316,1.316,0,0,0,1.506-1.134,1.377,1.377,0,0,0-1.222-1.482A1.318,1.318,0,0,0,115.684,129.028Z" transform="translate(-115.677 -127.88)" fill="#263238"/></g><g transform="translate(19.201 20.151)"><path d="M114.249,123.976c.157.192,1.255-.5,2.731-.39,1.477.09,2.506.928,2.679.76.084-.075-.064-.411-.513-.789a3.78,3.78,0,0,0-2.128-.83,3.628,3.628,0,0,0-2.19.535C114.35,123.577,114.171,123.89,114.249,123.976Z" transform="translate(-114.231 -122.718)" fill="#263238"/></g><g transform="translate(9.369 19.713)"><path d="M107.414,134.512a9.731,9.731,0,0,0-2.368-.608c-.374-.066-.726-.168-.771-.43a1.935,1.935,0,0,1,.333-1.1q.633-1.331,1.325-2.792c1.847-3.977,3.214-7.258,3.054-7.331s-1.789,3.091-3.636,7.068q-.67,1.473-1.279,2.812a2.188,2.188,0,0,0-.3,1.466.951.951,0,0,0,.58.6,2.621,2.621,0,0,0,.635.136A9.691,9.691,0,0,0,107.414,134.512Z" transform="translate(-103.725 -122.251)" fill="#263238"/></g><g transform="translate(12.337 33.313)"><path d="M111.892,136.783c-.24-.032-.359,1.572-1.815,2.61s-3.15.737-3.179.961c-.029.1.358.339,1.078.412a4.008,4.008,0,0,0,2.647-.711,3.492,3.492,0,0,0,1.419-2.2C112.152,137.192,112,136.782,111.892,136.783Z" transform="translate(-106.896 -136.783)" fill="#263238"/></g><g transform="translate(19.254 14.675)"><path d="M114.293,117.783c.116.412,1.6.329,3.323.664,1.725.3,3.085.91,3.342.566.115-.165-.1-.561-.638-.991a5.892,5.892,0,0,0-5.078-.938C114.587,117.3,114.244,117.588,114.293,117.783Z" transform="translate(-114.288 -116.866)" fill="#263238"/></g><g transform="translate(5.541 14.486)"><path d="M99.664,118.018c.236.354,1.278.08,2.5.153,1.227.03,2.243.39,2.507.056.117-.162-.022-.51-.451-.861a3.63,3.63,0,0,0-4.038-.168C99.729,117.511,99.561,117.846,99.664,118.018Z" transform="translate(-99.635 -116.665)" fill="#263238"/></g><g transform="translate(32.764 27.441)"><path d="M129.532,132.853a2.615,2.615,0,0,1,3-2.31c1.781.3,3.7,1.465,3.314,5.161-.689,6.557-7.13,4.513-7.122,4.324C128.73,139.9,129.219,135.594,129.532,132.853Z" transform="translate(-128.724 -130.508)" fill="#ffbf9d"/></g><g transform="translate(34.441 29.58)"><path d="M130.524,137.858c.032-.018.107.093.29.2a1.14,1.14,0,0,0,.852.108,2.842,2.842,0,0,0,1.575-2.4,3.8,3.8,0,0,0-.149-1.669,1.328,1.328,0,0,0-.766-.968.587.587,0,0,0-.708.242c-.107.174-.079.31-.115.317-.02.014-.129-.124-.048-.39a.733.733,0,0,1,.3-.384.863.863,0,0,1,.649-.1,1.612,1.612,0,0,1,1.086,1.142,3.887,3.887,0,0,1,.2,1.869,2.98,2.98,0,0,1-1.963,2.657,1.231,1.231,0,0,1-1.027-.283C130.52,138.018,130.5,137.867,130.524,137.858Z" transform="translate(-130.516 -132.794)" fill="#ff9a6c"/></g></g><path d="M132.367,123.734c-.543,1.88-.345,5-2.027,4.578-3.335-.84-2.536,6-4.136,5.326-1.579-.66-2.975-2.606-3.073-6.812-.125-5.34,2.023-9.195-.081-15.31a8.093,8.093,0,0,0-6.749-4.19,8.231,8.231,0,0,0-7.084,3.753c-.3-1.863-1.207-4.674-2.867-5.571a4.812,4.812,0,0,0-5.305.44,3.915,3.915,0,0,0-.694,5.1,1.874,1.874,0,0,1-2.1-.754,3.2,3.2,0,0,0,.834,2.4,2.953,2.953,0,0,1-1.693-1.179l.5,2.313c-2.812.075-5.564-2.648-6.344-5.071-1.184-3.672-.271-7.376,1.781-10.644a11.56,11.56,0,0,1,9.586-5.535c3.858.036,7.089,1.863,8.578,5.423,2.5-1.772,7.577-2.386,10.369-1.117a9.009,9.009,0,0,1,5.131,7.14,5.37,5.37,0,0,1,5.315,1.031c.123.1.241.2.357.31a8.014,8.014,0,0,1,2.328,7.4c-.2,1.07-.574,2.178-.792,3.036C133.551,118.346,132.367,123.734,132.367,123.734Z" transform="translate(-91.021 -92.577)" fill="#263238"/><g transform="translate(4.876 7.812)"><path d="M98.149,110.656a1.063,1.063,0,0,1-.225-.177,4.041,4.041,0,0,1-.552-.606,5.622,5.622,0,0,1-1.1-2.793,5.335,5.335,0,0,1,1.309-4.208,5.755,5.755,0,0,1,5.016-1.894,6.511,6.511,0,0,1,2.661,1.043,8.73,8.73,0,0,1,1.96,1.792,10.414,10.414,0,0,1,2.012,3.98,10.184,10.184,0,0,1,.328,2.991,8.081,8.081,0,0,1-.08.814,1.053,1.053,0,0,1-.059.28,12.356,12.356,0,0,0-.386-4.032,10.457,10.457,0,0,0-2.021-3.862,7.341,7.341,0,0,0-4.455-2.719,5.525,5.525,0,0,0-4.776,1.786,5.162,5.162,0,0,0-1.3,4.008,5.751,5.751,0,0,0,.988,2.748C97.865,110.38,98.17,110.634,98.149,110.656Z" transform="translate(-96.231 -100.925)" fill="#455a64"/></g><g transform="translate(2.815 5.826)"><path d="M96.72,113.458a1.773,1.773,0,0,1-.2-.32c-.121-.215-.3-.533-.514-.949a20.322,20.322,0,0,1-1.545-3.662,10.507,10.507,0,0,1-.431-2.725,7.629,7.629,0,0,1,.57-3.121A6.074,6.074,0,0,1,96.852,100a7.37,7.37,0,0,1,3.569-1.182,8.983,8.983,0,0,1,3.714.593,11.722,11.722,0,0,1,3.042,1.733,9.087,9.087,0,0,1,3.323,4.817,6.609,6.609,0,0,1-.194,3.947,5.374,5.374,0,0,1-.491.967,1.863,1.863,0,0,1-.231.3,8.991,8.991,0,0,0,.616-1.306,6.653,6.653,0,0,0,.1-3.857,8.972,8.972,0,0,0-3.289-4.658,9.987,9.987,0,0,0-6.573-2.247,7.132,7.132,0,0,0-3.432,1.13,5.831,5.831,0,0,0-2.164,2.549,7.46,7.46,0,0,0-.575,3.012,10.541,10.541,0,0,0,.388,2.673,22.452,22.452,0,0,0,1.449,3.667l.465.972A1.911,1.911,0,0,1,96.72,113.458Z" transform="translate(-94.029 -98.802)" fill="#455a64"/></g><g transform="translate(39.027 14.533)"><path d="M132.725,120.481c-.035-.043.605-.493,1.4-1.442a9.623,9.623,0,0,0,1.878-9.052c-.356-1.189-.764-1.856-.715-1.881a1.812,1.812,0,0,1,.307.454,8.112,8.112,0,0,1,.6,1.364,9.273,9.273,0,0,1-1.918,9.251,8.086,8.086,0,0,1-1.1,1.012A1.8,1.8,0,0,1,132.725,120.481Z" transform="translate(-132.724 -108.106)" fill="#455a64"/></g><g transform="translate(33.045 15.932)"><path d="M126.332,120.388c-.011-.028.328-.146.849-.5a4.769,4.769,0,0,0,1.656-2l.276-.627-.062.684c-.082.925-.179,1.99-.283,3.144l-.213-.128a8.631,8.631,0,0,0,3.614-5.562,8.756,8.756,0,0,0-.019-3.086,11.946,11.946,0,0,0-.928-2.716c.008,0,.051.051.124.161a5.518,5.518,0,0,1,.293.5,8.137,8.137,0,0,1,.713,2.013,8.6,8.6,0,0,1-3.643,8.918l-.245.163.031-.291c.123-1.153.235-2.216.333-3.139l.214.057a4.669,4.669,0,0,1-1.793,2.009,4.027,4.027,0,0,1-.665.328A.741.741,0,0,1,126.332,120.388Z" transform="translate(-126.332 -109.601)" fill="#455a64"/></g><g transform="translate(19.378 9.51)"><path d="M123.572,106.116a6.225,6.225,0,0,0-1.52-1.9,5.584,5.584,0,0,0-2.364-1.1,5.878,5.878,0,0,0-3.161.286,6.8,6.8,0,0,0-2.648,1.789,8.1,8.1,0,0,0-1.426,2.219,15.888,15.888,0,0,0-.716,2.352,2.35,2.35,0,0,1,.048-.667,8.2,8.2,0,0,1,.479-1.763,7.873,7.873,0,0,1,1.417-2.319,6.884,6.884,0,0,1,2.746-1.883,6.014,6.014,0,0,1,3.317-.276,5.592,5.592,0,0,1,2.44,1.2,4.864,4.864,0,0,1,1.15,1.427,3.164,3.164,0,0,1,.2.458C123.567,106.055,123.581,106.113,123.572,106.116Z" transform="translate(-111.728 -102.739)" fill="#455a64"/></g><g transform="translate(19.363 6.769)"><path d="M122.035,100.914a9.283,9.283,0,0,0-1.812-.7,6.574,6.574,0,0,0-4.51.636,8.2,8.2,0,0,0-3.194,3.32c-.569,1.062-.752,1.8-.8,1.784a1.711,1.711,0,0,1,.1-.523,8.207,8.207,0,0,1,3.758-4.835,6.471,6.471,0,0,1,4.7-.581,4.967,4.967,0,0,1,1.339.572A1.572,1.572,0,0,1,122.035,100.914Z" transform="translate(-111.711 -99.81)" fill="#455a64"/></g></g><g transform="translate(16.821 317.706)"><g transform="translate(0.014)"><path d="M98.964,432.129l.662,18s-18.072,6.717-18.273,10.055l34.942-.03.12-28.084Z" transform="translate(-81.353 -432.067)" fill="#263238"/></g><g transform="translate(27.385 16.478)"><path d="M112.306,449.733a1.428,1.428,0,0,1,.988,1.627,1.372,1.372,0,0,1-1.6.994,1.505,1.505,0,0,1-1.037-1.729,1.422,1.422,0,0,1,1.784-.848" transform="translate(-110.601 -449.674)" fill="#e0e0e0"/></g><g transform="translate(0 25.253)"><path d="M116.294,461.883l-.1-2.831-33.464,1.087s-1.555.678-1.378,1.773Z" transform="translate(-81.338 -459.052)" fill="#263238"/></g><g transform="translate(17.719 17.724)"><path d="M100.273,451.164c.007.171.859.248,1.7.8.854.526,1.288,1.265,1.445,1.2.157-.033-.1-1.053-1.127-1.7S100.236,451.008,100.273,451.164Z" transform="translate(-100.272 -451.006)" fill="#fff"/></g><g transform="translate(14.056 19.331)"><path d="M96.359,452.793c-.039.166.7.455,1.28,1.176.6.7.748,1.484.918,1.477.16.027.277-.972-.461-1.856S96.362,452.63,96.359,452.793Z" transform="translate(-96.357 -452.724)" fill="#fff"/></g><g transform="translate(10.611 20.846)"><path d="M94.044,457.285c.155.036.392-.816-.047-1.75s-1.237-1.306-1.309-1.163c-.1.14.422.641.77,1.414C93.825,456.55,93.875,457.269,94.044,457.285Z" transform="translate(-92.676 -454.342)" fill="#fff"/></g><g transform="translate(18.019 13.149)"><path d="M100.6,446.733c.071.155.854-.082,1.818-.016.966.045,1.716.368,1.805.222.1-.124-.634-.754-1.771-.815S100.514,446.6,100.6,446.733Z" transform="translate(-100.592 -446.118)" fill="#fff"/></g></g><g transform="translate(72.022 319.416)"><path d="M142.844,433.894l1.392,21.744-3.859,17.516a2.232,2.232,0,0,0,1.849,2.688h0a2.214,2.214,0,0,0,1.935-.656c3.192-3.322,14.871-15.6,14.68-17.188-.221-1.836.056-23.034.056-23.034Z" transform="translate(-140.324 -433.894)" fill="#263238"/><g transform="translate(1.902 22.634)"><path d="M142.356,477.394l16.556-19.314.038.923a3.362,3.362,0,0,1-.707,2.209c-1.316,1.682-5.05,6.244-13.885,15.524a2.232,2.232,0,0,1-2,.658Z" transform="translate(-142.356 -458.08)" fill="#263238"/></g><g transform="translate(13.194 15.555)" opacity="0.6"><path d="M154.93,450.756a1.35,1.35,0,0,0-.3,1.777,1.3,1.3,0,0,0,1.759.31,1.426,1.426,0,0,0,.305-1.884,1.347,1.347,0,0,0-1.866-.119" transform="translate(-154.422 -450.516)" fill="#fff"/></g><g transform="translate(1.982 29.87)"><path d="M146.947,468.174a4.815,4.815,0,0,0-4.5-1.991c-.022-.052.247-.233.753-.326a3.56,3.56,0,0,1,3.485,1.541C146.953,467.834,147,468.154,146.947,468.174Z" transform="translate(-142.442 -465.812)" fill="#fff"/></g><g transform="translate(0.949 33.776)"><path d="M145.445,471.421a18.318,18.318,0,0,0-1.967-.857,18.188,18.188,0,0,0-2.137-.186,2.478,2.478,0,0,1,2.256-.277C144.893,470.422,145.556,471.358,145.445,471.421Z" transform="translate(-141.338 -469.986)" fill="#fff"/></g><g transform="translate(3.014 26.021)"><path d="M149.751,464.055a22.367,22.367,0,0,0-2.946-1.527,22.076,22.076,0,0,0-3.26-.62,6.1,6.1,0,0,1,6.206,2.148Z" transform="translate(-143.544 -461.699)" fill="#fff"/></g><g transform="translate(3.66 20.94)"><path d="M149.925,457.062c-.052.133-1.276-.321-2.843-.313-1.567-.014-2.793.434-2.845.3a5.537,5.537,0,0,1,5.688.011Z" transform="translate(-144.234 -456.27)" fill="#fff"/></g><g transform="translate(3.291 14.444)"><path d="M149.653,450.223a10.944,10.944,0,0,0-2.952-.4,10.97,10.97,0,0,0-2.857.843c-.037-.044.189-.327.679-.637a4.86,4.86,0,0,1,4.362-.329C149.417,449.928,149.683,450.174,149.653,450.223Z" transform="translate(-143.841 -449.328)" fill="#fff"/></g><g transform="translate(2.593 9.362)"><path d="M146.643,448.252a1.875,1.875,0,0,1-.064-.823,5.72,5.72,0,0,1,.566-2.183,2.537,2.537,0,0,1,1.038-1.256.9.9,0,0,1,1.019.158,1.459,1.459,0,0,1,.385.969,3.155,3.155,0,0,1-2.644,3.03,3.66,3.66,0,0,1-3.671-1.765,1.274,1.274,0,0,1-.1-1.054.882.882,0,0,1,.9-.5,3.129,3.129,0,0,1,1.465.686,6.37,6.37,0,0,1,1.555,1.631,1.916,1.916,0,0,1,.365.738,10.126,10.126,0,0,0-2.114-2.093,2.925,2.925,0,0,0-1.291-.567.469.469,0,0,0-.493.271.872.872,0,0,0,.109.688,3.267,3.267,0,0,0,3.2,1.495,2.74,2.74,0,0,0,2.281-2.54,1.059,1.059,0,0,0-.24-.688.486.486,0,0,0-.561-.1,2.3,2.3,0,0,0-.9,1.047A8.449,8.449,0,0,0,146.643,448.252Z" transform="translate(-143.094 -443.898)" fill="#fff"/></g></g><g transform="translate(15.672 162.208)"><g transform="translate(1.149)"><path d="M83.652,269.349a77.358,77.358,0,0,0-2.212,22.71c.26,4.842,15.815,144.773,15.815,144.773l19.791-1.78-3.421-130.828.83.741s11.79,55.041,12.57,63.744c.7,7.821,10.113,70.652,10.113,70.652l19.2-.912-4.351-79.427-5.825-72.109-2.333-21Z" transform="translate(-81.338 -265.907)" fill="#263238"/></g><g transform="translate(26.189 9.092)"><path d="M119.148,293.567a4.24,4.24,0,0,1-.931.5,10.637,10.637,0,0,1-2.75.892,5.745,5.745,0,0,1-2.03-.033,4.17,4.17,0,0,1-2.1-1.068,5.038,5.038,0,0,1-1.235-2.279c-.24-.862-.368-1.755-.529-2.663-.619-3.644-1.018-6.967-1.24-9.378-.111-1.205-.181-2.182-.215-2.858a4.5,4.5,0,0,1,0-1.055,4.707,4.707,0,0,1,.183,1.038c.1.767.22,1.717.363,2.839.305,2.4.755,5.7,1.372,9.336.314,1.8.514,3.623,1.607,4.716a4.572,4.572,0,0,0,3.78,1.077,12.391,12.391,0,0,0,2.725-.732A4.979,4.979,0,0,1,119.148,293.567Z" transform="translate(-108.094 -275.622)" fill="#455a64"/></g><g transform="translate(29.377 9.71)"><path d="M113.13,276.408c-.007-.021.145-.111.456-.124a1.982,1.982,0,0,1,1.223.425,2.2,2.2,0,0,1,.889,1.723,2.184,2.184,0,0,1-3.75,1.309,2.2,2.2,0,0,1-.376-1.9,1.97,1.97,0,0,1,.693-1.093c.251-.183.426-.207.433-.186a2.49,2.49,0,0,0-.8,1.349,1.927,1.927,0,0,0,.383,1.555,1.786,1.786,0,0,0,2.992-1.044,1.923,1.923,0,0,0-.668-1.455A2.476,2.476,0,0,0,113.13,276.408Z" transform="translate(-111.501 -276.283)" fill="#455a64"/></g><g transform="translate(48.815 12.131)"><path d="M149.158,286.446a2.41,2.41,0,0,1-.753.1,14.034,14.034,0,0,1-2.066-.023,20.009,20.009,0,0,1-12.246-5.494A14.159,14.159,0,0,1,132.7,279.5c-.3-.387-.45-.608-.426-.629.064-.053.752.774,2.041,1.914a22.208,22.208,0,0,0,12.055,5.408C148.08,286.4,149.155,286.363,149.158,286.446Z" transform="translate(-132.272 -278.869)" fill="#455a64"/></g><g transform="translate(0 9.809)"><path d="M92.468,276.39a9.413,9.413,0,0,1-1.2,2.22,25.243,25.243,0,0,1-8.86,8.225,9.4,9.4,0,0,1-2.3,1.027,23.72,23.72,0,0,1,2.136-1.311A30.565,30.565,0,0,0,91,278.423,23.532,23.532,0,0,1,92.468,276.39Z" transform="translate(-80.11 -276.389)" fill="#455a64"/></g></g><g transform="translate(0 62.489)"><g transform="translate(0 30.487)"><path d="M71.757,191.927c-2.944,8.58-2.616,7.85-8.116,33.488-1.015,4.731.775,12.125,5.04,14.408s11.847-.223,14.386-4.341l4.087-38.7Z" transform="translate(-63.363 -191.927)" fill="#ffbf9d"/></g><g transform="translate(2.502)"><g transform="translate(21.288 5.077)"><line fill="#ff725e"/></g><path d="M142.865,236.337l-.112-20.388.08-2,20.694-4.83s-4.062-13.385-7.79-27.77c-2.151-8.306-9.313-12.479-11.044-13.381v-.011l-.378-.177,0,0h0L124.4,159.35c-4.02,4.291-9.884,7.731-15.528,6.083a17.646,17.646,0,0,1-8.19-5.592l-13.425,4.606v.006a17.391,17.391,0,0,0-9.279,7.523c-2.809,4.967-11.781,27.751-11.937,28.259l16.623,1.494s-2.951,53.918-1.905,63.551c0,0,4.036,2.792,14.225,3.274,20.655.975,51.4-.492,51.4-.492-.482-3.112-.986-8.307-1.271-10.939Z" transform="translate(-66.037 -159.35)" fill="#9866b7"/></g><g transform="translate(17.402 22.297)"><path d="M84.246,183.176c.084,0-.358,12.861-.986,28.716S82.053,240.6,81.969,240.6s.357-12.859.986-28.72S84.162,183.172,84.246,183.176Z" transform="translate(-81.959 -183.176)" fill="#263238"/></g><g transform="translate(77.027 25.892)"><path d="M145.7,187.017c-.148.007.27,11.418.933,25.484s1.32,25.467,1.467,25.459-.27-11.414-.934-25.485S145.849,187.01,145.7,187.017Z" transform="translate(-145.672 -187.017)" fill="#263238"/></g><g transform="translate(47.887 23.591)"><g transform="translate(13.868 19.86)"><path d="M167.683,221.8c-.674-5.06-1.234-9.536-1.234-9.536L149.9,216.109l.707,2.665-12.792-12.993-2.025.175-6.439,6.7s5.612,11.855,8.877,16.471c4.246,6,10.926,15.159,20.069,14.39C166.751,242.8,168.892,230.884,167.683,221.8Z" transform="translate(-129.353 -205.781)" fill="#ffbf9d"/></g><g transform="translate(35.273 33.169)"><path d="M160.186,225.743a20.816,20.816,0,0,0-7.958-5.728c-.073.138,1.824,1.243,4.009,2.823S160.079,225.856,160.186,225.743Z" transform="translate(-152.226 -220.003)" fill="#ff9a6c"/></g><path d="M114.534,187.462l5.684-2.9,7.373,2.344,3.656,3.368,5.618,14.148,4.5,5.7-7.941,10.348-5.024-9.171s-4.264-1.863-5.97-4.554-2.474-4.154-2.474-4.154-2.463-1.181-2.919-2.316a5.625,5.625,0,0,1-.435-2.019l1.247-1.819a4.57,4.57,0,0,1,.375-2.321,2.269,2.269,0,0,1,.982-.78s-.366-1.535.209-2.084a17.646,17.646,0,0,1,3.4-1.56h0l-2.48-1.408S114.839,189.98,114.534,187.462Z" transform="translate(-114.534 -184.559)" fill="#ffbf9d"/><g transform="translate(4.649 7.971)"><path d="M123.293,193.146c0,.072-.871.094-1.912.316s-1.848.548-1.878.483a5.882,5.882,0,0,1,3.79-.8Z" transform="translate(-119.502 -193.076)" fill="#ff9a6c"/></g><g transform="translate(3.457 11.115)"><path d="M121.505,196.537c0,.071-.747.069-1.643.209s-1.608.355-1.633.288a4.985,4.985,0,0,1,3.276-.5Z" transform="translate(-118.228 -196.436)" fill="#ff9a6c"/></g><g transform="translate(4.222 14.745)"><path d="M119.153,201.759c-.067,0-.115-.326-.107-.724s.069-.721.137-.72.115.326.107.724S119.22,201.76,119.153,201.759Z" transform="translate(-119.045 -200.315)" fill="#ff9a6c"/></g><g transform="translate(3.747 15.563)"><path d="M120.208,203.35a2.531,2.531,0,0,0-1.67-2.137c0-.029.18-.047.45.039a1.945,1.945,0,0,1,1.291,1.651C120.3,203.186,120.237,203.354,120.208,203.35Z" transform="translate(-118.538 -201.189)" fill="#ff9a6c"/></g><g transform="translate(7.524 11.751)"><path d="M124.914,198.552a2.645,2.645,0,0,0-2.34-1.306c-.008-.027.148-.106.425-.125a1.967,1.967,0,0,1,1.8,1C124.926,198.37,124.941,198.543,124.914,198.552Z" transform="translate(-122.574 -197.116)" fill="#ff9a6c"/></g><g transform="translate(10.303 8.586)"><path d="M127.694,195.189c-.065.027-.288-.561-.91-.946a4.265,4.265,0,0,0-1.24-.427c0-.029.149-.087.41-.082a1.956,1.956,0,0,1,1.642,1.048C127.709,195.017,127.722,195.181,127.694,195.189Z" transform="translate(-125.544 -193.734)" fill="#ff9a6c"/></g><g transform="translate(12.387 6.047)"><path d="M129.572,193.473c-.036-.007-.019-.2-.059-.489a2.181,2.181,0,0,0-1.293-1.739c-.268-.124-.454-.161-.449-.2s.2-.053.51.038a1.983,1.983,0,0,1,1.4,1.888C129.681,193.294,129.6,193.479,129.572,193.473Z" transform="translate(-127.77 -191.021)" fill="#ff9a6c"/></g><g transform="translate(6.606 4.744)"><path d="M126.769,189.685c0,.086-1.193.106-2.625.324s-2.519.725-2.55.655a5.918,5.918,0,0,1,2.511-.9,11.572,11.572,0,0,1,1.883-.14A2.484,2.484,0,0,1,126.769,189.685Z" transform="translate(-121.593 -189.628)" fill="#ff9a6c"/></g></g></g><g transform="translate(17.659 115.14)" opacity="0.3"><path d="M108.052,223.305a10.192,10.192,0,0,0-1.4-4.713c-1.663-2.345-4.93-2.846-7.8-2.705s-5.85.7-8.553-.276l-8.06,23.941a12,12,0,0,0,7.279-5.3c.824-1.339,1.422-2.891,2.669-3.849,1.716-1.32,4.1-1.125,6.264-1.148a25.08,25.08,0,0,0,6.7-.986,4.459,4.459,0,0,0,2.456-1.4A4.908,4.908,0,0,0,108.052,223.305Z" transform="translate(-82.233 -215.611)"/></g><g transform="translate(3.401 91.097)"><g transform="translate(16.482)"><g transform="translate(2.8)"><path d="M87.631,193.632l2.5,26.642a3.747,3.747,0,0,0,1.648,3.069L107.941,223a6.383,6.383,0,0,0,1.235-4.529l-1.789-25.5c-.108-1.533-.68-2.641-1.373-2.657l-17.021-.392C88.127,189.9,87.453,191.737,87.631,193.632Z" transform="translate(-87.602 -189.92)" fill="#263238"/></g><g transform="translate(0 4.95)"><path d="M85.09,199.33a2.345,2.345,0,0,1,.052-2.889,3.57,3.57,0,0,1,2.768-1.232,7.8,7.8,0,0,1,3.031.7,19.869,19.869,0,0,1,3.415,1.8,3.3,3.3,0,0,1,1.674,2.052c.13.9-.869,1.9-1.65,1.435a3.814,3.814,0,0,1,2.168,2.708c.138,1.14-.483,1.736-1.591,2.038a1.71,1.71,0,0,1,.939,2.211,1.966,1.966,0,0,1-2.48.694,5.719,5.719,0,0,1-2.1-1.85,6.475,6.475,0,0,1,.287,4.059c-2.41-.885-4.786-3.566-4.067-6.113a3.45,3.45,0,0,1-.968-4.126,3.381,3.381,0,0,1-1.948-2.87" transform="translate(-84.61 -195.209)" fill="#ffbf9d"/></g></g><g transform="translate(0 6.748)"><path d="M83.69,197.13,83.5,208.519l-2.953,4.441L67,225.069s2.009,16.458,8.122,14.662,7.594-2.967,11.209-9.607c1.937-3.558,3.129-9.341,4.246-12.66.654-1.946.079-8.215.079-8.215Z" transform="translate(-66.998 -197.13)" fill="#ffbf9d"/></g><g transform="translate(19.284 13.016)"><path d="M95.129,206.512a9.513,9.513,0,0,1-1.033-.828,7.088,7.088,0,0,0-2.735-1.48,3.786,3.786,0,0,0-1.685-.036,3.133,3.133,0,0,0-1.244.586,3.934,3.934,0,0,0-.824.991.729.729,0,0,1,.1-.348,2.465,2.465,0,0,1,.6-.788,3.137,3.137,0,0,1,1.307-.679,3.844,3.844,0,0,1,1.8.016,6.515,6.515,0,0,1,2.8,1.6A5.052,5.052,0,0,1,95.129,206.512Z" transform="translate(-87.604 -203.829)" fill="#ff9a6c"/></g><g transform="translate(18.315 9.011)"><path d="M94.9,201.6a5.556,5.556,0,0,1-1.263-.561c-.38-.191-.828-.424-1.345-.624a11.464,11.464,0,0,0-1.736-.493,5.025,5.025,0,0,0-1.774-.058,3.245,3.245,0,0,0-1.328.541,3.346,3.346,0,0,0-.882,1,.761.761,0,0,1,.109-.361,2.36,2.36,0,0,1,.659-.794,3.238,3.238,0,0,1,1.4-.632,4.952,4.952,0,0,1,1.869.037,10.27,10.27,0,0,1,1.778.527,11.629,11.629,0,0,1,1.343.687A9.74,9.74,0,0,1,94.9,201.6Z" transform="translate(-86.569 -199.549)" fill="#ff9a6c"/></g><g transform="translate(0.888 17.769)"><path d="M68.519,232.372a11.136,11.136,0,0,1-.167-4.243,12.906,12.906,0,0,1,1.6-4.307,20.969,20.969,0,0,1,3.579-4.388c1.458-1.4,2.956-2.634,4.294-3.79a42.843,42.843,0,0,0,3.423-3.228,18.933,18.933,0,0,0,1.974-2.488,4.489,4.489,0,0,0,.563-1.02,8.147,8.147,0,0,0-.706.919,24.284,24.284,0,0,1-2.061,2.37c-.931.947-2.112,2-3.463,3.132s-2.86,2.359-4.337,3.783a20.431,20.431,0,0,0-3.625,4.5,12.693,12.693,0,0,0-1.555,4.466,9.048,9.048,0,0,0,.1,3.186,5.922,5.922,0,0,0,.249.83C68.461,232.283,68.5,232.378,68.519,232.372Z" transform="translate(-67.947 -208.907)" fill="#ff9a6c"/></g></g></g></g></svg>