<svg xmlns="http://www.w3.org/2000/svg" width="12.591" height="15.399" viewBox="0 0 12.591 15.399"><path d="M306.055-167.907c-.384,0-.744,0-1.1,0a2.1,2.1,0,0,1-2.067-1.656,2.226,2.226,0,0,1-.048-.471q0-2.77,0-5.54a2.091,2.091,0,0,1,2.13-2.127c1.087,0,2.174,0,3.262,0h.208c0-.245-.005-.483,0-.721a.681.681,0,0,1,.585-.667.684.684,0,0,1,.8.627c.013.244,0,.49,0,.76h3.432a2.1,2.1,0,0,1,2.17,2.17q0,2.729,0,5.458a2.1,2.1,0,0,1-2.159,2.167c-.348,0-.7,0-1.063,0l.518,1.506c.2.583.406,1.164.6,1.748a.693.693,0,0,1-.338.851.709.709,0,0,1-.911-.193,1.23,1.23,0,0,1-.15-.324q-.575-1.714-1.139-3.43a.2.2,0,0,0-.23-.161q-1.426.008-2.852,0a.186.186,0,0,0-.217.154q-.561,1.762-1.137,3.518a.736.736,0,0,1-.673.53.68.68,0,0,1-.711-.914c.351-1.033.692-2.069,1.036-3.1C306.014-167.776,306.03-167.828,306.055-167.907Zm3.071-2.8q1.352,0,2.7,0a1.118,1.118,0,0,0,.292-.028.688.688,0,0,0,.5-.75.688.688,0,0,0-.727-.613q-2.761,0-5.522,0c-.033,0-.066,0-.1,0a.687.687,0,0,0-.622.54.693.693,0,0,0,.722.849C307.291-170.708,308.208-170.71,309.126-170.71Zm-1.408-2.795c.458,0,.917,0,1.375,0a.694.694,0,0,0,.731-.7.691.691,0,0,0-.724-.7q-1.367-.008-2.734,0a.706.706,0,0,0-.736.7.705.705,0,0,0,.745.7C306.823-173.5,307.271-173.505,307.718-173.505Z" transform="translate(-302.834 179.099)" fill="#fff"/></svg>