<svg xmlns="http://www.w3.org/2000/svg" xmlns:xlink="http://www.w3.org/1999/xlink" width="602.867" height="602.867" viewBox="0 0 602.867 602.867"><defs><linearGradient id="a" x1="0.5" y1="0.528" x2="0.5" y2="1" gradientUnits="objectBoundingBox"><stop offset="0" stop-color="#f6f3f8" stop-opacity="0"/><stop offset="1" stop-color="#f6f3f7" stop-opacity="0.859"/></linearGradient></defs><path d="M301.434,602.867a303.659,303.659,0,0,1-60.749-6.124A299.782,299.782,0,0,1,132.9,551.387,302.315,302.315,0,0,1,23.688,418.765,299.922,299.922,0,0,1,6.124,362.183a304.375,304.375,0,0,1,0-121.5A299.782,299.782,0,0,1,51.48,132.9,302.313,302.313,0,0,1,184.1,23.688,299.921,299.921,0,0,1,240.684,6.124a304.375,304.375,0,0,1,121.5,0A299.783,299.783,0,0,1,469.968,51.48,302.315,302.315,0,0,1,579.179,184.1a299.92,299.92,0,0,1,17.564,56.582,304.374,304.374,0,0,1,0,121.5,299.783,299.783,0,0,1-45.356,107.785A302.317,302.317,0,0,1,418.765,579.179a299.921,299.921,0,0,1-56.582,17.564A303.656,303.656,0,0,1,301.434,602.867Zm0-509.375c-114.659,0-207.942,93.282-207.942,207.942s93.282,207.94,207.942,207.94,207.94-93.282,207.94-207.94S416.092,93.492,301.434,93.492Z" transform="translate(0 0)" fill="url(#a)"/></svg>