<svg xmlns="http://www.w3.org/2000/svg" width="13.976" height="12.819" viewBox="0 0 13.976 12.819"><g transform="translate(-374.234 -61.289)"><g transform="translate(374.234 61.289)"><path d="M388.21,62.811v9.772a.119.119,0,0,0-.021.033,1.749,1.749,0,0,1-1.836,1.488h-8.421c-.646,0-1.292.005-1.938,0a1.747,1.747,0,0,1-1.76-1.773q0-4.633,0-9.267a1.847,1.847,0,0,1,.043-.405,1.751,1.751,0,0,1,1.77-1.369h7.738c.883,0,1.765,0,2.648,0a1.754,1.754,0,0,1,1.736,1.38C388.183,62.718,388.2,62.765,388.21,62.811Zm-1.167,1.4H375.408c0,.047-.006.087-.006.127q0,3.985,0,7.97a.579.579,0,0,0,.627.63h10.385a.79.79,0,0,0,.163-.012.587.587,0,0,0,.466-.644q0-3.957,0-7.915Z" transform="translate(-374.234 -61.289)" fill="#fff"/><path d="M552.556,173.212c.55,0,1.1,0,1.651,0a.911.911,0,0,1,.969.964q0,1.658,0,3.316a.916.916,0,0,1-.964.959q-1.658,0-3.316,0a.909.909,0,0,1-.958-.961q0-1.658,0-3.316a.9.9,0,0,1,.967-.962C551.455,173.21,552.006,173.212,552.556,173.212Zm1.72.914c-.025,0-.057-.005-.088-.005-1.073-.011-2.146-.02-3.219-.037-.13,0-.161.037-.161.162,0,1.051,0,2.1,0,3.152,0,.043,0,.087.009.155h3.457Z" transform="translate(-543.529 -169.13)" fill="#fff"/><path d="M442.782,332.828q2.026,0,4.053,0a.577.577,0,0,1,.588.719.549.549,0,0,1-.431.427,1,1,0,0,1-.23.02q-3.978,0-7.955,0a.96.96,0,0,1-.295-.039.567.567,0,0,1-.38-.621.573.573,0,0,1,.571-.5c.518,0,1.037,0,1.556,0Z" transform="translate(-435.795 -322.925)" fill="#fff"/><path d="M439.533,206.138c-.277,0-.554,0-.831,0a.583.583,0,1,1-.014-1.165q.858-.008,1.717,0a.583.583,0,1,1-.013,1.165C440.106,206.14,439.819,206.138,439.533,206.138Z" transform="translate(-435.758 -199.729)" fill="#fff"/><path d="M439.526,270.16c-.277,0-.555,0-.832,0a.58.58,0,1,1,0-1.158q.853-.005,1.706,0a.58.58,0,1,1,0,1.159h-.873Z" transform="translate(-435.759 -261.424)" fill="#fff"/><path d="M589.8,210.443c0-.277,0-.555,0-.832a.436.436,0,0,1,.683-.4q.711.418,1.414.849a.433.433,0,0,1,0,.769q-.7.431-1.414.849a.436.436,0,0,1-.685-.392C589.8,211.007,589.8,210.725,589.8,210.443Z" transform="translate(-581.941 -203.748)" fill="#fff"/></g></g></svg>