<svg xmlns="http://www.w3.org/2000/svg" width="13.051" height="13.047" viewBox="0 0 13.051 13.047"><g transform="translate(741.321 132.645)"><g transform="translate(-741.321 -132.645)"><path d="M-728.272-127.644l0,.675c-.026.137-.045.275-.084.408a3,3,0,0,1-2.412,2.254.638.638,0,0,0-.41.294,4.024,4.024,0,0,1-3.414,2.053,4.059,4.059,0,0,1-3.852-2.123.383.383,0,0,0-.306-.21,3.053,3.053,0,0,1-2.505-3.628,3.054,3.054,0,0,1,2.594-2.4.221.221,0,0,0,.178-.13,4.05,4.05,0,0,1,3.523-2.188,4.068,4.068,0,0,1,3.877,2.214.175.175,0,0,0,.143.1,3.053,3.053,0,0,1,2.586,2.287C-728.319-127.91-728.3-127.776-728.272-127.644Zm-7.159-.81a.368.368,0,0,0,.321-.18.349.349,0,0,1,.394-.189.38.38,0,0,1,.3.308.376.376,0,0,1-.188.4,1.158,1.158,0,0,0-.517.654,1.706,1.706,0,0,0-.055.551.374.374,0,0,0,.374.366h.021a.375.375,0,0,0,.374-.381q0-.056,0-.112a.468.468,0,0,1,.244-.452,1.136,1.136,0,0,0,.4-1.479,1.146,1.146,0,0,0-1.431-.549,1.182,1.182,0,0,0-.585.5.374.374,0,0,0,.322.565Zm.27,3.062v.006a.374.374,0,0,0,.374.374h0a.374.374,0,0,0,.374-.374v-.006a.374.374,0,0,0-.374-.374h0A.374.374,0,0,0-735.162-125.391Z" transform="translate(741.321 132.645)" fill="#fff"/><path d="M-694.5,185.261a.368.368,0,0,1-.136-.026,2.261,2.261,0,0,1-.466-.209,1.118,1.118,0,0,1-.365-1.383,1.15,1.15,0,0,1,1.3-.648,1.154,1.154,0,0,1,.888,1.13,1.151,1.151,0,0,1-.91,1.111l-.033.009a.37.37,0,0,1-.109.016Z" transform="translate(697.129 -172.214)" fill="#fff"/></g></g></svg>