<svg xmlns="http://www.w3.org/2000/svg" xmlns:xlink="http://www.w3.org/1999/xlink"  viewBox="0 0 64 64"><defs><linearGradient id="a" x1="0.5" x2="0.5" y2="1" gradientUnits="objectBoundingBox"><stop offset="0" stop-color="#2f2f2f"/><stop offset="1" stop-color="#6d6868"/></linearGradient><filter id="b" x="0" y="0" width="64" height="64" filterUnits="userSpaceOnUse"><feOffset dy="2" input="SourceAlpha"/><feGaussianBlur stdDeviation="5" result="c"/><feFlood flood-color="#9866b7" flood-opacity="0.22"/><feComposite operator="in" in2="c"/><feComposite in="SourceGraphic"/></filter></defs><g transform="translate(-82 -44)"><g transform="matrix(1, 0, 0, 1, 82, 44)" filter="url(#b)"><rect width="34" height="34" rx="7" transform="translate(15 13)" fill="url(#a)"/></g><g transform="translate(554.128 67.186)"><g transform="translate(-447.128 0.814)"><path d="M-433.59,3.92V9.894c-.04.2-.066.408-.121.606a3.371,3.371,0,0,1-3.322,2.5q-3.324,0-6.648,0a3.929,3.929,0,0,1-.4-.014,3.38,3.38,0,0,1-3.046-3.354q-.01-2.723,0-5.445a3.362,3.362,0,0,1,3.3-3.359c.674-.014,1.348,0,2.022,0,1.643,0,3.287-.015,4.93.007a3.335,3.335,0,0,1,3.181,2.566C-433.648,3.565-433.623,3.744-433.59,3.92Zm-12.176,1.492c0,.049-.007.079-.007.108,0,1.37-.007,2.74,0,4.11a2.022,2.022,0,0,0,2.041,2.011q3.37.007,6.74,0a2.025,2.025,0,0,0,2.047-2.046c.005-1.352,0-2.7,0-4.057,0-.036-.006-.073-.01-.126l-.154.083q-2.428,1.324-4.854,2.649a.762.762,0,0,1-.789,0Q-443.175,6.816-445.6,5.5C-445.652,5.469-445.7,5.445-445.766,5.412Zm5.4-3.239h0c-1.141,0-2.282-.006-3.422,0a2.032,2.032,0,0,0-1.936,1.566.147.147,0,0,0,.084.2q2.581,1.4,5.156,2.811a.229.229,0,0,0,.252,0q2.558-1.4,5.121-2.792a.177.177,0,0,0,.1-.246,2.029,2.029,0,0,0-1.961-1.534C-438.1,2.168-439.229,2.172-440.361,2.172Z" transform="translate(447.128 -0.814)" fill="#fff"/></g></g></g></svg>