<svg xmlns="http://www.w3.org/2000/svg" width="153.903" height="27.542" viewBox="0 0 153.903 27.542"><g transform="translate(-7882.72 -1097.736)"><path d="M269.365,237.584v2.4h.063q1.623-2.81,3.418-2.81a3.98,3.98,0,0,1,.734.094v4.449a9.188,9.188,0,0,0-1.53-.14q-2.5,0-2.5,3.231v7.133h-4.526v-14.36Z" transform="translate(7633.358 867.786)" fill="#844fa0"/><path d="M444.561,204.736h4.511V226.73H444.53v-1.889h-.063q-1.514,2.373-3.418,2.373a3.653,3.653,0,0,1-3.223-2.092,11.023,11.023,0,0,1-1.225-5.588,10.721,10.721,0,0,1,1.249-5.557,3.739,3.739,0,0,1,3.293-2.076,4.329,4.329,0,0,1,3.419,2.139Zm0,14.705q0-3.543-1.717-3.543-1.764,0-1.764,3.762a5.694,5.694,0,0,0,.476,2.585,1.456,1.456,0,0,0,1.319.914,1.384,1.384,0,0,0,1.233-.968,6.644,6.644,0,0,0,.453-2.747" transform="translate(7500.013 893)"/><path d="M507.635,239h4.542v9.24a2.022,2.022,0,0,0,.336,1.194,1.059,1.059,0,0,0,.914.476q1.311,0,1.311-1.92V239h4.541v8.32a7.1,7.1,0,0,1-1.483,4.847,5.408,5.408,0,0,1-4.278,1.678q-3.122,0-4.5-1.717a6.633,6.633,0,0,1-1.381-4.293Z" transform="translate(7444.806 866.37)"/><path d="M579.924,247.224v3.746a5.8,5.8,0,0,1-3.262,1.092,4.51,4.51,0,0,1-3.879-2.1,9.726,9.726,0,0,1-1.46-5.643,9.216,9.216,0,0,1,1.5-5.463,4.562,4.562,0,0,1,3.871-2.107,5.5,5.5,0,0,1,3.262,1.171v3.715a3.634,3.634,0,0,0-1.655-.484,2.112,2.112,0,0,0-1.764.882,3.784,3.784,0,0,0-.671,2.349,4.026,4.026,0,0,0,.656,2.435,2.1,2.1,0,0,0,1.78.89,3.66,3.66,0,0,0,1.623-.484" transform="translate(7395.307 868.12)"/><path d="M626.223,251.719V249.83h-.063a7.456,7.456,0,0,1-1.6,1.8,2.953,2.953,0,0,1-1.818.578,3.668,3.668,0,0,1-3.262-2.091,11.3,11.3,0,0,1-1.218-5.682,10.587,10.587,0,0,1,1.233-5.495,3.689,3.689,0,0,1,3.247-2.045,3.047,3.047,0,0,1,1.827.539,6.935,6.935,0,0,1,1.561,1.725h.063v-1.8h4.542v14.361Zm0-7.259q0-3.575-1.748-3.574-1.765,0-1.764,3.574,0,3.716,1.827,3.715,1.686,0,1.686-3.715" transform="translate(7358.826 868.011)"/><path d="M686.326,221.831h4.542v3.825h1.764v3.777h-1.8v10.583h-4.511V229.4h-1.717v-3.745h1.717Z" transform="translate(7307.262 879.714)"/><path d="M730.987,211.372a2.39,2.39,0,1,1,2.388,2.4,2.425,2.425,0,0,1-2.388-2.4m.125,4.309h4.542v14.36h-4.542Z" transform="translate(7271.217 889.689)"/><path d="M770.549,236.753a5.652,5.652,0,0,1,4.73,2.068,9.1,9.1,0,0,1,1.623,5.752,8.343,8.343,0,0,1-1.686,5.58,5.809,5.809,0,0,1-4.667,1.975,5.6,5.6,0,0,1-4.535-2.014,8.4,8.4,0,0,1-1.678-5.541,9.2,9.2,0,0,1,1.6-5.752,5.483,5.483,0,0,1,4.612-2.068m.031,11.317a1.432,1.432,0,0,0,1.335-.827,6.417,6.417,0,0,0,.446-2.825,6.255,6.255,0,0,0-.437-2.778,1.41,1.41,0,0,0-1.311-.8,1.437,1.437,0,0,0-1.311.773,6.141,6.141,0,0,0-.453,2.833q0,3.622,1.733,3.621" transform="translate(7245.298 868.117)"/><path d="M837.241,237.356v1.951h.078a4.6,4.6,0,0,1,3.887-2.419,3.015,3.015,0,0,1,2.38,1,3.936,3.936,0,0,1,.882,2.7v11.129h-4.542v-8.851a1.983,1.983,0,0,0-.344-1.2,1.057,1.057,0,0,0-.89-.468q-1.451,0-1.451,1.827v8.693h-4.527v-14.36Z" transform="translate(7192.155 868.015)"/><path d="M332.778,225.493c-.72-.212-1.516-.412-2.394-.589a18.494,18.494,0,0,1,2.394.589" transform="translate(7582.563 877.326)" fill="#fdfdfd"/><path d="M338.163,220.183a18.822,18.822,0,0,0-1.855-.806,14.044,14.044,0,0,1,1.855.806" transform="translate(7577.959 881.621)" fill="#fdfdfd"/><path d="M341.52,227.669c-.046-.012-.092-.024-.139-.035-.063-.022-.125-.043-.189-.064.111.032.221.066.327.1" transform="translate(7574.163 875.253)" fill="#fdfdfd"/><path d="M343.223,228.194c-.181-.061-.368-.122-.561-.182.19.051.376.114.561.182" transform="translate(7573.021 874.91)" fill="#fdfdfd"/><path d="M363.952,237.159c-.053-.049-.1-.1-.153-.153.051.05.1.1.153.153" transform="translate(7556.593 867.92)" fill="#fff"/><path d="M366.614,240.162l-.011-.014.01.009v0" transform="translate(7554.414 865.478)"/><path d="M368.9,214.073a10.671,10.671,0,0,1,1.561-2.61,15.948,15.948,0,0,1,7.029-5.045c.2-.074.242-.012.253.165.03.5.058.99.1,1.484.014.164-.043.227-.2.275a18.569,18.569,0,0,0-5.3,2.534c-.182.128-.361.258-.538.394-.292.229-.566.457-.822.681a19.511,19.511,0,0,0-2.087,2.123" transform="translate(7552.629 891.717)" fill="#fdfdfd"/><path d="M377.349,232.257c-.052.045-.1.086-.156.132l.038-.036.118-.1" transform="translate(7546.184 871.611)"/><path d="M368.326,241.611s0,0,0,0v0Z" transform="translate(7553.076 864.341)"/><path d="M380.834,233.592v.022a.038.038,0,0,1-.012-.014l.012-.008" transform="translate(7543.363 870.573)"/><path d="M383.338,232.407l-.016-.014.006,0a.111.111,0,0,1,.01.016" transform="translate(7541.419 871.507)"/><path d="M384.9,231.692c0,.008-.008.014-.014.024,0-.008,0-.014.006-.02l.008,0" transform="translate(7540.201 872.05)"/><path d="M385.629,231.4H385.6l.018-.006.012.006" transform="translate(7539.649 872.279)"/><path d="M387.216,230.77l-.012.006h0l.016-.006" transform="translate(7538.406 872.766)"/><path d="M390.2,229.282c-.12.04-.242.08-.361.122a.093.093,0,0,1,.02-.01c.114-.038.227-.074.341-.111" transform="translate(7536.357 873.923)"/><path d="M417.515,243.153c.005.015,0,.01,0,0" transform="translate(7514.845 863.143)"/><path d="M368.119,328.3v0a0,0,0,0,1,0,0Z" transform="translate(7553.237 796.967)"/><path d="M400.082,313.728c.069-.016.14-.031.209-.045l-.027.007c-.06.011-.123.025-.183.038" transform="translate(7528.394 808.327)"/><path d="M402.5,313.264c.056-.011.109-.022.165-.031l-.1.02c-.02,0-.042.007-.065.011" transform="translate(7526.515 808.677)"/><path d="M403.622,312.923c-.127.022-.252.045-.379.069l.234-.045c.049-.007.1-.016.145-.024" transform="translate(7525.938 808.918)"/><path d="M414.741,311.483l-.111.007a.31.31,0,0,1-.1.029.5.5,0,0,0,.1-.031l.111,0" transform="translate(7517.164 810.037)"/><path d="M366.614,240.162l-.011-.014.01.009v0" transform="translate(7554.414 865.478)"/><path d="M377.942,300.742c.085-.045.169-.091.256-.136a.831.831,0,0,1,.076-.042c-.111.056-.223.116-.332.178m.918-.472-.08.04c.027-.011.053-.025.08-.038.189-.089.379-.176.57-.258-.192.08-.381.167-.57.256" transform="translate(7545.601 818.951)"/><path d="M382.85,229.394l-.02.011c.12-.042.243-.082.363-.123l-.343.111m-.945.359-.018.007h.029l-.011-.007m-.171.071a.119.119,0,0,1,0,.02c0-.011.009-.016.013-.025s-.007,0-.009,0m-.348.152h0l0,0a.087.087,0,0,0,.015.013.1.1,0,0,1-.009-.016m-.564.274a.068.068,0,0,0,.011.016v-.022s-.007.007-.011.007" transform="translate(7543.362 873.922)"/><path d="M341.52,227.669c-.046-.012-.092-.024-.139-.035-.063-.022-.125-.043-.189-.064.111.032.221.066.327.1" transform="translate(7574.163 875.253)" fill="#f05941"/><path d="M343.223,228.194c-.181-.061-.368-.122-.561-.182.19.051.376.114.561.182" transform="translate(7573.021 874.91)" fill="#f05941"/><path d="M363.952,237.159c-.053-.049-.1-.1-.153-.153.051.05.1.1.153.153" transform="translate(7556.593 867.92)" fill="#fff"/><path d="M366.614,240.162l-.011-.014.01.009v0" transform="translate(7554.414 865.478)"/><path d="M387.216,230.77l-.012.006h0l.016-.006" transform="translate(7538.406 872.766)"/><path d="M385.629,231.4H385.6l.018-.006.012.006" transform="translate(7539.649 872.279)"/><path d="M384.9,231.692c0,.008-.008.014-.014.024,0-.008,0-.014.006-.02l.008,0" transform="translate(7540.201 872.05)"/><path d="M377.349,232.257c-.052.045-.1.086-.156.132l.038-.036.118-.1" transform="translate(7546.184 871.611)"/><path d="M366.614,240.162l-.011-.014.01.009v0" transform="translate(7554.414 865.478)"/><path d="M377.652,208.34a18.574,18.574,0,0,0-5.3,2.534c-.182.128-.361.258-.538.394-.283.214-.559.44-.822.682a19.5,19.5,0,0,0-2.087,2.123,10.664,10.664,0,0,1,1.562-2.61,15.948,15.948,0,0,1,7.029-5.045c.2-.074.242-.012.253.165.03.5.058.99.1,1.484.014.164-.043.227-.2.274" transform="translate(7552.625 891.717)" fill="#8a8685"/><path d="M324.464,231.9c0-1.257,0-2.511,0-3.768a.68.68,0,0,0,0-.1c0-.009,0-.011,0-.013l-.007-.014c-.013-.007-.047-.029-.091-.056,0,0,0,0-.011-.009-.042-.025-.085-.053-.1-.062l-.16-.129c-.107-.087-.218-.169-.328-.252s-.221-.16-.334-.238-.227-.152-.341-.225-.229-.145-.345-.216l-.35-.2c-.045-.027-.089-.049-.134-.074-.192-.107-.385-.207-.577-.3l-.022-.011c-.056-.027-.111-.056-.18-.087a1.1,1.1,0,0,0-.1-.049c-.107-.051-.214-.1-.325-.149l-.134-.058c-.047-.02-.094-.042-.14-.06a19.6,19.6,0,0,0-2.028-.726c-.653-.2-1.277-.348-1.845-.468-.036-.007-.071-.016-.107-.02a.02.02,0,0,0-.011,0c-.209-.042-.41-.08-.6-.114-.544-.094-1.092-.165-1.644-.209l-.125-.007c-.074-.013-.149-.033-.225-.04-.682-.067-1.361-.089-2.043-.134-.238-.016-.279.058-.276.276q0,6.677,0,13.362v5.494c0,.138-.016.243.192.247a27.09,27.09,0,0,1,3.75.321,20.419,20.419,0,0,1,5.381,1.56,17.055,17.055,0,0,1,3.115,1.885,1.027,1.027,0,0,1,.094.078.034.034,0,0,0,.007-.016.069.069,0,0,0,.011-.022.518.518,0,0,0,.007-.176.246.246,0,0,1,0-.038v-.06c0-.027,0-.053,0-.078v-.319c0-.116,0-.234,0-.35,0-.971,0-1.941,0-2.912v-.1a.076.076,0,0,0,0-.029.082.082,0,0,1,0-.032c0-.013.006-.026.008-.039a.287.287,0,0,0,0-.039V232.189c.013.009.029.009.049-.013a.479.479,0,0,1-.029-.272m-6.947,9.947-.072-.029a3.231,3.231,0,0,1-2.12-2.83c0-2.171.009-4.991.009-6.982l-.006-1.272c-.016-1.674,1.723-2.614,3.5-1.883l.1.041A3.216,3.216,0,0,1,321,231.7v8.279c0,1.654-1.714,2.577-3.481,1.872" transform="translate(7596.943 877.94)" fill="#844fa0"/><path d="M336.723,214.309c-.074-.094-.223-.223-.3-.315s-.154-.184-.231-.273-.156-.18-.236-.267l-.242-.263c-.08-.088-.166-.172-.248-.258s-.168-.168-.254-.252-.172-.166-.257-.248-.176-.162-.264-.242-.178-.158-.267-.236-.182-.154-.274-.23-.184-.152-.277-.225-.188-.146-.282-.218-.192-.144-.287-.213-.194-.14-.291-.208l-.293-.2c-.1-.067-.2-.132-.3-.2s-.2-.128-.3-.19l-.307-.182c-.1-.06-.207-.118-.312-.176s-.208-.114-.314-.17-.212-.11-.317-.164-.214-.1-.322-.156-.216-.1-.325-.15l-.326-.144c-.108-.048-.221-.092-.331-.136s-.221-.086-.334-.128-.223-.084-.335-.122-.223-.078-.338-.116l-.341-.108c-.114-.034-.225-.066-.341-.1a.321.321,0,0,1-.174-.094.308.308,0,0,1-.038-.22q.057-.754.114-1.509c0-.046.012-.1.054-.122a.141.141,0,0,1,.106.006l.16.056c.106.038.213.076.319.116s.21.082.315.124l.313.132.309.138c.1.046.2.1.305.146s.2.1.3.152.2.106.3.16.2.11.3.166.2.114.291.172.194.12.287.18.192.122.285.186.188.126.28.192.186.13.277.2.182.134.271.2.178.138.266.21l.264.214.258.221c.086.074.17.15.254.228s.166.154.247.232.162.158.242.238.16.16.238.242.156.166.232.248.152.168.227.254.148.172.22.258.146.174.216.264.14.176.209.265.136.182.2.274.132.182.2.275.128.186.192.281.124.188.184.284.12.192.178.29.116.194.172.293l.164.3c.054.1.106.2.158.3.026.05.052.1.076.152a.77.77,0,0,1,.076.184" transform="translate(7584.682 891.646)" fill="#c39ce2"/><path d="M368.547,260.067l-.062.054v0c.022-.018.042-.034.062-.052" transform="translate(7552.951 849.997)"/><path d="M368.55,309.658l0,0v0Z" transform="translate(7552.902 811.455)" fill="#844fa0"/><path d="M343.223,228.194c-.181-.061-.368-.122-.561-.182.19.051.376.114.561.182" transform="translate(7573.021 874.91)" fill="#fceae9"/><path d="M380.9,224.637c0-.586,0-.586-.588-.5l-.265.007a22.856,22.856,0,0,0-3.26.328.448.448,0,0,0-.223.029l-.02.011c-.082.011-.167.02-.252.036-.6.1-1.185.245-1.771.39-.3.082-.608.172-.918.27l-.134.045c-.12.04-.243.08-.363.123h0l-.176.062c-.031.011-.06.02-.089.033l-.147.053-.14.053s-.011,0-.016.007l-.016,0h0l-.254.1-.018.009a.512.512,0,0,0-.062.025l.011.007h-.029l-.145.06a.247.247,0,0,0-.013.025.115.115,0,0,0,0-.02l-.12.051c-.031.011-.06.027-.091.038l-.136.062.009.016-.016-.013q-.087.037-.174.08a.017.017,0,0,0-.011,0l-.007,0-.053.025a.008.008,0,0,1-.007,0c-.065.029-.129.062-.194.091-.033.016-.067.033-.1.049l-.011.007c-.038.018-.076.038-.114.058,0,0-.009,0-.009,0l-.1.047a13.573,13.573,0,0,0-2.094,1.31c-.045.033-.089.069-.132.1-.076.056-.145.114-.216.172a.261.261,0,0,0-.038.031c-.029.022-.053.045-.08.069l0,0v.118c0,1.257,0,2.511,0,3.768a.478.478,0,0,0,.029.272c.022-.018.042-.036.062-.053l.049-.04a.277.277,0,0,0,.062-.033,18.048,18.048,0,0,1,8.832-3.462c.7-.1,1.4-.156,2.1-.232l.127-.007c.372-.011.742-.033,1.114-.031.18,0,.214-.06.212-.227-.007-1.147,0-2.295,0-3.44m-9.79,1.6a.065.065,0,0,1-.011-.016.019.019,0,0,0,.011-.007Z" transform="translate(7553.083 877.953)"/><path d="M380.789,261.7c0,.154-.026.212-.2.214a21.636,21.636,0,0,0-11.49,3.2q-.462.295-.907.615c-.067-1.305-.014-2.625-.012-3.932,0-.4.54-.617.836-.806q.642-.41,1.315-.771a20.931,20.931,0,0,1,5.125-1.931,21.455,21.455,0,0,1,2.708-.454q.667-.067,1.337-.094a2.845,2.845,0,0,1,1.136.007c.278.145.142,1.109.143,1.458,0,.831,0,1.661,0,2.489" transform="translate(7553.201 851.852)"/><path d="M380.763,295.636c0-.345,0-.691,0-1.034v-2.068a.273.273,0,0,0-.339-.345c-.742.047-1.5.065-2.235.158-.174.022-.35.045-.521.071a.371.371,0,0,0-.069,0c-.107.013-.214.027-.321.042-.272.036-.544.076-.811.123-.051.009-.1.018-.154.025-.261.042-.519.094-.778.147a19.2,19.2,0,0,0-3.8,1.183c-.372.163-.731.343-1.081.539a.814.814,0,0,0-.076.042,27.348,27.348,0,0,0-2.377,1.553.129.129,0,0,0-.042.042.042.042,0,0,0,0,.016v0a.094.094,0,0,1,0,.036v.1c0,.971,0,1.941,0,2.912,0,.116,0,.234,0,.35v.031c0,.107,0,.243,0,.365v.06a.238.238,0,0,0,0,.038.517.517,0,0,1-.007.176.069.069,0,0,1-.011.022.034.034,0,0,1-.007.016,17.217,17.217,0,0,1,5.766-2.868c.508-.152,1.018-.281,1.535-.394-.06.011-.123.025-.183.038.069-.016.14-.031.209-.045a.58.58,0,0,1,.06-.013c.089-.02.181-.038.27-.056.056-.011.109-.022.165-.031.078-.016.156-.031.234-.045.049-.007.1-.016.145-.025a27.577,27.577,0,0,1,3.924-.392.827.827,0,0,0,.39-.078.279.279,0,0,0,.125-.154,1.822,1.822,0,0,0-.009-.539m-9.527-1.455c-.027.013-.053.027-.08.038l.08-.04c.189-.089.379-.176.57-.256-.192.082-.381.169-.57.258m7.333,2.3a.31.31,0,0,1-.1.029.5.5,0,0,0,.1-.031l.111,0-.111.007" transform="translate(7553.226 825.041)"/><path d="M368.205,323.953c0-.074,0-.129,0-.147,0-.067,0-.134,0-.2,0,.116,0,.234,0,.35" transform="translate(7553.17 800.617)"/><path d="M368.208,310.011c0-.02,0-.042,0-.062a.1.1,0,0,1,0-.036.095.095,0,0,1,0,.036Z" transform="translate(7553.169 811.257)"/><path d="M368.18,327.261a.518.518,0,0,1-.007.176.069.069,0,0,1-.011.022,1.536,1.536,0,0,0,.016-.236.238.238,0,0,0,0,.038" transform="translate(7553.202 797.804)"/><path d="M381.782,300.269c.189-.089.379-.176.57-.256-.192.082-.381.169-.57.258-.027.013-.053.027-.08.038Z" transform="translate(7542.679 818.951)"/><path d="M400.082,313.728c.069-.016.14-.031.209-.045l-.027.007c-.06.011-.123.025-.183.038" transform="translate(7528.394 808.327)"/><path d="M401.56,313.264c.056-.011.109-.022.165-.031l-.1.02-.334.067c.089-.02.181-.038.27-.056" transform="translate(7527.455 808.677)"/><path d="M414.741,311.483l-.111.007a.31.31,0,0,1-.1.029.5.5,0,0,0,.1-.031l.111,0" transform="translate(7517.164 810.037)"/><path d="M380.834,233.592v.022a.038.038,0,0,1-.012-.014l.012-.008" transform="translate(7543.363 870.573)"/><path d="M380.834,233.592v.022a.038.038,0,0,1-.012-.014l.012-.008" transform="translate(7543.363 870.573)"/><path d="M383.338,232.407l-.016-.014.006,0a.111.111,0,0,1,.01.016" transform="translate(7541.419 871.507)"/><path d="M384.9,231.692c0,.008-.008.014-.014.024,0-.008,0-.014.006-.02l.008,0" transform="translate(7540.201 872.05)"/><path d="M385.629,231.4H385.6l.018-.006.012.006" transform="translate(7539.649 872.279)"/><path d="M383.338,232.407l-.016-.014.006,0a.111.111,0,0,1,.01.016" transform="translate(7541.419 871.507)"/><path d="M363.952,237.159c-.053-.049-.1-.1-.153-.153.051.05.1.1.153.153" transform="translate(7556.593 867.92)" fill="#fff"/><path d="M379.145,216.669a22.5,22.5,0,0,0-2.779.425c-.283.06-.567.122-.849.192l-.2.05-.046.012-.1.026c-.024.008-.05.014-.074.02l-.122.034a22.407,22.407,0,0,0-2.854.971,15.726,15.726,0,0,0-1.969.988,8.986,8.986,0,0,0-1.729,1.3c.3-.35.631-.677.966-1s.65-.631.99-.931c.052-.046.1-.089.156-.132a15.49,15.49,0,0,1,5.426-3.016,25,25,0,0,1,3.268-.88c.14-.03.158.016.16.132.012.49.014.978.052,1.465.018.245-.062.317-.291.334" transform="translate(7553.001 885.234)"/><path d="M338.42,218.957a18.1,18.1,0,0,0-2.6-1.27,13.611,13.611,0,0,1,2.6,1.27" transform="translate(7578.339 882.935)" fill="#d6a7fc"/><path d="M329.829,220.712c-.025-.028-.068-.073-.129-.132s-.114-.109-.192-.177l-.011-.009c-.119-.1-.267-.228-.453-.367h0a15.411,15.411,0,0,0-4.32-2.155c-.185-.068-.371-.131-.561-.182-.107-.033-.216-.067-.327-.1l-.014,0a18.482,18.482,0,0,0-2.394-.589l-.022,0q-.236-.045-.471-.085c-.6-.1-1.208-.2-1.819-.24-.2-.015-.267-.091-.254-.3.032-.5.038-.993.05-1.489,0-.109.01-.17.156-.141a24.329,24.329,0,0,1,3.67,1.025l.01,0a18.828,18.828,0,0,1,1.855.806,16.872,16.872,0,0,1,1.483.838,21.5,21.5,0,0,1,1.743,1.277l.794.73.106.106a1.821,1.821,0,0,0,.142.17h0c.049.053.1.1.153.153l0,0,.171.175c.1.1.2.206.293.312l.034.037c.068.075.136.15.2.227l.1.109" transform="translate(7591.52 885.232)" fill="#9f6dbf"/><path d="M205.511,211.609a6.928,6.928,0,0,0-4.953-1.76H194.72v20.786h4.717v-7.91h.811a7.5,7.5,0,0,0,5.238-1.72,6.811,6.811,0,0,0,.025-9.4Zm-3.73,6.524a4.006,4.006,0,0,1-2.344.606v-4.9a4.1,4.1,0,0,1,2.366.584,2.228,2.228,0,0,1,.733,1.892A2.147,2.147,0,0,1,201.781,218.133Z" transform="translate(7688 889.026)" fill="#844fa0"/></g></svg>