<svg xmlns="http://www.w3.org/2000/svg" width="30" height="30" viewBox="0 0 30 30"><g transform="translate(-915 -197)"><g transform="translate(868.231 189.219)"><g transform="translate(55.028 16.041)"><path d="M57.43,50.966h-.142c-.531,0-1.063,0-1.594,0a.606.606,0,0,1-.665-.666q0-2.137,0-4.275A1.207,1.207,0,0,1,57.443,46c.005,1.618,0,3.235,0,4.853C57.441,50.887,57.435,50.919,57.43,50.966Z" transform="translate(-55.029 -43.739)" fill="#fff"/></g></g><g transform="translate(915 197)" fill="none" stroke="#7e7c7c" stroke-width="1"><rect width="30" height="30" rx="6" stroke="none"/><rect x="0.5" y="0.5" width="29" height="29" rx="5.5" fill="none"/></g><path d="M117.387,27.68,115.726,29.1a.609.609,0,0,1-.885,0l-1.575-1.348c-.028-.024-.058-.045-.094-.073l-1.02.872c-.207.177-.417.351-.62.533a.617.617,0,0,1-.711.149.624.624,0,0,1-.358-.633q0-4.133,0-8.267c0-.668.037-1.337,0-2a2.318,2.318,0,0,0-1.439-2.075c-.046-.021-.092-.041-.145-.065a.643.643,0,0,1,.465-.15h3.64c1.552,0,3.1-.009,4.655,0a2.358,2.358,0,0,1,2.252,1.437,2.284,2.284,0,0,1,.208,1q0,5.071,0,10.143a.607.607,0,0,1-.353.608.614.614,0,0,1-.7-.135c-.522-.453-1.049-.9-1.574-1.35C117.448,27.728,117.422,27.709,117.387,27.68Zm-2.12-3.206c.593,0,1.185,0,1.778,0a.6.6,0,1,0,0-1.205q-1.764,0-3.527,0a.77.77,0,0,0-.312.069.588.588,0,0,0-.317.673.6.6,0,0,0,.586.461C114.073,24.477,114.67,24.475,115.268,24.475Zm.014-3.612c-.593,0-1.185-.009-1.778.007a.8.8,0,0,0-.413.143.562.562,0,0,0-.18.66.61.61,0,0,0,.607.4q1.764,0,3.527,0a.773.773,0,0,0,.248-.041.6.6,0,0,0-.206-1.162C116.486,20.86,115.884,20.863,115.282,20.863Zm0-1.208h0c.578,0,1.157,0,1.735,0a.92.92,0,0,0,.237-.023.593.593,0,0,0,.43-.659.582.582,0,0,0-.565-.513c-.527-.007-1.053,0-1.58,0-.672,0-1.345,0-2.017,0a.61.61,0,0,0-.482.19.573.573,0,0,0-.115.642.555.555,0,0,0,.538.366C114.067,19.658,114.674,19.655,115.28,19.655Z" transform="translate(816.409 189.219)" fill="#fff"/></g></svg>