<svg xmlns="http://www.w3.org/2000/svg" xmlns:xlink="http://www.w3.org/1999/xlink" width="281" height="165" viewBox="0 0 281 165"><defs><linearGradient id="a" x1="0.967" y1="0.046" x2="0" y2="1" gradientUnits="objectBoundingBox"><stop offset="0" stop-color="#9866b7"/><stop offset="1" stop-color="#ca8af1"/></linearGradient><linearGradient id="b" x1="0.967" y1="0.046" x2="0" y2="1" gradientUnits="objectBoundingBox"><stop offset="0" stop-color="#2f2f2f"/><stop offset="1" stop-color="#6d6868"/></linearGradient><clipPath id="c"><rect width="281" height="165" rx="17" transform="translate(97 170)" fill="url(#a)"/></clipPath></defs><g transform="translate(-97 -170)"><rect width="281" height="165" rx="17" transform="translate(97 170)" fill="url(#b)"/><g clip-path="url(#c)"><g transform="translate(28.319 226.069)"><g transform="translate(55.028 16.041)"><path d="M191.891,129.628c-5.476,4.683-10.841,9.277-16.213,13.863-2.921,2.493-5.752,2.492-8.635.023q-7.684-6.58-15.37-13.158c-.273-.234-.568-.442-.919-.714q-5.01,4.281-9.958,8.509c-2.022,1.73-4.073,3.428-6.053,5.2-2.055,1.844-4.333,2.638-6.94,1.454s-3.493-3.419-3.491-6.18q.027-40.336.015-80.671c0-6.515.364-13.047.011-19.541-.515-9.486-5.461-16.2-14.042-20.246-.445-.21-.9-.4-1.414-.635a6.279,6.279,0,0,1,4.536-1.468q17.759.009,35.517,0c15.143,0,30.286-.085,45.428.03,10.173.077,17.56,4.818,21.973,14.026a22.288,22.288,0,0,1,2.028,9.752q.014,49.49.009,98.98c0,2.657-.957,4.794-3.445,5.929-2.533,1.155-4.783.472-6.844-1.316-5.095-4.419-10.236-8.784-15.36-13.17C192.483,130.1,192.232,129.9,191.891,129.628ZM171.207,98.346c5.783,0,11.566.009,17.349,0,3.666-.007,6.256-2.454,6.257-5.874s-2.57-5.881-6.256-5.888q-17.211-.031-34.421.021a7.515,7.515,0,0,0-3.044.67A5.737,5.737,0,0,0,148,93.837a5.871,5.871,0,0,0,5.721,4.5C159.55,98.366,165.379,98.344,171.207,98.346Zm.137-35.25c-5.783,0-11.568-.087-17.347.064a7.827,7.827,0,0,0-4.027,1.4,5.483,5.483,0,0,0-1.756,6.44,5.949,5.949,0,0,0,5.922,3.868q17.211.023,34.421-.011a7.547,7.547,0,0,0,2.423-.4,5.846,5.846,0,0,0-2.013-11.343C183.094,63.074,177.219,63.1,171.344,63.1Zm-.013-11.785v.011c5.644,0,11.288.008,16.932-.009a8.977,8.977,0,0,0,2.314-.223,5.787,5.787,0,0,0,4.192-6.431,5.676,5.676,0,0,0-5.515-5.005c-5.138-.073-10.278-.032-15.417-.034-6.562,0-13.123.017-19.685-.011a5.95,5.95,0,0,0-4.706,1.855,5.594,5.594,0,0,0-1.118,6.264,5.418,5.418,0,0,0,5.245,3.571C159.492,51.34,165.412,51.311,171.331,51.311Z" transform="translate(-89.068 -16.041)" fill="#7e7c7c"/><path d="M78.468,104.766h-1.39c-5.186,0-10.371.01-15.557,0-4.125-.01-6.483-2.362-6.486-6.5q-.015-20.857,0-41.714A11.782,11.782,0,0,1,78.6,56.325c.053,15.785,0,31.571-.021,47.357C78.574,103.993,78.515,104.3,78.468,104.766Z" transform="translate(-55.029 -34.234)" fill="#7e7c7c"/></g></g></g></g></svg>