<svg xmlns="http://www.w3.org/2000/svg" xmlns:xlink="http://www.w3.org/1999/xlink"  viewBox="0 0 64 64"><defs><linearGradient id="a" x1="0.5" x2="0.5" y2="1" gradientUnits="objectBoundingBox"><stop offset="0" stop-color="#9866b7"/><stop offset="1" stop-color="#ca8af1"/></linearGradient><filter id="b" x="0" y="0" width="64" height="64" filterUnits="userSpaceOnUse"><feOffset dy="2" input="SourceAlpha"/><feGaussianBlur stdDeviation="5" result="c"/><feFlood flood-color="#9866b7" flood-opacity="0.22"/><feComposite operator="in" in2="c"/><feComposite in="SourceGraphic"/></filter></defs><g transform="translate(-129 -44)"><g transform="matrix(1, 0, 0, 1, 129, 44)" filter="url(#b)"><rect width="34" height="34" rx="7" transform="translate(15 13)" fill="url(#a)"/></g><g transform="translate(684.653 -237.9)"><g transform="translate(-529.886 304.749)"><path d="M-523.41,304.749a1.923,1.923,0,0,1,.7.283,1.565,1.565,0,0,1,.621,1.552l.1.048a4.591,4.591,0,0,1,2.839,3.687,4.339,4.339,0,0,1,.037.664c0,.82,0,1.64,0,2.461,0,.24.031.273.266.293a1.611,1.611,0,0,1,1.5,1.286,1.569,1.569,0,0,1-1.522,1.854c-.856.008-1.713,0-2.569,0h-.157a2.041,2.041,0,0,1-.847,1.422,2,2,0,0,1-1.225.374,2.058,2.058,0,0,1-1.961-1.8h-.146c-.843,0-1.686,0-2.529,0a1.57,1.57,0,0,1-1.591-1.661,1.6,1.6,0,0,1,1.374-1.464c.054-.007.108-.012.162-.016.224-.019.258-.056.258-.288,0-.875-.017-1.75,0-2.624a4.408,4.408,0,0,1,2.712-4.137c.085-.04.2-.056.247-.122s0-.174,0-.264a1.526,1.526,0,0,1,1.264-1.528.531.531,0,0,0,.076-.025Zm-.19,11.232h4.664a.675.675,0,0,0,.723-.623.681.681,0,0,0-.644-.721c-.094-.012-.191-.009-.284-.028a1.073,1.073,0,0,1-.866-1.071q-.005-1.292,0-2.583a3.8,3.8,0,0,0-.249-1.382,3.581,3.581,0,0,0-4.518-2.158,3.59,3.59,0,0,0-2.415,3.309c-.009.934,0,1.867,0,2.8a1.074,1.074,0,0,1-.867,1.084c-.119.024-.244.019-.364.041a.667.667,0,0,0-.477.99.693.693,0,0,0,.651.342Q-525.925,315.978-523.6,315.981Zm-1.087.9a1.112,1.112,0,0,0,1.162.891,1.087,1.087,0,0,0,1-.891Zm1.7-10.539a.587.587,0,0,0-.258-.587.634.634,0,0,0-.7,0,.579.579,0,0,0-.27.591Z" transform="translate(529.886 -304.749)" fill="#fff"/></g></g></g></svg>