<svg xmlns="http://www.w3.org/2000/svg" width="30" height="30" viewBox="0 0 30 30"><g transform="translate(-915 -189)"><g transform="translate(0 -8)"><g transform="translate(1914.509 338.348)"><g transform="translate(-991.509 -132.348)"><path d="M-984.75-132.348h4.869A1.8,1.8,0,0,1-978-130.431c-.025,2.019-.04,4.038,0,6.057a1.806,1.806,0,0,1-1.883,1.933h-9.752a1.808,1.808,0,0,1-1.875-1.948c.057-1.991.093-3.982,0-5.972a1.812,1.812,0,0,1,1.873-1.988Zm-2.078,2.258a2.706,2.706,0,0,0-2.874,2.872,2.71,2.71,0,0,0,2.517,2.52,2.706,2.706,0,0,0,2.875-2.873A2.71,2.71,0,0,0-986.828-130.09Zm3.873,1.335h2.7a.442.442,0,0,0,.442-.442h0a.442.442,0,0,0-.442-.442h-2.7a.442.442,0,0,0-.442.442h0A.442.442,0,0,0-982.954-128.755Zm2.706.92h-2.7a.442.442,0,0,0-.442.442h0a.442.442,0,0,0,.442.442h2.7a.442.442,0,0,0,.442-.442h0A.442.442,0,0,0-980.249-127.835Zm-2.706,2.683h2.7a.442.442,0,0,0,.442-.442h0a.442.442,0,0,0-.442-.442h-2.7a.442.442,0,0,0-.442.442h0A.442.442,0,0,0-982.954-125.152Z" transform="translate(991.509 132.348)" fill="#fff"/><path d="M-895.559,156.711h0a.444.444,0,0,1,.444-.444h1.019a.329.329,0,0,0,.329-.329v-.119a.444.444,0,0,1,.444-.444h1.814a.444.444,0,0,1,.444.444v.116a.329.329,0,0,0,.329.329h1.026a.444.444,0,0,1,.444.444v0a.444.444,0,0,1-.444.444h-5.4A.444.444,0,0,1-895.559,156.711Z" transform="translate(899.167 -144.556)" fill="#fff"/><path d="M-917.84-48.506a1.806,1.806,0,0,1,1.795,1.8,1.806,1.806,0,0,1-1.815,1.8,1.807,1.807,0,0,1-1.788-1.811A1.806,1.806,0,0,1-917.84-48.506Zm-.144,2.734.973-.649a.342.342,0,0,0,0-.569l-.973-.648a.342.342,0,0,0-.531.3q.024.635,0,1.27A.342.342,0,0,0-917.984-45.772Z" transform="translate(922.35 51.659)" fill="#fff"/></g></g><g transform="translate(915 197)" fill="none" stroke="#bf8ddd" stroke-width="1"><rect width="30" height="30" rx="6" stroke="none"/><rect x="0.5" y="0.5" width="29" height="29" rx="5.5" fill="none"/></g></g></g></svg>