<svg xmlns="http://www.w3.org/2000/svg" xmlns:xlink="http://www.w3.org/1999/xlink" width="281" height="165" viewBox="0 0 281 165"><defs><linearGradient id="a" x1="0.967" y1="0.046" x2="0" y2="1" gradientUnits="objectBoundingBox"><stop offset="0" stop-color="#9866b7"/><stop offset="1" stop-color="#ca8af1"/></linearGradient><clipPath id="c"><rect width="281" height="165" rx="17" transform="translate(691 170)" fill="url(#a)"/></clipPath></defs><g transform="translate(-691 -170)"><rect width="281" height="165" rx="17" transform="translate(691 170)" fill="url(#a)"/><g clip-path="url(#c)"><g transform="translate(1649.754 367.507)" opacity="0.15"><g transform="translate(-991.509 -132.348)"><path d="M-911.666-132.347q28.759,0,57.517,0c13.23,0,22.4,9.315,22.237,22.643-.3,23.854-.469,47.7,0,71.554.262,13.43-8.942,22.839-22.238,22.84q-57.6,0-115.2,0c-13.242,0-22.529-9.584-22.145-23.008.675-23.517,1.1-47.045.018-70.546-.627-13.658,8.74-23.48,22.131-23.483Q-940.508-132.352-911.666-132.347Zm-24.545,26.669a31.966,31.966,0,0,0-33.952,33.926,32.01,32.01,0,0,0,29.739,29.774,31.967,31.967,0,0,0,33.966-33.941A32.01,32.01,0,0,0-936.211-105.678ZM-890.454-89.9h31.911a5.219,5.219,0,0,0,5.219-5.219h0a5.219,5.219,0,0,0-5.219-5.218h-31.911a5.219,5.219,0,0,0-5.22,5.218h0A5.219,5.219,0,0,0-890.454-89.9Zm31.963,10.869H-890.4a5.223,5.223,0,0,0-5.222,5.222h0a5.223,5.223,0,0,0,5.222,5.222h31.905a5.222,5.222,0,0,0,5.223-5.222h0A5.222,5.222,0,0,0-858.492-79.035Zm-31.963,31.691h31.911a5.219,5.219,0,0,0,5.219-5.219h0a5.219,5.219,0,0,0-5.219-5.219h-31.911a5.219,5.219,0,0,0-5.22,5.219h0A5.219,5.219,0,0,0-890.454-47.343Z" transform="translate(991.509 132.348)" fill="#fff"/><path d="M-895.559,171.162h0a5.249,5.249,0,0,1,5.249-5.249h12.039a3.883,3.883,0,0,0,3.882-3.884v-1.406a5.249,5.249,0,0,1,5.25-5.249h21.425a5.249,5.249,0,0,1,5.249,5.249v1.371a3.884,3.884,0,0,0,3.883,3.884h12.115a5.248,5.248,0,0,1,5.247,5.248v.035a5.248,5.248,0,0,1-5.247,5.249H-890.31A5.249,5.249,0,0,1-895.559,171.162Z" transform="translate(938.18 -27.569)" fill="#fff"/><path d="M-898.293-48.506a21.333,21.333,0,0,1,21.2,21.311A21.333,21.333,0,0,1-898.528-5.95a21.345,21.345,0,0,1-21.12-21.4A21.336,21.336,0,0,1-898.293-48.506Zm-1.7,32.3,11.494-7.663a4.039,4.039,0,0,0,0-6.722L-899.99-38.25a4.035,4.035,0,0,0-6.271,3.524q.289,7.5,0,15A4.035,4.035,0,0,0-899.99-16.2Z" transform="translate(951.569 85.748)" fill="#fff"/></g></g></g></g></svg>