<svg xmlns="http://www.w3.org/2000/svg" width="30" height="30" viewBox="0 0 30 30"><g transform="translate(-621 -189)"><g transform="translate(-294)"><g transform="translate(0 -8)"><g transform="translate(915 197)" fill="none" stroke="#bf8ddd" stroke-width="1"><rect width="30" height="30" rx="6" stroke="none"/><rect x="0.5" y="0.5" width="29" height="29" rx="5.5" fill="none"/></g></g></g><g transform="translate(626.965 -166.961)"><g transform="translate(3.035 363.961)"><path d="M153.118,363.961l1.214.9-.014.026h-2.606l-.014-.026,1.213-.9Z" transform="translate(-146.571 -363.961)" fill="#fff"/><path d="M81.059,420.2l-.961-.862a1.119,1.119,0,0,0-1.206-.255,1.535,1.535,0,0,0-.432.272c-.319.268-.627.55-.943.831l-1.128-1.03c-.327-.3-.655-.6-.978-.9a.25.25,0,0,1-.071-.163q-.006-2.1,0-4.208a.394.394,0,0,1,.434-.432H82.8a.4.4,0,0,1,.431.435q0,2.117,0,4.233a.234.234,0,0,1-.058.157q-1.03.948-2.068,1.888A.411.411,0,0,1,81.059,420.2Zm-1-4.21c.482,0,.964,0,1.446,0a.39.39,0,1,0,.006-.774H78.67a1.036,1.036,0,0,0-.18.011.365.365,0,0,0-.285.235.384.384,0,0,0,.382.526C79.077,416,79.567,415.992,80.058,415.992Zm0,1.549c.486,0,.972,0,1.458,0a.389.389,0,1,0-.013-.773q-1.446,0-2.891,0a.653.653,0,0,0-.128.011.369.369,0,0,0-.283.238.384.384,0,0,0,.385.523C79.08,417.544,79.57,417.541,80.061,417.541Zm-3.051-1.55a.385.385,0,1,0-.382-.389A.388.388,0,0,0,77.01,415.991Zm.391,1.164a.387.387,0,1,0-.387.385A.389.389,0,0,0,77.4,417.155Z" transform="translate(-72.843 -411.748)" fill="#fff"/><path d="M28.241,602.146H16.34l.194-.175,5.446-4.828a.428.428,0,0,1,.685,0l5.457,4.894C28.157,602.065,28.189,602.1,28.241,602.146Z" transform="translate(-15.881 -588.935)" fill="#fff"/><path d="M258.232,519.627l4.085-3.739v7.4Z" transform="translate(-249.431 -510.648)" fill="#fff"/><path d="M7.129,518.833l-4.094,3.63V515.09Z" transform="translate(-3.035 -509.878)" fill="#fff"/><path d="M327.092,468.4v-2.235l1.329,1.018Z" transform="translate(-315.917 -462.638)" fill="#fff"/><path d="M14.562,467.2l1.313-1.005v2.2Z" transform="translate(-14.164 -462.673)" fill="#fff"/></g></g></g></svg>