<svg xmlns="http://www.w3.org/2000/svg" width="36.444" height="33.418" viewBox="0 0 36.444 33.418"><path d="M-617.25,89.616V65.628a2.274,2.274,0,0,0,.1-.257,4.522,4.522,0,0,1,4.667-3.675q4.75,0,9.5,0c.109,0,.219.013.4.025-.145.1-.22.151-.3.2-1.21.725-2.442,1.415-3.621,2.186a3.69,3.69,0,0,1-2.294.63c-1.279-.058-2.562-.022-3.842-.012a1.514,1.514,0,0,0-1.49,1.054,1.416,1.416,0,0,0,.545,1.666,2.228,2.228,0,0,0,1.1.307q12.632.025,25.265.013c.166,0,.332,0,.5,0a2.979,2.979,0,0,1,2.84,2.615c.085,1.12.023,2.251.023,3.378,0,.017-.03.035-.061.07-1.146,0-2.307-.005-3.469,0a9.438,9.438,0,0,0-1.171.067,6.856,6.856,0,0,0-5.9,7.173,6.834,6.834,0,0,0,6.632,6.415c1.185.026,2.372.007,3.558.009h.426c0,.605.006,1.171,0,1.737a12.406,12.406,0,0,1-.056,1.846,3.008,3.008,0,0,1-3.092,2.5c-2.218.009-4.436,0-6.654,0q-9.448,0-18.9,0a4.486,4.486,0,0,1-4.319-2.756A8.953,8.953,0,0,1-617.25,89.616Z" transform="translate(617.25 -60.168)" fill="#9866b7"/><path d="M-341.854,221.755a1.326,1.326,0,0,1-1.416.881c-1.814-.027-3.629.008-5.444-.014a4.537,4.537,0,0,1-4.527-4.706,4.564,4.564,0,0,1,4.529-4.394c1.873-.027,3.748,0,5.621-.009a1.317,1.317,0,0,1,1.237.839Zm-5.324-3.694a1.509,1.509,0,0,0-1.526-1.5,1.509,1.509,0,0,0-1.494,1.533,1.514,1.514,0,0,0,1.526,1.506A1.513,1.513,0,0,0-347.177,218.062Z" transform="translate(378.298 -197.575)" fill="#9866b7"/><path d="M-493.776,51.617c.095-.063.187-.129.284-.187q4.618-2.772,9.236-5.543a1.175,1.175,0,0,1,1.872.474q1.462,2.5,2.92,5c.053.09.1.185.165.311h-14.445Z" transform="translate(505.494 -45.608)" fill="#9866b7"/><path d="M-338.131,66.758l-2.554-4.4C-338.819,62.656-337.8,64.1-338.131,66.758Z" transform="translate(366.933 -60.767)" fill="#9866b7"/></svg>