<svg xmlns="http://www.w3.org/2000/svg" width="414.598" height="334.173" viewBox="0 0 414.598 334.173"><g transform="translate(337.994 -3414.014)"><path d="M-416.531,1538.665q.066-41.614.14-83.229c0-1.967.106-3.935.162-5.9,3.472-3.531,7.975-5.521,12.16-7.93q51.4-29.575,102.7-59.305,39.112-22.57,78.242-45.115c4.588-2.641,5.383-2.15,5.393,3.063.01,6.084-.2,12.177.08,18.248.16,3.443-1.239,5.375-4.113,6.829-3.253,1.647-6.343,3.606-9.528,5.383q-75.391,43.61-150.861,87.091c-5.509,3.187-9.615,7.555-10.143,14.241-.468,5.919,2.684,7.969,7.913,5.115,8.272-4.515,16.337-9.4,24.508-14.1,42.83-24.616,85.53-49.458,128.4-74.017,3.072-1.613,5.926-3.6,8.981-5.231,1.417-.754,2.915-2.375,4.729-.6.316,3.011-.467,6.078.46,9.057.821,1.489-.412,2.19-1.207,3.007a113.977,113.977,0,0,0-18.754,25.306c-.643,1.191-1.26,2.427-2.705,2.878-7.925,2.861-14.745,7.791-21.966,11.932-32.819,18.82-65.543,37.808-98.374,56.609-3.92,2.245-5.648,4.993-5.593,9.472.155,12.46.018,24.925.072,37.387.022,5.074.775,5.48,5.161,3,17.734-10.005,35.277-20.341,52.965-30.423,1.877-1.069,3.866-3.572,6.321-.739.869,3.076,3.041,4.124,6.074,4.172,2.5.039,5.093-.478,7.475.8,1,2.813-1.549,3.292-3.007,4.129-16.32,9.377-32.554,18.9-48.9,28.226-6.857,3.91-13.556,8.1-20.516,11.82-4.119,2.2-5.6,5.436-5.682,10.008-.086,4.6,1.268,9.375-1.091,13.807q-22.113,12.7-44.241,25.382c-2.14,1.219-4.944,3.444-5.155-1.688a22.955,22.955,0,0,1-1.2-5.574c.044-1.7.012-3.39,0-5.087-.439-17.01.119-34.021-.158-51.03C-417.831,1543.29-418.248,1540.762-416.531,1538.665Z" transform="translate(196.314 2087.829)" fill="#455a64"/><path d="M-545.09,1588.168q-.047-38.1-.115-76.191c-.01-3.585,1.523-5.853,4.636-7.652,30.05-17.358,60.01-34.873,90.1-52.164,2.485-1.428,5.144-4.747,7.953-3.323,3.092,1.567,1.354,5.559,1.372,8.433.144,21.9.1,43.8.113,65.7-1.8.949-2.792-.638-3.966-1.387a15.717,15.717,0,0,0-5.874-2.378c-6.136-1.035-9.815,2.526-8.925,8.622a39.629,39.629,0,0,0,1.332,4.833c.623,2.236,2.449,4.634-.156,6.679-2.866,2.252-5.818,4.6-9.885,3.553-1.618-.415-3.107-1.253-4.736-1.649-3.81-.925-4.992.109-3.769,3.832,1.06,3.23.178,5.194-2.625,6.793-20.475,11.674-40.755,23.685-61.261,35.305C-542.166,1587.891-543.407,1589.051-545.09,1588.168Z" transform="translate(207.345 2078.05)" fill="#efefef"/><path d="M-141.8,1507.84c-3.392-4.049-6.918-8-10.127-12.186-1.859-2.426-2.949-2.8-5.485-.49-8.791,8-18.362,14.838-30.549,16.7-2.528.385-5.114.394-7.672.575-5.172,1.257-9.132-1.786-13.394-3.765a13.213,13.213,0,0,1-3.262-2.425,5.711,5.711,0,0,1-.631-1.238c-9.682-15.315-9.755-31.762-4.851-48.378,7.595-25.737,21.409-47.229,44.5-61.963,9.1-5.809,18.888-8.111,29.583-6.2,18.726,8.15,21.053,25.136,19.745,40.525-1.348,15.865-7.071,30.335-15.436,43.75-1.69,2.71-1.537,4.322.537,6.657,4.427,4.985,8.5,10.285,12.719,15.457,1.988,5.663,1.111,9.468-2.681,12.756C-131.818,1510.233-138.254,1511.3-141.8,1507.84Z" transform="translate(179.257 2083.307)" fill="#445963"/><path d="M-545.1,1594.734q32.991-18.975,66-37.913c2.123-1.213,2.12-2.4,1.174-4.379-.806-1.687-2.342-3.75-.724-5.495,1.856-2,4.444-1.015,6.336.064,4.225,2.407,7.837,1.9,11.7-.864,2.041-1.458,3.076-2.352,1.681-4.952a21.9,21.9,0,0,1-2.091-6.945c-1.045-6.768,3.129-10.745,9.969-9.83,3.965.531,6.918,2.926,10,5.117,6.862,7.237,10.423,16.219,13.471,25.474q0,29.415,0,58.831c-1.984-.791-2-2.847-2.653-4.4-6.605-15.664-16.041-29.565-26.461-42.867a134.96,134.96,0,0,0-15.456-16.053c16.966,15.3,29.606,33.787,39.707,54.117a53.453,53.453,0,0,1,4.951,13.62q0,2.722.006,5.443c-3.171-5.994-8.667-9.175-14.484-11.956-6.188-2.958-12.27-6.069-17.17-11.037-2.777-2.815-4.334-5.963-2.331-9.818.768-1.479.3-1.844-1.02-2.077a10.056,10.056,0,0,1-1.3-.421c-3.619-1.167-6.865-2.8-7.438-7.082-.614-4.567,2.968-5.811,6.427-7.242-2.365-3.646-4.821-6.954-6.742-10.548-1.488-2.785-2.837-2.125-4.943-.9q-31.14,18.12-62.388,36.058c-1.623.932-3.282,3.111-5.259,1.947C-546.31,1599.347-544.859,1596.745-545.1,1594.734Z" transform="translate(207.358 2071.484)" fill="#905eae"/><path d="M-147.065,1387.745c-4.478.343-9.02.325-13.425,1.1-14.018,2.457-24.431,11.134-33.778,21a111.1,111.1,0,0,0-19.032,28.194c-6.914,14.277-10.874,29.274-9.4,45.288a42.726,42.726,0,0,0,6.763,19.1c.354.558,1.312,1.009.523,1.9-6.071-.607-10.333-4.377-14.515-8.29-1.049-1.467-2.135-2.912-3.363-4.679-2.008,3.285-2.985,7.036-5.814,9.606-1.888,1.194-3.978.934-6.041.868-5.791-1.992-6.807-4.524-3.8-9.551.469-.786,1.07-1.524.7-2.488a1.336,1.336,0,0,0-1.881-.7c-4.193,1.466-6.037-1.432-7.965-4.218a9.8,9.8,0,0,1-1.2-2.459c-.4-1.607-1.009-3.187-.617-4.894,1.161-2.751,3.852-2.715,6.155-3.394,4.564-.023,8.888-3.006,13.609-1.135a4.7,4.7,0,0,1,2.341,1.24,7.891,7.891,0,0,1-.8-3.959c-.048-1.7.027-3.391-.018-5.086a18.168,18.168,0,0,1,.374-3.646c.783-2.3.367-4.752.923-7.08.485-2.049,1.139-4.055,1.54-6.127,1.875-6.044,3.518-12.177,6.613-17.764.788-1.423,1.258-3.12,3.006-3.791a117.379,117.379,0,0,1,16.5-24.24c1.874-2.146,4.084-4,6.139-5.986a1.388,1.388,0,0,1,.746-.815c7.607-6.875,16.024-12.316,26.036-15.072,8.167-2.248,15.841-1.435,23.059,3.139C-151.527,1385.195-149.277,1386.44-147.065,1387.745Z" transform="translate(182.641 2084.029)" fill="#263238"/><path d="M-362.245,1600.675c.036-5.006.2-10.016.065-15.018-.114-4.2,1.32-7.063,5.142-9.242,23.039-13.137,45.974-26.455,68.929-39.738,1.817-1.052,3.518-2.3,5.273-3.463.281-.812.733-1.38,1.71-1.2a14.125,14.125,0,0,0,6.488,1.653c6.18.165,7.074,1.2,6.794,7.256a9.277,9.277,0,0,1-.356,2.224c-2.289,3.728-6.392,5-9.874,7.023-8.155,4.735-16.252,9.569-24.484,14.17-1.317.735-2.64,1.49-3.076,3.668,3.014-.549,5.163-2.191,7.413-3.489q12.846-7.406,25.671-14.849c1.259-.727,2.726-2.516,4.241-.19.636,3.38,1.195,6.753-.585,9.982-3.822-1.8-3.822-1.8-8.945,1.121-8.047,4.6-16.055,9.258-24.067,13.914-1.524.886-3.192,1.688-3.75,3.695,1.775.827,2.736-.486,3.8-1.118,8.894-5.256,17.982-10.177,26.851-15.478,1.629-.973,3.246-2.507,5.4-1.058a4.823,4.823,0,0,1,.713,2.634,5.568,5.568,0,0,1-.594,2.685c-8.6,5.936-18.078,10.422-26.9,16-3.09,1.954-6.947,2.922-9.591,7.08,3.366-.478,5.382-2.075,7.5-3.27,8.178-4.623,16.189-9.54,24.441-14.032,1.517-.827,3.318-2.886,4.929.047.781,3.279.506,6.6.348,9.9-.067,1.4.075,3.15-1.974,3.551a11.31,11.31,0,0,1-.2-2.248c.394-3.8-1.227-3.109-3.531-1.775q-39.162,22.674-78.389,45.235c-2.557,1.47-5.349,4.663-8.025,3.241-2.848-1.512-1.081-5.534-1.186-8.423C-362.319,1614.338-362.209,1607.5-362.245,1600.675Z" transform="translate(191.519 2070.818)" fill="#a67ebe"/><path d="M-218.049,1381.823l-12.889,7.184c-2.454-6.588-1.183-13.332-.837-20.037,2.595-1.545,5.045-3.454,7.817-4.552,4.822-1.91,6.591-4.985,6.1-10.188a141.77,141.77,0,0,1-.083-15.96c.052-2.768-.859-3.205-3.172-1.861q-29.74,17.275-59.515,34.489-40.233,23.248-80.491,46.453-24.655,14.236-49.3,28.487c-1.829,1.053-3.79,1.873-5.69,2.8-1.442-6.832,1-11.012,7.333-14.631q92.713-52.984,185.092-106.551c.659-.38,1.282-.823,1.955-1.175,3.514-1.836,4.538-1.252,4.567,2.861.062,8.824.016,17.649.014,26.473v4.991c2.817-1.416,5.471-1.272,7.162.858,2.011,2.533,1.591,5.657.67,8.652-1.4,4.554-5,7.474-7.976,10.861A1.4,1.4,0,0,1-218.049,1381.823Z" transform="translate(196.197 2088.723)" fill="#905eae"/><path d="M-261.561,1568.391l.225-2.691c2.03-1.617,4.134-.532,6.049.077,8.527,2.712,16.087.829,23.1-4.36.871-.645,1.818-2.54,3.212-.487-.361,4.6.262,9.231-.391,13.822a98.378,98.378,0,0,1-1.049,10.381c-1.468,7.192.875,13.914,1.756,20.87,1.6,12.626.581,25.4.756,38.114-1.547,2.288-4.263,2.148-6.455,3.108-1.7-.5-2.02-1.885-2.19-3.378-.8-8.337-3.436-16.293-5.135-24.441-.958-4.594-1.936-9.2-3.157-13.733a29.82,29.82,0,0,1-.658-13.465c1.346-3.505,2.7-7.031,3.88-10.587,1.023-3.077,2.612-5.282,4.849-6.168,1.158-.783.059-.9.569-.57.123.081.078.232-.183.356-6.082,2.9-5.814,9.428-8.181,14.438a10.893,10.893,0,0,1-.81,2.076,160.544,160.544,0,0,0-2.2,22.205c-.1,7.8-3.038,15.18-4.77,22.736-.782,3.412-1.674,6.8-2.531,10.193-.847,2.386-.54,5.266-2.959,6.988-2.486.881-4.751.8-6.5-1.508q1.049-32.4,2.1-64.811c1.352-4.836.287-9.761.543-14.637C-262.864,1571.378-262.617,1569.873-261.561,1568.391Z" transform="translate(183.013 2068.39)" fill="#37474f"/><path d="M-259.817,1661.312q1-3.115,2.01-6.231c1.7-1.484,3.706-1.265,5.713-1.037a88.526,88.526,0,0,1,11.743,5.543c3.959,2.4,7.646,3.136,11.785.975,3.349.563,5.707,2.865,7.8,5.136a9.009,9.009,0,0,1-1.7,13.537c-10.808,7.439-23.024,9.582-35.863,8.382a50.866,50.866,0,0,1-19.5-5.484c-8.869-4.74-10.324-9.2-5.654-17.879A140.9,140.9,0,0,1-269.523,1669c5.92,2.419,8.053,1.2,8.665-5.111A4.974,4.974,0,0,1-259.817,1661.312Z" transform="translate(184.897 2060.257)" fill="#efefef"/><path d="M-226.278,1571.21l-.249-14.508c-1.506-1.714-1.17-3.668-.743-5.63,2.58-3.375,6.691-4.458,10.06-6.661,1.945-1.272,4.274-2.112,5.5-5.147-4.4,1.185-7.354,3.857-10.834,5.442-1.5.681-3.045,2.518-4.7.164a28.065,28.065,0,0,1-.982-13.955,5.545,5.545,0,0,1,3.139-3.1c5.217-2.619,9.858-6.241,15.167-8.7,4.55,1.533,8.722,4.166,13.618,4.7-.026,4.107-.168,8.218-.046,12.32.118,3.921-1.4,6.547-4.917,8.451-6.947,3.762-13.663,7.948-20.61,11.709-2.927,1.585-4.124,3.5-3.783,6.863C-225.387,1565.805-224.986,1568.615-226.278,1571.21Z" transform="translate(179.925 2071.932)" fill="#a67ebe"/><path d="M-111.921,1513.076q7.213,8.508,14.424,17.02c4.118,4.888,3.745,10.983-.874,14.941-4.656,3.991-10.738,3.621-14.9-1.273-5.212-6.12-10.154-12.47-15.213-18.721,1.212-1.024,2.588-.472,3.91-.4,6.147.327,9.3-2.073,10.613-8.019C-113.662,1515.249-114.016,1513.439-111.921,1513.076Z" transform="translate(171.245 2072.455)" fill="#455a64"/><path d="M-112.424,1512.377c-.236.374-.627.727-.684,1.126-1.5,10.68-5.438,13.379-15.883,10.841-2.3-1.671-3.8-4.014-5.3-6.351,11.272,2.972,15.52-.545,15.682-12.984C-116.02,1507.023-114.289,1509.756-112.424,1512.377Z" transform="translate(171.747 2073.154)" fill="#8f5ead"/><path d="M-259.6,1664.692c.41,6.562-3.118,9.4-8.78,6.385-4.807-2.557-10.915-1.816-14.876-6.209-.842-2.8.333-4.011,3.116-3.892,2.723.116,5.444.274,8.166.414,2.686.435,5.565-.094,7.675,2.575C-263.289,1665.246-261.131,1663.992-259.6,1664.692Z" transform="translate(184.676 2059.643)" fill="#28343a"/><path d="M-225.391,1660.14c-1.818,2.8-4.873,3.982-7.368,2.418-4.949-3.1-10.844-4.249-15.432-7.94-2.153-3.277-1.557-5.3,1.993-5.546,4.1-.283,8.157.314,11.551,3.051q.845,1.273,1.69,2.547c1.973,2.149,5.348.116,7.264,2.435Q-225.542,1658.621-225.391,1660.14Z" transform="translate(181.723 2060.679)" fill="#28343a"/><path d="M-258.507,1664.706c-2.853,1.316-5.5,2.7-7.13-1.822-.769-2.128-3.7-.139-5.25-1.481q3-.135,5.991-.274c2.1.494,4.191,1.108,6.395.811Q-258.5,1663.322-258.507,1664.706Z" transform="translate(183.581 2059.629)" fill="#e98c8c"/><path d="M-224.13,1657.372c-2.3-1.187-6.118,2.183-7.264-2.435.876-3.714,4.652-.955,6.345-2.842Q-224.59,1654.734-224.13,1657.372Z" transform="translate(180.16 2060.412)" fill="#e58a8a"/><path d="M-199.228,1387.1l.751-.846c.731,3.321-.843,6.859.954,10.081q-.375.408-.747.816C-200.208,1393.96-198.6,1390.426-199.228,1387.1Z" transform="translate(177.376 2083.441)" fill="#915eaf"/><path d="M-229.6,1373.112c1.79,4.941.41,10.056.807,15.075.13,1.645.026,3.308.029,4.963q-49.878,28.853-99.76,57.706-25.635,14.82-51.3,29.594a30.589,30.589,0,0,1-3.586,1.981c-4.568,1.866-8.031-.332-7.959-5.288.114-7.908,4.376-13.321,11-17.141q35.908-20.717,71.815-41.435Q-269.081,1395.822-229.6,1373.112Z" transform="translate(194.018 2084.581)" fill="#f4f4f4"/><path d="M-235.023,1431.218a112.462,112.462,0,0,0-8.574,21.871c-3.094,3.034-7.1,4.629-10.743,6.787-12.286,7.275-24.781,14.193-37.039,21.517a24.339,24.339,0,0,1-5.345,2.535c-2.359.176-4.616.012-6.32-1.939.534-2.82,3.106-3.508,5.108-4.668,5.367-3.11,10.7-6.282,16.063-9.4,1.4-.81,3.074-1.388,3.642-3.209-3.212.031-21.425,10.109-29.11,16.094-2.958-.027-5.411.649-5.851,4.169-.544,4.352,3.136,4.01,5.586,5.03a3.526,3.526,0,0,1,.906.891c.3.4.4,1.238,1.1.863.248-.133-.342-.967.029-1.5a3.485,3.485,0,0,1,1.192-.567c4.164.665,8.573-.45,12.507,1.762.287,2.109-1.628,1.759-2.668,2.3-3.951,2.052-7.849,4.16-10.975,7.458,4.045.161,6.6-2.924,9.948-4.206,1.581-.605,2.934-2.414,4.909-.911.731,2.431-.431,4.382-1.587,6.336-4.092,3.625-9.95,4.8-14.235,10.021,3.354-.327,4.923-2.113,6.888-2.941,1.547-.653,3.086-2.363,4.729-.127.227,3.361.953,6.842-2.3,9.343-1.572-1-2.57.409-3.627,1.017q-27.857,15.988-55.657,32.078c-1.393.8-2.768,2.351-4.521,1.335s-1.127-3-1.131-4.6c-.037-13.381.069-26.763-.074-40.142-.045-4.166,1.646-6.657,5.227-8.714q58.088-33.336,116.09-66.82C-239.179,1431.918-237.638,1429.322-235.023,1431.218Z" transform="translate(191.492 2079.605)" fill="#a67ebe"/><path d="M-291.011,1523.7a40.875,40.875,0,0,0,1.722-10.129c-.532-2.634.7-4.558,2.514-6.249q.937-3.22,1.875-6.439c-1.044-1.328-.072-2.617.073-3.924a13.863,13.863,0,0,1,2.173-5.893c2.057-3.322,5.142-3.49,8.517-2.785,1.88.625,3.838,1.151,4.57,3.344a3.01,3.01,0,0,1-.287,2.03c-.673.993-2.233.877-2.717,2.139.512,2.3,4.377.471,4.287,3.488-1.007,1-2.375,1.167-3.641,1.511-3.676,1-5.977,3.119-6.111,7.125.127,2.689-.723,5.308-.524,7.987a4.239,4.239,0,0,0,2.717,1.37c2.187.544,2.979,1.928,2.195,3.972-.9,2.345-.243,5.073-1.871,7.209l-1.139.942c-3.275-.1-6.552-.175-9.826-.322C-289.9,1528.927-291.883,1527.5-291.011,1523.7Z" transform="translate(185.342 2074.633)" fill="#fda7a6"/><path d="M-420.851,1620.625A184.634,184.634,0,0,0-449.33,1571.1a109.291,109.291,0,0,0-19.428-19.521c10.545,1.777,36.069,36.84,47.819,64.631Z" transform="translate(200.723 2069.12)" fill="#f0eaf4"/><path d="M-502.327,1536.229l.008-1.668c-1.424-2.24-.881-4.632-.537-7.007a18.1,18.1,0,0,1,1.524-6.07l1.756-3.111c.766-1.395,1.971-2.472,2.789-3.828l-.03.038a9.966,9.966,0,0,1,2.791-2.873l3.532-2.606c3.164-1.618,6.36-2.245,9.177.525,3.657,3.6,2.489,8.165,1.875,12.4-.429,2.966-2.106,5.622-3.694,8.2-2.67,3.685-5.242,7.476-9.9,8.966a10.083,10.083,0,0,1-6.533.012l.048.031A7.05,7.05,0,0,1-502.327,1536.229Z" transform="translate(203.711 2072.919)" fill="#efefef"/><path d="M-481.924,1530.177c1.187-3.253,2.837-6.419,3.475-9.777,1.764-9.273-1.638-12.671-10.833-11.351,2.517-2.419,5.362-2.479,8.283-.96,2.857,1.485,3.739,4.06,3.8,7.165C-477.1,1520.789-477.607,1526.069-481.924,1530.177Z" transform="translate(202.501 2072.976)" fill="#b698c8"/><path d="M-502.456,1529.143q.012,3.625.026,7.249c-3.513-1.959-1.754-4.667-1.03-7.228C-503.134,1528.759-502.8,1528.733-502.456,1529.143Z" transform="translate(203.823 2071.089)" fill="#c8b3d4"/><path d="M-502.353,1528.618l-1,.021a8.424,8.424,0,0,1,2.016-5.846Q-501.847,1525.7-502.353,1528.618Z" transform="translate(203.72 2071.614)" fill="#b08ec3"/><path d="M-499.217,1542.2l6.532-.011A5.14,5.14,0,0,1-499.217,1542.2Z" transform="translate(203.361 2069.934)" fill="#b190c5"/><path d="M-496.437,1515.193a4.853,4.853,0,0,1-2.789,3.827A4.176,4.176,0,0,1-496.437,1515.193Z" transform="translate(203.362 2072.272)" fill="#b495c7"/><path d="M-502.239,1538.933a6.077,6.077,0,0,1,2.809,3.013A2.789,2.789,0,0,1-502.239,1538.933Z" transform="translate(203.623 2070.215)" fill="#b190c5"/><path d="M-493.414,1512.09a4.455,4.455,0,0,1-2.791,2.873A2.867,2.867,0,0,1-493.414,1512.09Z" transform="translate(203.1 2072.541)" fill="#b697c7"/><path d="M-193.784,1435.863c8.187-14.157,18.695-25.958,33.8-33.017,4.288-2,8.778-3.273,13.608-2.519,3.986,3.557,4.634,8.369,4.909,13.279.68,12.094-1.911,23.591-6.691,34.614-8.24,19-20.042,35.067-38.414,45.5-2.312,1.313-4.8,3.693-7.814,1.1-1.01-2.156-.682-4.463-.729-6.72-.054-2.587.206-5.22-2.924-6.482a2.805,2.805,0,0,1-1.412-2.706c-.059-4.369-.776-8.772.543-13.089,3.094-3.288,3.813-7.237,3.845-11.645C-195.023,1448.063-196.131,1441.827-193.784,1435.863Z" transform="translate(177.414 2082.242)" fill="#fbfbfb"/><path d="M-194.09,1495.269c8.608-2.05,15.3-7.39,21.376-13.31,14.365-14,24.065-30.815,28.34-50.508,2.285-10.526,2.938-21.07-2.29-31.108,4.365-.458,5.709,2.892,7.04,5.895,3.448,7.778,3.331,16.086,1.854,24.1-4.536,24.622-16.392,45.146-36.22,60.67-6.745,5.281-14.264,9.282-23.32,8.783-2.283-.126-4.631-.193-5.675-2.833A14.806,14.806,0,0,1-194.09,1495.269Z" transform="translate(177.699 2082.225)" fill="#aeb4b7"/><path d="M-194.426,1439.254c-.009,7.3-.029,14.606-.024,21.909,0,3.58-.965,6.6-4.515,8.214-.677.5-.975,1.312-1.528,1.92-2.106,1.119-3.587,3.843-6.62,2.6C-205.757,1461.3-200.884,1449.986-194.426,1439.254Z" transform="translate(178.056 2078.851)" fill="#dbcae4"/><path d="M-227.814,1506.252c3.752,4.3,8.879,6.507,13.789,9.042a3.067,3.067,0,0,1,.047.66c-4.276,3.833-8.771,7.255-14.761,7.879-2.056-4.752-5.557-7.562-10.811-8-1.186-1.664-3.935-1.59-4.465-3.99,2.072-.426,4.4.826,6.268-.948C-234.628,1508.932-232.5,1504.852-227.814,1506.252Z" transform="translate(181.253 2073.071)" fill="#a67dbe"/><path d="M-200.831,1473.138a1.878,1.878,0,0,1,1.861-.905c0,3.311-.107,6.625.018,9.93.081,2.144-1.376,5.219,3.075,5.092,1.407-.04,1.421,2.034,1.419,3.41q0,5.417.006,10.835a15.772,15.772,0,0,1-8.9,1.693,17.764,17.764,0,0,1-3.809-10.873C-199.177,1487.862-201.566,1479.985-200.831,1473.138Z" transform="translate(178.06 2075.994)" fill="#dbcae4"/><path d="M-200.925,1473.224c1.94,4.784,1.224,9.82.537,14.583-.415,2.874-4.551,3-6.86,4.6-1.722-5.193-.853-10.379.037-15.564A19.226,19.226,0,0,0-200.925,1473.224Z" transform="translate(178.154 2075.908)" fill="#b3bcc0"/><path d="M-227.184,1524.639l14.558-7.738a4.244,4.244,0,0,1,2.732,2.022c-4.745,5.2-11.261,7.619-17.2,10.936C-228.868,1528.148-228.794,1526.406-227.184,1524.639Z" transform="translate(179.901 2072.124)" fill="#fbfbfc"/><path d="M-125.5,1420.3v10.735l-.41.006V1420.3Z" transform="translate(171.022 2080.493)" fill="#65747b"/><path d="M-187.082,1512.714c-2.193.315-4.221.779-6.541-.059A12.739,12.739,0,0,1-187.082,1512.714Z" transform="translate(176.888 2072.527)" fill="#626f77"/><path d="M-421.475,1584.982c-1.939-10.451-3.516-20.985-7.562-30.9-4.007-9.816-8.929-19.032-17.823-27.058C-434.629,1531.114-419.719,1565.961-421.475,1584.982Z" transform="translate(198.826 2071.247)" fill="#f4f0f7"/><path d="M-452.756,1556.41c6.644-4.719,6.65-4.723,10.3,1.828,1.331,2.388,2.607,4.8,3.938,7.191.645,1.155.942,2.153-.318,3.179-1.575,1.282-2.11-.089-2.8-.979C-444.8,1563.517-448.7,1560.128-452.756,1556.41Z" transform="translate(199.336 2068.99)" fill="#f6f6f7"/><path d="M-290.189,1485.326q25.542-14.847,51.094-29.676a6.35,6.35,0,0,1,1.736-.422l-1.523,5.631c-1.105.786-1.589,2.125-2.851,2.844-14.112,8.036-28.1,16.29-42.306,24.169C-286.526,1488.08-288.853,1487.9-290.189,1485.326Z" transform="translate(185.253 2077.467)" fill="#fdfdfd"/><path d="M-283.328,1487.6c14.708-9.26,29.965-17.576,45.04-26.2-.408,2.38.172,4.882-.886,7.182-9.542,4.9-18.625,10.619-27.995,15.826-1.914,1.064-3.6,2.788-6.1,2.437-2.938.015-6.18-.916-8,2.574A2.036,2.036,0,0,1-283.328,1487.6Z" transform="translate(184.659 2076.933)" fill="#a77fbe"/><path d="M-245.405,1510.829c1.572,1.11,4.518.543,4.452,3.651-3.839,3.989-7.8,4.026-10.818.039a4.444,4.444,0,0,0-2.488-1.814c-3.219-.788-4.7-3.008-5.185-6.1-.266-2.291-1.182-4.573-.15-6.893a13.76,13.76,0,0,0,1.007-3.175,2.9,2.9,0,0,1,1.31-2.23c2.1,2.606,3.532,6.886,8.112,2.879.764-.668,2.082.228,2.523,1.287a3.915,3.915,0,0,1-.636,4.252C-250.854,1506.926-250.558,1508.232-245.405,1510.829Z" transform="translate(182.644 2074.081)" fill="#fba6a6"/><path d="M-272.31,1487.448q15.69-9.155,31.384-18.3c.88-.512,1.827-1.323,2.706.04q-.137,1.825-.275,3.652c-3.634,4.9-9.319,6.62-14.4,9.277-.633.331-1.5.141-1.976.848-1.742,1.013-4.518-.1-5.418,2.64-1.992,2.909-4.581,4.747-8.271,4.611C-269.13,1488.37-271.268,1488.652-272.31,1487.448Z" transform="translate(183.704 2076.323)" fill="#fdfcfd"/><path d="M-253.213,1483.38c5.014-4.092,11.145-6.38,16.373-10.125q-.042,2.78-.083,5.558c-.606,1.358-1.822,2.24-2.661,3.415C-244.3,1480.516-248.616,1483.635-253.213,1483.38Z" transform="translate(182.05 2075.905)" fill="#a881bf"/><path d="M-268.205,1491.841l8.271-4.611c.356,1.561,1.149,3.055.726,4.736-.882,2.138-2.739,3.086-4.729,3.877-1.771-.115-3.512-.294-4.32-2.253Q-268.232,1492.714-268.205,1491.841Z" transform="translate(183.353 2074.694)" fill="#a781bd"/><path d="M-227.219,1505.675c-3.833.428-6.286,3.813-9.933,4.639a53.915,53.915,0,0,0,5.383-11Z" transform="translate(180.659 2073.648)" fill="#455863"/><path d="M-263.143,1495.571q2.188-1.578,4.378-3.157l1.221,1.726q-.147,1.4-.294,2.789C-260,1498.016-261.781,1497.609-263.143,1495.571Z" transform="translate(182.91 2074.245)" fill="#f8f8f9"/><path d="M-238.329,1482.754c-1.545-3.032,1.8-2.254,2.661-3.415C-236.054,1480.869-233.177,1484.94-238.329,1482.754Z" transform="translate(180.795 2075.378)" fill="#f8f6f9"/><path d="M-260.079,1507.25c.521,3.29,1.848,5.728,5.754,5.42a1.535,1.535,0,0,1,1.871,1.476c.147,4.538,2.815,3.706,5.616,2.755,1.4-.475,2.822-.871,4.234-1.3,7.147-.344,9.563,1.452,11.026,8.2q.044,2.61.087,5.22c-.578,5.244.113,10.432.694,15.623,1.431,1.556,1.094,3.108,0,4.661q-.048,3.183-.095,6.367c-6.1,6.646-13.564,9.2-22.437,7.464-3.107-.608-6.192-1.335-9.285-2.008q-.126-1.445-.251-2.89a.5.5,0,0,1,.22-.789c1.54-3.589.309-7.329.6-10.985a3.439,3.439,0,0,1,.046-4.453c.046-.6.129-1.2.131-1.794.026-8.634,1.034-7.5-7.261-7.309-2.439.057-4.414-.206-5.338-2.782-.859-3.362.218-6.465,1.487-9.379-1.89-1.681-5.551,1.68-6.127-2.589,1.449-3.46,4.97-4.364,7.814-5.783C-267.637,1510.547-264.75,1506.864-260.079,1507.25Z" transform="translate(184.294 2072.962)" fill="#455a64"/><path d="M-356.456,1620.459c-1.386-7.183-.353-14.433-.576-21.648-.1-3.15,3.48-.954,4.409-2.76.328-1.446,1.608-2.081,2.564-2.983,3.9-3.677,4.657-8.445,4.718-13.461-.237-1.783,1.155-2.254,2.328-2.929,7.491-4.311,15.012-8.572,22.442-12.984,3.115-1.85,4.6-1.19,4.38,2.425-.418,6.882,1.054,13.834-.766,20.661-2.038-.193-3.158-1.776-4.347-3.089-2.444-2.7-3.916-1.963-5.3,1.011-2.31,4.965-4.985,9.757-7.25,14.744-1.195,2.63-2.859,3.544-5.37,1.945-3.3-2.1-4.967-.357-6.449,2.4q-3.569,6.628-7.483,13.065C-354.013,1618.263-354.69,1619.866-356.456,1620.459Z" transform="translate(191.058 2068.157)" fill="#fefefe"/><path d="M-356.386,1622.074c3.55-6.177,7.229-12.286,10.6-18.561,1.788-3.331,3.809-4.162,6.758-1.679,2.468,2.078,3.472.857,4.551-1.523,2.57-5.663,5.429-11.193,8.032-16.841,1.183-2.566,2.4-2.84,4.278-.718,1.706,1.928,3.516,3.764,5.281,5.641-.019,4.1-.164,8.2-.012,12.288a5.861,5.861,0,0,1-3.055,5.678c-10.592,6.161-21.269,12.178-31.853,18.354C-355.154,1626.666-356.483,1625.769-356.386,1622.074Z" transform="translate(190.988 2066.542)" fill="#905eae"/><path d="M-264.009,1545.311q-.022,2.225-.045,4.451c-11.345,7.632-23.568,13.779-35.246,20.848-.725.439-1.627,1.046-2.469.148a2.209,2.209,0,0,1-.169-2.553,5.4,5.4,0,0,1,2.316-2.723Q-281.813,1555.4-264.009,1545.311Z" transform="translate(186.299 2069.663)" fill="#fdfcfd"/><path d="M-264.662,1561.767q-.1.4-.22.79c-10.951,6.23-21.886,12.488-32.874,18.654-1.265.71-2.914,2.8-4.226.674-1.108-1.8.431-3.6,2.037-4.543,11.495-6.752,23.05-13.4,34.924-20.279Z" transform="translate(186.308 2068.645)" fill="#fdfdfd"/><path d="M-264.847,1569.187l-.123,4.529q-16.342,9.489-32.691,18.962c-1.343.775-3.115,2.525-4.275.462-1-1.771.572-3.517,2.194-4.477,6.141-3.633,12.281-7.279,18.555-10.673C-275.747,1575.046-270.819,1571.141-264.847,1569.187Z" transform="translate(186.298 2067.594)" fill="#fdfdfd"/><path d="M-300.3,1560.176c-1.835.007-2.075-.985-1.864-2.139.329-1.8,1.664-2.779,3.153-3.639q12.387-7.154,24.753-14.344c.882-.512,1.847-1.431,2.8-.319a2.305,2.305,0,0,1-.152,2.954,11.251,11.251,0,0,1-2.953,2.758c-7.823,4.613-15.7,9.133-23.57,13.667C-298.91,1559.563-299.747,1559.909-300.3,1560.176Z" transform="translate(186.296 2070.191)" fill="#fdfcfd"/><path d="M-345.263,1581.211c2.281,6.18-.626,12.744-7.282,16.444-2.635.292-3.706-.647-3.747-3.529C-356.406,1586.043-353.673,1582.659-345.263,1581.211Z" transform="translate(190.98 2066.553)" fill="#915eaf"/><path d="M-208,1378.353c.039-4.481,3.778-9.727,6.9-9.637,2.626.076,4.076,1.481,3.9,4.391-.258,4.24-4.456,9.721-7.72,9.4C-207.309,1382.276-208.612,1380.678-208,1378.353Z" transform="translate(178.146 2084.961)" fill="#f3edf5"/><path d="M-222.614,1343.385a3.53,3.53,0,0,1-2.493,3.254c-1.105.294-1.621-.553-1.5-1.576a3.592,3.592,0,0,1,2.521-3.324C-222.8,1341.367-222.706,1342.421-222.614,1343.385Z" transform="translate(179.746 2087.305)" fill="#efecf0"/><path d="M-213.236,1337.819c-.317,1.7-.975,3.211-2.8,3.651-.926.224-1.269-.644-1.229-1.423.09-1.776.864-3.194,2.689-3.621C-213.714,1336.224-213.351,1337.023-213.236,1337.819Z" transform="translate(178.936 2087.761)" fill="#f1eff2"/><path d="M-235.14,1647.393c-3.392-.707-6.765-1.534-10.183-2.087-3.875-.627-5.069.979-3.361,4.582l-6.441.041c2.242-9.6,4.444-19.212,6.748-28.8a26.19,26.19,0,0,0,.75-9.505c-.8-6.138,1.014-11.685,3.207-17.209l.011.036c.594,15.744,6.1,30.523,8.9,45.831C-235.092,1642.55-232.813,1644.925-235.14,1647.393Z" transform="translate(182.216 2065.408)" fill="#f8f8f8"/><path d="M-243.4,1592.715c.116-4.817,2.683-8.893,4.169-13.279,1.039-3.069,4.758-3.086,7.344-4.675-7.774,3.6-7.658,12.038-11.5,17.99Z" transform="translate(181.2 2067.112)" fill="#29363d"/><path d="M-225.879,1540.545c-1.11-3.07-.159-5,2.59-6.406,3.36-1.718,6.568-3.73,9.874-5.556.873-.482,1.874-1.341,2.874-.337,1.176,1.179.158,2.313-.437,3.251-1.353,2.135-3.7,3.052-5.8,4.216C-219.769,1537.378-222.505,1539.573-225.879,1540.545Z" transform="translate(179.721 2071.181)" fill="#fcfbfc"/><path d="M-226.218,1552.067q0-2.331,0-4.66c4.046-2.332,8.06-4.721,12.158-6.958,1.154-.63,2.716-2.432,3.814-.387.859,1.6-.414,3.361-1.807,4.227C-216.625,1547.133-221.03,1550.326-226.218,1552.067Z" transform="translate(179.711 2070.2)" fill="#fcfbfd"/><path d="M-356.291,1545.787a73.291,73.291,0,0,1-.052-23.677c9.052-4.011,11.324-7.891,10.31-17.613q13.1-7.811,26.2-15.617c1.642-.977,3.445-.716,3.432,1.227-.049,7.344,1.313,14.75-.68,22.032-2.269.236-2.979-1.724-4.183-2.981-2.592-2.707-3.77-2.621-5.22.813-2,4.748-4.535,9.23-6.679,13.9-1.465,3.19-3.262,5-6.985,2.834-2.4-1.4-3.915.128-5.094,2.184-2.785,4.852-5.443,9.779-8.467,14.49A4.618,4.618,0,0,1-356.291,1545.787Z" transform="translate(191.065 2074.599)" fill="#fefefe"/><path d="M-356.2,1547.416c3.565-6.151,7.247-12.238,10.645-18.48,1.624-2.983,3.556-3.638,6.151-1.63,2.892,2.239,3.98.795,5.161-1.864,2.331-5.251,5.045-10.331,7.392-15.575,1.562-3.489,3.253-3.509,5.571-.789,1.374,1.612,2.86,3.129,4.295,4.689.019.76.063,1.521.053,2.281-.237,17.772,2.317,12.26-13.046,21.812-6.948,4.319-14.166,8.2-21.254,12.3-1.289.744-2.544,2.185-4.076,1.417C-356.989,1550.734-355.917,1548.827-356.2,1547.416Z" transform="translate(190.979 2072.97)" fill="#905eae"/><path d="M-302.1,1483.313c.509-1.984,2.135-2.813,3.738-3.727,7.523-4.282,14.984-8.672,22.564-12.848,1.292-.711,3.168-3.161,4.49-.586,1.061,2.065-.948,3.531-2.745,4.574q-11.821,6.861-23.628,13.743a2.182,2.182,0,0,1-1.808.619A3.118,3.118,0,0,1-302.1,1483.313Z" transform="translate(186.285 2076.62)" fill="#fdfcfd"/><path d="M-345.986,1506.03c3.39,3.906,1.494,7.843-.459,11.33-2.04,3.642-4.608,7.285-9.851,6.283a1.9,1.9,0,0,0,.009-.449C-358.212,1514.255-353.846,1509.094-345.986,1506.03Z" transform="translate(191.019 2073.066)" fill="#915eaf"/><path d="M-299.493,1486.274l1.786.038a16.506,16.506,0,0,0,6.455,1.7,15.421,15.421,0,0,0,6.268,1.737c.784.5,1.752.784,2.063,1.816q-1.03,2.771-2.061,5.547a1.042,1.042,0,0,1-1.731-.1l-13.717-1.858C-303.4,1491.875-303.149,1489.49-299.493,1486.274Z" transform="translate(186.317 2074.777)" fill="#28343a"/><path d="M-286.7,1498.032l1.731.1q-.447,1.813-.892,3.623c-4.119,2.263-8.219,4.562-12.369,6.767-1.1.584-2.391,2.061-3.586.51a2.7,2.7,0,0,1,1.029-3.965C-296.3,1502.342-292.246,1498.667-286.7,1498.032Z" transform="translate(186.306 2073.759)" fill="#fcfbfc"/><path d="M-300.154,1486.1c-1.593,2.825-2.855,5.686-.937,8.882l.115.374a1.475,1.475,0,0,1-1.892-.089c-6.606-.278-8.481-2.628-6.455-7.847,1.322-3.4,3.6-3.658,6.534-2.438Z" transform="translate(186.978 2074.947)" fill="#465964"/><path d="M-287.741,1509.161l-2.515,6.251c-2.614,1.461-5.194,2.993-7.86,4.357-1.2.613-2.7,2.376-3.866.517-1.008-1.607.195-3.273,1.683-4.176C-296.209,1513.63-292.26,1510.875-287.741,1509.161Z" transform="translate(186.307 2072.794)" fill="#fcfbfc"/><path d="M-302.192,1496.31l1.891.089c.5.742,2.191.281,1.955,1.336-.2.906-1.525,1.372-2.566,1.281C-302.717,1498.859-302.272,1497.459-302.192,1496.31Z" transform="translate(186.302 2073.908)" fill="#e2e3e5"/><path d="M-260.079,1506.55l-19.033,10.909q.484-4.592.968-9.183c3.884-4.251,9.354-6,14.078-8.94,1.475-.313,2.9-.409,3.991.929C-262.006,1502.36-259.494,1504.456-260.079,1506.55Z" transform="translate(184.294 2073.663)" fill="#a67ebe"/><path d="M-259.552,1499.833l-4.547-.063c-1.013.533-2,.818-2.865-.268a13.8,13.8,0,0,0-2.132-.581c-1.753-.2-4.019.115-3.975-2.466.051-3.031,2.587-2.146,4.4-2.266l4.673,1.532,5.3,1.359Q-259.126,1498.456-259.552,1499.833Z" transform="translate(183.77 2074.094)" fill="#2d373d"/><path d="M-267.4,1500.01l2.865.268c-4.05,3.458-8.876,5.617-13.523,8.074C-276.611,1502.218-275.024,1500.975-267.4,1500.01Z" transform="translate(184.202 2073.587)" fill="#f9f8f9"/><path d="M-495.319,1533.871v-4.98c0-8.894,1.87-10.5,10.865-9.593,2.2.22,2.362,1.094,1.138,2.517-3.622,4.213-7.332,8.353-11.007,12.521Z" transform="translate(203.024 2071.935)" fill="#9260af"/><path d="M-198.741,1372.93c.058,3.4-3.167,7.94-5.431,7.865-1.492-.049-1.966-1.074-1.99-2.46-.048-2.7,3.232-7.556,5.353-7.764C-198.757,1370.371-198.82,1371.892-198.741,1372.93Z" transform="translate(177.974 2084.802)" fill="#9463b1"/></g></svg>