<svg xmlns="http://www.w3.org/2000/svg" xmlns:xlink="http://www.w3.org/1999/xlink" width="1366.04" height="490.08" viewBox="0 0 1366.04 490.08"><defs><clipPath id="a"><rect x="35" y="27" width="1366.04" height="490.08" fill="none"/></clipPath><linearGradient id="b" x1="0.5" y1="0.432" x2="0.5" gradientUnits="objectBoundingBox"><stop offset="0" stop-color="#f6f3f8" stop-opacity="0"/><stop offset="1" stop-color="#f9f6fa" stop-opacity="0.859"/></linearGradient><linearGradient id="c" y1="0.721" xlink:href="#b"/></defs><g transform="translate(-35 -27)" clip-path="url(#a)" style="isolation:isolate"><g transform="translate(35.04 -73)"><g transform="translate(0 73)" fill="#9866b7" stroke="#707070" stroke-width="1"><rect width="1366" height="517" stroke="none"/><rect x="0.5" y="0.5" width="1365" height="516" fill="none"/></g><path d="M269.04,0a271.026,271.026,0,0,0-54.221,5.466,267.566,267.566,0,0,0-96.2,40.482,269.827,269.827,0,0,0-97.475,118.37,267.691,267.691,0,0,0-15.677,50.5,271.666,271.666,0,0,0,0,108.442,267.565,267.565,0,0,0,40.482,96.2,269.824,269.824,0,0,0,118.37,97.475,267.687,267.687,0,0,0,50.5,15.677,271.662,271.662,0,0,0,108.442,0,267.567,267.567,0,0,0,96.2-40.482,269.827,269.827,0,0,0,97.475-118.37,267.692,267.692,0,0,0,15.677-50.5,271.662,271.662,0,0,0,0-108.442,267.566,267.566,0,0,0-40.482-96.2,269.828,269.828,0,0,0-118.37-97.475,267.69,267.69,0,0,0-50.5-15.677A271.023,271.023,0,0,0,269.04,0Zm0,454.635c-102.338,0-185.6-83.258-185.6-185.6S166.7,83.446,269.04,83.446,454.634,166.7,454.634,269.04,371.377,454.635,269.04,454.635Z" transform="translate(827.92 374)" opacity="0.1" fill="url(#b)"/><path d="M269.04,0a271.026,271.026,0,0,0-54.221,5.466,267.566,267.566,0,0,0-96.2,40.482,269.827,269.827,0,0,0-97.475,118.37,267.691,267.691,0,0,0-15.677,50.5,271.666,271.666,0,0,0,0,108.442,267.565,267.565,0,0,0,40.482,96.2,269.824,269.824,0,0,0,118.37,97.475,267.687,267.687,0,0,0,50.5,15.677,271.662,271.662,0,0,0,108.442,0,267.567,267.567,0,0,0,96.2-40.482,269.827,269.827,0,0,0,97.475-118.37,267.692,267.692,0,0,0,15.677-50.5,271.662,271.662,0,0,0,0-108.442,267.566,267.566,0,0,0-40.482-96.2,269.828,269.828,0,0,0-118.37-97.475,267.69,267.69,0,0,0-50.5-15.677A271.023,271.023,0,0,0,269.04,0Zm0,454.635c-102.338,0-185.6-83.258-185.6-185.6S166.7,83.446,269.04,83.446,454.634,166.7,454.634,269.04,371.377,454.635,269.04,454.635Z" transform="translate(-35.04 154.96)" opacity="0.1" fill="url(#c)"/><g transform="translate(698 110)" fill="none" stroke="#aa84c3" stroke-width="4"><ellipse cx="17" cy="17.5" rx="17" ry="17.5" stroke="none"/><ellipse cx="17" cy="17.5" rx="15" ry="15.5" fill="none"/></g><g transform="translate(1473.917 -3771.902)"><path d="M-987.857,3907.292l14.627,19.571" fill="none" stroke="#aa84c3" stroke-linecap="round" stroke-width="3"/><path d="M-970.141,3908.94l-19.777,15.45" fill="none" stroke="#aa84c3" stroke-linecap="round" stroke-width="3"/></g></g></g></svg>