<svg xmlns="http://www.w3.org/2000/svg" xmlns:xlink="http://www.w3.org/1999/xlink" width="380" height="465" viewBox="0 0 380 465"><defs><clipPath id="a"><rect width="380" height="465" rx="13" transform="translate(196 158)" fill="#2f2f2f"/></clipPath><linearGradient id="b" x1="0.5" y1="0.721" x2="0.5" gradientUnits="objectBoundingBox"><stop offset="0" stop-color="#f6f3f8" stop-opacity="0"/><stop offset="1" stop-color="#f9f6fa" stop-opacity="0.859"/></linearGradient><linearGradient id="c" x1="0.5" y1="0.568" y2="1" xlink:href="#b"/></defs><g transform="translate(-196 -158)"><rect width="380" height="465" rx="13" transform="translate(196 158)" fill="#2f2f2f"/><g clip-path="url(#a)"><g transform="translate(-7 413)"><path d="M269.04,0a271.026,271.026,0,0,0-54.221,5.466,267.566,267.566,0,0,0-96.2,40.482,269.827,269.827,0,0,0-97.475,118.37,267.691,267.691,0,0,0-15.677,50.5,271.666,271.666,0,0,0,0,108.442,267.565,267.565,0,0,0,40.482,96.2,269.824,269.824,0,0,0,118.37,97.475,267.687,267.687,0,0,0,50.5,15.677,271.662,271.662,0,0,0,108.442,0,267.567,267.567,0,0,0,96.2-40.482,269.827,269.827,0,0,0,97.475-118.37,267.692,267.692,0,0,0,15.677-50.5,271.662,271.662,0,0,0,0-108.442,267.566,267.566,0,0,0-40.482-96.2,269.828,269.828,0,0,0-118.37-97.475,267.69,267.69,0,0,0-50.5-15.677A271.023,271.023,0,0,0,269.04,0Zm0,454.635c-102.338,0-185.6-83.258-185.6-185.6S166.7,83.446,269.04,83.446,454.634,166.7,454.634,269.04,371.377,454.635,269.04,454.635Z" transform="translate(-126.04 113.96)" opacity="0.1" fill="url(#b)"/><path d="M269.04,538.08a271.026,271.026,0,0,1-54.221-5.466,267.567,267.567,0,0,1-96.2-40.482,269.827,269.827,0,0,1-97.475-118.37,267.691,267.691,0,0,1-15.677-50.5,271.666,271.666,0,0,1,0-108.442,267.565,267.565,0,0,1,40.482-96.2,269.824,269.824,0,0,1,118.37-97.475,267.687,267.687,0,0,1,50.5-15.677,271.662,271.662,0,0,1,108.442,0,267.567,267.567,0,0,1,96.2,40.482,269.827,269.827,0,0,1,97.475,118.37,267.692,267.692,0,0,1,15.677,50.5,271.662,271.662,0,0,1,0,108.442,267.566,267.566,0,0,1-40.482,96.2,269.828,269.828,0,0,1-118.37,97.475,267.687,267.687,0,0,1-50.5,15.677A271.023,271.023,0,0,1,269.04,538.08Zm0-454.635c-102.338,0-185.6,83.258-185.6,185.6S166.7,454.634,269.04,454.634,454.634,371.377,454.634,269.04,371.377,83.445,269.04,83.445Z" transform="translate(349.92 -615)" opacity="0.1" fill="url(#c)"/></g><g transform="translate(228 203)" fill="none" stroke="#3d3d3d" stroke-width="4"><circle cx="12.5" cy="12.5" r="12.5" stroke="none"/><circle cx="12.5" cy="12.5" r="10.5" fill="none"/></g><g transform="translate(1522.917 -3523.292)"><path d="M-987.857,3907.292l14.627,19.571" fill="none" stroke="#3d3d3d" stroke-linecap="round" stroke-width="3"/><path d="M-970.141,3908.94l-19.777,15.45" fill="none" stroke="#3d3d3d" stroke-linecap="round" stroke-width="3"/></g></g><g transform="translate(-7573.72 -869.736)"><path d="M269.365,237.584v2.4h.063q1.623-2.81,3.418-2.81a3.98,3.98,0,0,1,.734.094v4.449a9.188,9.188,0,0,0-1.53-.14q-2.5,0-2.5,3.231v7.133h-4.526v-14.36Z" transform="translate(7633.358 867.786)" fill="#fff"/><path d="M444.561,204.736h4.511V226.73H444.53v-1.889h-.063q-1.514,2.373-3.418,2.373a3.653,3.653,0,0,1-3.223-2.092,11.023,11.023,0,0,1-1.225-5.588,10.721,10.721,0,0,1,1.249-5.557,3.739,3.739,0,0,1,3.293-2.076,4.329,4.329,0,0,1,3.419,2.139Zm0,14.705q0-3.543-1.717-3.543-1.764,0-1.764,3.762a5.694,5.694,0,0,0,.476,2.585,1.456,1.456,0,0,0,1.319.914,1.384,1.384,0,0,0,1.233-.968,6.644,6.644,0,0,0,.453-2.747" transform="translate(7500.013 893)" fill="#fff"/><path d="M507.635,239h4.542v9.24a2.022,2.022,0,0,0,.336,1.194,1.059,1.059,0,0,0,.914.476q1.311,0,1.311-1.92V239h4.541v8.32a7.1,7.1,0,0,1-1.483,4.847,5.408,5.408,0,0,1-4.278,1.678q-3.122,0-4.5-1.717a6.633,6.633,0,0,1-1.381-4.293Z" transform="translate(7444.806 866.37)" fill="#fff"/><path d="M579.924,247.224v3.746a5.8,5.8,0,0,1-3.262,1.092,4.51,4.51,0,0,1-3.879-2.1,9.726,9.726,0,0,1-1.46-5.643,9.216,9.216,0,0,1,1.5-5.463,4.562,4.562,0,0,1,3.871-2.107,5.5,5.5,0,0,1,3.262,1.171v3.715a3.634,3.634,0,0,0-1.655-.484,2.112,2.112,0,0,0-1.764.882,3.784,3.784,0,0,0-.671,2.349,4.026,4.026,0,0,0,.656,2.435,2.1,2.1,0,0,0,1.78.89,3.66,3.66,0,0,0,1.623-.484" transform="translate(7395.307 868.12)" fill="#fff"/><path d="M626.223,251.719V249.83h-.063a7.456,7.456,0,0,1-1.6,1.8,2.953,2.953,0,0,1-1.818.578,3.668,3.668,0,0,1-3.262-2.091,11.3,11.3,0,0,1-1.218-5.682,10.587,10.587,0,0,1,1.233-5.495,3.689,3.689,0,0,1,3.247-2.045,3.047,3.047,0,0,1,1.827.539,6.935,6.935,0,0,1,1.561,1.725h.063v-1.8h4.542v14.361Zm0-7.259q0-3.575-1.748-3.574-1.765,0-1.764,3.574,0,3.716,1.827,3.715,1.686,0,1.686-3.715" transform="translate(7358.826 868.011)" fill="#fff"/><path d="M686.326,221.831h4.542v3.825h1.764v3.777h-1.8v10.583h-4.511V229.4h-1.717v-3.745h1.717Z" transform="translate(7307.262 879.714)" fill="#fff"/><path d="M730.987,211.372a2.39,2.39,0,1,1,2.388,2.4,2.425,2.425,0,0,1-2.388-2.4m.125,4.309h4.542v14.36h-4.542Z" transform="translate(7271.217 889.689)" fill="#fff"/><path d="M770.549,236.753a5.652,5.652,0,0,1,4.73,2.068,9.1,9.1,0,0,1,1.623,5.752,8.343,8.343,0,0,1-1.686,5.58,5.809,5.809,0,0,1-4.667,1.975,5.6,5.6,0,0,1-4.535-2.014,8.4,8.4,0,0,1-1.678-5.541,9.2,9.2,0,0,1,1.6-5.752,5.483,5.483,0,0,1,4.612-2.068m.031,11.317a1.432,1.432,0,0,0,1.335-.827,6.417,6.417,0,0,0,.446-2.825,6.255,6.255,0,0,0-.437-2.778,1.41,1.41,0,0,0-1.311-.8,1.437,1.437,0,0,0-1.311.773,6.141,6.141,0,0,0-.453,2.833q0,3.622,1.733,3.621" transform="translate(7245.298 868.117)" fill="#fff"/><path d="M837.241,237.356v1.951h.078a4.6,4.6,0,0,1,3.887-2.419,3.015,3.015,0,0,1,2.38,1,3.936,3.936,0,0,1,.882,2.7v11.129h-4.542v-8.851a1.983,1.983,0,0,0-.344-1.2,1.057,1.057,0,0,0-.89-.468q-1.451,0-1.451,1.827v8.693h-4.527v-14.36Z" transform="translate(7192.155 868.015)" fill="#fff"/><path d="M332.778,225.493c-.72-.212-1.516-.412-2.394-.589a18.494,18.494,0,0,1,2.394.589" transform="translate(7582.563 877.326)" fill="#fff"/><path d="M338.163,220.183a18.822,18.822,0,0,0-1.855-.806,14.044,14.044,0,0,1,1.855.806" transform="translate(7577.959 881.621)" fill="#fff"/><path d="M341.52,227.669c-.046-.012-.092-.024-.139-.035-.063-.022-.125-.043-.189-.064.111.032.221.066.327.1" transform="translate(7574.163 875.253)" fill="#fff"/><path d="M343.223,228.194c-.181-.061-.368-.122-.561-.182.19.051.376.114.561.182" transform="translate(7573.021 874.91)" fill="#fff"/><path d="M363.952,237.159c-.053-.049-.1-.1-.153-.153.051.05.1.1.153.153" transform="translate(7556.593 867.92)" fill="#fff"/><path d="M366.614,240.162l-.011-.014.01.009v0" transform="translate(7554.414 865.478)" fill="#fff"/><path d="M368.9,214.073a10.671,10.671,0,0,1,1.561-2.61,15.948,15.948,0,0,1,7.029-5.045c.2-.074.242-.012.253.165.03.5.058.99.1,1.484.014.164-.043.227-.2.275a18.569,18.569,0,0,0-5.3,2.534c-.182.128-.361.258-.538.394-.292.229-.566.457-.822.681a19.511,19.511,0,0,0-2.087,2.123" transform="translate(7552.629 891.717)" fill="#fff"/><path d="M377.349,232.257c-.052.045-.1.086-.156.132l.038-.036.118-.1" transform="translate(7546.184 871.611)" fill="#fff"/><path d="M368.326,241.611s0,0,0,0v0Z" transform="translate(7553.076 864.341)" fill="#fff"/><path d="M380.834,233.592v.022a.038.038,0,0,1-.012-.014l.012-.008" transform="translate(7543.363 870.573)" fill="#fff"/><path d="M383.338,232.407l-.016-.014.006,0a.111.111,0,0,1,.01.016" transform="translate(7541.419 871.507)" fill="#fff"/><path d="M384.9,231.692c0,.008-.008.014-.014.024,0-.008,0-.014.006-.02l.008,0" transform="translate(7540.201 872.05)" fill="#fff"/><path d="M385.629,231.4H385.6l.018-.006.012.006" transform="translate(7539.649 872.279)" fill="#fff"/><path d="M387.216,230.77l-.012.006h0l.016-.006" transform="translate(7538.406 872.766)" fill="#fff"/><path d="M390.2,229.282c-.12.04-.242.08-.361.122a.093.093,0,0,1,.02-.01c.114-.038.227-.074.341-.111" transform="translate(7536.357 873.923)" fill="#fff"/><path d="M417.515,243.153c.005.015,0,.01,0,0" transform="translate(7514.845 863.143)" fill="#fff"/><path d="M368.119,328.3v0a0,0,0,0,1,0,0Z" transform="translate(7553.237 796.967)" fill="#fff"/><path d="M400.082,313.728c.069-.016.14-.031.209-.045l-.027.007c-.06.011-.123.025-.183.038" transform="translate(7528.394 808.327)" fill="#fff"/><path d="M402.5,313.264c.056-.011.109-.022.165-.031l-.1.02c-.02,0-.042.007-.065.011" transform="translate(7526.515 808.677)" fill="#fff"/><path d="M403.622,312.923c-.127.022-.252.045-.379.069l.234-.045c.049-.007.1-.016.145-.024" transform="translate(7525.938 808.918)" fill="#fff"/><path d="M414.741,311.483l-.111.007a.31.31,0,0,1-.1.029.5.5,0,0,0,.1-.031l.111,0" transform="translate(7517.164 810.037)" fill="#fff"/><path d="M366.614,240.162l-.011-.014.01.009v0" transform="translate(7554.414 865.478)" fill="#fff"/><path d="M377.942,300.742c.085-.045.169-.091.256-.136a.831.831,0,0,1,.076-.042c-.111.056-.223.116-.332.178m.918-.472-.08.04c.027-.011.053-.025.08-.038.189-.089.379-.176.57-.258-.192.08-.381.167-.57.256" transform="translate(7545.601 818.951)" fill="#fff"/><path d="M382.85,229.394l-.02.011c.12-.042.243-.082.363-.123l-.343.111m-.945.359-.018.007h.029l-.011-.007m-.171.071a.119.119,0,0,1,0,.02c0-.011.009-.016.013-.025s-.007,0-.009,0m-.348.152h0l0,0a.087.087,0,0,0,.015.013.1.1,0,0,1-.009-.016m-.564.274a.068.068,0,0,0,.011.016v-.022s-.007.007-.011.007" transform="translate(7543.362 873.922)" fill="#fff"/><path d="M341.52,227.669c-.046-.012-.092-.024-.139-.035-.063-.022-.125-.043-.189-.064.111.032.221.066.327.1" transform="translate(7574.163 875.253)" fill="#fff"/><path d="M343.223,228.194c-.181-.061-.368-.122-.561-.182.19.051.376.114.561.182" transform="translate(7573.021 874.91)" fill="#fff"/><path d="M363.952,237.159c-.053-.049-.1-.1-.153-.153.051.05.1.1.153.153" transform="translate(7556.593 867.92)" fill="#fff"/><path d="M366.614,240.162l-.011-.014.01.009v0" transform="translate(7554.414 865.478)" fill="#fff"/><path d="M387.216,230.77l-.012.006h0l.016-.006" transform="translate(7538.406 872.766)" fill="#fff"/><path d="M385.629,231.4H385.6l.018-.006.012.006" transform="translate(7539.649 872.279)" fill="#fff"/><path d="M384.9,231.692c0,.008-.008.014-.014.024,0-.008,0-.014.006-.02l.008,0" transform="translate(7540.201 872.05)" fill="#fff"/><path d="M377.349,232.257c-.052.045-.1.086-.156.132l.038-.036.118-.1" transform="translate(7546.184 871.611)" fill="#fff"/><path d="M366.614,240.162l-.011-.014.01.009v0" transform="translate(7554.414 865.478)" fill="#fff"/><path d="M377.652,208.34a18.574,18.574,0,0,0-5.3,2.534c-.182.128-.361.258-.538.394-.283.214-.559.44-.822.682a19.5,19.5,0,0,0-2.087,2.123,10.664,10.664,0,0,1,1.562-2.61,15.948,15.948,0,0,1,7.029-5.045c.2-.074.242-.012.253.165.03.5.058.99.1,1.484.014.164-.043.227-.2.274" transform="translate(7552.625 891.717)" fill="#fff"/><path d="M324.464,231.9c0-1.257,0-2.511,0-3.768a.68.68,0,0,0,0-.1c0-.009,0-.011,0-.013l-.007-.014c-.013-.007-.047-.029-.091-.056,0,0,0,0-.011-.009-.042-.025-.085-.053-.1-.062l-.16-.129c-.107-.087-.218-.169-.328-.252s-.221-.16-.334-.238-.227-.152-.341-.225-.229-.145-.345-.216l-.35-.2c-.045-.027-.089-.049-.134-.074-.192-.107-.385-.207-.577-.3l-.022-.011c-.056-.027-.111-.056-.18-.087a1.1,1.1,0,0,0-.1-.049c-.107-.051-.214-.1-.325-.149l-.134-.058c-.047-.02-.094-.042-.14-.06a19.6,19.6,0,0,0-2.028-.726c-.653-.2-1.277-.348-1.845-.468-.036-.007-.071-.016-.107-.02a.02.02,0,0,0-.011,0c-.209-.042-.41-.08-.6-.114-.544-.094-1.092-.165-1.644-.209l-.125-.007c-.074-.013-.149-.033-.225-.04-.682-.067-1.361-.089-2.043-.134-.238-.016-.279.058-.276.276q0,6.677,0,13.362v5.494c0,.138-.016.243.192.247a27.09,27.09,0,0,1,3.75.321,20.419,20.419,0,0,1,5.381,1.56,17.055,17.055,0,0,1,3.115,1.885,1.027,1.027,0,0,1,.094.078.034.034,0,0,0,.007-.016.069.069,0,0,0,.011-.022.518.518,0,0,0,.007-.176.246.246,0,0,1,0-.038v-.06c0-.027,0-.053,0-.078v-.319c0-.116,0-.234,0-.35,0-.971,0-1.941,0-2.912v-.1a.076.076,0,0,0,0-.029.082.082,0,0,1,0-.032c0-.013.006-.026.008-.039a.287.287,0,0,0,0-.039V232.189c.013.009.029.009.049-.013a.479.479,0,0,1-.029-.272m-6.947,9.947-.072-.029a3.231,3.231,0,0,1-2.12-2.83c0-2.171.009-4.991.009-6.982l-.006-1.272c-.016-1.674,1.723-2.614,3.5-1.883l.1.041A3.216,3.216,0,0,1,321,231.7v8.279c0,1.654-1.714,2.577-3.481,1.872" transform="translate(7596.943 877.94)" fill="#fff"/><path d="M336.723,214.309c-.074-.094-.223-.223-.3-.315s-.154-.184-.231-.273-.156-.18-.236-.267l-.242-.263c-.08-.088-.166-.172-.248-.258s-.168-.168-.254-.252-.172-.166-.257-.248-.176-.162-.264-.242-.178-.158-.267-.236-.182-.154-.274-.23-.184-.152-.277-.225-.188-.146-.282-.218-.192-.144-.287-.213-.194-.14-.291-.208l-.293-.2c-.1-.067-.2-.132-.3-.2s-.2-.128-.3-.19l-.307-.182c-.1-.06-.207-.118-.312-.176s-.208-.114-.314-.17-.212-.11-.317-.164-.214-.1-.322-.156-.216-.1-.325-.15l-.326-.144c-.108-.048-.221-.092-.331-.136s-.221-.086-.334-.128-.223-.084-.335-.122-.223-.078-.338-.116l-.341-.108c-.114-.034-.225-.066-.341-.1a.321.321,0,0,1-.174-.094.308.308,0,0,1-.038-.22q.057-.754.114-1.509c0-.046.012-.1.054-.122a.141.141,0,0,1,.106.006l.16.056c.106.038.213.076.319.116s.21.082.315.124l.313.132.309.138c.1.046.2.1.305.146s.2.1.3.152.2.106.3.16.2.11.3.166.2.114.291.172.194.12.287.18.192.122.285.186.188.126.28.192.186.13.277.2.182.134.271.2.178.138.266.21l.264.214.258.221c.086.074.17.15.254.228s.166.154.247.232.162.158.242.238.16.16.238.242.156.166.232.248.152.168.227.254.148.172.22.258.146.174.216.264.14.176.209.265.136.182.2.274.132.182.2.275.128.186.192.281.124.188.184.284.12.192.178.29.116.194.172.293l.164.3c.054.1.106.2.158.3.026.05.052.1.076.152a.77.77,0,0,1,.076.184" transform="translate(7584.682 891.646)" fill="#fff"/><path d="M368.547,260.067l-.062.054v0c.022-.018.042-.034.062-.052" transform="translate(7552.951 849.997)" fill="#fff"/><path d="M368.55,309.658l0,0v0Z" transform="translate(7552.902 811.455)" fill="#fff"/><path d="M343.223,228.194c-.181-.061-.368-.122-.561-.182.19.051.376.114.561.182" transform="translate(7573.021 874.91)" fill="#fff"/><path d="M380.9,224.637c0-.586,0-.586-.588-.5l-.265.007a22.856,22.856,0,0,0-3.26.328.448.448,0,0,0-.223.029l-.02.011c-.082.011-.167.02-.252.036-.6.1-1.185.245-1.771.39-.3.082-.608.172-.918.27l-.134.045c-.12.04-.243.08-.363.123h0l-.176.062c-.031.011-.06.02-.089.033l-.147.053-.14.053s-.011,0-.016.007l-.016,0h0l-.254.1-.018.009a.512.512,0,0,0-.062.025l.011.007h-.029l-.145.06a.247.247,0,0,0-.013.025.115.115,0,0,0,0-.02l-.12.051c-.031.011-.06.027-.091.038l-.136.062.009.016-.016-.013q-.087.037-.174.08a.017.017,0,0,0-.011,0l-.007,0-.053.025a.008.008,0,0,1-.007,0c-.065.029-.129.062-.194.091-.033.016-.067.033-.1.049l-.011.007c-.038.018-.076.038-.114.058,0,0-.009,0-.009,0l-.1.047a13.573,13.573,0,0,0-2.094,1.31c-.045.033-.089.069-.132.1-.076.056-.145.114-.216.172a.261.261,0,0,0-.038.031c-.029.022-.053.045-.08.069l0,0v.118c0,1.257,0,2.511,0,3.768a.478.478,0,0,0,.029.272c.022-.018.042-.036.062-.053l.049-.04a.277.277,0,0,0,.062-.033,18.048,18.048,0,0,1,8.832-3.462c.7-.1,1.4-.156,2.1-.232l.127-.007c.372-.011.742-.033,1.114-.031.18,0,.214-.06.212-.227-.007-1.147,0-2.295,0-3.44m-9.79,1.6a.065.065,0,0,1-.011-.016.019.019,0,0,0,.011-.007Z" transform="translate(7553.083 877.953)" fill="#fff"/><path d="M380.789,261.7c0,.154-.026.212-.2.214a21.636,21.636,0,0,0-11.49,3.2q-.462.295-.907.615c-.067-1.305-.014-2.625-.012-3.932,0-.4.54-.617.836-.806q.642-.41,1.315-.771a20.931,20.931,0,0,1,5.125-1.931,21.455,21.455,0,0,1,2.708-.454q.667-.067,1.337-.094a2.845,2.845,0,0,1,1.136.007c.278.145.142,1.109.143,1.458,0,.831,0,1.661,0,2.489" transform="translate(7553.201 851.852)" fill="#fff"/><path d="M380.763,295.636c0-.345,0-.691,0-1.034v-2.068a.273.273,0,0,0-.339-.345c-.742.047-1.5.065-2.235.158-.174.022-.35.045-.521.071a.371.371,0,0,0-.069,0c-.107.013-.214.027-.321.042-.272.036-.544.076-.811.123-.051.009-.1.018-.154.025-.261.042-.519.094-.778.147a19.2,19.2,0,0,0-3.8,1.183c-.372.163-.731.343-1.081.539a.814.814,0,0,0-.076.042,27.348,27.348,0,0,0-2.377,1.553.129.129,0,0,0-.042.042.042.042,0,0,0,0,.016v0a.094.094,0,0,1,0,.036v.1c0,.971,0,1.941,0,2.912,0,.116,0,.234,0,.35v.031c0,.107,0,.243,0,.365v.06a.238.238,0,0,0,0,.038.517.517,0,0,1-.007.176.069.069,0,0,1-.011.022.034.034,0,0,1-.007.016,17.217,17.217,0,0,1,5.766-2.868c.508-.152,1.018-.281,1.535-.394-.06.011-.123.025-.183.038.069-.016.14-.031.209-.045a.58.58,0,0,1,.06-.013c.089-.02.181-.038.27-.056.056-.011.109-.022.165-.031.078-.016.156-.031.234-.045.049-.007.1-.016.145-.025a27.577,27.577,0,0,1,3.924-.392.827.827,0,0,0,.39-.078.279.279,0,0,0,.125-.154,1.822,1.822,0,0,0-.009-.539m-9.527-1.455c-.027.013-.053.027-.08.038l.08-.04c.189-.089.379-.176.57-.256-.192.082-.381.169-.57.258m7.333,2.3a.31.31,0,0,1-.1.029.5.5,0,0,0,.1-.031l.111,0-.111.007" transform="translate(7553.226 825.041)" fill="#fff"/><path d="M368.205,323.953c0-.074,0-.129,0-.147,0-.067,0-.134,0-.2,0,.116,0,.234,0,.35" transform="translate(7553.17 800.617)" fill="#fff"/><path d="M368.208,310.011c0-.02,0-.042,0-.062a.1.1,0,0,1,0-.036.095.095,0,0,1,0,.036Z" transform="translate(7553.169 811.257)" fill="#fff"/><path d="M368.18,327.261a.518.518,0,0,1-.007.176.069.069,0,0,1-.011.022,1.536,1.536,0,0,0,.016-.236.238.238,0,0,0,0,.038" transform="translate(7553.202 797.804)" fill="#fff"/><path d="M381.782,300.269c.189-.089.379-.176.57-.256-.192.082-.381.169-.57.258-.027.013-.053.027-.08.038Z" transform="translate(7542.679 818.951)" fill="#fff"/><path d="M400.082,313.728c.069-.016.14-.031.209-.045l-.027.007c-.06.011-.123.025-.183.038" transform="translate(7528.394 808.327)" fill="#fff"/><path d="M401.56,313.264c.056-.011.109-.022.165-.031l-.1.02-.334.067c.089-.02.181-.038.27-.056" transform="translate(7527.455 808.677)" fill="#fff"/><path d="M414.741,311.483l-.111.007a.31.31,0,0,1-.1.029.5.5,0,0,0,.1-.031l.111,0" transform="translate(7517.164 810.037)" fill="#fff"/><path d="M380.834,233.592v.022a.038.038,0,0,1-.012-.014l.012-.008" transform="translate(7543.363 870.573)" fill="#fff"/><path d="M380.834,233.592v.022a.038.038,0,0,1-.012-.014l.012-.008" transform="translate(7543.363 870.573)" fill="#fff"/><path d="M383.338,232.407l-.016-.014.006,0a.111.111,0,0,1,.01.016" transform="translate(7541.419 871.507)" fill="#fff"/><path d="M384.9,231.692c0,.008-.008.014-.014.024,0-.008,0-.014.006-.02l.008,0" transform="translate(7540.201 872.05)" fill="#fff"/><path d="M385.629,231.4H385.6l.018-.006.012.006" transform="translate(7539.649 872.279)" fill="#fff"/><path d="M383.338,232.407l-.016-.014.006,0a.111.111,0,0,1,.01.016" transform="translate(7541.419 871.507)" fill="#fff"/><path d="M363.952,237.159c-.053-.049-.1-.1-.153-.153.051.05.1.1.153.153" transform="translate(7556.593 867.92)" fill="#fff"/><path d="M379.145,216.669a22.5,22.5,0,0,0-2.779.425c-.283.06-.567.122-.849.192l-.2.05-.046.012-.1.026c-.024.008-.05.014-.074.02l-.122.034a22.407,22.407,0,0,0-2.854.971,15.726,15.726,0,0,0-1.969.988,8.986,8.986,0,0,0-1.729,1.3c.3-.35.631-.677.966-1s.65-.631.99-.931c.052-.046.1-.089.156-.132a15.49,15.49,0,0,1,5.426-3.016,25,25,0,0,1,3.268-.88c.14-.03.158.016.16.132.012.49.014.978.052,1.465.018.245-.062.317-.291.334" transform="translate(7553.001 885.234)" fill="#fff"/><path d="M338.42,218.957a18.1,18.1,0,0,0-2.6-1.27,13.611,13.611,0,0,1,2.6,1.27" transform="translate(7578.339 882.935)" fill="#fff"/><path d="M329.829,220.712c-.025-.028-.068-.073-.129-.132s-.114-.109-.192-.177l-.011-.009c-.119-.1-.267-.228-.453-.367h0a15.411,15.411,0,0,0-4.32-2.155c-.185-.068-.371-.131-.561-.182-.107-.033-.216-.067-.327-.1l-.014,0a18.482,18.482,0,0,0-2.394-.589l-.022,0q-.236-.045-.471-.085c-.6-.1-1.208-.2-1.819-.24-.2-.015-.267-.091-.254-.3.032-.5.038-.993.05-1.489,0-.109.01-.17.156-.141a24.329,24.329,0,0,1,3.67,1.025l.01,0a18.828,18.828,0,0,1,1.855.806,16.872,16.872,0,0,1,1.483.838,21.5,21.5,0,0,1,1.743,1.277l.794.73.106.106a1.821,1.821,0,0,0,.142.17h0c.049.053.1.1.153.153l0,0,.171.175c.1.1.2.206.293.312l.034.037c.068.075.136.15.2.227l.1.109" transform="translate(7591.52 885.232)" fill="#fff"/><path d="M205.511,211.609a6.928,6.928,0,0,0-4.953-1.76H194.72v20.786h4.717v-7.91h.811a7.5,7.5,0,0,0,5.238-1.72,6.811,6.811,0,0,0,.025-9.4Zm-3.73,6.524a4.006,4.006,0,0,1-2.344.606v-4.9a4.1,4.1,0,0,1,2.366.584,2.228,2.228,0,0,1,.733,1.892A2.147,2.147,0,0,1,201.781,218.133Z" transform="translate(7688 889.026)" fill="#fff"/></g><g transform="translate(-8828.057 -1156.95)"><g transform="translate(9080 1564.16)"><ellipse cx="134.008" cy="77.37" rx="134.008" ry="77.37" transform="translate(0 0)" fill="#f0f0f0" opacity="0.15"/></g><g transform="translate(9088.146 1574.818)"><path d="M379.366,380.41c-8.788-5.074-8.788-13.3,0-18.373s23.034-5.073,31.822,0,8.787,13.3,0,18.372S388.154,385.484,379.366,380.41Z" transform="translate(-176.539 -286.853)" fill="#e0e0e0"/><path d="M51.853,327,28.737,313.651c-1.3-.753-1.3-1.973,0-2.724L163.189,233.3a5.216,5.216,0,0,1,4.72,0l23.116,13.345c1.3.752,1.3,1.973,0,2.725L56.572,327A5.215,5.215,0,0,1,51.853,327Z" transform="translate(-27.76 -232.736)" fill="#e0e0e0"/></g><g transform="translate(9105.317 1459)"><g transform="translate(0 0)"><g transform="translate(55.652 128.207)"><g transform="translate(0.003)"><path d="M190.155,312.6l19.871-11.49c2.048-1.182,3.073-2.732,3.073-4.282s.009-2.764.009-2.764L192.49,282.442a4.371,4.371,0,0,1-1.978-3.426v-24.5L155.8,274.572v24.5a4.373,4.373,0,0,0,1.978,3.426L175.319,312.6A16.4,16.4,0,0,0,190.155,312.6Z" transform="translate(-155.803 -254.516)" fill="#27debf"/></g><g transform="translate(0.003)" opacity="0.6"><path d="M190.155,312.6l19.871-11.49c2.048-1.182,3.073-2.732,3.073-4.282s.009-2.764.009-2.764L192.49,282.442a4.371,4.371,0,0,1-1.978-3.426v-24.5L155.8,274.572v24.5a4.373,4.373,0,0,0,1.978,3.426L175.319,312.6A16.4,16.4,0,0,0,190.155,312.6Z" transform="translate(-155.803 -254.516)"/></g><path d="M164.134,315.725v2.752l-6.361-3.666a4.375,4.375,0,0,1-1.976-3.426v-24.5l6.613-3.815c.137,1.679.286,3.415.423,5.105l-4.637,2.683V310a4.345,4.345,0,0,0,1.976,3.426Z" transform="translate(-155.797 -266.83)" opacity="0.3"/><path d="M160.012,300.708a4.372,4.372,0,0,0,1.978,3.426l15.141,8.722a16.4,16.4,0,0,0,14.837,0l19.881-11.489c4.1-2.364,4.1-6.2,0-8.564L196.7,284.077a4.372,4.372,0,0,1-1.978-3.426V261.507l-34.709,20.056Z" transform="translate(-157.615 -257.531)" fill="#9866b7"/><path d="M160.012,300.708a4.372,4.372,0,0,0,1.978,3.426l15.141,8.722a16.4,16.4,0,0,0,14.837,0l19.881-11.489c4.1-2.364,4.1-6.2,0-8.564L196.7,284.077a4.372,4.372,0,0,1-1.978-3.426V261.507l-34.709,20.056Z" transform="translate(-157.615 -257.531)" opacity="0.3"/><path d="M200.728,286.406v0l-4.029-2.326a4.372,4.372,0,0,1-1.978-3.426V261.507l-34.71,20.056v19.144a4.372,4.372,0,0,0,1.978,3.426l3.959,2.286Z" transform="translate(-157.615 -257.531)" opacity="0.5"/><path d="M233.782,324.058v2.764c0,1.553-1.028,3.095-3.073,4.283l-19.875,11.483a14.871,14.871,0,0,1-7.081,1.759v-2.752a14.871,14.871,0,0,0,7.081-1.759l19.875-11.495C232.754,327.164,233.782,325.611,233.782,324.058Z" transform="translate(-176.477 -284.504)" fill="#27debf"/><path d="M233.782,324.058v2.764c0,1.553-1.028,3.095-3.073,4.283l-19.875,11.483a14.871,14.871,0,0,1-7.081,1.759v-2.752a14.871,14.871,0,0,0,7.081-1.759l19.875-11.495C232.754,327.164,233.782,325.611,233.782,324.058Z" transform="translate(-176.477 -284.504)" opacity="0.5"/></g><path d="M60.272,224.287a5.3,5.3,0,0,0,4.792-.089l134.229-77.5a5.464,5.464,0,0,0,2.472-4.282V33.833a5.3,5.3,0,0,0-2.319-4.194,5.3,5.3,0,0,0-4.792.089l-134.227,77.5a5.465,5.465,0,0,0-2.472,4.283l0,108.587A5.3,5.3,0,0,0,60.272,224.287Z" transform="translate(-57.952 -29.108)" fill="#9866b7"/><path d="M68.582,226.436l134.229-77.5a5.465,5.465,0,0,0,2.473-4.282V36.071c0-1.577-1.107-2.216-2.473-1.428l-134.227,77.5a5.465,5.465,0,0,0-2.472,4.283l0,108.587C66.11,226.585,67.217,227.224,68.582,226.436Z" transform="translate(-61.469 -31.349)" fill="#9866b7"/><path d="M68.582,226.436l134.229-77.5a5.465,5.465,0,0,0,2.473-4.282V36.071c0-1.577-1.107-2.216-2.473-1.428l-134.227,77.5a5.465,5.465,0,0,0-2.472,4.283l0,108.587C66.11,226.585,67.217,227.224,68.582,226.436Z" transform="translate(-61.469 -31.349)" opacity="0.5"/><path d="M64.7,366.312a5.342,5.342,0,0,1-4.431-.091,5.311,5.311,0,0,1-2.318-4.2v-9.887l4.637,2.684V364.7C62.588,366.141,63.5,366.792,64.7,366.312Z" transform="translate(-57.951 -168.403)" fill="#9866b7"/><path d="M64.7,366.312a5.342,5.342,0,0,1-4.431-.091,5.311,5.311,0,0,1-2.318-4.2v-9.887l4.637,2.684V364.7C62.588,366.141,63.5,366.792,64.7,366.312Z" transform="translate(-57.951 -168.403)" opacity="0.5"/><path d="M66.1,295.915l0,9.883c0,1.577,1.107,2.216,2.472,1.428l134.229-77.5a5.466,5.466,0,0,0,2.472-4.283v-9.9Z" transform="translate(-61.466 -109.503)" fill="#9866b7"/><path d="M66.11,295.894v9.9c0,1.577,1.107,2.216,2.472,1.428l134.229-77.5a5.466,5.466,0,0,0,2.472-4.283v-9.9Z" transform="translate(-61.469 -109.503)" opacity="0.3"/><path d="M74.264,211.121v-87.4a3.279,3.279,0,0,1,1.483-2.57L202.675,47.875c.819-.473,1.483-.089,1.483.857l0,87.4a3.28,3.28,0,0,1-1.484,2.57L75.748,211.977C74.928,212.45,74.264,212.067,74.264,211.121Z" transform="translate(-64.986 -37.113)" fill="#27debf"/><path d="M74.264,211.121v-87.4a3.279,3.279,0,0,1,1.483-2.57L202.675,47.875c.819-.473,1.483-.089,1.483.857l0,87.4a3.28,3.28,0,0,1-1.484,2.57L75.748,211.977C74.928,212.45,74.264,212.067,74.264,211.121Z" transform="translate(-64.986 -37.113)" fill="#263238"/><path d="M186.693,291.486a5.128,5.128,0,0,0-2.32,4.019c0,1.479,1.039,2.079,2.321,1.339a5.128,5.128,0,0,0,2.32-4.018C189.013,291.346,187.974,290.746,186.693,291.486Z" transform="translate(-112.467 -142.115)" fill="#27debf"/><path d="M63.319,172.352a5.248,5.248,0,0,0-.731,2.444V276.137l-4.637-2.684,0-101.33a5.114,5.114,0,0,1,.728-2.444Z" transform="translate(-57.951 -89.726)" opacity="0.7"/><path d="M202.294,33.423c-.175-1.275-1.2-1.736-2.45-1.023L65.619,109.9a5.082,5.082,0,0,0-1.748,1.836l-4.637-2.678a5.087,5.087,0,0,1,1.748-1.836L195.207,29.727A5.294,5.294,0,0,1,200,29.64,5.319,5.319,0,0,1,202.294,33.423Z" transform="translate(-58.504 -29.108)" opacity="0.3"/></g></g><g transform="translate(9126.695 1476.543)"><g transform="translate(0 0)"><path d="M225.194,60.086a1.217,1.217,0,0,0-1.261.1L97.273,133.323a3.828,3.828,0,0,0-1.733,3v86.863a1.688,1.688,0,0,0,.73,1.506c.284.152,1.772,1.019,2.214,1.256a.994.994,0,0,0,1-.058l126.655-73.166a3.824,3.824,0,0,0,1.734-3V62.442a1.2,1.2,0,0,0-.538-1.138C227.03,61.141,225.513,60.278,225.194,60.086Z" transform="translate(-95.539 -59.953)" fill="#9866b7"/><g transform="translate(0 1.252)"><g transform="translate(-97.218 -62.153)" fill="#fafafa" stroke-miterlimit="10"><path d="M 100.5968399047852 226.505615234375 C 100.2380905151367 226.505615234375 99.93500518798828 225.9950256347656 99.93500518798828 225.3906402587891 L 99.93500518798828 138.5277404785156 C 99.93500518798828 137.599609375 100.6139450073242 136.4234008789062 101.4175643920898 135.9592742919922 L 228.0753936767578 62.82265472412109 C 228.2676086425781 62.71175765991211 228.4488830566406 62.65309143066406 228.5994415283203 62.65309143066406 C 228.9988403320312 62.65309143066406 229.0584564208984 63.11488342285156 229.0584564208984 63.39013290405273 L 229.0584564208984 150.6739196777344 C 229.0584564208984 151.6013793945312 228.3790130615234 152.7761535644531 227.5747528076172 153.2392120361328 L 100.9191131591797 226.4052124023438 C 100.8035659790039 226.4716949462891 100.6949005126953 226.505615234375 100.5968399047852 226.505615234375 Z" stroke="none"/><path d="M 228.5338134765625 63.16413879394531 C 228.4880065917969 63.17631530761719 228.4185180664062 63.20191955566406 228.3254089355469 63.25563049316406 L 101.6676025390625 136.3922576904297 C 101.0224914550781 136.7648162841797 100.4349822998047 137.7826843261719 100.4349822998047 138.5277557373047 L 100.4349822998047 225.3906402587891 C 100.4349822998047 225.7268371582031 100.5540466308594 225.9333038330078 100.6175384521484 225.9976348876953 C 100.6301879882812 225.9926300048828 100.6473693847656 225.9847106933594 100.6690063476562 225.9722595214844 L 227.3252868652344 152.805908203125 C 227.9706878662109 152.4342956542969 228.5584716796875 151.4181213378906 228.5584716796875 150.6739349365234 L 228.5584716796875 63.39013671875 C 228.5584716796875 63.28659057617188 228.5465240478516 63.21226501464844 228.5338134765625 63.16413879394531 M 228.5994262695312 62.15309143066406 C 229.1681060791016 62.15309143066406 229.5584716796875 62.60614013671875 229.5584716796875 63.39013671875 L 229.5584716796875 150.6739349365234 C 229.5584716796875 151.7790679931641 228.781494140625 153.1213684082031 227.8242492675781 153.6725311279297 L 101.1692047119141 226.8381652832031 C 100.2113647460938 227.3893432617188 99.43498229980469 226.4951782226562 99.43498229980469 225.3906402587891 L 99.43498229980469 138.5277557373047 C 99.43498229980469 137.4225921630859 100.2102355957031 136.0791320800781 101.16748046875 135.5262908935547 L 227.8253784179688 62.38963317871094 C 228.1035461425781 62.22915649414062 228.3664855957031 62.15309143066406 228.5994262695312 62.15309143066406 Z" stroke="none" fill="#e0e0e0"/></g><path d="M96.268,286.857c.188.1,1.535.868,2.125,1.2a1.765,1.765,0,0,1-.637-1.455V205.413l-2.218-1.3v81.238A1.686,1.686,0,0,0,96.268,286.857Z" transform="translate(-95.538 -123.37)" fill="#f0f0f0"/></g><path d="M229.557,63.377c-.007-1.095-.779-1.537-1.732-.987L101.167,135.526a3.83,3.83,0,0,0-1.732,3l0,5.668L229.557,69.064Z" transform="translate(-97.218 -60.902)" fill="#9866b7"/><path d="M226.545,61.44,99.889,134.577a3.564,3.564,0,0,0-1.221,1.287l-2.2-1.275a3.464,3.464,0,0,1,1.206-1.266l126.66-73.137a1.218,1.218,0,0,1,1.259-.1c.311.191,1.75,1.008,2.115,1.2A1.253,1.253,0,0,0,226.545,61.44Z" transform="translate(-95.939 -59.952)" fill="#fff" opacity="0.4"/><path d="M95.538,198.54v-5.634a3.574,3.574,0,0,1,.527-1.732l2.207,1.27a3.5,3.5,0,0,0-.518,1.722v5.667Z" transform="translate(-95.538 -116.538)" opacity="0.15"/><g transform="translate(28.503 67.649)"><path d="M222.776,179.193l-75.86,43.8a2.8,2.8,0,0,0-1.266,2.193v21.748a2.793,2.793,0,0,0,1.267,2.191l2.216,1.275a2.8,2.8,0,0,0,2.533,0l75.85-43.792a2.8,2.8,0,0,0,1.267-2.193l.009-21.754a2.791,2.791,0,0,0-1.266-2.191l-2.217-1.275A2.8,2.8,0,0,0,222.776,179.193Z" transform="translate(-145.65 -178.89)" fill="#9866b7"/><path d="M229.066,182.452c-.088-.655-.62-.895-1.257-.526l-75.857,43.8a2.543,2.543,0,0,0-.895.947l-4.748-2.742a2.583,2.583,0,0,1,.889-.936l75.863-43.8a2.8,2.8,0,0,1,2.532-.006l2.217,1.275A2.827,2.827,0,0,1,229.066,182.452Z" transform="translate(-145.934 -178.89)" fill="#fff" opacity="0.5"/><path d="M151.452,284.643a2.823,2.823,0,0,1-2.315-.1l-2.217-1.275a2.8,2.8,0,0,1-1.269-2.193V259.33a2.622,2.622,0,0,1,.374-1.257l4.748,2.742a2.539,2.539,0,0,0-.374,1.246v21.752C150.4,284.538,150.855,284.871,151.452,284.643Z" transform="translate(-145.65 -213.035)" fill="#263238"/><path d="M155.268,227.9l75.861-43.8c.7-.4,1.266-.076,1.265.731l-.009,21.754a2.8,2.8,0,0,1-1.267,2.193l-75.85,43.792c-.7.4-1.266.076-1.266-.731V230.089A2.8,2.8,0,0,1,155.268,227.9Z" transform="translate(-149.252 -181.061)" fill="#9866b7"/><path d="M202.951,199.838,147.2,232.025a2.583,2.583,0,0,0-.889.936l4.748,2.742a2.543,2.543,0,0,1,.895-.947l55.738-32.181Z" transform="translate(-145.934 -187.923)" fill="#455a64"/><path d="M211.008,204.652l-55.74,32.182A2.8,2.8,0,0,0,154,239.027v21.748c0,.807.567,1.134,1.266.731l55.74-32.181Z" transform="translate(-149.252 -189.999)" fill="#37474f"/><g transform="translate(16.713 27.267)"><path d="M177.192,243.748l28.762-16.606c1.193-.689,2.159-.2,2.159,1.093a4.631,4.631,0,0,1-2.16,3.586l-28.759,16.6c-1.193.689-2.16.2-2.16-1.091A4.629,4.629,0,0,1,177.192,243.748Z" transform="translate(-175.034 -226.83)" fill="#9866b7"/></g><g transform="translate(22.339 38.825)"><path d="M187.351,266.229a.059.059,0,0,1,.084.015.2.2,0,0,1,.036.129v3.239a5.147,5.147,0,0,1-.081.931,3.778,3.778,0,0,1-.239.818,2.75,2.75,0,0,1-.4.669,2.029,2.029,0,0,1-.556.474,1.02,1.02,0,0,1-.558.169.553.553,0,0,1-.4-.209,1.278,1.278,0,0,1-.238-.543,3.927,3.927,0,0,1-.078-.839v-3.239a.42.42,0,0,1,.036-.171.219.219,0,0,1,.084-.111l.361-.208a.059.059,0,0,1,.084.014.2.2,0,0,1,.035.129v3.2a2.289,2.289,0,0,0,.049.524.643.643,0,0,0,.137.3.266.266,0,0,0,.213.091.609.609,0,0,0,.271-.09,1.136,1.136,0,0,0,.273-.225,1.274,1.274,0,0,0,.216-.338,2.078,2.078,0,0,0,.14-.456,2.966,2.966,0,0,0,.051-.582v-3.2a.434.434,0,0,1,.035-.17.221.221,0,0,1,.085-.113Z" transform="translate(-184.925 -255.372)" fill="#fafafa"/><path d="M192.058,269.427a.193.193,0,0,0-.032-.124.14.14,0,0,0-.108-.04.87.87,0,0,0-.207.024c-.086.018-.2.039-.329.064a.671.671,0,0,1-.324-.01.407.407,0,0,1-.207-.158.749.749,0,0,1-.109-.3,2.563,2.563,0,0,1-.031-.42,2.17,2.17,0,0,1,.063-.5,2.466,2.466,0,0,1,.18-.511,2.283,2.283,0,0,1,.287-.454,1.413,1.413,0,0,1,.387-.334.919.919,0,0,1,.388-.137.481.481,0,0,1,.291.06.488.488,0,0,1,.187.22.913.913,0,0,1,.076.332.369.369,0,0,1-.034.17.233.233,0,0,1-.087.113l-.342.2c-.044.026-.078.031-.1.015s-.046-.035-.073-.057a.2.2,0,0,0-.107-.036.4.4,0,0,0-.2.072.817.817,0,0,0-.235.206.489.489,0,0,0-.1.313.284.284,0,0,0,.025.132.111.111,0,0,0,.093.052.75.75,0,0,0,.192-.011q.122-.019.318-.061a.506.506,0,0,1,.557.147,1.214,1.214,0,0,1,.163.7,2.047,2.047,0,0,1-.067.5,2.507,2.507,0,0,1-.193.514,2.259,2.259,0,0,1-.312.465,1.6,1.6,0,0,1-.415.346.908.908,0,0,1-.416.141.488.488,0,0,1-.3-.081.542.542,0,0,1-.192-.245.942.942,0,0,1-.071-.346.37.37,0,0,1,.034-.169.239.239,0,0,1,.086-.114l.342-.2c.044-.025.078-.026.1,0s.047.051.075.083a.193.193,0,0,0,.118.059.4.4,0,0,0,.227-.076,1.186,1.186,0,0,0,.138-.095,1.024,1.024,0,0,0,.131-.127.748.748,0,0,0,.1-.152A.384.384,0,0,0,192.058,269.427Z" transform="translate(-187.401 -255.506)" fill="#fafafa"/><path d="M195.15,266.73a5.142,5.142,0,0,1,.076-.876,4.317,4.317,0,0,1,.218-.805,2.9,2.9,0,0,1,.344-.652,1.456,1.456,0,0,1,.451-.426.629.629,0,0,1,.451-.1.594.594,0,0,1,.345.237,1.42,1.42,0,0,1,.22.512,3.144,3.144,0,0,1,.078.726v.356a.414.414,0,0,1-.036.17.223.223,0,0,1-.084.113l-1.484.857a.866.866,0,0,0,.043.295.351.351,0,0,0,.113.168.234.234,0,0,0,.164.047.44.44,0,0,0,.191-.063.893.893,0,0,0,.231-.184,1.1,1.1,0,0,0,.147-.215,1.215,1.215,0,0,1,.08-.133.273.273,0,0,1,.085-.072l.355-.206a.064.064,0,0,1,.086.013.178.178,0,0,1,.033.131,1.4,1.4,0,0,1-.068.324,2.541,2.541,0,0,1-.194.452,2.768,2.768,0,0,1-.317.468,1.6,1.6,0,0,1-.437.37.669.669,0,0,1-.451.108.539.539,0,0,1-.344-.24,1.512,1.512,0,0,1-.218-.549A3.932,3.932,0,0,1,195.15,266.73Zm1.089-1.814a.75.75,0,0,0-.22.2,1.28,1.28,0,0,0-.154.262,1.581,1.581,0,0,0-.1.292,1.94,1.94,0,0,0-.043.273l1-.58a1.98,1.98,0,0,0-.034-.23.479.479,0,0,0-.08-.191.223.223,0,0,0-.147-.089A.377.377,0,0,0,196.239,264.916Z" transform="translate(-189.334 -254.355)" fill="#fafafa"/><path d="M201.309,262.081a.9.9,0,0,0-.384.431,1.97,1.97,0,0,0-.118.752v2.054a.436.436,0,0,1-.035.17.222.222,0,0,1-.085.112l-.337.2a.06.06,0,0,1-.084-.015.2.2,0,0,1-.036-.129V261.97a.425.425,0,0,1,.036-.17.226.226,0,0,1,.084-.113l.337-.195a.059.059,0,0,1,.085.015.2.2,0,0,1,.035.129v.183a2.414,2.414,0,0,1,.247-.435,1.1,1.1,0,0,1,.345-.3l.2-.115a.061.061,0,0,1,.085.015.2.2,0,0,1,.035.129v.521a.437.437,0,0,1-.035.171.226.226,0,0,1-.085.112Z" transform="translate(-191.524 -253.103)" fill="#fafafa"/><path d="M208.021,259.689a.059.059,0,0,1,.085.015.2.2,0,0,1,.035.129v.561a.439.439,0,0,1-.035.171.223.223,0,0,1-.085.111l-1.946,1.124a.06.06,0,0,1-.085-.015.2.2,0,0,1-.035-.129v-5.1a.436.436,0,0,1,.035-.17.225.225,0,0,1,.085-.112l.359-.208a.06.06,0,0,1,.085.015.2.2,0,0,1,.036.129v4.328Z" transform="translate(-193.994 -250.988)" fill="#fafafa"/><path d="M211.8,254.956a.747.747,0,0,1,.443-.121.531.531,0,0,1,.342.174,1.071,1.071,0,0,1,.23.42,2.236,2.236,0,0,1,.1.621c0,.046,0,.105,0,.179v.439c0,.071,0,.131,0,.18a4.154,4.154,0,0,1-.1.738,3.586,3.586,0,0,1-.229.681,2.711,2.711,0,0,1-.342.565,1.578,1.578,0,0,1-.443.39.747.747,0,0,1-.443.121.539.539,0,0,1-.341-.17,1.039,1.039,0,0,1-.229-.416,2.49,2.49,0,0,1-.1-.621c0-.046,0-.1-.006-.173s0-.142,0-.216,0-.148,0-.223,0-.136.006-.185a3.871,3.871,0,0,1,.1-.738,3.829,3.829,0,0,1,.232-.687,2.7,2.7,0,0,1,.341-.568A1.569,1.569,0,0,1,211.8,254.956Zm.538,1.466a1.264,1.264,0,0,0-.065-.369.379.379,0,0,0-.127-.184.216.216,0,0,0-.164-.036.555.555,0,0,0-.183.07.892.892,0,0,0-.182.141.933.933,0,0,0-.164.225,1.486,1.486,0,0,0-.127.33,2.229,2.229,0,0,0-.064.444c0,.044-.005.1-.006.162s0,.13,0,.2,0,.135,0,.2,0,.115.006.151a1.277,1.277,0,0,0,.064.369.381.381,0,0,0,.127.184.214.214,0,0,0,.164.035.553.553,0,0,0,.182-.07.912.912,0,0,0,.183-.141.943.943,0,0,0,.164-.225,1.5,1.5,0,0,0,.127-.33,2.181,2.181,0,0,0,.065-.444c0-.038,0-.09,0-.156v-.4C212.347,256.515,212.345,256.464,212.343,256.423Z" transform="translate(-196.032 -250.463)" fill="#fafafa"/><path d="M216.834,256.736a.794.794,0,0,0,.192-.162,1.2,1.2,0,0,0,.177-.264,1.727,1.727,0,0,0,.183-.784v-.292c-.024.061-.055.13-.094.208a1.776,1.776,0,0,1-.14.235,1.721,1.721,0,0,1-.191.229,1.121,1.121,0,0,1-.247.189.517.517,0,0,1-.4.078.548.548,0,0,1-.307-.234,1.452,1.452,0,0,1-.2-.477,3.054,3.054,0,0,1-.083-.652c0-.077,0-.168,0-.274s0-.2,0-.279a4.593,4.593,0,0,1,.083-.747,4.184,4.184,0,0,1,.2-.708,2.705,2.705,0,0,1,.307-.588,1.265,1.265,0,0,1,.4-.386.7.7,0,0,1,.247-.1.464.464,0,0,1,.191.008.357.357,0,0,1,.14.073.561.561,0,0,1,.094.1v-.182a.426.426,0,0,1,.035-.17.222.222,0,0,1,.085-.112l.337-.2a.06.06,0,0,1,.085.015.2.2,0,0,1,.036.129V255.1a3.894,3.894,0,0,1-.3,1.615,2.038,2.038,0,0,1-.829.964.9.9,0,0,1-.42.136.563.563,0,0,1-.335-.091.667.667,0,0,1-.227-.272,1.032,1.032,0,0,1-.093-.408.356.356,0,0,1,.034-.169.228.228,0,0,1,.086-.113l.3-.175a.076.076,0,0,1,.106.014.81.81,0,0,1,.076.095.259.259,0,0,0,.158.13A.456.456,0,0,0,216.834,256.736Zm-.532-2.757a3.385,3.385,0,0,0,0,.443.973.973,0,0,0,.178.635.288.288,0,0,0,.368.013.965.965,0,0,0,.367-.441,1.986,1.986,0,0,0,.171-.754c.006-.082.009-.184.009-.305s0-.22-.009-.3a.849.849,0,0,0-.171-.549.275.275,0,0,0-.367-.026.964.964,0,0,0-.368.439A2.2,2.2,0,0,0,216.3,253.979Z" transform="translate(-198.205 -248.916)" fill="#fafafa"/><path d="M221.6,247.161a.06.06,0,0,1,.085.014.2.2,0,0,1,.036.13v.617a.431.431,0,0,1-.036.171.232.232,0,0,1-.085.113l-.381.22a.061.061,0,0,1-.085-.015.2.2,0,0,1-.036-.13v-.616a.429.429,0,0,1,.036-.171.217.217,0,0,1,.085-.111Zm.1,5.338a.425.425,0,0,1-.036.171.228.228,0,0,1-.085.112l-.337.2a.06.06,0,0,1-.085-.015.2.2,0,0,1-.036-.129v-3.681a.423.423,0,0,1,.036-.17.224.224,0,0,1,.085-.113l.337-.195a.06.06,0,0,1,.085.015.193.193,0,0,1,.036.129Z" transform="translate(-200.522 -247.15)" fill="#fafafa"/><path d="M225.785,250.818a.434.434,0,0,1-.035.17.225.225,0,0,1-.084.112l-.338.2a.06.06,0,0,1-.084-.015.2.2,0,0,1-.035-.129v-2.007a1.421,1.421,0,0,0-.125-.687q-.125-.212-.382-.064a.911.911,0,0,0-.371.5,2.382,2.382,0,0,0-.135.837v2.007a.437.437,0,0,1-.036.17.225.225,0,0,1-.084.112l-.338.2a.06.06,0,0,1-.084-.015.2.2,0,0,1-.036-.129v-3.682a.429.429,0,0,1,.036-.17.227.227,0,0,1,.084-.112l.338-.195a.059.059,0,0,1,.084.014.2.2,0,0,1,.036.129v.182a2.723,2.723,0,0,1,.271-.5,1.129,1.129,0,0,1,.369-.347.631.631,0,0,1,.453-.112.466.466,0,0,1,.293.233,1.4,1.4,0,0,1,.158.5,4.626,4.626,0,0,1,.047.68Z" transform="translate(-201.61 -247.203)" fill="#fafafa"/></g><g transform="translate(69.456 12.815)"><path d="M273.515,214.492l-5.525,3.19.856-7.749a2.6,2.6,0,0,1-1.082-2.443,7.158,7.158,0,0,1,2.989-5.71c1.65-.953,2.988.059,2.988,2.26a7.506,7.506,0,0,1-1.082,3.692Z" transform="translate(-267.764 -201.421)" fill="#455a64"/><path d="M273.686,222.274l-4.862-2.807-.663,6Z" transform="translate(-267.935 -209.203)" fill="#37474f"/><path d="M271.087,201.779a6.523,6.523,0,0,0-2.549,3.382l4.455,2.572v0a7.506,7.506,0,0,0,1.082-3.692C274.074,201.838,272.737,200.827,271.087,201.779Z" transform="translate(-268.098 -201.421)" fill="#37474f"/></g></g><g transform="translate(20.997 72.533)"><path d="M212.281,156.175c-1.889-1.094-4.5-.938-7.386.727-5.767,3.33-10.442,11.427-10.44,18.087,0,3.342,1.178,5.684,3.08,6.77.495.283,3.181,1.845,3.679,2.133,1.889,1.092,4.5.936,7.383-.729,5.766-3.33,10.44-11.427,10.44-18.087,0-3.328-1.168-5.664-3.056-6.756" transform="translate(-194.454 -155.477)" fill="#9866b7"/><path d="M211.4,160.674c-5.766,3.331-10.442,11.428-10.44,18.087s4.676,9.359,10.442,6.029,10.446-11.427,10.44-18.087S217.163,157.345,211.4,160.674Z" transform="translate(-197.26 -157.103)" fill="#9866b7"/><path d="M220.712,184.818v.76a16.759,16.759,0,0,1-5.765,6.039c-2.247,1.3-4.278,1.437-5.765.611v-1.574a10.262,10.262,0,0,1,4.7-8.141l1.516-.872a3.6,3.6,0,0,1,3.675-.283A3.793,3.793,0,0,1,220.712,184.818Z" transform="translate(-200.805 -166.473)" fill="#27debf"/><path d="M213.436,156.175l3.7,2.145c-1.891-1.094-4.5-.94-7.385.727-3.776,2.182-7.084,6.408-8.918,10.935l-3.7-2.147c1.834-4.527,5.14-8.752,8.918-10.933C208.937,155.237,211.547,155.081,213.436,156.175Z" transform="translate(-195.609 -155.477)" fill="#fff" opacity="0.4"/><path d="M201.075,198.6c-.651-.377-3.084-1.793-3.541-2.053-1.9-1.085-3.081-3.427-3.081-6.768l3.7,2.147C198.157,195.176,199.269,197.481,201.075,198.6Z" transform="translate(-194.454 -170.271)" opacity="0.2"/><path d="M195.978,177.205l3.7,2.147a19.386,19.386,0,0,0-1.523,7.152v0l-3.7-2.147A19.4,19.4,0,0,1,195.978,177.205Z" transform="translate(-194.454 -164.847)" opacity="0.1"/><g transform="translate(8.377 6.67)"><g transform="translate(2.358)"><path d="M215.422,175.347a1.989,1.989,0,0,1-1-.262,2.46,2.46,0,0,1-1.091-2.265,6.5,6.5,0,0,1,2.982-5.164v0a2.232,2.232,0,0,1,3.6,2.079,6.506,6.506,0,0,1-2.98,5.165A3.049,3.049,0,0,1,215.422,175.347Z" transform="translate(-213.327 -167.204)" fill="#fff"/></g><g transform="translate(0 7.832)"><path d="M219.071,181.358a3.6,3.6,0,0,0-3.675.283l-1.516.872a10.262,10.262,0,0,0-4.7,8.141v1.574c1.487.826,3.518.685,5.765-.611a16.759,16.759,0,0,0,5.765-6.039v-.76A3.793,3.793,0,0,0,219.071,181.358Z" transform="translate(-209.182 -180.975)" fill="#fff"/></g></g></g></g></g><g transform="translate(9318.155 1623.632)"><g transform="translate(0 0)"><path d="M432.154,339.085a31.62,31.62,0,0,1,4.06-11.8c3.3-5.155,7.845-8.374,12.081-8.709s7.657,3.563,3.125,6.24-12.586,5.408-16.291,15.418Z" transform="translate(-432.154 -318.558)" fill="#9866b7"/><path d="M432.154,339.085a31.62,31.62,0,0,1,4.06-11.8c3.3-5.155,7.845-8.374,12.081-8.709s7.657,3.563,3.125,6.24-12.586,5.408-16.291,15.418Z" transform="translate(-432.154 -318.558)" opacity="0.1"/><g transform="translate(1.056 1.988)"><path d="M434.2,338.868a.213.213,0,0,1-.045-.013.226.226,0,0,1-.124-.295c4.47-11.01,12.981-15.607,16.857-16.5a.226.226,0,1,1,.1.441c-3.8.874-12.139,5.392-16.539,16.229A.226.226,0,0,1,434.2,338.868Z" transform="translate(-434.011 -322.054)" fill="#fff"/></g><g transform="translate(1.276 13.231)"><g transform="translate(0.304)"><path d="M457.223,347.522a3.742,3.742,0,0,1-2.206,1.669,4.334,4.334,0,0,0-2.306,1.551c-.956,1.652.614,3.974-.413,5.582a2.957,2.957,0,0,1-2.019,1.171,19.742,19.742,0,0,1-1.985.177,7.787,7.787,0,0,1-.943-.073,4.288,4.288,0,0,0-2.733.292c-1.313.737-1.716,2.4-2.513,3.673a6.234,6.234,0,0,1-4.422,2.773,4.339,4.339,0,0,1-2.288-.151,1.063,1.063,0,0,1-.124-.079s-.007-.006-.011-.011c-.082-.093-.187-.212-.231-.276a.123.123,0,0,1-.023-.039,9.5,9.5,0,0,1,.163-2.632c0-.056,0-.108,0-.16-.037-1.028-.066-2.051-.09-3.076q-.072-2.832-.056-5.668a9.251,9.251,0,0,1,.384-3.726c.575-1.271,2-1.3,2.545-2.546.216-.5.332-1.03.54-1.532a4.393,4.393,0,0,1,3.742-2.612c2.5-.127,4.735,1.893,7.227,1.71a18.793,18.793,0,0,0,1.911-.364,5.405,5.405,0,0,1,5.494,1.907A2.619,2.619,0,0,1,457.223,347.522Z" transform="translate(-434.931 -341.821)" fill="#9866b7"/></g><g transform="translate(0 3.172)"><path d="M434.572,362.255l-.017,0a.212.212,0,0,1-.15-.26c3.448-12.936,17.078-14.806,20.267-14.575a.215.215,0,0,1,.2.228.213.213,0,0,1-.228.2c-3.119-.225-16.451,1.6-19.825,14.261A.212.212,0,0,1,434.572,362.255Z" transform="translate(-434.397 -347.397)" fill="#fff"/></g><g transform="translate(5.687 8.241)"><path d="M454.027,359.543a.208.208,0,0,1-.113-.06,11.328,11.328,0,0,0-9.276-2.613.213.213,0,1,1-.062-.421,11.761,11.761,0,0,1,9.64,2.735.213.213,0,0,1,0,.3A.215.215,0,0,1,454.027,359.543Z" transform="translate(-444.395 -356.31)" fill="#fff"/></g></g></g></g><g transform="translate(9244.274 1542.014)"><g transform="translate(0 0)"><g transform="translate(23.711)"><path d="M374.332,221.031a59.036,59.036,0,0,1-6.3,9.23,66.341,66.341,0,0,1-13.081,3.983,2.1,2.1,0,0,1-1.414-.333,11.865,11.865,0,0,0-3.132-1.248c-.914-.316-1.3-.753-1.473-.586a1.039,1.039,0,0,0,.1,1.448,7.56,7.56,0,0,0,1.447,1.083,8.573,8.573,0,0,1-3.814.065c-2.438-.64-3.59.532-1.941,3.18.591.948,2.916,2.466,7.627,2.056a41.814,41.814,0,0,0,5.006-.592c4.52-.964,9.543-1.9,12.632-2.821a8.018,8.018,0,0,0,3-2.079c5.2-5.922,6.916-10.141,9.193-13.976l-.2-6.266C378.3,214.059,376.33,217.651,374.332,221.031Z" transform="translate(-343.947 -191.925)" fill="#ffa8a7"/><path d="M402.357,213.926a5.933,5.933,0,0,0-5.632,2.408c-2.529,3.236-7,11.007-7,11.007s1.467,3.9,5.414,4.537l6.341-8.565S404.482,217.386,402.357,213.926Z" transform="translate(-363.688 -191.792)" fill="#455a64"/><g transform="translate(24.043 45.621)"><rect width="4.134" height="7.37" transform="translate(24.202 63.855)" fill="#ffa8a7"/><path d="M407.55,360.931l-4.131.148-.207-7.8,4.338-.148Z" transform="translate(-393.547 -297.47)" fill="#ffa8a7"/><path d="M420.513,255.313c0,4.111-.605,37.2-.605,37.2.1,1.183,1.161,3.364.93,7.908-.313,6.172-.731,22.391-.731,22.391a5.246,5.246,0,0,1-4.6.094s-3.351-22.728-4.092-28.845c-.646-5.338-2.3-23.047-2.3-23.047l-2.241,20.9a25.451,25.451,0,0,1,.512,6.842c-.193,2.829-1.523,17.563-1.523,17.563a5.451,5.451,0,0,1-4.773.381s-2.351-22.19-2.4-24.786c-.055-2.96,1.375-36.641,1.375-36.641Z" transform="translate(-391.595 -255.269)" fill="#37474f"/><path d="M423.811,376.288v-.616c-.4.179-1.314,3.831-2.954,5.389-1.3,1.239-3.083,2.669-3.535,4.05-.471,1.436,2.477,2.229,3.695,2,1.416-.261,3.869-1.3,4.484-2.262s.9-2.381,1.4-3.087,1.654-1.492,1.925-2.309a5.407,5.407,0,0,0-.237-2.26c-.191-.761-.4-1.6-.648-1.527,0,.093,0,.469,0,.469a3.193,3.193,0,0,1-2.067.728C425.273,376.893,423.806,376.768,423.811,376.288Z" transform="translate(-399.609 -307.188)" fill="#263238"/><path d="M396.047,364.556c-.215.007-.39.323-.863.857a9.058,9.058,0,0,1-2.432,1.822c-1.548.807-4.557,2.048-5.919,2.688-.851.4-.81,1.47.069,2.078a7.676,7.676,0,0,0,5.552.454c1.389-.324,3.2-1.66,4.341-1.587s3.286.055,4.13-.552.507-1.9.268-3.015c-.26-1.214-.586-3.109-.973-3.026v.419c-.5.783-3.061,1.1-4.153.526Z" transform="translate(-386.219 -302.274)" fill="#263238"/><path d="M412.651,280.341a15.127,15.127,0,0,1-5.756-3.437,12.152,12.152,0,0,0,4.413,4.182l-.706,18.662Z" transform="translate(-395.135 -264.599)" fill="#263238"/></g><g transform="translate(31.991 22.134)"><path d="M418.848,214.592s3.4.786,3.169,6.949l-.715,9.816.02,14.731c-3.04,3.444-16.515,3.193-21.128-.275,0,0,.523-17.433.834-24.141.222-4.769,1.319-7.17,6.006-7.7l5.764.254Z" transform="translate(-400.193 -213.975)" fill="#9866b7"/></g><g transform="translate(32.628)"><path d="M415.822,187.676a6.285,6.285,0,0,1-6.154,6.41c-3.4,0-5.41-2.949-6.154-6.41-1.36-6.33,2.755-6.41,6.154-6.41A6.285,6.285,0,0,1,415.822,187.676Z" transform="translate(-402.147 -177.736)" fill="#263238"/><path d="M428.993,197.094a54.109,54.109,0,0,1-1.322,5.377,2.014,2.014,0,0,1-1.16.975l.066-3.249Z" transform="translate(-412.178 -184.562)" fill="#263238"/><path d="M428.343,185.454s.677-.169,1.4.954c.616.963.756,3.126-.212,5.663l-1.778.213Z" transform="translate(-412.712 -179.538)" fill="#263238"/><path d="M429.943,186.262l2.18.04a1.028,1.028,0,0,0-.993-1.152A1.207,1.207,0,0,0,429.943,186.262Z" transform="translate(-413.658 -179.411)" fill="#263238"/><path d="M430.2,184.742l1.615-1.554a1.043,1.043,0,0,0-1.529-.06A1.188,1.188,0,0,0,430.2,184.742Z" transform="translate(-413.652 -178.408)" fill="#263238"/><path d="M417.2,190.131c.357.222.865-.491,1.3-.97a1.518,1.518,0,0,1,2.536.639,2.913,2.913,0,0,1-1.53,3.634c-1.834.912-2.417-.413-2.417-.413l-.148,7.316c-2.586,4-8.441,3.854-6.336-.193l.006-2.227a11.786,11.786,0,0,1-2.625.141c-1.432-.231-2.333-1.408-2.767-3.022-.7-2.593-.963-4.687-.371-9.787.649-5.59,6.891-5.648,10.262-3.438S417.2,190.131,417.2,190.131Z" transform="translate(-402.699 -177.385)" fill="#ffa8a7"/><path d="M408.034,182.05c1.491-.149,2.965-.453,4.46-.563a2.89,2.89,0,0,1,.967.047c1.145.309,1,1.64,1.179,2.57.313,1.6.573,4.315,1.175,4.328.179,0,.861-1.175,1.3-1.6a2.322,2.322,0,0,0,.4-1.223c.114-.663.175-1.336.226-2.007.043-.567.1-1.146.1-1.715a7.855,7.855,0,0,0-.15-1.915,3.328,3.328,0,0,0-.8-1.434c-.037-.042-.075-.085-.114-.126a7.545,7.545,0,0,0-2.669-1.8,16.085,16.085,0,0,0-4.516-.982,45.968,45.968,0,0,1-4.6-.554.479.479,0,0,0-.267,0,.427.427,0,0,0-.216.342,1.9,1.9,0,0,0,.772,1.874,10.357,10.357,0,0,1-3.207-.724.659.659,0,0,0-.506,0,.5.5,0,0,0-.2.29,1.878,1.878,0,0,0-.028.824,4.739,4.739,0,0,0,.887,2.262,5.57,5.57,0,0,0,3.074,2.009A8.935,8.935,0,0,0,408.034,182.05Z" transform="translate(-401.312 -175.06)" fill="#263238"/><path d="M415.235,208.972a23.738,23.738,0,0,0,4.314-1.289,3.763,3.763,0,0,0,1.545-1.592,5.345,5.345,0,0,1-.878,1.878c-.817,1.089-4.981,1.89-4.981,1.89Z" transform="translate(-407.316 -188.441)" fill="#f28f8f"/><g transform="translate(2.659 8.397)"><path d="M416.586,195.48a.643.643,0,1,0,.64-.7A.666.666,0,0,0,416.586,195.48Z" transform="translate(-410.557 -191.963)" fill="#263238"/><path d="M418.4,190.811l1.37.788a.874.874,0,0,0-.319-1.136A.75.75,0,0,0,418.4,190.811Z" transform="translate(-411.337 -190.057)" fill="#263238"/><path d="M414.635,204.11l-1.462.572a.761.761,0,0,0,.994.505A.863.863,0,0,0,414.635,204.11Z" transform="translate(-409.086 -195.984)" fill="#f28f8f"/><path d="M406.139,191.165l1.25-1a.738.738,0,0,0-1.086-.173A.887.887,0,0,0,406.139,191.165Z" transform="translate(-405.987 -189.823)" fill="#263238"/><path d="M407.219,195.146a.643.643,0,1,0,.64-.7A.666.666,0,0,0,407.219,195.146Z" transform="translate(-406.518 -191.819)" fill="#263238"/><path d="M411.449,194.731l-.074,4.046-2.3-.527Z" transform="translate(-407.32 -191.94)" fill="#f28f8f"/></g></g></g><g transform="translate(0 26.686)"><g transform="translate(8.562 14.603)"><path d="M317.314,251.42l3.563-2.057,1.412-1.71-3.563,2.057-1.412,1.71" transform="translate(-317.314 -247.653)" fill="#27debf"/><path d="M317.314,251.42l3.563-2.057,1.412-1.71-3.563,2.057-1.412,1.71" transform="translate(-317.314 -247.653)" opacity="0.4"/></g><g transform="translate(18.259 19.275)"><path d="M334.361,260.56l3.563-2.057,2.978-2.636-3.563,2.057-2.978,2.636" transform="translate(-334.361 -255.868)" fill="#27debf"/><path d="M334.361,260.56l3.563-2.057,2.978-2.636-3.563,2.057-2.978,2.636" transform="translate(-334.361 -255.868)" opacity="0.4"/></g><path d="M350.812,253.055a7.593,7.593,0,0,1,1.473,3.877A7.6,7.6,0,0,1,350.812,253.055Zm8.283.107c-1.2-8.162-5.584-16.237-10.812-19.255-2.508-1.45-4.83-1.5-6.689-.415-.544.316-2.561,1.479-3.356,1.936a1.9,1.9,0,0,0-.187.111,4.891,4.891,0,0,0-.433.275,6.016,6.016,0,0,0-.772.638c-.035.029-.07.07-.111.105-.105.105-.21.222-.31.339-.123.14-.246.287-.357.439a8.27,8.27,0,0,0-.655,1.006c-.1.176-.2.363-.292.556l-29.3-16.916-3.561,2.052V226.3l.3.175.281.164v.479l-.585.339v1.322l4.3,9.11,4.257,2.462,1.415-1.713,3.754,2.245,2.158,3.7,2.374,1.368,2.976-2.637,3.654,2.111,1.228,5.064,6.122,3.532a33.63,33.63,0,0,0,1.158,3.807c.041.129.088.257.14.4,2.035,5.35,5.274,9.929,8.923,12.039a9.483,9.483,0,0,0,1.374.661,7.054,7.054,0,0,0,.766.258,5.783,5.783,0,0,0,.684.152,5.886,5.886,0,0,0,2.169-.006l.3-.071a2.533,2.533,0,0,0,.415-.123l.316-.122a2.336,2.336,0,0,0,.328-.152,3.083,3.083,0,0,0,.3-.158c.052-.03.105-.059.152-.088a.214.214,0,0,0,.07-.041c.813-.468,2.818-1.626,3.362-1.935,2.707-1.568,4.462-5.538,4.462-11.151A29.264,29.264,0,0,0,359.1,253.162Z" transform="translate(-302.26 -221.979)" fill="#9866b7"/><path d="M349.768,261.5c-1.406-.811-2.545-3.224-2.545-5.388s1.139-3.261,2.545-2.449,2.545,3.224,2.545,5.388S351.173,262.308,349.768,261.5Zm5.767-4.725c-1.2-8.157-5.584-16.232-10.812-19.25-2.421-1.4-4.66-1.5-6.485-.538a1.9,1.9,0,0,0-.187.111,4.884,4.884,0,0,0-.433.275,6.014,6.014,0,0,0-.772.638c-.035.029-.07.07-.111.105-.105.105-.21.222-.31.339-.123.141-.246.287-.357.439a8.27,8.27,0,0,0-.655,1.006c-.1.176-.2.363-.292.556a14.093,14.093,0,0,0-1.129,3.462L302.26,225.587v2.269l.3.175.281.164v.479l-.585.339v1.322l4.3,9.11,4.257,2.462,1.415-1.713,3.754,2.245,2.158,3.7,2.374,1.368,2.976-2.637,3.654,2.111,1.228,5.064,6.122,3.532a33.629,33.629,0,0,0,1.158,3.807c.041.129.088.257.14.4,2.035,5.35,5.274,9.929,8.923,12.039a9.486,9.486,0,0,0,1.374.661,7.061,7.061,0,0,0,.766.258,5.789,5.789,0,0,0,.684.152,5.886,5.886,0,0,0,2.169-.006l.3-.071a2.533,2.533,0,0,0,.415-.123l.316-.122a2.336,2.336,0,0,0,.328-.152,3.07,3.07,0,0,0,.3-.158c.052-.03.105-.059.152-.088a.213.213,0,0,0,.07-.041c2.6-1.637,4.263-5.549,4.263-11.028A30.2,30.2,0,0,0,355.534,256.771Z" transform="translate(-302.26 -223.535)" fill="#9866b7"/><path d="M386.4,280.126c0,2.164-1.14,3.263-2.543,2.45s-2.55-3.222-2.55-5.386,1.14-3.262,2.55-2.45a3.6,3.6,0,0,1,1.04.953,7.642,7.642,0,0,0,1.474,3.877A4.505,4.505,0,0,1,386.4,280.126Z" transform="translate(-336.346 -244.616)" opacity="0.4"/><path d="M386.7,265.642c0,5.613-1.754,9.583-4.461,11.151-.544.309-2.549,1.467-3.362,1.935,2.6-1.637,4.263-5.549,4.263-11.028a30.2,30.2,0,0,0-.328-4.327c-1.2-8.157-5.584-16.232-10.812-19.25-2.421-1.4-4.66-1.5-6.485-.538.8-.456,2.813-1.62,3.356-1.936,1.859-1.087,4.181-1.035,6.689.415,5.228,3.017,9.613,11.092,10.812,19.255A29.268,29.268,0,0,1,386.7,265.642Z" transform="translate(-329.537 -230.138)" fill="#fff" opacity="0.4"/><g transform="translate(49.339 34.881)"><path d="M393.269,285.987c0,5.479-1.667,9.391-4.263,11.028.813-.468,2.818-1.626,3.362-1.935,2.707-1.568,4.461-5.538,4.461-11.151,0-.207-.007-.416-.012-.624l-3.561,2.056C393.261,285.57,393.269,285.779,393.269,285.987Z" transform="translate(-389.006 -283.305)" fill="#9866b7"/><path d="M393.269,285.987c0,5.479-1.667,9.391-4.263,11.028.813-.468,2.818-1.626,3.362-1.935,2.707-1.568,4.461-5.538,4.461-11.151,0-.207-.007-.416-.012-.624l-3.561,2.056C393.261,285.57,393.269,285.779,393.269,285.987Z" transform="translate(-389.006 -283.305)" opacity="0.1"/></g><g transform="translate(0 4.66)"><path d="M334.121,248.229v1.158l-31.862-18.4.585-.339v-.479Z" transform="translate(-302.26 -230.172)" opacity="0.15"/><path d="M334.121,249.067v.678l-31.862-18.4.585-.339V231Z" transform="translate(-302.26 -230.531)" opacity="0.15"/></g><ellipse cx="8.413" cy="15.742" rx="8.413" ry="15.742" transform="translate(29.8 18.549) rotate(-17.064)" fill="none" stroke="#000" stroke-miterlimit="10" stroke-width="1" opacity="0.15"/><path d="M335.122,238.895a14.093,14.093,0,0,0-1.129,3.462L302.26,224.031l3.561-2.052Z" transform="translate(-302.26 -221.979)" fill="#fff" opacity="0.4"/></g><g transform="translate(48.428 22.75)"><path d="M413.057,238.056c1.665-3.147,3.561-10.211,4.506-13.776,1.342-5.064-.83-8.25-3.295-8.379-1.546.235-6.622,18.707-6.622,18.707-.563.45-8.288,4.365-10.77,5.349a1.93,1.93,0,0,1-1.374.005,11.11,11.11,0,0,0-3.17-.47c-.914-.092-1.376-.416-1.491-.221a1.044,1.044,0,0,0,.448,1.346,7.313,7.313,0,0,0,1.591.7,9.7,9.7,0,0,1-3.08.418c-2.385-.052-3.245.984-1.394,3.4,1.16,1.515,3.024,1.993,7.223.54,1.21-.418,2.85-1.232,4.374-1.786,3.154-1.146,3.965-1.27,6.386-2.085C409.883,240.627,412.319,239.452,413.057,238.056Z" transform="translate(-387.405 -215.422)" fill="#ffa8a7"/><path d="M429.092,215.059c1.452.2,2.859.527,3.7,1.7s1.548,2.826.7,7.37a70.17,70.17,0,0,1-2.581,9.37s-3.376,1.443-6.968-2.218l2.466-9.543S426.838,215.538,429.092,215.059Z" transform="translate(-403.164 -215.059)" fill="#455a64"/></g></g></g><g transform="matrix(0.999, -0.035, 0.035, 0.999, 9178.838, 1522.295)"><g transform="translate(0 0)"><g transform="translate(5.836 23.56)"><path d="M3.047.083A1.053,1.053,0,0,1,3.322,0l-.04,2.656a2.379,2.379,0,0,0-.569.2c-.62.308-.942,1.1-.961,2.392L1.687,9.508,0,10.344.129,1.77l1.62-.8L1.727,2.4l.023-.012Q2.38.414,3.047.083Z" fill="#62427f"/></g><g transform="translate(20.138 11.402)"><path d="M3.111.833,4.792,0l-.2,13.138-1.694.84.017-1.129-.024.012A3.483,3.483,0,0,1,1.6,14.905c-.516.24-.975-.013-1.185-.65A8.164,8.164,0,0,1,.01,11.143,12,12,0,0,1,.526,7.595,3,3,0,0,1,1.773,5.744a.949.949,0,0,1,1.255.648ZM2.784,11.341a7.1,7.1,0,0,0,.2-1.724C3,8.2,2.8,7.606,2.37,7.816S1.7,8.89,1.68,10.39a4.366,4.366,0,0,0,.155,1.455c.076.288.267.4.482.305a1.232,1.232,0,0,0,.468-.809" transform="translate(0 0)"/></g><g transform="translate(26.029 13.189)"><path d="M4.424,0,4.349,4.973a8.1,8.1,0,0,1-.6,3.166A3.617,3.617,0,0,1,2.27,9.878c-.042.021-.084.04-.126.056-.778.385-1.33.317-1.661-.2A4.182,4.182,0,0,1,0,7.431l.08-5.279,1.69-.838L1.691,6.835a1.38,1.38,0,0,0,.117.646.227.227,0,0,0,.325.122c.335-.167.5-.63.516-1.393L2.73.839Z" transform="translate(0 0)"/></g><g transform="translate(31.326 11.299)"><path d="M2.07.132a1.128,1.128,0,0,1,1.217.1L3.254,2.442a.762.762,0,0,0-.613.021l-.02.01a1.539,1.539,0,0,0-.646.843A4.3,4.3,0,0,0,1.7,4.844a2.753,2.753,0,0,0,.223,1.33.445.445,0,0,0,.636.214l.021-.01a2.084,2.084,0,0,0,.608-.59L3.156,8.029A3.441,3.441,0,0,1,1.933,9.281l-.02.01A.973.973,0,0,1,.506,8.746a6.793,6.793,0,0,1-.5-3.1A10.467,10.467,0,0,1,.619,2.106,3.445,3.445,0,0,1,2.07.132Z" transform="translate(0 0)"/></g><g transform="translate(35.223 8.482)"><path d="M3.032.838,4.723,0,4.594,8.58l-1.681.834.017-1.129L2.907,8.3a8.117,8.117,0,0,1-.613,1.372,1.717,1.717,0,0,1-.653.666l-.03.014c-.519.247-.986,0-1.2-.645A8.4,8.4,0,0,1,.011,6.53,11.819,11.819,0,0,1,.519,3.023,2.982,2.982,0,0,1,1.748,1.2l.046-.024a.625.625,0,0,1,.631,0,2.1,2.1,0,0,1,.568.743l.023-.012ZM2.318,7.606q.629-.312.66-2.531C3,3.65,2.793,3.048,2.36,3.263S1.692,4.3,1.671,5.723c-.022,1.479.191,2.109.648,1.883" transform="translate(0 0)"/></g><g transform="translate(40.771 4.614)"><path d="M2.4,0,2.368,2.285l.657-.326L2.992,4.217l-.671.333-.095,6.322L.546,11.7l.1-6.343L0,5.679.034,3.442l.641-.318L.712.838Z"/></g><g transform="translate(44.576 5.282)"><path d="M0,9.42.129.84,1.823,0,1.694,8.58Z" transform="translate(0 0)"/></g><g transform="translate(44.696 1.641)"><path d="M.868,2.924C.378,3.156-.005,2.711,0,1.929A2.259,2.259,0,0,1,.911.069l.006,0c.49-.242.879.2.864,1A2.247,2.247,0,0,1,.868,2.924Z" transform="translate(0 0)"/></g><g transform="translate(47.353 3.098)"><path d="M4.693,3.723a9.5,9.5,0,0,1-.68,3.646A3.989,3.989,0,0,1,2.367,9.363c-.037.018-.073.035-.11.049s-.058.031-.086.046A1.158,1.158,0,0,1,.585,9.047a5.486,5.486,0,0,1-.574-3,10.444,10.444,0,0,1,.645-3.73A3.887,3.887,0,0,1,2.272.286c.04-.021.081-.038.122-.055s.09-.051.135-.074A1.168,1.168,0,0,1,4.137.588,6.115,6.115,0,0,1,4.693,3.723ZM2.811,6.241A6.95,6.95,0,0,0,3,4.471,4.974,4.974,0,0,0,2.864,2.9C2.781,2.646,2.6,2.551,2.4,2.65l-.017.009-.018.008a1.122,1.122,0,0,0-.479.7,6.706,6.706,0,0,0-.193,1.771Q1.659,7.3,2.3,6.983l.017-.008a1.155,1.155,0,0,0,.491-.734" transform="translate(0 0)"/></g><g transform="translate(52.975 0)"><path d="M3.344.085a.625.625,0,0,1,.832.181,2.482,2.482,0,0,1,.3,1.45l-.1,6.65L2.69,9.2l.08-5.29a1.3,1.3,0,0,0-.121-.65.225.225,0,0,0-.324-.116c-.362.18-.549.635-.56,1.361L1.687,9.7,0,10.538l.128-8.58,1.688-.836L1.8,2.288l.03-.015A3.71,3.71,0,0,1,3.3.108Z" transform="translate(0)"/></g><g transform="translate(15.826 16.395)"><path d="M0,2.483.075,2.36A13.69,13.69,0,0,1,1.94,0,13.565,13.565,0,0,0,.075,2.365Z" fill="#cfcfcf"/></g><g transform="translate(15.385 19.091)"><path d="M.311,0C.2.195.1.379,0,.56.1.367.205.181.311,0Z" fill="#7e7e7e"/></g><g transform="translate(16.356 18.942)"><path d="M0,.02H0L.021,0h0Z" transform="translate(0 0)"/></g><g transform="translate(17.873 15.101)"><path d="M.034,0h0A.157.157,0,0,0,0,.026.157.157,0,0,1,.034,0Z" transform="translate(0 0)" fill="#7e7e7e"/></g><g transform="translate(15.806 19.584)"><path d="M0,0H0V.006Z"/></g><g transform="translate(9.713 15.097)" style="isolation:isolate"><g transform="translate(6.634 3.73)"><path d="M.006.135.138,0,0,.144Z" transform="translate(0 0)"/></g><g transform="translate(5.882 4.738)"><rect width="0.004" height="0.004" transform="translate(0 0.001) rotate(-19.587)"/></g><g transform="translate(4.787 1.701)"><path d="M4.728,2.335c0,.1-.012.14-.079.172-.138.069-.276.153-.416.228l-.047.028c-.262.173-.525.335-.784.522a11.71,11.71,0,0,0-3.325,3.7L.056,7.02l-.021.031-.023.043A.374.374,0,0,1,0,6.939L.038,4.687V4.622L.07,4.559l.013-.023.082-.142L.217,4.31a11.184,11.184,0,0,1,.79-1.17l.04-.047.044-.06.04-.052.075-.09.024-.028L1.3,2.78l.054-.065.034-.038.044-.054L1.5,2.556l.03-.031.1-.12.064-.063.054-.059.034-.038.068-.071.028-.029.049-.049.058-.058.051-.052q.177-.176.344-.331c.219-.194.439-.394.664-.564l.094-.068L3.227.956a9.27,9.27,0,0,1,1.217-.8l.1-.05A1.231,1.231,0,0,1,4.682.01c.081-.04.08.031.076.281ZM1.1,3.041V3.03l0,.007v.005l-.006.007.007.008V3.041" transform="translate(0 0)"/></g><g transform="translate(6.663 3.796)"><path d="M0,.049.047,0,0,.044Z" transform="translate(0 0)"/></g><g transform="translate(4.715 6.207)"><path d="M4.5.071A.755.755,0,0,1,4.713,0c.1.035.044.635.041.845L4.732,2.333c0,.09-.009.132-.072.164l-.054.026A11.846,11.846,0,0,0,.347,6.535C.232,6.7.116,6.884,0,7.068-.009,6.3.02,5.5.035,4.721a.468.468,0,0,1,0-.053,1.552,1.552,0,0,1,.315-.586c.16-.239.326-.471.5-.7a13.286,13.286,0,0,1,1.926-2.1A9.542,9.542,0,0,1,3.79.511C3.955.4,4.123.3,4.291.2A1.18,1.18,0,0,1,4.5.071Z" transform="translate(0 0)"/></g><g transform="translate(6.222 4.322)"><path d="M0,.007,0,0V.005Z" transform="translate(0 0)"/></g><g transform="translate(6.221 4.321)"><path d="M0,.007V0l0,0L0,.019V.008Z" transform="translate(0 0)"/></g><g transform="translate(6.221 4.322)"><path d="M0,.007,0,0,0,.007Z"/></g><g transform="translate(6.217 4.329)"><path d="M0,.013,0,0H0V0Z"/></g><g transform="translate(6.092 4.484)"><path d="M0,0H0V0Z"/></g><g transform="translate(6.089 4.484)"><path d="M0,0,0,0V0Z" transform="translate(0 0)"/></g><g transform="translate(5.878 4.741)"><path d="M.007,0V.016L0,.009.005,0Z"/></g><g transform="translate(4.833 0.726)"><path d="M4.107,0c.031-.015.035.012.034.068,0,.289-.006.584.007.866,0,.142-.026.2-.113.254a10.617,10.617,0,0,0-1.041.772l-.317.269L2.6,2.3l-.017.013-.037.035-.028.024-.047.045A13.811,13.811,0,0,0,1.4,3.529a11.97,11.97,0,0,0-.74.953A8.4,8.4,0,0,0,0,5.578c.117-.266.244-.521.371-.777s.247-.5.377-.736l.058-.109a12.26,12.26,0,0,1,2.049-2.8A14,14,0,0,1,4.082.021.23.23,0,0,1,4.107,0Z" transform="translate(0 0)"/></g><g transform="translate(4.874 0)"><path d="M3.32,0c.034-.017.043.02.044.1.006.29.012.581.024.863a.225.225,0,0,1-.076.2,13.519,13.519,0,0,0-2,2.49l-.075.123-.13.213C1,4.174.9,4.36.8,4.553.513,5.084.245,5.633,0,6.208A12.4,12.4,0,0,1,.607,4.36,14.55,14.55,0,0,1,3.175.151l.1-.106A.209.209,0,0,1,3.32,0Z" transform="translate(0)" fill="#6f6c6b"/></g><g transform="translate(4.824 6.322)"><path d="M0,0H0V.006Z" fill="#3c284e"/></g><g transform="translate(4.753 6.269)"><path d="M.028.033l.024.03,0,0L.022.03.013.019,0,0,.007.006Z" fill="#775998"/></g><g transform="translate(2.723 5.572)"><path d="M0,0c.07,0,.137,0,.206,0C.14.007.07,0,0,0Z" transform="translate(0 0)" fill="#cabebd"/></g><g transform="translate(2.6 5.572)"><path d="M0,0C.04,0,.083,0,.123,0L.07.005Z" transform="translate(0 0)" fill="#ab4938"/></g><g transform="translate(2.21 4.685)"><path d="M0,0A2.573,2.573,0,0,1,.643.127L.6.115A3.333,3.333,0,0,0,0,0Z" fill="#cfcfcf"/></g><g transform="translate(1.507 3.274)"><path d="M.115,0l.06,0a.831.831,0,0,0,.119.01c.037.009.076.01.117.017L.524.054.64.076C.676.085.712.1.753.106A.9.9,0,0,1,.862.142L.971.184c.037.014.076.026.113.04s.072.033.106.054A1.107,1.107,0,0,1,1.3.333a.892.892,0,0,1,.1.056A1.051,1.051,0,0,1,1.5.454a1.006,1.006,0,0,1,.1.068,1.033,1.033,0,0,0,.1.067L1.8.664l.1.081.1.086.092.088.092.094.088.095.085.1.085.107.081.109.078.116.081.114.075.117c.022.042.049.088.071.13s.049.083.072.125.045.089.067.137a1.158,1.158,0,0,1,.068.132c.023.047.042.091.065.139s.042.1.061.146l.058.147c.019.049.038.1.058.153l.026.072.024.094c-.031-.041-.079-.09-.106-.127s-.055-.08-.085-.118l-.085-.118-.088-.111-.088-.111-.092-.1-.095-.1-.095-.1-.1-.09a1.266,1.266,0,0,0-.1-.09c-.036-.025-.069-.056-.1-.083s-.069-.051-.105-.076-.069-.051-.105-.076S2,1.705,1.967,1.68l-.105-.065a1.09,1.09,0,0,0-.113-.062,1.06,1.06,0,0,0-.108-.063l-.113-.051a2.4,2.4,0,0,0-.65-.2L.822,1.223A1.035,1.035,0,0,0,.7,1.2c-.04,0-.08-.008-.123-.014S.493,1.179.453,1.177A1.037,1.037,0,0,0,.327,1.17H.2a.876.876,0,0,0-.123,0L.011,1.145,0,1.023C.018.716.035.408.057.1L.078.019Z" transform="translate(0 0)" fill="#957eb6"/></g><g transform="translate(2.174 4.484)"><path d="M0,0C.071.006.142.014.212.026a2.375,2.375,0,0,1,.648.2l.1.049A3.234,3.234,0,0,0,0,0Z" transform="translate(0 0)" fill="#a486cb"/></g><g transform="translate(1.807 5.576)"><path d="M0,.072A3.509,3.509,0,0,1,.385.016,3.889,3.889,0,0,1,.79,0,5.81,5.81,0,0,0,0,.072Z" transform="translate(0 0)" fill="#cfcfcf"/></g><g transform="translate(0.758 4.67)"><path d="M3.924,1.5l.013.015L4,1.6,3.93,1.54A1.08,1.08,0,0,0,3.762,1.4,2.863,2.863,0,0,0,2.172.907C2.1.9,2.035.9,1.966.9c-.04,0-.08,0-.123,0a3.942,3.942,0,0,0-.408.017,3.512,3.512,0,0,0-.385.056L.952,1c-.067.012-.127.025-.183.037a5.19,5.19,0,0,0-.675.191c-.074.031-.1,0-.092-.131C.016.8.024.5.032.2c0-.055,0-.091.037-.108L.09.087A4.816,4.816,0,0,1,1.449.022a3.467,3.467,0,0,1,.6.108L2.1.142,2.14.155a3.532,3.532,0,0,1,.542.232,4.631,4.631,0,0,1,.639.435l.289.295.039.039.053.075.055.063.062.076C3.855,1.411,3.892,1.458,3.924,1.5Z" transform="translate(0 0)" fill="#775998"/></g><g transform="translate(0 5.644)"><path d="M4.8,3.152,4.755,5.232a.468.468,0,0,0,0,.053c-.015.781-.044,1.58-.032,2.348L4.687,9.712l-.006.147L4.656,11.6l0,.209,0,.188v.086l-.008.143L4.6,12.2a3.206,3.206,0,0,0-1.144-.548,4.169,4.169,0,0,0-1.992.059,7.579,7.579,0,0,0-1.393.5c-.077.033-.072-.028-.071-.114L.049,8.826.169.843C.171.721.186.669.262.631.53.525.782.417,1.036.328L1.119.313,1.166.3A3.763,3.763,0,0,1,1.778.115C1.849.1,1.922.086,2,.069L2.042.064A3.692,3.692,0,0,1,2.725,0a3.533,3.533,0,0,1,.752.055l.049.012.05.008c.043.01.08.019.119.031l.037.008L3.8.137c.08.025.153.047.222.077l.05.018L4.2.285c.043.022.083.045.126.066A1.3,1.3,0,0,1,4.45.422a.963.963,0,0,1,.122.084c.039.028.082.055.122.088L4.75.642l.025.013L4.8.691,4.782.659,4.82.676l.005.067L4.791,3A.389.389,0,0,0,4.8,3.152ZM3.43,8.468,3.5,3.527c-.019-.737-.311-1.244-.746-1.295l-.037-.009A.744.744,0,0,0,2.27,2.3,1.952,1.952,0,0,0,1.4,4l-.012.758c-.018,1.188-.046,2.878-.066,4.173.019.748.321,1.261.766,1.3l.027,0a.744.744,0,0,0,.445-.077A1.946,1.946,0,0,0,3.43,8.468" transform="translate(0 0)" fill="#62427f"/></g></g><g transform="translate(17.031 29.671)"><path d="M.078,0,.072.006l0,0L0,.065Z"/></g><g transform="translate(15.246 29.07)"><path d="M.064.037.094,0C.064.039.031.082,0,.125Z" transform="translate(0 0)"/></g><g transform="translate(15.53 28.529)"><path d="M.244,0C.172.083.1.167.03.256L0,.292.03.256C.1.167.173.078.244,0Z" transform="translate(0 0)"/></g><g transform="translate(17.132 29.52)"><path d="M.162,0,.14.017.125.029,0,.134.1.046Z"/></g><g transform="translate(14.349 25.868)" style="isolation:isolate"><g transform="translate(0 0)"><path d="M4.75,2.026a1.994,1.994,0,0,1,0,.321L4.7,2.461a.418.418,0,0,1-.126.106l-.019.008q-.331.178-.658.39-.406.261-.808.572l-.043.033-.1.079-.026.019.022-.017L2.884,3.7l-.1.082-.02.021-.081.067.071-.056c-.2.161-.388.331-.577.516A12.7,12.7,0,0,0,0,7.108l.012-.134v-.06l0-.215V6.678l0-.209L.046,4.732V4.651l.017-.046c.29-.475.59-.927.9-1.363L.991,3.2q.2-.275.407-.522a11.172,11.172,0,0,1,1.43-1.408c.1-.08.192-.159.29-.234L3.175,1c.1-.082.2-.154.3-.225.04-.031.081-.056.121-.087L3.625.673c.064-.047.128-.09.195-.14.273-.188.555-.339.834-.5L4.714,0c.053,0,.082.077.064.171L4.76,1.407Zm-3.539.891c.071-.089.142-.172.214-.256-.071.078-.142.167-.214.256m2.713.021.04-.025-.04.02-.037.04.037-.035"/></g><g transform="translate(0.004 6.952)"><path d="M.009,0V.021L0,.131,0,.143Z" transform="translate(0 0)"/></g></g><g transform="translate(0 23.007)"><path d="M4.192.4C5.1,1.508,5.061,3.978,4.1,6.013A4.6,4.6,0,0,1,2.3,7.932c-.056.028-.113.053-.169.076l-.3.149-.071,4.725L0,13.754.187,1.336,2.364.257C2.4.234,2.441.214,2.48.195A1.42,1.42,0,0,1,4.192.4ZM2.745,4.981A2.425,2.425,0,0,0,3.04,3.758a1.264,1.264,0,0,0-.255-.995A.865.865,0,0,0,2,2.8c-.032.016-.064.033-.1.053L1.865,5.776c.028-.012.055-.024.083-.038a2.2,2.2,0,0,0,.8-.757" transform="translate(0 0)" fill="#62427f"/></g></g></g></g></g></svg>