<svg xmlns="http://www.w3.org/2000/svg" width="690.747" height="123.617" viewBox="0 0 690.747 123.617"><g transform="translate(-7882.72 -1097.736)"><path d="M284.5,239v10.789h.281q7.285-12.61,15.342-12.611a17.87,17.87,0,0,1,3.293.421v19.966a41.245,41.245,0,0,0-6.865-.63q-11.209,0-11.21,14.5V303.45H265.026V239Z" transform="translate(7688 893)" fill="#844fa0"/><path d="M472.33,204.736h20.246v98.713H472.19v-8.477h-.281q-6.795,10.65-15.342,10.649-8.97,0-14.467-9.388t-5.5-25.081q0-15.623,5.605-24.941t14.782-9.318q8.337,0,15.344,9.6Zm0,66q0-15.9-7.706-15.9-7.918,0-7.917,16.885,0,7.5,2.136,11.6t5.92,4.1q3.5,0,5.535-4.344t2.032-12.33" transform="translate(7688 893)"/><path d="M507.639,239h20.387V280.47a9.075,9.075,0,0,0,1.507,5.36,4.755,4.755,0,0,0,4.1,2.137q5.883,0,5.885-8.617V239H559.9v37.341q0,14.223-6.655,21.753t-19.2,7.532q-14.013,0-20.211-7.707t-6.2-19.266Z" transform="translate(7688 893)"/><path d="M609.926,283.763v16.814a26.047,26.047,0,0,1-14.642,4.9q-10.861,0-17.41-9.423t-6.551-25.326q0-15.063,6.726-24.521t17.375-9.458q7.425,0,14.642,5.255v16.674a16.307,16.307,0,0,0-7.426-2.172,9.481,9.481,0,0,0-7.917,3.958q-3.012,3.96-3.013,10.544,0,6.936,2.943,10.929a9.4,9.4,0,0,0,7.987,3.994,16.434,16.434,0,0,0,7.286-2.172" transform="translate(7688 893)"/><path d="M653.993,303.45v-8.478h-.281a33.466,33.466,0,0,1-7.181,8.057,13.254,13.254,0,0,1-8.161,2.592q-9.18,0-14.642-9.387t-5.466-25.5q0-15.483,5.535-24.661t14.573-9.178a13.674,13.674,0,0,1,8.2,2.417,31.13,31.13,0,0,1,7.006,7.742h.281v-8.057h20.386V303.45Zm0-32.578q0-16.043-7.846-16.043-7.92,0-7.917,16.043,0,16.676,8.2,16.674,7.566,0,7.567-16.674" transform="translate(7688 893)"/><path d="M692.315,221.831H712.7V239h7.917V255.95h-8.057v47.5H692.315V255.809h-7.706V239h7.706Z" transform="translate(7688 893)"/><path d="M730.987,219.659a10.726,10.726,0,1,1,10.719,10.789,10.886,10.886,0,0,1-10.719-10.789M731.548,239h20.386V303.45H731.548Z" transform="translate(7688 893)"/><path d="M792.22,236.753q13.94,0,21.228,9.283t7.285,25.817q0,16.184-7.566,25.046t-20.947,8.863q-12.822,0-20.353-9.038t-7.531-24.871q0-16.535,7.181-25.817t20.7-9.283m.14,50.793a6.426,6.426,0,0,0,5.99-3.713q2-3.713,2-12.681,0-8.9-1.961-12.47a6.329,6.329,0,0,0-5.885-3.573,6.45,6.45,0,0,0-5.885,3.468q-2.032,3.468-2.032,12.715,0,16.254,7.777,16.254" transform="translate(7688 893)"/><path d="M853.031,239v8.757h.349q7.146-10.858,17.446-10.859a13.533,13.533,0,0,1,10.683,4.484q3.957,4.483,3.958,12.12V303.45H865.081V263.727a8.9,8.9,0,0,0-1.542-5.395,4.744,4.744,0,0,0-3.994-2.1q-6.513,0-6.514,8.2V303.45H832.714V239Z" transform="translate(7688 893)"/><path d="M341.129,227.547c-3.232-.951-6.806-1.848-10.745-2.643a82.984,82.984,0,0,1,10.745,2.643" transform="translate(7688 893)" fill="#fdfdfd"/><path d="M344.635,222.995a84.491,84.491,0,0,0-8.327-3.618,63.028,63.028,0,0,1,8.327,3.618" transform="translate(7688 893)" fill="#fdfdfd"/><path d="M342.662,228.013c-.206-.056-.413-.109-.622-.156-.281-.1-.563-.195-.847-.287.5.145.99.295,1.469.443" transform="translate(7688 893)" fill="#fdfdfd"/><path d="M345.179,228.829c-.814-.273-1.65-.546-2.517-.817.853.229,1.689.51,2.517.817" transform="translate(7688 893)" fill="#fdfdfd"/><path d="M364.487,237.692c-.237-.22-.468-.446-.689-.686.229.223.46.455.689.686" transform="translate(7688 893)" fill="#fff"/><path d="M366.653,240.209c-.017-.02-.033-.042-.05-.061l.047.041,0,.02" transform="translate(7688 893)"/><path d="M368.9,240.884a47.9,47.9,0,0,1,7.008-11.714c8.336-10.577,19.032-17.878,31.547-22.645.883-.334,1.087-.056,1.137.739.134,2.222.262,4.443.449,6.66.064.736-.193,1.02-.881,1.232a83.339,83.339,0,0,0-23.791,11.371c-.817.574-1.622,1.16-2.414,1.77-1.31,1.026-2.542,2.052-3.688,3.058a87.593,87.593,0,0,0-9.367,9.529" transform="translate(7688 893)" fill="#fdfdfd"/><path d="M377.893,232.257c-.233.2-.466.385-.7.591.054-.053.117-.107.17-.161.18-.143.35-.287.529-.43" transform="translate(7688 893)"/><path d="M368.333,241.611c-.009,0-.009,0-.009.009v-.009Z" transform="translate(7688 893)"/><path d="M380.876,233.592v.1a.169.169,0,0,1-.054-.063c.018-.009.036-.027.054-.036" transform="translate(7688 893)"/><path d="M383.394,232.463a.514.514,0,0,1-.072-.063c.009,0,.018-.009.027-.009a.5.5,0,0,1,.045.072" transform="translate(7688 893)"/><path d="M384.953,231.692c-.018.036-.036.063-.063.108.009-.036.018-.063.027-.09a.068.068,0,0,0,.036-.018" transform="translate(7688 893)"/><path d="M385.732,231.424H385.6l.08-.027.054.027" transform="translate(7688 893)"/><path d="M387.273,230.77l-.054.027H387.2a.621.621,0,0,1,.072-.027" transform="translate(7688 893)"/><path d="M391.458,229.282c-.538.179-1.084.358-1.622.547a.421.421,0,0,1,.09-.045c.51-.171,1.021-.332,1.532-.5" transform="translate(7688 893)"/><path d="M417.516,243.153c.024.067-.007.045,0,0" transform="translate(7688 893)"/><path d="M368.126,328.3v.009a.009.009,0,0,1-.009-.009Z" transform="translate(7688 893)"/><path d="M400.082,313.883c.31-.07.63-.14.94-.2l-.12.03c-.27.05-.55.11-.82.17" transform="translate(7688 893)"/><path d="M402.5,313.373c.25-.05.49-.1.74-.14l-.45.09c-.09.01-.19.03-.29.05" transform="translate(7688 893)"/><path d="M404.943,312.923c-.57.1-1.13.2-1.7.31.35-.07.7-.13,1.05-.2.22-.03.44-.07.65-.11" transform="translate(7688 893)"/><path d="M415.472,311.483l-.5.03a1.391,1.391,0,0,1-.44.13,2.253,2.253,0,0,0,.44-.14c.17-.01.34-.01.5-.02" transform="translate(7688 893)"/><path d="M366.653,240.209c-.017-.02-.033-.042-.05-.061l.047.041,0,.02" transform="translate(7688 893)"/><path d="M377.942,303.283c.38-.2.76-.41,1.15-.61a3.715,3.715,0,0,1,.34-.19c-.5.25-1,.52-1.49.8m4.12-2.12-.36.18c.12-.05.24-.11.36-.17.85-.4,1.7-.79,2.56-1.16-.86.36-1.71.75-2.56,1.15" transform="translate(7688 893)"/><path d="M389.922,229.783a.9.9,0,0,0-.09.05c.54-.19,1.09-.37,1.63-.55-.519.17-1.03.33-1.54.5m-4.24,1.61c-.03.01-.049.02-.079.03h.129a.244.244,0,0,1-.05-.03m-.769.32a.531.531,0,0,1-.021.09c.021-.05.04-.07.06-.11-.009.01-.03.01-.039.02m-1.56.68h-.011a.028.028,0,0,0-.019.01.386.386,0,0,0,.069.06.446.446,0,0,1-.039-.07m-2.53,1.23a.3.3,0,0,0,.049.07v-.1c-.01.01-.03.03-.049.03" transform="translate(7688 893)"/><path d="M342.662,228.013c-.206-.056-.413-.109-.622-.156-.281-.1-.563-.195-.847-.287.5.145.99.295,1.469.443" transform="translate(7688 893)" fill="#f05941"/><path d="M345.179,228.829c-.814-.273-1.65-.546-2.517-.817.853.229,1.689.51,2.517.817" transform="translate(7688 893)" fill="#f05941"/><path d="M364.487,237.692c-.237-.22-.468-.446-.689-.686.229.223.46.455.689.686" transform="translate(7688 893)" fill="#fff"/><path d="M366.653,240.209c-.017-.02-.033-.042-.05-.061l.047.041,0,.02" transform="translate(7688 893)"/><path d="M387.273,230.77l-.054.027H387.2a.621.621,0,0,1,.072-.027" transform="translate(7688 893)"/><path d="M385.732,231.424H385.6l.08-.027.054.027" transform="translate(7688 893)"/><path d="M384.953,231.692c-.018.036-.036.063-.063.108.009-.036.018-.063.027-.09a.068.068,0,0,0,.036-.018" transform="translate(7688 893)"/><path d="M377.893,232.257c-.233.2-.466.385-.7.591.054-.053.117-.107.17-.161.18-.143.35-.287.529-.43" transform="translate(7688 893)"/><path d="M366.653,240.209c-.017-.02-.033-.042-.05-.061l.047.041,0,.02" transform="translate(7688 893)"/><path d="M408.165,215.156a83.364,83.364,0,0,0-23.791,11.371c-.816.574-1.622,1.16-2.414,1.77-1.271.962-2.509,1.977-3.688,3.059a87.519,87.519,0,0,0-9.367,9.528,47.87,47.87,0,0,1,7.009-11.714c8.335-10.577,19.032-17.878,31.546-22.645.883-.334,1.087-.056,1.137.739.134,2.222.262,4.444.449,6.66.064.736-.192,1.02-.881,1.232" transform="translate(7688 893)" fill="#8a8685"/><path d="M368.352,259.082c-.01-5.64,0-11.27,0-16.91a3.043,3.043,0,0,0,.01-.429c0-.041,0-.051-.01-.06l-.03-.061c-.06-.03-.21-.129-.41-.25-.01,0-.02-.01-.05-.04-.19-.11-.38-.24-.44-.28-.24-.19-.48-.39-.72-.58-.48-.39-.98-.76-1.47-1.13s-.99-.72-1.5-1.07-1.02-.68-1.53-1.01-1.03-.65-1.55-.97c-.52-.3-1.05-.6-1.57-.9-.2-.12-.4-.22-.6-.33-.86-.48-1.73-.93-2.59-1.36a.773.773,0,0,1-.1-.05c-.25-.12-.5-.25-.81-.39a4.959,4.959,0,0,0-.45-.22c-.48-.23-.96-.45-1.46-.67-.19-.08-.39-.17-.6-.26s-.42-.19-.63-.27a87.952,87.952,0,0,0-9.1-3.26c-2.93-.88-5.73-1.56-8.28-2.1-.16-.03-.32-.07-.48-.09a.09.09,0,0,0-.05-.01c-.94-.19-1.84-.36-2.69-.51-2.44-.42-4.9-.74-7.38-.939-.18-.011-.36-.021-.56-.031-.33-.06-.67-.15-1.01-.18-3.06-.3-6.11-.4-9.17-.6-1.07-.07-1.25.26-1.24,1.24q.015,29.97.01,59.97v24.66c0,.62-.07,1.09.86,1.11a121.593,121.593,0,0,1,16.83,1.44,91.648,91.648,0,0,1,24.15,7,76.541,76.541,0,0,1,13.98,8.46,4.576,4.576,0,0,1,.42.35.154.154,0,0,0,.03-.07.313.313,0,0,0,.05-.1,2.324,2.324,0,0,0,.03-.79,1.089,1.089,0,0,1-.01-.17v-.27c-.01-.12-.02-.24-.02-.35v-1.43c.01-.52.01-1.05.01-1.57,0-4.36-.01-8.71,0-13.07v-.46a.345.345,0,0,0-.007-.132.367.367,0,0,1,.01-.144c.013-.058.028-.115.036-.173a1.272,1.272,0,0,0,0-.175V260.362c.06.04.13.04.22-.06a2.147,2.147,0,0,1-.13-1.22m-31.178,44.643-.324-.129c-5.6-2.232-9.521-7.463-9.513-12.7.016-9.746.039-22.4.039-31.338l-.028-5.71c-.07-7.515,7.734-11.73,15.73-8.451l.446.184c5.483,2.26,9.275,7.444,9.275,12.592v37.156c0,7.423-7.693,11.565-15.625,8.4" transform="translate(7688 893)" fill="#844fa0"/><path d="M368.342,241.628c-.332-.421-1-1-1.335-1.416s-.69-.824-1.039-1.227-.7-.806-1.058-1.2-.725-.788-1.084-1.182-.743-.771-1.111-1.156-.752-.753-1.138-1.129-.77-.744-1.155-1.111-.789-.726-1.183-1.084-.8-.708-1.2-1.057-.816-.69-1.228-1.031-.824-.681-1.245-1.012-.842-.654-1.264-.977-.86-.645-1.29-.958-.869-.628-1.308-.932-.878-.6-1.317-.9-.9-.591-1.344-.878-.9-.574-1.362-.851-.923-.547-1.38-.816-.931-.528-1.4-.788-.932-.511-1.407-.762-.95-.492-1.424-.734-.959-.466-1.443-.7-.968-.457-1.46-.672-.977-.43-1.461-.645-.994-.412-1.487-.609-.994-.386-1.5-.574-1-.376-1.505-.546-1-.35-1.515-.52l-1.532-.484c-.51-.152-1.012-.295-1.532-.439a1.44,1.44,0,0,1-.779-.421,1.383,1.383,0,0,1-.171-.986q.257-3.386.511-6.773c.018-.206.054-.448.242-.546a.631.631,0,0,1,.475.026c.233.081.475.162.717.251.475.171.958.341,1.433.52s.941.367,1.416.555l1.407.592c.465.206.922.412,1.388.618s.914.43,1.371.654.914.448,1.362.681.9.475,1.344.717.887.492,1.335.743.878.511,1.308.771.869.537,1.29.806.86.547,1.281.833.842.565,1.255.861.833.582,1.245.887.815.6,1.218.913.8.619,1.192.941.789.636,1.183.959l1.156.994c.385.332.761.672,1.138,1.022s.743.69,1.11,1.039.726.708,1.085,1.066.716.717,1.066,1.084.7.744,1.039,1.111.681.753,1.021,1.138.663.771.986,1.156.654.779.968,1.183.627.788.94,1.191.61.816.914,1.228.591.815.878,1.236.574.833.86,1.263.556.843.825,1.273.537.86.8,1.3.52.869.77,1.317.493.887.735,1.326.475.9.708,1.353c.116.224.233.457.34.681a3.464,3.464,0,0,1,.341.824" transform="translate(7688 893)" fill="#c39ce2"/><path d="M368.763,260.067c-.09.081-.188.161-.278.242V260.3c.1-.081.188-.152.278-.233" transform="translate(7688 893)"/><path d="M368.557,309.658l-.009.009v-.009Z" transform="translate(7688 893)" fill="#844fa0"/><path d="M345.179,228.829c-.814-.273-1.65-.546-2.517-.817.853.229,1.689.51,2.517.817" transform="translate(7688 893)" fill="#fceae9"/><path d="M424.812,226.523c0-2.63,0-2.63-2.64-2.24l-1.19.03a102.571,102.571,0,0,0-14.63,1.47,2.013,2.013,0,0,0-1,.13.725.725,0,0,1-.09.05c-.37.05-.75.09-1.13.16-2.68.44-5.32,1.1-7.95,1.75-1.34.37-2.73.77-4.12,1.21-.2.07-.41.14-.6.2-.54.18-1.09.36-1.63.55h-.01c-.26.09-.52.18-.79.28-.14.05-.27.09-.4.15-.22.08-.45.16-.66.24s-.42.16-.63.24c-.02.01-.05.01-.07.03a.64.64,0,0,0-.07.02h-.02q-.555.225-1.14.45a.593.593,0,0,1-.08.04,2.327,2.327,0,0,0-.28.11.219.219,0,0,0,.05.03h-.13c-.22.09-.43.18-.65.27a1.093,1.093,0,0,0-.06.11.506.506,0,0,0,.02-.09c-.18.08-.36.15-.54.23-.14.05-.27.12-.41.17-.2.09-.41.19-.61.28a.577.577,0,0,0,.04.07.436.436,0,0,1-.07-.06q-.39.165-.78.36a.075.075,0,0,0-.05.01c-.01.01-.02.01-.03.02-.08.04-.16.07-.24.11a.037.037,0,0,1-.03.01c-.29.13-.58.28-.87.41-.15.07-.3.15-.46.22a.219.219,0,0,1-.05.03c-.17.08-.34.17-.51.26-.02,0-.04.01-.04.02-.15.07-.29.14-.43.21a60.912,60.912,0,0,0-9.4,5.88c-.2.15-.4.31-.59.47-.34.25-.65.51-.97.77a1.153,1.153,0,0,0-.17.14c-.13.1-.24.2-.36.31l.01.01v.53c0,5.64-.01,11.27,0,16.91a2.147,2.147,0,0,0,.13,1.22c.1-.08.19-.16.28-.24.07-.06.15-.12.22-.18a1.246,1.246,0,0,0,.28-.15c11.69-9.06,25.18-13.55,39.64-15.54,3.13-.44,6.27-.7,9.41-1.04l.57-.03c1.67-.05,3.33-.15,5-.14.81.01.96-.27.95-1.02-.03-5.15-.02-10.3-.02-15.44m-43.94,7.17a.3.3,0,0,1-.05-.07.085.085,0,0,0,.05-.03Z" transform="translate(7688 893)"/><path d="M424.832,275.7c.009.69-.117.95-.878.959-18.2.213-36.105,4.51-51.57,14.376q-2.073,1.323-4.07,2.762c-.3-5.858-.062-11.782-.053-17.646,0-1.8,2.422-2.768,3.751-3.616q2.883-1.839,5.9-3.459a93.941,93.941,0,0,1,23-8.668,96.275,96.275,0,0,1,12.153-2.036q2.994-.3,6-.422c1.319-.052,3.891-.6,5.1.033,1.248.653.637,4.979.644,6.544.009,3.728-.018,7.455.018,11.173" transform="translate(7688 893)"/><path d="M424.822,307.7c-.01-1.55-.01-3.1-.01-4.64v-9.28a1.226,1.226,0,0,0-1.52-1.55c-3.33.21-6.71.29-10.03.71-.78.1-1.57.2-2.34.32a1.666,1.666,0,0,0-.31-.02c-.48.06-.96.12-1.44.19-1.22.16-2.44.34-3.64.55-.23.04-.47.08-.69.11-1.17.19-2.33.42-3.49.66a86.171,86.171,0,0,0-17.07,5.31c-1.67.73-3.28,1.54-4.85,2.42a3.715,3.715,0,0,0-.34.19,122.75,122.75,0,0,0-10.67,6.97.575.575,0,0,0-.19.19.185.185,0,0,0-.02.07v.01a.42.42,0,0,1,.01.16v.46c-.01,4.36,0,8.71,0,13.07,0,.52,0,1.05-.01,1.57v.14c.01.48.02,1.09.02,1.64v.27a1.089,1.089,0,0,0,.01.17,2.324,2.324,0,0,1-.03.79.313.313,0,0,1-.05.1.154.154,0,0,1-.03.07c7.57-5.98,16.64-10.12,25.88-12.87,2.28-.68,4.57-1.26,6.89-1.77-.27.05-.55.11-.82.17.31-.07.63-.14.94-.2a2.619,2.619,0,0,1,.27-.06c.4-.09.81-.17,1.21-.25.25-.05.49-.1.74-.14.35-.07.7-.14,1.05-.2.22-.03.44-.07.65-.11a123.745,123.745,0,0,1,17.61-1.76,3.711,3.711,0,0,0,1.75-.35,1.253,1.253,0,0,0,.56-.69,8.177,8.177,0,0,0-.04-2.42m-42.76-6.53c-.12.06-.24.12-.36.17l.36-.18c.85-.4,1.7-.79,2.56-1.15-.86.37-1.71.76-2.56,1.16m32.91,10.34a1.391,1.391,0,0,1-.44.13,2.253,2.253,0,0,0,.44-.14c.17-.01.34-.01.5-.02l-.5.03" transform="translate(7688 893)"/><path d="M368.213,325.173c-.01-.33-.01-.58-.01-.66,0-.3.01-.6.02-.91,0,.52,0,1.05-.01,1.57" transform="translate(7688 893)"/><path d="M368.222,310.353c0-.09-.01-.19-.01-.28a.43.43,0,0,1,0-.16.42.42,0,0,1,.01.16Z" transform="translate(7688 893)"/><path d="M368.242,327.393a2.324,2.324,0,0,1-.03.79.313.313,0,0,1-.05.1,6.9,6.9,0,0,0,.07-1.06,1.089,1.089,0,0,0,.01.17" transform="translate(7688 893)"/><path d="M382.062,301.163c.85-.4,1.7-.79,2.56-1.15-.86.37-1.71.76-2.56,1.16-.12.06-.24.12-.36.17Z" transform="translate(7688 893)"/><path d="M400.082,313.883c.31-.07.63-.14.94-.2l-.12.03c-.27.05-.55.11-.82.17" transform="translate(7688 893)"/><path d="M402.5,313.373c.25-.05.49-.1.74-.14l-.45.09-1.5.3c.4-.09.81-.17,1.21-.25" transform="translate(7688 893)"/><path d="M415.472,311.483l-.5.03a1.391,1.391,0,0,1-.44.13,2.253,2.253,0,0,0,.44-.14c.17-.01.34-.01.5-.02" transform="translate(7688 893)"/><path d="M380.876,233.592v.1a.169.169,0,0,1-.054-.063c.018-.009.036-.027.054-.036" transform="translate(7688 893)"/><path d="M380.876,233.592v.1a.169.169,0,0,1-.054-.063c.018-.009.036-.027.054-.036" transform="translate(7688 893)"/><path d="M383.394,232.463a.514.514,0,0,1-.072-.063c.009,0,.018-.009.027-.009a.5.5,0,0,1,.045.072" transform="translate(7688 893)"/><path d="M384.953,231.692c-.018.036-.036.063-.063.108.009-.036.018-.063.027-.09a.068.068,0,0,0,.036-.018" transform="translate(7688 893)"/><path d="M385.732,231.424H385.6l.08-.027.054.027" transform="translate(7688 893)"/><path d="M383.394,232.463a.514.514,0,0,1-.072-.063c.009,0,.018-.009.027-.009a.5.5,0,0,1,.045.072" transform="translate(7688 893)"/><path d="M364.487,237.692c-.237-.22-.468-.446-.689-.686.229.223.46.455.689.686" transform="translate(7688 893)" fill="#fff"/><path d="M416.553,223.441a100.958,100.958,0,0,0-12.472,1.908c-1.272.269-2.544.547-3.808.86-.3.072-.609.153-.9.224l-.206.054c-.152.036-.3.081-.457.117-.107.036-.224.062-.331.089-.179.054-.367.1-.547.153a100.58,100.58,0,0,0-12.81,4.359,70.575,70.575,0,0,0-8.839,4.434,40.338,40.338,0,0,0-7.762,5.857c1.358-1.572,2.832-3.038,4.337-4.469,1.474-1.4,2.916-2.83,4.441-4.178.233-.207.465-.4.7-.592,12.1-10.035,23.026-13.179,24.352-13.538a112.212,112.212,0,0,1,14.667-3.951c.627-.134.708.072.717.591.054,2.2.063,4.391.233,6.577.081,1.1-.278,1.424-1.308,1.5" transform="translate(7688 893)"/><path d="M347.493,223.387a81.243,81.243,0,0,0-11.674-5.7,61.082,61.082,0,0,1,11.674,5.7" transform="translate(7688 893)" fill="#d6a7fc"/><path d="M368.092,241.575c-.114-.125-.307-.326-.58-.591-.228-.223-.513-.488-.861-.794-.014-.014-.031-.028-.048-.042-.532-.469-1.2-1.023-2.032-1.645l0,0c-3.457-2.6-9.6-6.348-19.388-9.671-.828-.306-1.665-.588-2.518-.816-.479-.148-.97-.3-1.469-.444-.019-.008-.042-.014-.064-.022a82.929,82.929,0,0,0-10.744-2.643c-.033-.008-.064-.014-.1-.019q-1.057-.2-2.115-.382c-2.707-.471-5.423-.878-8.166-1.079-.911-.067-1.2-.407-1.14-1.349.145-2.225.17-4.455.226-6.682.014-.488.047-.764.7-.633a109.176,109.176,0,0,1,16.47,4.6.36.36,0,0,0,.047.017,84.5,84.5,0,0,1,8.327,3.619,75.722,75.722,0,0,1,6.654,3.76,96.435,96.435,0,0,1,7.825,5.732l3.566,3.278c.159.159.318.315.474.474a8.2,8.2,0,0,0,.638.761l.006.006c.22.24.451.465.688.686l.02.019c.256.259.51.522.769.786.438.458.879.926,1.316,1.4.053.053.1.108.154.164.306.335.61.675.917,1.02.145.162.287.324.429.491" transform="translate(7688 893)" fill="#9f6dbf"/><path d="M243.15,217.749q-8.385-7.9-22.23-7.9h-26.2v93.29h21.17v-35.5h3.64q15.015,0,23.51-7.72t8.49-21.35Q251.53,225.639,243.15,217.749Zm-16.74,29.28q-3.39,2.58-10.52,2.72v-22.01q7.335.135,10.62,2.62t3.29,8.49C229.8,242.579,228.67,245.3,226.41,247.029Z" transform="translate(7688 893)" fill="#844fa0"/></g></svg>