<svg xmlns="http://www.w3.org/2000/svg" width="46.64" height="46.642" viewBox="0 0 46.64 46.642"><g transform="translate(0)"><path d="M767.193-140.436c-.627.615-1.2,1.213-1.808,1.765a2.858,2.858,0,0,0-1.144,2.79,17.833,17.833,0,0,0-15.616.8,17.271,17.271,0,0,0-7.568,8.018,17.8,17.8,0,0,0,4.061,20.808,17.829,17.829,0,0,0,20.906,2.375,17.491,17.491,0,0,0,8.1-9.806,17.769,17.769,0,0,0-.44-12.695c.188-.011.327-.03.465-.026a2.461,2.461,0,0,0,1.911-.792c.712-.728,1.437-1.443,2.164-2.171a23.063,23.063,0,0,1-5.482,27.3,23.2,23.2,0,0,1-31.374-.256,23.294,23.294,0,0,1-2.749-31.162A23.25,23.25,0,0,1,767.193-140.436Z" transform="translate(-733.884 142.728)" fill="#9866b7"/><path d="M841.234-52.013a12.307,12.307,0,0,1-3.454,15.25,12.42,12.42,0,0,1-16.5-1.061,12.371,12.371,0,0,1-.756-16.618,12.259,12.259,0,0,1,15.054-3.219c-.076.087-.144.176-.222.254-1.235,1.237-2.465,2.479-3.716,3.7a.867.867,0,0,1-.624.225,7,7,0,0,0-7.851,6.212,7,7,0,0,0,5.983,7.635,6.942,6.942,0,0,0,7.932-7.228,1.958,1.958,0,0,1,.7-1.738c1.062-1,2.07-2.05,3.1-3.078C840.993-51.792,841.112-51.9,841.234-52.013Z" transform="translate(-806.806 69.865)" fill="#2f2f2f"/><path d="M912.876-138.439a2.994,2.994,0,0,1,2.49-1.333,2.344,2.344,0,0,1,1.556.706,2.383,2.383,0,0,1,.675,2.089,3.414,3.414,0,0,1-1.3,1.952h3.065a1.373,1.373,0,0,1,.528.015c.247.113.563.257.655.472s-.035.536-.108.8c-.03.11-.167.191-.259.283-1.659,1.66-3.323,3.314-4.974,4.982a1.375,1.375,0,0,1-1.071.449c-1.424-.02-2.848.008-4.272-.017a1.164,1.164,0,0,0-.93.379q-4.845,4.87-9.709,9.722a2.474,2.474,0,0,1-2.407.813,2.408,2.408,0,0,1-1.377-3.858,5.682,5.682,0,0,1,.464-.5q4.822-4.824,9.651-9.642a1.015,1.015,0,0,0,.337-.8c-.019-1.472-.03-2.946.01-4.417a1.511,1.511,0,0,1,.38-.933c1.682-1.727,3.4-3.421,5.1-5.129.277-.278.567-.5.983-.34a.863.863,0,0,1,.516.946C912.869-140.729,912.876-139.663,912.876-138.439Z" transform="translate(-874.013 142.796)" fill="#9866b7"/></g></svg>