<svg xmlns="http://www.w3.org/2000/svg" width="46.534" height="38.765" viewBox="0 0 46.534 38.765"><g transform="translate(0)"><path d="M715.576,414.426v2c-.04.2-.084.408-.119.614a10.66,10.66,0,0,1-21.156-.7c-.043-.614-.059-1.23-.089-1.864h-3.831c0,.309,0,.592,0,.876a10.658,10.658,0,1,1-20.714-3.462c1.362-3.8,2.826-7.561,4.247-11.339,1.133-3.014,2.228-6.043,3.417-9.034a6.78,6.78,0,0,1,13.047,2.682c.015,2.68,0,5.361,0,8.041v.541h3.862V402.2c0-2.62,0-5.24,0-7.859a8.106,8.106,0,0,1,.1-1.357,6.775,6.775,0,0,1,12.966-1.433c.532,1.3,1.036,2.615,1.5,3.943C711,401.83,713.9,407.907,715.576,414.426Zm-3.887,1.019a6.78,6.78,0,1,0-6.807,6.772A6.8,6.8,0,0,0,711.689,415.445Zm-25.193-.008a6.78,6.78,0,1,0-6.808,6.78A6.808,6.808,0,0,0,686.5,415.437Z" transform="translate(-669.042 -387.317)" fill="#9866b7"/></g></svg>