<svg xmlns="http://www.w3.org/2000/svg" width="58.919" height="42.323" viewBox="0 0 58.919 42.323"><g transform="translate(0 0)"><path d="M177.942-216.642a11.27,11.27,0,0,1-1.089,1.19.544.544,0,0,1-.871-.224,1.663,1.663,0,0,0-1.409-.846q-8.38-1.072-16.758-2.159-4.5-.581-9.006-1.157a1.863,1.863,0,0,0-2.152,1.6,1.868,1.868,0,0,0,1.715,2.059l19.376,2.506q1.937.25,3.876.49c.645.081.793.233.794.879q0,9.951,0,19.9a1.849,1.849,0,0,1-1.846,1.992,1.879,1.879,0,0,1-1.831-2.019q-.006-9.376,0-18.751v-.7c-.248.1-.44.171-.628.253-6.129,2.657-12.263,5.3-18.381,7.985a2.906,2.906,0,0,1-2.523-.024q-13.369-5.83-26.761-11.61c-1.324-.574-1.822-1.833-1.075-2.848a2.373,2.373,0,0,1,.938-.715q13.637-5.935,27.283-11.847a2.387,2.387,0,0,1,2.039.1q10.558,4.59,21.126,9.158c1.826.791,3.644,1.6,5.483,2.367a2.833,2.833,0,0,1,1.7,1.5Z" transform="translate(-119.023 230.875)" fill="#fff"/><path d="M227.72-69.883c0,1.245.1,2.5-.021,3.733a8.718,8.718,0,0,1-3.773,6.067,19.726,19.726,0,0,1-8.366,3.6,29.551,29.551,0,0,1-15.589-.879,15.372,15.372,0,0,1-7.113-4.566A7.829,7.829,0,0,1,190.94-67.2c.029-1.955.006-3.91.006-5.865,0-.994.282-1.186,1.175-.8,4.881,2.114,9.77,4.209,14.638,6.353a6.127,6.127,0,0,0,5.211,0c4.851-2.135,9.722-4.225,14.585-6.332.933-.4,1.206-.221,1.207.807q0,1.581,0,3.162Z" transform="translate(-179.886 98.157)" fill="#fff"/></g></svg>