<svg xmlns="http://www.w3.org/2000/svg" width="433.321" height="472.179" viewBox="0 0 433.321 472.179"><g transform="translate(-56.233 -34.047)"><g transform="translate(56.233 57.772)"><g transform="translate(0 240.889)"><path d="M189.652,454.452c25.588-22.109,28.155-58.514,23.748-90.545-.736-5.346-.729-11.064-3.768-15.509s-9.325-7.046-13.9-4.29c-3.792,2.287-5.05,7.1-6.884,11.164a31.544,31.544,0,0,1-11.344,13.317c-3.233,2.126-7.349,3.646-10.914,2.134-4.891-2.077-6.1-8.413-6.614-13.754q-1.444-14.93-2.892-29.857c-.517-5.34-1.063-10.791-3.245-15.684s-6.334-9.22-11.557-10.119-11.2,2.677-11.732,8.011c-.223,2.22.453,4.43.533,6.661s-.7,4.788-2.739,5.622c-2.066.846-4.357-.447-6.113-1.844-6.065-4.82-10.517-11.376-14.723-17.918s-8.324-13.259-13.928-18.621-13-9.3-20.684-8.95-15.344,5.914-16.5,13.615c-1.161,7.724,4.017,14.9,9.42,20.5a119.747,119.747,0,0,0,27.241,21.083c1.8,1.02,3.761,2.122,4.608,4.032,1.527,3.438-1.481,7.319-4.873,8.852-3.84,1.735-8.2,1.767-12.31,2.686s-8.429,3.22-9.6,7.315c-1.623,5.68,3.529,10.927,8.4,14.208a102.589,102.589,0,0,0,32,14.318c4.074,1.031,8.335,1.865,11.785,4.3s5.856,7.031,4.332,10.987-6.311,5.67-10.5,5.331-8.1-2.191-12.172-3.265c-7.619-2.012-17.037-.529-21.081,6.294-2.657,4.485-2.33,10.315-.257,15.119s5.681,8.757,9.451,12.355c13.177,12.576,29.369,22.127,46.991,26.271s33.547,4.114,49.816-3.814" transform="translate(-56.233 -274.247)" fill="#f5f5f5"/><g transform="translate(7.119 5.522)"><path d="M191.876,477.73a235.651,235.651,0,0,0-13.256-43.082c-6.4-15.734-14.856-32.4-24.293-49.524l-7.034-12.653c-2.318-4.148-4.617-8.262-7.114-12.147a240.125,240.125,0,0,0-15.628-21.5c-5.3-6.6-10.574-12.666-15.543-18.3-4.985-5.629-9.73-10.788-14.254-15.306A190.359,190.359,0,0,0,71.834,285.5c-2.877-2.109-5.163-3.67-6.728-4.706l-1.785-1.17a4.051,4.051,0,0,0-.627-.368,3.818,3.818,0,0,0,.57.454c.431.311,1,.723,1.731,1.249,1.526,1.091,3.774,2.7,6.614,4.853a201.58,201.58,0,0,1,22.652,19.9c4.481,4.537,9.184,9.71,14.134,15.356s10.181,11.736,15.452,18.332a242.84,242.84,0,0,1,15.519,21.449c2.478,3.867,4.752,7.947,7.073,12.107s4.654,8.379,7.027,12.649C162.9,402.72,171.349,419.331,177.782,435a239.726,239.726,0,0,1,13.411,42.87" transform="translate(-62.695 -279.259)" fill="#e0e0e0"/></g><g transform="translate(84.201 27.062)"><path d="M132.782,358.327a10.894,10.894,0,0,0,.286-2.331c.128-1.5.241-3.684.343-6.381.206-5.39.237-12.846.24-21.065s.139-15.656.427-21.029c.137-2.687.268-4.862.379-6.362a10.8,10.8,0,0,0,.059-2.348,10.614,10.614,0,0,0-.441,2.306c-.228,1.492-.467,3.664-.692,6.354-.469,5.379-.717,12.842-.719,21.073.018,8.11.035,15.448.047,21.055-.01,2.533-.02,4.667-.029,6.38A10.69,10.69,0,0,0,132.782,358.327Z" transform="translate(-132.665 -298.812)" fill="#e0e0e0"/></g><g transform="translate(14.385 80.095)"><path d="M69.29,347.689a14.815,14.815,0,0,0,2.771.045c1.777-.024,4.347-.075,7.524-.034,6.354.03,15.13.379,24.795,1.188,9.668.826,18.384,1.946,24.665,2.938,3.145.474,5.68.925,7.434,1.227a14.819,14.819,0,0,0,2.745.381,14.726,14.726,0,0,0-2.67-.762c-1.734-.419-4.257-.977-7.4-1.543-6.268-1.173-15-2.407-24.7-3.237a243.193,243.193,0,0,0-24.88-.9c-3.187.05-5.763.206-7.54.353A14.752,14.752,0,0,0,69.29,347.689Z" transform="translate(-69.29 -346.952)" fill="#e0e0e0"/></g><g transform="translate(122.062 68.543)"><path d="M167.041,427.658a3.55,3.55,0,0,0,.383-.885l.918-2.6c.787-2.264,1.839-5.57,3.086-9.671,2.5-8.2,5.6-19.639,8.841-32.306s6.233-24.123,8.558-32.364c1.142-4.008,2.083-7.3,2.782-9.755.3-1.063.542-1.939.743-2.659a3.525,3.525,0,0,0,.194-.948,3.678,3.678,0,0,0-.384.888c-.248.7-.55,1.561-.917,2.6-.787,2.264-1.839,5.57-3.086,9.671-2.5,8.2-5.6,19.639-8.842,32.311s-6.233,24.117-8.556,32.361c-1.145,4.006-2.083,7.3-2.782,9.752-.3,1.063-.542,1.941-.743,2.659A3.573,3.573,0,0,0,167.041,427.658Z" transform="translate(-167.033 -336.466)" fill="#e0e0e0"/></g><g transform="translate(27.866 139.743)"><path d="M81.528,401.11a3.7,3.7,0,0,0,.943.28l2.74.615c2.527.541,5.939,1.27,10.089,2.156,8.52,1.823,20.257,4.476,33.222,7.425s24.743,5.5,33.3,7.145c4.279.825,7.748,1.457,10.154,1.845l2.774.431a3.609,3.609,0,0,0,.979.082,3.769,3.769,0,0,0-.944-.281l-2.739-.612-10.088-2.157c-8.52-1.822-20.258-4.476-33.228-7.425s-24.737-5.5-33.3-7.144c-4.28-.825-7.748-1.457-10.156-1.845-1.112-.173-2.027-.316-2.773-.431A3.59,3.59,0,0,0,81.528,401.11Z" transform="translate(-81.528 -401.096)" fill="#e0e0e0"/></g></g><g transform="translate(89.125 146.092)"><g transform="translate(0)"><path d="M155.241,219.732a2.219,2.219,0,0,1-2-1.257l-4.777-9.945a2.214,2.214,0,0,1,1.615-3.141,6.882,6.882,0,0,0,4.51-3.086,6.2,6.2,0,0,0,.95-4.822,6.346,6.346,0,0,0-3.1-3.858,7.076,7.076,0,0,0-5.41-.747,8.3,8.3,0,0,0-5.391,8.818,2.215,2.215,0,1,1-4.388.616c-.827-5.894,2.99-12.031,8.512-13.679a11.431,11.431,0,0,1,8.874,1.146,10.783,10.783,0,0,1,5.206,6.639,10.636,10.636,0,0,1-1.538,8.307,11.586,11.586,0,0,1-4.749,4.17l3.684,7.664a2.218,2.218,0,0,1-2,3.175Z" transform="translate(-137.135 -188.196)" fill="#e0e0e0"/></g><g transform="translate(19.438 33.409)"><path d="M158.205,219.509a1.812,1.812,0,1,1-2.439-.787A1.813,1.813,0,0,1,158.205,219.509Z" transform="translate(-154.779 -218.523)" fill="#e0e0e0"/></g></g><g transform="translate(34.041 122.288)"><path d="M99.776,188.611a1.549,1.549,0,0,1-1.4-.877l-3.336-6.945a1.546,1.546,0,0,1,1.128-2.194,4.8,4.8,0,0,0,3.15-2.154,4.329,4.329,0,0,0,.663-3.368,4.432,4.432,0,0,0-2.167-2.695,4.941,4.941,0,0,0-3.779-.521,5.8,5.8,0,0,0-3.764,6.157,1.547,1.547,0,1,1-3.064.431,8.914,8.914,0,0,1,5.944-9.553,7.976,7.976,0,0,1,6.2.8,7.526,7.526,0,0,1,3.637,4.636,7.42,7.42,0,0,1-1.074,5.8,8.088,8.088,0,0,1-3.316,2.912l2.572,5.353a1.547,1.547,0,0,1-1.395,2.216Z" transform="translate(-87.132 -166.588)" fill="#f5f5f5"/><g transform="translate(13.574 23.332)"><path d="M101.847,188.456a1.266,1.266,0,1,1-1.7-.549A1.267,1.267,0,0,1,101.847,188.456Z" transform="translate(-99.454 -187.767)" fill="#f5f5f5"/></g></g><g transform="translate(302.816 143.704)"><g transform="translate(0 3.468)"><path d="M349.861,190.061a1.55,1.55,0,0,1-.2,1.638l-4.851,5.985a1.546,1.546,0,0,1-2.464-.08,4.8,4.8,0,0,0-3.3-1.926,4.326,4.326,0,0,0-3.328.842,4.433,4.433,0,0,0-1.508,3.111,4.941,4.941,0,0,0,1.145,3.638,5.8,5.8,0,0,0,7.177.769,1.547,1.547,0,0,1,1.7,2.586,8.913,8.913,0,0,1-11.177-1.287,7.984,7.984,0,0,1-1.928-5.943,7.535,7.535,0,0,1,2.635-5.269,7.423,7.423,0,0,1,5.7-1.511,8.094,8.094,0,0,1,4.051,1.753l3.738-4.615a1.548,1.548,0,0,1,2.6.311Z" transform="translate(-331.109 -189.176)" fill="#f5f5f5"/></g><g transform="translate(18.874)"><path d="M348.5,186.523a1.266,1.266,0,1,1,.231,1.775A1.265,1.265,0,0,1,348.5,186.523Z" transform="translate(-348.242 -186.029)" fill="#f5f5f5"/></g></g><g transform="translate(286.665)"><g transform="translate(0 3.468)"><path d="M335.2,59.616a1.55,1.55,0,0,1-.2,1.637l-4.851,5.986a1.546,1.546,0,0,1-2.465-.082,4.807,4.807,0,0,0-3.295-1.925,4.32,4.32,0,0,0-3.327.842,4.424,4.424,0,0,0-1.508,3.11,4.939,4.939,0,0,0,1.145,3.639,5.8,5.8,0,0,0,7.176.769,1.547,1.547,0,1,1,1.7,2.586A8.916,8.916,0,0,1,318.4,74.891a7.983,7.983,0,0,1-1.927-5.943,7.53,7.53,0,0,1,2.634-5.27,7.424,7.424,0,0,1,5.7-1.51,8.088,8.088,0,0,1,4.051,1.752L332.6,59.3a1.547,1.547,0,0,1,2.176-.227A1.531,1.531,0,0,1,335.2,59.616Z" transform="translate(-316.448 -58.731)" fill="#f5f5f5"/></g><g transform="translate(18.873)"><path d="M333.842,56.078a1.266,1.266,0,1,1,.232,1.775A1.266,1.266,0,0,1,333.842,56.078Z" transform="translate(-333.58 -55.583)" fill="#f5f5f5"/></g></g><g transform="translate(178.614 21.452)"><g transform="translate(0.069 4.99)"><path d="M222.86,79.586a2.015,2.015,0,0,1,1.814,1.14l4.335,9.025a2.01,2.01,0,0,1-1.466,2.851,6.244,6.244,0,0,0-4.093,2.8,5.624,5.624,0,0,0-.861,4.377,5.752,5.752,0,0,0,2.816,3.5,6.42,6.42,0,0,0,4.909.679,7.534,7.534,0,0,0,4.892-8,2.011,2.011,0,1,1,3.982-.559,11.586,11.586,0,0,1-7.726,12.414,10.373,10.373,0,0,1-8.052-1.04,9.785,9.785,0,0,1-4.725-6.025,9.646,9.646,0,0,1,1.395-7.539,10.523,10.523,0,0,1,4.311-3.784l-3.343-6.956a2.011,2.011,0,0,1,1.812-2.881Z" transform="translate(-218.429 -79.586)" fill="#e0e0e0"/></g><path d="M218.548,77.451a1.645,1.645,0,1,1,2.214.714A1.645,1.645,0,0,1,218.548,77.451Z" transform="translate(-218.366 -75.056)" fill="#e0e0e0"/></g><g transform="translate(328.063 199.697)"><g transform="translate(0.069 4.99)"><path d="M358.52,241.385a2.011,2.011,0,0,1,1.813,1.141l4.335,9.025A2.009,2.009,0,0,1,363.2,254.4a6.24,6.24,0,0,0-4.093,2.8,5.622,5.622,0,0,0-.862,4.376,5.755,5.755,0,0,0,2.815,3.5,6.417,6.417,0,0,0,4.91.677,7.532,7.532,0,0,0,4.892-8,2.01,2.01,0,1,1,3.981-.559,11.583,11.583,0,0,1-7.725,12.413,10.372,10.372,0,0,1-8.052-1.04,9.786,9.786,0,0,1-4.725-6.024,9.649,9.649,0,0,1,1.395-7.54,10.521,10.521,0,0,1,4.311-3.783l-3.343-6.956a2.013,2.013,0,0,1,1.812-2.882Z" transform="translate(-354.089 -241.385)" fill="#e0e0e0"/></g><path d="M354.208,239.251a1.645,1.645,0,1,1,2.213.714A1.645,1.645,0,0,1,354.208,239.251Z" transform="translate(-354.026 -236.855)" fill="#e0e0e0"/></g><g transform="translate(246.105 262.021)"><path d="M396.159,294.413s-8.469-6.512-20.822,13.977S358,340.845,358,340.845s-3.183,4.25-6.035,1.12-6.453-11.689-11.76-10.574c-5.5,1.158-7.71,7.052-7.314,15.971s.551,28.494.557,30.263c.008,1.738-1.164,4.214-3.449,2.393s-15.005-18.2-22.416-11.7-2.22,31.168-1.7,33.875-.085,3.805-1.395,4.372-5.066-5.341-8.875-9.85-9.017-9.071-12.977-4.962-6.423,22.164,8.736,52.857l7.955,13.763,15.965.252c34.2-1.542,48.82-12.413,50.507-17.866s-4.822-7.811-10.61-8.97-12.776-1.6-12.911-3.017.536-2.477,3.156-3.331,26.728-8.219,28.844-17.847-18.367-12.864-21.065-13.985-1.1-3.342.43-4.175c1.553-.848,18.77-10.164,26.773-14.122s12.1-8.735,10.456-14.113c-1.585-5.188-10.819-4.209-14.937-5.2S374,350.182,374,350.182s8.077-10.14,20.055-30.848,1.92-25.041,1.92-25.041" transform="translate(-279.631 -293.429)" fill="#ebebeb"/><g transform="translate(6.574 19.313)"><path d="M384.458,310.96s-.07.155-.23.446l-.716,1.286-2.795,4.919c-2.431,4.27-6,10.422-10.426,18.007-8.857,15.174-21.268,36.033-35.049,59.025S309,438.473,300.065,453.6c-4.452,7.555-8.056,13.676-10.56,17.926l-2.875,4.871-.758,1.26c-.173.283-.273.421-.273.421s.071-.154.229-.446l.716-1.285c.649-1.144,1.59-2.8,2.795-4.919,2.431-4.269,5.994-10.42,10.426-18.005,8.857-15.175,21.269-36.036,35.054-59.035s26.239-43.821,35.172-58.949l10.56-17.926c1.24-2.1,2.208-3.74,2.875-4.873q.487-.811.759-1.261C384.358,311.1,384.458,310.96,384.458,310.96Z" transform="translate(-285.598 -310.96)" fill="#e0e0e0"/></g><g transform="translate(65.123 50.139)"><path d="M338.755,338.942a5.14,5.14,0,0,1,.324,1.1c.18.717.409,1.762.68,3.054.538,2.587,1.188,6.178,1.835,10.153.624,3.923,1.186,7.47,1.618,10.184.2,1.222.372,2.252.509,3.081a5.2,5.2,0,0,1,.143,1.14,5.121,5.121,0,0,1-.332-1.1c-.177-.718-.407-1.763-.664-3.058-.512-2.592-1.116-6.19-1.763-10.166-.651-3.915-1.239-7.457-1.69-10.167-.209-1.221-.384-2.252-.525-3.08A5.171,5.171,0,0,1,338.755,338.942Z" transform="translate(-338.745 -338.942)" fill="#e0e0e0"/></g><g transform="translate(71.679 72.263)"><path d="M344.7,366c-.029-.133,7.316-1.8,16.4-3.726s16.477-3.375,16.5-3.242-7.314,1.8-16.4,3.726S344.724,366.135,344.7,366Z" transform="translate(-344.696 -359.025)" fill="#e0e0e0"/></g><g transform="translate(48.92 113.581)"><path d="M324.037,396.55a5.3,5.3,0,0,1,1.173.03c.853.063,1.918.143,3.182.238,2.686.2,6.4.454,10.5.587s7.825.141,10.517.119l3.189-.022a5.343,5.343,0,0,1,1.173.047,5.353,5.353,0,0,1-1.166.144c-.752.059-1.841.127-3.189.18-2.695.111-6.425.167-10.542.024s-7.832-.446-10.514-.733c-1.341-.149-2.424-.281-3.169-.394A5.446,5.446,0,0,1,324.037,396.55Z" transform="translate(-324.037 -396.531)" fill="#e0e0e0"/></g><g transform="translate(37.202 88.58)"><path d="M313.4,373.837a4.672,4.672,0,0,1,.557.932q.552,1.069,1.355,2.62c1.125,2.222,2.647,5.306,4.3,8.725s3.129,6.529,4.173,8.79l1.214,2.688a4.6,4.6,0,0,1,.384,1.015,4.535,4.535,0,0,1-.557-.931l-1.355-2.62c-1.125-2.222-2.648-5.307-4.3-8.727s-3.128-6.527-4.172-8.788c-.479-1.059-.885-1.958-1.214-2.688A4.6,4.6,0,0,1,313.4,373.837Z" transform="translate(-313.4 -373.837)" fill="#e0e0e0"/></g><g transform="translate(13.258 116.362)"><path d="M291.668,399.055a7.535,7.535,0,0,1,.7,1.2c.455.874,1.043,2,1.748,3.351,1.457,2.839,3.44,6.776,5.6,11.139s4.1,8.326,5.474,11.2c.649,1.38,1.189,2.53,1.608,3.421a7.511,7.511,0,0,1,.529,1.285,7.419,7.419,0,0,1-.7-1.2c-.455-.874-1.043-2-1.748-3.351-1.457-2.839-3.44-6.777-5.6-11.141s-4.1-8.324-5.473-11.2c-.649-1.38-1.189-2.529-1.608-3.421A7.533,7.533,0,0,1,291.668,399.055Z" transform="translate(-291.665 -399.055)" fill="#e0e0e0"/></g><g transform="translate(28.763 147.075)"><path d="M305.74,426.959a8.484,8.484,0,0,1,1.488,0l4.044.156c3.414.128,8.131.288,13.342.316s9.932-.055,13.348-.145l4.045-.1a8.6,8.6,0,0,1,1.487.019,8.608,8.608,0,0,1-1.477.174c-.953.079-2.333.173-4.042.26-3.415.18-8.142.326-13.364.29s-9.943-.244-13.356-.462c-1.706-.114-3.087-.219-4.039-.313A8.73,8.73,0,0,1,305.74,426.959Z" transform="translate(-305.74 -426.934)" fill="#e0e0e0"/></g></g></g><g transform="translate(71.939 502.306)"><g transform="translate(0)"><path d="M469.461,459.39c0,.157-89.32.286-199.476.286-110.194,0-199.5-.129-199.5-.286s89.3-.288,199.5-.288C380.141,459.1,469.461,459.231,469.461,459.39Z" transform="translate(-70.49 -459.102)" fill="#263238"/></g></g><g transform="translate(130.768 168.941)"><g transform="translate(0 0)"><g transform="translate(2.417)"><g transform="translate(0 119.225)"><path d="M367.116,411.05l-16.779-80.026s-9.834-38.569-43.7-51.859l-2.337-.718c-.05-.019-3.212-.986-3.262-1-1.361-.531-6.921-2.295-8.381-2.749-45.655-15.826-57.768-11.709-105.344,4.527,0,0-21.136,5.686-31.379,33.256s-29.853,70.691-29.853,70.691l47.464,16.762,9.1-13.515v92.458H313.192l-3.6-42.56-.629-52.425" transform="translate(-126.085 -264.719)" fill="#9866b7"/><g transform="translate(72.717 19.413)"><path d="M227.534,282.345a7.267,7.267,0,0,1-1.088,1.011,14.441,14.441,0,0,1-1.369,1.081c-.555.393-1.167.875-1.908,1.307a35.166,35.166,0,0,1-5.344,2.776,36.876,36.876,0,0,1-14.411,2.817,35.272,35.272,0,0,1-6-.558c-.849-.121-1.6-.337-2.259-.492a14.532,14.532,0,0,1-1.676-.485,7.382,7.382,0,0,1-1.389-.527c.035-.116,2.036.587,5.39,1.1a38.574,38.574,0,0,0,5.93.43,38.672,38.672,0,0,0,14.211-2.778,38.5,38.5,0,0,0,5.332-2.632C225.869,283.656,227.459,282.252,227.534,282.345Z" transform="translate(-192.093 -282.341)" fill="#fafafa"/></g><g transform="translate(56.562 155.627)" opacity="0.3"><path d="M177.428,407.247l10.7,12.359h10.517V433.06l108.79,25.158-.887-10.479L204.2,412.595H187.051l-8.271-6.607Z" transform="translate(-177.428 -405.988)"/></g><g transform="translate(23.804 120.191)"><path d="M212.487,399.511l-9.074-1.68s-21.509-23.525-25.542-23.861c-3.319-.278-21.616-.1-27.989-.026a2.214,2.214,0,0,0-2.189,2.218h0a2.217,2.217,0,0,0,2.132,2.215l21.618.838.1,1.741-21.647.288c-2.2.169-3.618,3.66,3.438,4.29l18.107.643V387.3l-18.36,2.567c-.928.13-3.368.6-3.391,1.54,0,0-1.11,2.3,4.12,2.955,1.8.225,17.733-.305,17.733-.305l-.614,1.433-16.5,3.559a2.346,2.346,0,0,0-1.829,2.619h0a2.347,2.347,0,0,0,2.54,2.009l17.631-1.636,17.3,13.82h23.136Z" transform="translate(-147.693 -373.821)" fill="#ffbe9d"/></g><g transform="translate(182.876 119.17)"><path d="M350.243,400.055l-52.8,10.384-5.356-37.545" transform="translate(-292.087 -372.894)" fill="#9866b7"/></g><g transform="translate(83.336 144.588)"><g transform="translate(0 0.015)"><path d="M299.6,399.142l-97.865-3.162.017,33.826L266.677,442.7l45.591,7.279c28.335,0,51-26.007,46.612-54l-.12.032Z" transform="translate(-201.732 -395.98)" fill="#9866b7"/></g><path d="M326.538,398.521a7.75,7.75,0,0,1-1.268.089l-3.638.1-13.381.242c-11.3.164-26.911.356-44.156.192s-32.863-.793-44.142-1.557c-5.639-.377-10.2-.74-13.344-1.058l-3.62-.371a7.81,7.81,0,0,1-1.258-.181,7.867,7.867,0,0,1,1.271.026l3.631.227c3.151.225,7.714.506,13.353.813,11.278.625,26.876,1.161,44.116,1.331s32.843.06,44.143.033l13.383,0,3.64.041A7.87,7.87,0,0,1,326.538,398.521Z" transform="translate(-201.732 -395.967)" fill="#263238"/></g><g transform="translate(83.111 144.908)"><path d="M201.757,396.257a3.717,3.717,0,0,1,.037.6c.009.43.021,1.011.036,1.753.017,1.574.039,3.82.068,6.667.026,5.787.065,14.008.11,23.906l-.189-.235c11.052,2.371,24.3,5.3,38.56,8.3,19.554,4.135,37.35,7.4,50.29,9.4,6.47.993,11.718,1.722,15.348,2.2l4.18.55,1.086.158a1.865,1.865,0,0,1,.368.074,1.813,1.813,0,0,1-.375-.015l-1.093-.1-4.194-.444c-3.64-.412-8.9-1.08-15.381-2.023-12.964-1.9-30.787-5.1-50.347-9.241-14.265-2.994-27.506-5.961-38.543-8.388l-.191-.042v-.194c.039-9.9.071-18.119.093-23.906.028-2.847.048-5.093.064-6.667.014-.741.026-1.323.035-1.753A3.673,3.673,0,0,1,201.757,396.257Z" transform="translate(-201.528 -396.257)" fill="#263238"/></g><g transform="translate(65.7 13.3)"><path d="M195.007,315.888a9.09,9.09,0,0,1,.071-1.65c.067-1.059.173-2.59.215-4.484a77.083,77.083,0,0,0-1.026-14.73c-1-5.669-2.272-10.836-4.239-14.047a11.238,11.238,0,0,0-2.924-3.294c-.855-.608-1.4-.833-1.379-.887.008-.019.148.028.409.133a6.971,6.971,0,0,1,1.1.57,10.638,10.638,0,0,1,3.141,3.263,23.8,23.8,0,0,1,2.642,6.173,69.5,69.5,0,0,1,1.82,7.995,68.459,68.459,0,0,1,.865,14.84c-.094,1.9-.262,3.435-.4,4.49A9.1,9.1,0,0,1,195.007,315.888Z" transform="translate(-185.723 -276.792)" fill="#263238"/></g><g transform="translate(182.32 22.664)"><path d="M291.869,285.292c.159,0,.286,22.487.286,50.218s-.128,50.222-.286,50.222-.286-22.481-.286-50.222S291.711,285.292,291.869,285.292Z" transform="translate(-291.583 -285.292)" fill="#263238"/></g><g transform="translate(190.271 135.486)"><path d="M324.91,387.839c0,.107-1.666.055-4.312.382a35.258,35.258,0,0,0-4.586.893,34.494,34.494,0,0,0-10.377,4.7,35.342,35.342,0,0,0-3.7,2.855c-1.993,1.771-3.052,3.056-3.133,2.987a4.544,4.544,0,0,1,.684-.95,23.076,23.076,0,0,1,2.175-2.335,30.6,30.6,0,0,1,3.676-2.994,32.087,32.087,0,0,1,10.542-4.77,30.616,30.616,0,0,1,4.674-.784,23,23,0,0,1,3.19-.091A4.549,4.549,0,0,1,324.91,387.839Z" transform="translate(-298.801 -387.704)" fill="#263238"/></g><g transform="translate(67.472 31.356)" opacity="0.3"><path d="M195.76,402.133c16.494-9.848,26.788-26.159,36.848-42.522s19.429-33.544,33.378-46.75c6.406-6.065,13.9-11.181,16.265-19.679l-25.072,19.924-69.845,80.323Z" transform="translate(-187.332 -293.182)"/></g><g transform="translate(14.297 97.085)"><path d="M155.385,352.966c.02.218-3.941.066-8.451,1.6a42.29,42.29,0,0,0-5.572,2.459,12.828,12.828,0,0,1-2.3,1.1,10.052,10.052,0,0,1,2.1-1.454,29.892,29.892,0,0,1,5.583-2.647,22.539,22.539,0,0,1,6.078-1.156A8.822,8.822,0,0,1,155.385,352.966Z" transform="translate(-139.063 -352.846)" fill="#263238"/></g><g transform="translate(14.297 97.085)"><path d="M155.385,352.966c.02.218-3.941.066-8.451,1.6a42.29,42.29,0,0,0-5.572,2.459,12.828,12.828,0,0,1-2.3,1.1,10.052,10.052,0,0,1,2.1-1.454,29.892,29.892,0,0,1,5.583-2.647,22.539,22.539,0,0,1,6.078-1.156A8.822,8.822,0,0,1,155.385,352.966Z" transform="translate(-139.063 -352.846)" fill="#263238"/></g><g transform="translate(83.693 129.665)"><path d="M300.55,385.964a15.042,15.042,0,0,0-3.806-1.753c-2.584-.8-6.65-.79-11.261.706-4.672,1.377-9.515,4.685-15.5,7.174a22.669,22.669,0,0,1-9.956,1.9,26.876,26.876,0,0,1-10.4-3.194c-3.342-1.667-6.451-3.545-9.614-5.015a29.094,29.094,0,0,0-9.588-2.708,31.246,31.246,0,0,0-16.5,2.984,29.943,29.943,0,0,0-9.188,6.749l-1.2,1.35-.794,1.059-.5.644a.14.14,0,1,1-.048-.032l.453-.68.755-1.1,1.164-1.394a29.27,29.27,0,0,1,9.177-6.966,31.5,31.5,0,0,1,16.727-3.144,29.441,29.441,0,0,1,9.773,2.723c3.2,1.48,6.321,3.36,9.633,5.01a26.461,26.461,0,0,0,10.184,3.147,22.221,22.221,0,0,0,9.723-1.833c5.919-2.424,10.824-5.719,15.577-7.07,4.685-1.465,8.835-1.418,11.446-.533a11.585,11.585,0,0,1,2.861,1.314l.668.476A1.066,1.066,0,0,1,300.55,385.964Z" transform="translate(-202.056 -382.421)" fill="#fafafa"/></g><g transform="translate(181.762 91.839)"><g transform="translate(0)"><path d="M339.352,348.713a8.992,8.992,0,0,0-1.983-.375,9.592,9.592,0,0,0-5.178,1.585c-2.034,1.14-4,3.208-6.774,4.766a8.82,8.82,0,0,1-4.82,1.212,13.09,13.09,0,0,1-5.074-1.613c-1.617-.816-3.117-1.726-4.67-2.344a21.7,21.7,0,0,0-12.769-1.037,21.737,21.737,0,0,0-5.2,1.859c-1.172.587-1.776,1-1.808.952-.012-.016.131-.13.415-.33a12.189,12.189,0,0,1,1.287-.819,19.936,19.936,0,0,1,5.214-2.057,21.852,21.852,0,0,1,8.306-.386,20.9,20.9,0,0,1,4.768,1.3c1.606.632,3.123,1.55,4.715,2.352a12.679,12.679,0,0,0,4.849,1.564,8.348,8.348,0,0,0,4.534-1.116c2.691-1.471,4.705-3.519,6.822-4.652a9.461,9.461,0,0,1,5.395-1.457,5.161,5.161,0,0,1,1.5.349A1.859,1.859,0,0,1,339.352,348.713Z" transform="translate(-291.076 -348.085)" fill="#fafafa"/></g></g><g transform="translate(111.642 76.532)"><path d="M297.372,335.047a3.843,3.843,0,0,1-.75-.13c-.243-.046-.539-.128-.9-.187l-1.237-.164a21.181,21.181,0,0,0-7.851.8,48.045,48.045,0,0,0-10.736,4.841c-3.846,2.229-7.976,4.97-12.786,6.948a27.306,27.306,0,0,1-7.307,2,18.714,18.714,0,0,1-7.049-.484,32.541,32.541,0,0,1-5.925-2.367c-1.785-.884-3.416-1.751-4.94-2.464a21.068,21.068,0,0,0-7.555-2.286,13.29,13.29,0,0,0-2.155.066,4,4,0,0,1-.759.049,3.666,3.666,0,0,1,.743-.163,11.043,11.043,0,0,1,2.181-.174,20.338,20.338,0,0,1,7.715,2.141c1.547.7,3.195,1.545,4.978,2.4a32.768,32.768,0,0,0,5.852,2.284,18.325,18.325,0,0,0,6.848.437,27.084,27.084,0,0,0,7.155-1.973c4.744-1.951,8.857-4.657,12.74-6.876a46.893,46.893,0,0,1,10.892-4.772,20.465,20.465,0,0,1,7.985-.633l1.244.218c.357.077.651.177.891.242A3.831,3.831,0,0,1,297.372,335.047Z" transform="translate(-227.426 -334.19)" fill="#fafafa"/></g><g transform="translate(182.48 43.492)"><path d="M324.952,304.2a6.024,6.024,0,0,1-1.178.684c-.778.4-1.909.975-3.347,1.6a31.64,31.64,0,0,1-5.221,1.808,19.193,19.193,0,0,1-6.765.461c-2.4-.251-4.62-.761-6.654-1.037a19.411,19.411,0,0,0-5.406-.1,11.789,11.789,0,0,0-4.652,1.717c-.013-.015.073-.1.248-.256a5.851,5.851,0,0,1,.824-.6,9.938,9.938,0,0,1,3.516-1.266,18.548,18.548,0,0,1,5.539-.025c2.067.251,4.292.744,6.642.989,4.724.562,8.908-.945,11.772-2.071,1.447-.576,2.6-1.091,3.407-1.431A6.463,6.463,0,0,1,324.952,304.2Z" transform="translate(-291.729 -304.199)" fill="#fafafa"/></g><g transform="translate(24.469 60.328)"><path d="M197.089,320.995a5.816,5.816,0,0,0-1.95-.469,8.226,8.226,0,0,0-5.049,1.872c-.955.673-1.944,1.509-3.124,2.279a11.531,11.531,0,0,1-4.172,1.672,19.652,19.652,0,0,1-10.1-1.205c-3.414-1.232-6.472-2.8-9.4-3.83a25.228,25.228,0,0,0-4.223-1.155,17.783,17.783,0,0,0-3.794-.229A12.078,12.078,0,0,0,150,321.342c-1.139.638-1.666,1.158-1.705,1.11-.013-.014.112-.146.367-.387a7.266,7.266,0,0,1,1.226-.917,11.7,11.7,0,0,1,5.365-1.625,17.637,17.637,0,0,1,3.9.165,24.91,24.91,0,0,1,4.323,1.126c2.974,1.017,6.049,2.576,9.412,3.787a19.445,19.445,0,0,0,9.812,1.226,11.177,11.177,0,0,0,4.013-1.554c1.156-.728,2.16-1.547,3.147-2.211a8.215,8.215,0,0,1,5.293-1.76,3.948,3.948,0,0,1,1.487.4A1.436,1.436,0,0,1,197.089,320.995Z" transform="translate(-148.296 -319.481)" fill="#fafafa"/></g><g transform="translate(130.264 146.217)"><path d="M249.389,397.447c.013-.013.134.09.353.3a7.711,7.711,0,0,1,.868,1.018,10.649,10.649,0,0,1,.337,11.658c-1.463,2.374-3.96,4.251-5.361,6.977a6.651,6.651,0,0,0-.55,4.289,16.212,16.212,0,0,0,1.431,3.934c1.2,2.407,2.317,4.74,2.274,6.9a5.561,5.561,0,0,1-2.061,4.393,3.549,3.549,0,0,1-1.217.583,1.294,1.294,0,0,1-.466.052,5.233,5.233,0,0,0,1.546-.811,5.437,5.437,0,0,0,1.794-4.216c-.009-2.031-1.1-4.256-2.343-6.669a16.382,16.382,0,0,1-1.508-4.062,7.181,7.181,0,0,1,.585-4.645,17.286,17.286,0,0,1,2.759-3.741,26.94,26.94,0,0,0,2.674-3.27,10.144,10.144,0,0,0,1.507-6.756,10.954,10.954,0,0,0-1.584-4.491C249.8,397.937,249.345,397.488,249.389,397.447Z" transform="translate(-244.33 -397.446)" fill="#fafafa"/></g><g transform="translate(179.801 147.724)"><path d="M291,445.673c-.014.014-.154-.108-.414-.359a4.485,4.485,0,0,1-.852-1.324,7.484,7.484,0,0,1,.279-5.688,11.59,11.59,0,0,1,2.139-3.379c.938-1.088,2.048-2.135,3.163-3.266a18.06,18.06,0,0,0,3.062-3.847,13,13,0,0,0,1.474-5.012c.365-3.628-.288-7.111-.471-10.311a17.873,17.873,0,0,1,1.068-8.439,9.607,9.607,0,0,1,3.622-4.434,6.68,6.68,0,0,1,1.42-.671,1.968,1.968,0,0,1,.532-.124,14.461,14.461,0,0,0-1.83.982,9.746,9.746,0,0,0-3.371,4.405,17.893,17.893,0,0,0-.914,8.246c.207,3.158.888,6.664.516,10.406a13.425,13.425,0,0,1-1.553,5.226,18.247,18.247,0,0,1-3.178,3.946c-2.283,2.231-4.423,4.19-5.3,6.43a7.424,7.424,0,0,0-.444,5.449A7,7,0,0,0,291,445.673Z" transform="translate(-289.297 -398.813)" fill="#fafafa"/></g><g transform="translate(56.049 195.004)"><path d="M308.075,455.924a6.983,6.983,0,0,1-1.227.777,10.606,10.606,0,0,1-4,1.141,17.269,17.269,0,0,1-6.54-.735,35.551,35.551,0,0,1-7.918-3.659,52.783,52.783,0,0,0-9.375-4.69,22.435,22.435,0,0,0-11.823-.4,71.763,71.763,0,0,0-12.575,4.349c-4.279,1.767-8.728,3.709-13.606,4.7a24.241,24.241,0,0,1-7.334.411,19.64,19.64,0,0,1-6.843-2.027c-4.216-2.107-7.579-5.159-11.014-7.642a35.024,35.024,0,0,0-5.238-3.276l-1.344-.64c-.452-.195-.919-.343-1.373-.515a22.128,22.128,0,0,0-2.742-.818,27.509,27.509,0,0,0-10.392-.421,28.928,28.928,0,0,0-8.257,2.463c-.583.256-1.108.579-1.635.849a12.308,12.308,0,0,0-1.466.871c-.455.3-.9.576-1.308.863l-1.117.877a19.551,19.551,0,0,0-1.788,1.58,12.5,12.5,0,0,0-1.215,1.258c-.3.333-.539.6-.722.8a1.8,1.8,0,0,1-.262.261,1.739,1.739,0,0,1,.216-.3l.681-.841a11.361,11.361,0,0,1,1.182-1.3,18.745,18.745,0,0,1,1.766-1.63l1.112-.906c.406-.3.852-.58,1.307-.891a12.453,12.453,0,0,1,1.468-.9c.529-.279,1.056-.613,1.644-.879a28.923,28.923,0,0,1,8.335-2.575,27.735,27.735,0,0,1,10.559.358,22.845,22.845,0,0,1,2.8.82c.464.173.941.322,1.4.519l1.375.647a35.311,35.311,0,0,1,5.324,3.3c3.467,2.492,6.828,5.516,10.953,7.566a19.106,19.106,0,0,0,6.655,1.963,23.726,23.726,0,0,0,7.162-.406c4.792-.97,9.22-2.892,13.5-4.654a71.606,71.606,0,0,1,12.683-4.347,22.851,22.851,0,0,1,12.082.469,52.433,52.433,0,0,1,9.427,4.79,35.672,35.672,0,0,0,7.806,3.7,17.324,17.324,0,0,0,6.429.82A10.916,10.916,0,0,0,306.8,456.6C307.649,456.191,308.054,455.892,308.075,455.924Z" transform="translate(-176.962 -441.731)" fill="#fafafa"/></g></g><g transform="translate(95.288)"><g transform="translate(8.806 21.435)"><path d="M242.351,299.177h0A22.908,22.908,0,0,0,266.3,278.3c.64-7.273,1.146-13.483,1.146-13.483s18.771-.474,21.383-18.84,4.9-61.023,4.9-61.023h0a64.472,64.472,0,0,0-65.291-.258l-3,1.745-4.832,88.607A22.9,22.9,0,0,0,242.351,299.177Z" transform="translate(-220.575 -175.952)" fill="#ffbe9d"/></g><g transform="translate(58.27 56.548)"><path d="M265.475,230.046c.009-.2,1.617-.314,4.21-.337.672.014,1.212-.068,1.305-.419a3.624,3.624,0,0,0-.228-1.959c-.435-1.76-.875-3.543-1.336-5.409-1.817-7.694-2.972-14-2.581-14.1s2.179,6.069,4,13.763l1.225,5.436a4.267,4.267,0,0,1,.005,2.8,1.748,1.748,0,0,1-1.28.91,4.239,4.239,0,0,1-1.149,0C267.059,230.5,265.467,230.247,265.475,230.046Z" transform="translate(-265.475 -207.825)" fill="#263238"/></g><g transform="translate(32.639 100.117)"><path d="M265.308,257.3s-11.749-.562-23.1-9.927c0,0,3.953,13.974,22.524,14.7Z" transform="translate(-242.209 -247.374)" fill="#eb996e"/></g><g transform="translate(7.965 16.417)"><path d="M293.587,190.1s-11.572,4.834-25.835-3.3c-9.36-5.334-20.45-8.3-23.03-6.5s-3.65,11.687-13.344,14.057c0,0-.389,18.958-7.9,17.868s-1.175-30.138-1.175-30.138l18.954-8,20.351-2.694,18.829,3.722L294.9,179.95Z" transform="translate(-219.811 -171.397)" fill="#263238"/></g><g transform="translate(0 50.069)"><path d="M226.049,203.153c-.3-.176-12.156-5.378-13.385,7.251s11.7,11.258,11.761,10.9S226.049,203.153,226.049,203.153Z" transform="translate(-212.581 -201.944)" fill="#ffbe9d"/><g transform="translate(3.237 3.966)"><path d="M220.733,215.775c-.051-.045-.235.133-.622.268a2.214,2.214,0,0,1-1.648-.127c-1.287-.619-2.2-2.847-2.044-5.129a7.3,7.3,0,0,1,.922-3.09,2.558,2.558,0,0,1,1.82-1.528,1.125,1.125,0,0,1,1.239.73c.134.369.031.614.095.641.033.035.292-.185.241-.716a1.413,1.413,0,0,0-.42-.839,1.672,1.672,0,0,0-1.186-.441,3.109,3.109,0,0,0-2.489,1.734,7.509,7.509,0,0,0-1.1,3.447c-.167,2.551.9,5.06,2.678,5.766a2.369,2.369,0,0,0,2.045-.139C220.681,216.079,220.775,215.8,220.733,215.775Z" transform="translate(-215.519 -205.543)" fill="#eb996e"/></g></g><g transform="translate(1.649)"><path d="M240.349,183.842a43.436,43.436,0,0,1-8.406,7.523c-3.2,1.991-7.112,3.132-10.787,2.285s-6.924-4.029-7.074-7.8,3.533-7.444,7.217-6.637a3.936,3.936,0,1,1,2.318-7.063c-3.2-.6-3.559-5.679-1.009-7.7s6.285-1.582,9.3-.359,5.788,3.12,8.971,3.8c4.991,1.074,10.114-1,14.528-3.568s8.61-5.7,13.531-7.062c6.041-1.67,12.566-.449,18.346,1.975,4.8,2.012,9.339,4.927,12.459,9.09s4.66,9.694,3.272,14.708-6.054,9.176-11.255,9.2c0,0-11.694,1.178-21.209-5.886s-29.577-6.13-29.577-6.13Z" transform="translate(-214.078 -156.495)" fill="#263238"/></g><g transform="translate(10.319 12.627)"><path d="M221.95,167.974c-.024.04.226.239.728.583s1.264.82,2.272,1.389a41.279,41.279,0,0,0,9.105,3.621,43.844,43.844,0,0,0,14.49,1.378c5.534-.364,11.338-2.147,17.381-3.626,6.025-1.484,12.014-2.221,17.183-.95,5.163,1.193,9.239,4.323,11.032,7.86a12.512,12.512,0,0,1,.953,9.166,20.4,20.4,0,0,1-1.457,3.2c.036.029.261-.2.663-.665a9.254,9.254,0,0,0,1.293-2.364,12.674,12.674,0,0,0-.6-9.758c-1.827-3.89-6.153-7.318-11.588-8.643-5.465-1.414-11.7-.655-17.8.845-6.12,1.5-11.813,3.282-17.165,3.7a45.077,45.077,0,0,1-14.157-1.063C226.347,170.71,222.076,167.7,221.95,167.974Z" transform="translate(-221.949 -167.957)" fill="#455a64"/></g><g transform="translate(4.625 32.152)"><path d="M216.806,185.688c-.142.073.27,1.308,1.633,2.874a12.873,12.873,0,0,0,14.868,3.214c1.888-.863,2.773-1.818,2.674-1.942-.119-.175-1.175.473-3.014,1.05a13.931,13.931,0,0,1-13.849-2.993C217.682,186.6,216.987,185.579,216.806,185.688Z" transform="translate(-216.78 -185.68)" fill="#455a64"/></g><g transform="translate(8.529 25.902)"><path d="M220.384,180.024c-.322.152.647,2.447,3.093,4.126,2.436,1.7,4.924,1.793,4.952,1.439.074-.384-2.03-1.036-4.183-2.55C222.07,181.558,220.717,179.819,220.384,180.024Z" transform="translate(-220.324 -180.007)" fill="#455a64"/></g><g transform="translate(82.199 34.573)"><path d="M292.942,196.842c.167.041.523-.581.618-1.713a6.985,6.985,0,0,0-4.544-6.983c-1.073-.372-1.787-.3-1.817-.129-.109.365,2.488,1.087,4.111,3.606C292.955,194.127,292.564,196.794,292.942,196.842Z" transform="translate(-287.196 -187.878)" fill="#263238"/></g><g transform="translate(82.739 25.425)"><path d="M299.437,179.578c-.373-.155-1.766,3.189-5.068,5.946-3.251,2.817-6.776,3.655-6.681,4.049-.015.35,3.976.059,7.557-3.02C298.858,183.514,299.786,179.619,299.437,179.578Z" transform="translate(-287.686 -179.573)" fill="#455a64"/></g><g transform="translate(66.461 54.435)"><g transform="translate(3.209 1.065)"><path d="M281.5,209.8a2.841,2.841,0,0,1-3.088,2.489,2.718,2.718,0,0,1-2.573-2.919,2.843,2.843,0,0,1,3.086-2.491A2.72,2.72,0,0,1,281.5,209.8Z" transform="translate(-275.823 -206.873)" fill="#263238"/></g><path d="M284.03,209.653c-.4.323-2.327-1.536-5.36-1.923-3.025-.432-5.454.838-5.735.424-.14-.186.3-.8,1.364-1.381a7.8,7.8,0,0,1,4.65-.794,7.484,7.484,0,0,1,4.206,1.991C283.995,208.805,284.224,209.512,284.03,209.653Z" transform="translate(-272.91 -205.907)" fill="#263238"/></g><g transform="translate(38.603 50.771)"><g transform="translate(3.473 0.895)"><path d="M256.447,206.324a2.842,2.842,0,0,1-3.088,2.489,2.718,2.718,0,0,1-2.573-2.92,2.845,2.845,0,0,1,3.086-2.491A2.721,2.721,0,0,1,256.447,206.324Z" transform="translate(-250.774 -203.393)" fill="#263238"/></g><path d="M258.742,206.328c-.4.322-2.329-1.537-5.361-1.925-3.024-.431-5.453.838-5.734.424-.14-.185.3-.8,1.364-1.381a7.794,7.794,0,0,1,4.649-.794,7.491,7.491,0,0,1,4.207,1.991C258.7,205.479,258.935,206.186,258.742,206.328Z" transform="translate(-247.622 -202.581)" fill="#263238"/></g><g transform="translate(36.45 41.866)"><path d="M257.772,198.808c-.6.534-2.871-1.124-5.94-1.411-3.063-.365-5.634.778-6.105.13-.221-.31.187-1.093,1.316-1.842a8.137,8.137,0,0,1,9.829,1.047C257.818,197.7,258.053,198.552,257.772,198.808Z" transform="translate(-245.668 -194.497)" fill="#263238"/></g><g transform="translate(66.023 49.24)"><path d="M283.875,203.155c.132.359-.39.961-1.494,1.44a8.977,8.977,0,0,1-8.814-1.385c-.9-.794-1.215-1.528-.979-1.829.526-.622,2.782.449,5.648.86C281.089,202.73,283.566,202.4,283.875,203.155Z" transform="translate(-272.512 -201.192)" fill="#263238"/></g><g transform="translate(55.293 83.814)"><path d="M263.425,232.576c.317.02.54.59.5,1.275s-.332,1.224-.648,1.205-.54-.59-.5-1.275S263.11,232.557,263.425,232.576Z" transform="translate(-262.772 -232.576)" fill="#263238"/></g><g transform="translate(3.13 67.28)"><path d="M223.513,224.517c.029.01-.017.294-.275.74a3.851,3.851,0,0,1-1.6,1.457,4.01,4.01,0,0,1-3.215.191,4.644,4.644,0,0,1-2.762-2.813,4.984,4.984,0,0,1,2.775-6.082,5.128,5.128,0,0,1,2.109-.444c.51.009.782.089.778.122a8.412,8.412,0,0,0-2.712.689,4.74,4.74,0,0,0-2.092,2.042,4.549,4.549,0,0,0-.313,3.489,4.206,4.206,0,0,0,2.4,2.5,3.689,3.689,0,0,0,2.857-.063A4.989,4.989,0,0,0,223.513,224.517Z" transform="translate(-215.423 -217.567)" fill="#455a64"/></g></g></g><g transform="translate(0 105.622)"><g transform="translate(120.881)"><g transform="translate(0.237 0.286)"><path d="M233.834,296.4s6.147-8.683,10.008-13.56c4.679-5.91,7.468-11,7.468-13.765V254.448s5.825-1.38,6.658,5.244,0,8.28,0,8.28,24.462-16.474,26.12-15.279c2.915,2.1-2.612,6.5-2.612,6.5l-14.908,13.472,8.489-2.687a3.98,3.98,0,0,1,4.969,2.5h0a3.945,3.945,0,0,1-1.516,4.531l-5.025,4.354,2.528-1.016a3.884,3.884,0,0,1,4.917,1.846h0a3.841,3.841,0,0,1-.631,4.361l-4.577,4.88,2.145-1.141a2.789,2.789,0,0,1,3.8,1.206h0a2.758,2.758,0,0,1-.759,3.4L253.53,316.55Z" transform="translate(-233.834 -252.631)" fill="#ffbe9d"/></g><path d="M253.552,316.576s-.116-.1-.341-.322l-1-1-3.89-3.915-14.592-14.787-.107-.108.088-.126c1.791-2.535,3.739-5.255,5.852-8.128,1.057-1.437,2.155-2.911,3.308-4.409s2.359-3.007,3.487-4.64a44.845,44.845,0,0,0,3.166-5.179,11.122,11.122,0,0,0,1.563-5.981c-.005-4.342-.01-8.854-.015-13.511v-.22l.2-.039a6.173,6.173,0,0,1,4.423.729,5.511,5.511,0,0,1,1.6,1.689,7.868,7.868,0,0,1,.8,2.18,34.737,34.737,0,0,1,.5,4.572c.04.771.054,1.549.02,2.333a8.067,8.067,0,0,1-.378,2.4l-.4-.357c3.776-2.533,7.692-5.1,11.737-7.653,2.024-1.277,4.079-2.551,6.18-3.8a63.423,63.423,0,0,1,6.529-3.5,8.313,8.313,0,0,1,.943-.34,2.739,2.739,0,0,1,.533-.1,1.128,1.128,0,0,1,.334.023.689.689,0,0,1,.3.192,2.078,2.078,0,0,1,.83,1.936,6.716,6.716,0,0,1-1.963,3.429c-.887.956-1.9,1.739-2.812,2.6l-2.793,2.522q-5.557,5.019-10.878,9.822l-.27-.471,4.971-1.571,2.448-.772c.411-.127.8-.26,1.225-.379a4.01,4.01,0,0,1,1.337-.149,4.215,4.215,0,0,1,2.193,7.694l.023-.018-5.029,4.347-.261-.427,2.461-.985a4.222,4.222,0,0,1,2.711-.175,4.089,4.089,0,0,1,2.179,6.425c-.553.659-1.107,1.2-1.651,1.791l-3.207,3.405-.267-.349,2.3-1.211a2.978,2.978,0,0,1,3.62,4.523,4.853,4.853,0,0,1-.9.822l-.913.719-1.788,1.406-3.414,2.681-11.318,8.866-7.171,5.594-1.867,1.442c-.42.322-.635.47-.635.47s.217-.193.638-.536l1.864-1.507c1.65-1.323,4.05-3.247,7.123-5.709l11.194-8.933,3.373-2.685,1.767-1.406.9-.718a4.458,4.458,0,0,0,.828-.755,2.562,2.562,0,0,0-3.119-3.88l-2.275,1.209-1.178.626.91-.975,3.194-3.417c.529-.579,1.126-1.172,1.615-1.758a3.608,3.608,0,0,0-1.936-5.665,3.712,3.712,0,0,0-2.393.164l-2.459.991-1.407.567,1.146-.995,5.019-4.359.012-.011.012-.008a3.683,3.683,0,0,0-1.924-6.721,6.521,6.521,0,0,0-2.373.507l-2.447.777-4.968,1.576-1.22.387.95-.858q5.311-4.805,10.879-9.84l2.793-2.525c.923-.87,1.921-1.641,2.765-2.554a6.267,6.267,0,0,0,1.811-3.095,1.494,1.494,0,0,0-.621-1.437c-.066-.164-.354-.072-.65,0a8,8,0,0,0-.877.317,63.512,63.512,0,0,0-6.459,3.462c-2.094,1.24-4.147,2.512-6.168,3.785-4.04,2.55-7.957,5.111-11.73,7.634l-.7.468.3-.824a8.138,8.138,0,0,0,.322-2.179c.033-.76.021-1.524-.018-2.283a34.555,34.555,0,0,0-.478-4.484,7.287,7.287,0,0,0-.736-2.019,4.978,4.978,0,0,0-1.43-1.513,5.657,5.657,0,0,0-4.008-.664l.2-.258c-.005,4.657-.011,9.169-.015,13.511-.007.547.017,1.069-.033,1.645a8.776,8.776,0,0,1-.358,1.609,19.491,19.491,0,0,1-1.243,2.945,45.293,45.293,0,0,1-3.217,5.224c-1.139,1.637-2.354,3.167-3.518,4.646s-2.258,2.958-3.321,4.387c-2.122,2.86-4.084,5.57-5.887,8.093l-.019-.234,14.381,14.852c1.668,1.734,2.96,3.078,3.852,4l.995,1.048C253.439,316.441,253.552,316.576,253.552,316.576Z" transform="translate(-233.619 -252.372)" fill="#eb996e"/></g><g transform="translate(0 39.996)"><path d="M264.705,312.886l-75.062,99.1c-11.393,15.042-31.928,20.546-48.988,12.38-12.471-5.97-21.618-18.5-13.963-44.309l71.9-49.2L242.3,288.677Z" transform="translate(-123.891 -288.677)" fill="#9866b7"/></g><g transform="translate(10.555 39.611)"><path d="M139.682,424.4s.28.131.811.411l2.348,1.245a32.068,32.068,0,0,0,9.812,2.63,33.205,33.205,0,0,0,7.352-.133,38.14,38.14,0,0,0,4.147-.731c.713-.162,1.422-.394,2.154-.595a20.281,20.281,0,0,0,2.2-.723,43.161,43.161,0,0,0,9.021-4.431,35.543,35.543,0,0,0,8.462-7.393c5.124-6.061,10.418-12.981,16.14-20.365s11.739-15.358,18.083-23.733c12.666-16.77,26.513-35.267,40.982-54.73l2.306-3.1.02.365-22.4-24.212.384.026c-15.3,12.629-29.463,24.688-42.3,35.427s-24.326,20.192-34.046,27.886-17.62,13.688-23.122,17.709c-2.735,2.034-4.9,3.536-6.342,4.579l-1.651,1.168c-.373.26-.571.383-.571.383s.177-.151.541-.425l1.622-1.209c1.424-1.069,3.569-2.6,6.285-4.654,5.465-4.069,13.331-10.1,23.013-17.836s21.156-17.2,33.958-27.976c12.815-10.763,26.962-22.84,42.259-35.485l.2-.169.181.194,22.407,24.2.162.174-.142.192-2.306,3.1c-14.47,19.464-28.331,37.952-41.021,54.705-6.358,8.368-12.4,16.319-18.129,23.705-5.743,7.375-11.051,14.276-16.211,20.34a35.883,35.883,0,0,1-8.571,7.435,43.412,43.412,0,0,1-9.112,4.426,20.526,20.526,0,0,1-2.221.716c-.738.2-1.454.429-2.172.588a38.042,38.042,0,0,1-4.183.713,33.158,33.158,0,0,1-7.406.085,31.483,31.483,0,0,1-9.84-2.749c-1.033-.551-1.8-1-2.328-1.3S139.682,424.4,139.682,424.4Z" transform="translate(-133.472 -288.328)" fill="#263238"/></g><g transform="translate(1.029 145.379)"><path d="M197.473,388.827a20.518,20.518,0,0,0-2.624-1.5,15.872,15.872,0,0,0-8.071-1.018,28.633,28.633,0,0,0-5.564,1.161c-1.96.594-4,1.43-6.155,2.28a63.019,63.019,0,0,1-6.9,2.41,21.769,21.769,0,0,1-7.834.763,27.192,27.192,0,0,1-7.584-2.1c-2.345-.973-4.52-2.078-6.625-3.034-4.175-1.944-8.236-3.206-11.718-3.01a12.633,12.633,0,0,0-7.575,2.752,12.269,12.269,0,0,0-2,2.255,4.013,4.013,0,0,1,.371-.7,8.791,8.791,0,0,1,1.484-1.724,12.587,12.587,0,0,1,7.7-2.988c3.584-.256,7.746,1,11.957,2.933,2.125.948,4.3,2.041,6.623,3a26.876,26.876,0,0,0,7.427,2.051,21.349,21.349,0,0,0,7.631-.736,64.666,64.666,0,0,0,6.847-2.359c2.161-.837,4.213-1.661,6.21-2.244a28.375,28.375,0,0,1,5.665-1.109,15.634,15.634,0,0,1,8.2,1.218A8.89,8.89,0,0,1,197.473,388.827Z" transform="translate(-124.825 -384.337)" fill="#fafafa"/></g><g transform="translate(59.703 89.715)"><path d="M218.586,360.733a4.017,4.017,0,0,0,.286-1.964,5.54,5.54,0,0,0-3.313-4.031,18.627,18.627,0,0,0-3.646-1.112,19.342,19.342,0,0,1-4.262-1.367,27.551,27.551,0,0,1-8.031-6.293,101.022,101.022,0,0,0-7.037-7.286,18.427,18.427,0,0,0-7.058-4.032,12.124,12.124,0,0,0-5.46-.372c-1.288.232-1.958.549-1.979.492a1.854,1.854,0,0,1,.475-.245,7.457,7.457,0,0,1,1.46-.467,11.757,11.757,0,0,1,5.612.2,18.41,18.41,0,0,1,7.294,4.021,92.9,92.9,0,0,1,7.11,7.294,27.7,27.7,0,0,0,7.84,6.209c2.755,1.366,5.686,1.471,7.857,2.591a5.7,5.7,0,0,1,3.36,4.371,3.1,3.1,0,0,1-.231,1.529A1.427,1.427,0,0,1,218.586,360.733Z" transform="translate(-178.086 -333.809)" fill="#fafafa"/></g></g></g></g><g transform="translate(72.057 34.047)"><g transform="translate(263.414 32.065)"><g transform="translate(77.518 42.768)"><path d="M408.87,123.293l-3.282.218-6.5,10.456.435,6.55s-5.051.649-5.025-7.968-.474-6.39-.474-6.39-10.773.674-11.729-.2c-.7-.637-1.7-11.315-2.2-17.11a6.3,6.3,0,0,1,4.031-6.623,4.691,4.691,0,0,1,1.149-.234c2.686-.178,16.556,1.094,16.556,1.094l5.669-.377Z" transform="translate(-380.073 -101.974)" fill="#c8c8c8"/><g transform="translate(29.181 0.183)"><path d="M415.691,124.45l-3.51-22.31-5.62.373,1.461,21.992Z" transform="translate(-406.562 -102.14)" fill="#c8c8c8"/></g></g><g transform="translate(19.243 83.707)"><path d="M337.388,139.56a1.531,1.531,0,0,1,.472.113,3.026,3.026,0,0,1,.55.213,4.747,4.747,0,0,1,.715.373,8.257,8.257,0,0,1,3.861,7.421,7.173,7.173,0,0,1-1.455,3.84,8.382,8.382,0,0,1-3.609,2.743,7.412,7.412,0,0,1-8.894-2.349,8.367,8.367,0,0,1-1.784-4.169,7.16,7.16,0,0,1,.631-4.057,8.254,8.254,0,0,1,7.022-4.546,4.759,4.759,0,0,1,.806.029,2.978,2.978,0,0,1,.583.087,1.515,1.515,0,0,1,.466.134c-.01.063-.664-.111-1.843-.026a8.14,8.14,0,0,0-4.523,1.867,7.724,7.724,0,0,0-2.081,2.658,6.734,6.734,0,0,0-.538,3.784A7.357,7.357,0,0,0,341.11,151.2a6.726,6.726,0,0,0,1.4-3.555,7.717,7.717,0,0,0-.5-3.339A8.137,8.137,0,0,0,339,140.448C338.021,139.791,337.365,139.62,337.388,139.56Z" transform="translate(-327.175 -139.136)" fill="#263238"/></g><g transform="translate(0 103.448)"><path d="M316.233,157.36a2.433,2.433,0,0,1,1.116.405,5.223,5.223,0,0,1,2.5,4.714,4.585,4.585,0,0,1-.925,2.47,5.043,5.043,0,0,1-9.169-2.423,4.588,4.588,0,0,1,.415-2.605,5.224,5.224,0,0,1,4.5-2.865,2.418,2.418,0,0,1,1.17.2c-.01.054-.424-.041-1.159.025a5.136,5.136,0,0,0-2.8,1.193,4.338,4.338,0,0,0-1.6,3.984,4.54,4.54,0,0,0,8.225,2.174,4.339,4.339,0,0,0,.578-4.255,5.147,5.147,0,0,0-1.848-2.421C316.622,157.534,316.214,157.412,316.233,157.36Z" transform="translate(-309.707 -157.056)" fill="#263238"/></g><g transform="translate(39.436)"><path d="M345.982,113.627s.034-.313.129-.918l.437-2.689q.149-.887.329-1.981c.155-.722.4-1.495.62-2.341s.481-1.756.748-2.728a9.77,9.77,0,0,1,.5-1.48l.6-1.548a54.268,54.268,0,0,1,8.067-14.424,56.978,56.978,0,0,1,16.384-14.455l2.681-1.544c.933-.465,1.906-.877,2.874-1.325.982-.414,1.93-.947,2.97-1.278l3.128-1.067c.528-.176,1.054-.368,1.59-.534l1.65-.388,3.347-.788c1.134-.23,2.3-.327,3.466-.5a29.282,29.282,0,0,1,3.544-.369,53.439,53.439,0,0,1,7.308.026c1.234.1,2.488.133,3.733.3l3.75.646c.627.12,1.267.193,1.89.353l1.866.52c1.244.362,2.517.666,3.761,1.084a60.643,60.643,0,0,1,7.337,3.145l1.809.922c.3.156.608.3.9.469l.861.551,3.47,2.222c1.126.8,2.19,1.7,3.3,2.549.539.444,1.124.838,1.628,1.327l1.528,1.46a64.446,64.446,0,0,1,5.806,6.28l2.514,3.544.631.891.551.946,1.1,1.906,1.1,1.915.922,2.016.918,2.028.461,1.017c.133.348.243.705.367,1.056L458,104.708q.515,2.2,1.035,4.413a61.282,61.282,0,0,1,.756,18.356,61.284,61.284,0,0,1-5.136,17.646q-1.036,2.026-2.064,4.036l-2.429,3.787-.609.939-.691.878-1.378,1.748-1.379,1.737-1.527,1.6-1.519,1.587-.762.787-.827.714-3.292,2.838a64.34,64.34,0,0,1-7.144,4.705l-1.833,1.051c-.608.354-1.27.6-1.9.9-1.28.561-2.528,1.179-3.813,1.683l-3.9,1.325-.968.328c-.328.091-.662.159-.991.239l-1.978.46a60.53,60.53,0,0,1-7.878,1.292c-1.309.107-2.617.1-3.912.15l-1.938.056c-.642.005-1.281-.077-1.919-.111l-3.8-.273c-1.249-.136-2.473-.408-3.7-.6a53.275,53.275,0,0,1-7.1-1.728,29.353,29.353,0,0,1-3.352-1.21c-1.09-.446-2.2-.821-3.244-1.316l-3.06-1.568-1.508-.772-1.416-.9-2.779-1.788c-.931-.571-1.723-1.314-2.578-1.953-.832-.668-1.678-1.3-2.471-1.976l-2.232-2.143a57,57,0,0,1-12.434-17.966,54.24,54.24,0,0,1-4.368-15.936q-.109-.848-.209-1.646a9.736,9.736,0,0,1-.127-1.556q-.04-1.512-.073-2.827c-.013-.876-.062-1.684-.04-2.421q.086-1.1.156-2,.144-1.773.22-2.714c.053-.61.095-.921.095-.921s0,.315-.036.928-.092,1.532-.164,2.714q-.056.9-.128,2c-.013.736.045,1.542.067,2.415s.063,1.812.1,2.817a9.806,9.806,0,0,0,.14,1.548q.107.8.221,1.638a54.45,54.45,0,0,0,4.44,15.835,56.846,56.846,0,0,0,12.424,17.8l2.223,2.121c.789.669,1.632,1.294,2.459,1.955.849.63,1.638,1.367,2.562,1.931l2.764,1.766,1.406.891,1.5.762L379,172.3c1.037.49,2.141.858,3.221,1.3a29.081,29.081,0,0,0,3.327,1.192,53.016,53.016,0,0,0,7.046,1.7c1.213.191,2.427.459,3.666.592l3.763.262c.632.033,1.266.115,1.9.108l1.92-.059c1.283-.055,2.58-.046,3.877-.154a60.122,60.122,0,0,0,7.8-1.291l1.959-.459c.326-.08.658-.147.982-.238l.958-.327,3.866-1.316c1.271-.5,2.507-1.116,3.774-1.672.624-.3,1.279-.54,1.881-.89L430.759,170a64.111,64.111,0,0,0,7.071-4.667l3.258-2.814.82-.707.754-.78,1.5-1.573,1.511-1.58,1.363-1.721,1.364-1.733.684-.869.6-.93q1.2-1.867,2.4-3.75l2.042-4a60.8,60.8,0,0,0,5.082-17.47,60.762,60.762,0,0,0-.745-18.174q-.514-2.193-1.023-4.369-.72-2.117-1.433-4.217c-.121-.349-.231-.7-.362-1.047l-.456-1.008-.908-2.008-.911-2-1.087-1.9L451.21,90.8l-.544-.938-.626-.882-2.486-3.512a64.016,64.016,0,0,0-5.745-6.225L440.3,77.8c-.5-.485-1.078-.876-1.612-1.316-1.1-.844-2.148-1.736-3.262-2.528l-3.436-2.205-.852-.548c-.293-.166-.6-.311-.9-.466l-1.791-.915a60.065,60.065,0,0,0-7.264-3.128c-1.233-.415-2.494-.718-3.727-1.08l-1.849-.519c-.617-.159-1.251-.232-1.873-.351l-3.717-.648c-1.235-.17-2.478-.2-3.7-.306a52.935,52.935,0,0,0-7.248-.042,29.009,29.009,0,0,0-3.514.358c-1.157.169-2.316.261-3.439.487l-3.323.773-1.637.38c-.533.164-1.055.353-1.58.527l-3.106,1.051c-1.034.325-1.976.852-2.952,1.26-.962.442-1.929.848-2.857,1.307L374,71.414a56.84,56.84,0,0,0-16.335,14.3,54.48,54.48,0,0,0-8.113,14.307q-.312.792-.608,1.537a9.745,9.745,0,0,0-.507,1.471q-.413,1.449-.772,2.711c-.23.842-.48,1.611-.644,2.328q-.195,1.087-.356,1.972-.321,1.747-.492,2.675C346.055,113.32,345.982,113.627,345.982,113.627Z" transform="translate(-345.505 -63.153)" fill="#263238"/></g></g><g transform="translate(123.767 101.201)"><g transform="translate(0 0)"><path d="M189.491,126.1c.014.062-.657.154-1.712.686a8.142,8.142,0,0,0-3.456,3.466,7.721,7.721,0,0,0-.9,3.254,6.737,6.737,0,0,0,.962,3.7,7.358,7.358,0,0,0,13.67-1.886,6.733,6.733,0,0,0-.077-3.822,7.72,7.72,0,0,0-1.743-2.891,8.155,8.155,0,0,0-4.264-2.4c-1.161-.226-1.832-.133-1.834-.2a1.519,1.519,0,0,1,.479-.077,3.01,3.01,0,0,1,.589-.015,4.719,4.719,0,0,1,.8.069,8.256,8.256,0,0,1,6.42,5.361,7.162,7.162,0,0,1,.137,4.1,8.366,8.366,0,0,1-2.275,3.922,7.411,7.411,0,0,1-9.112,1.257,8.376,8.376,0,0,1-3.252-3.16,7.171,7.171,0,0,1-.979-3.988,8.256,8.256,0,0,1,4.729-6.9,4.764,4.764,0,0,1,.755-.284,3.093,3.093,0,0,1,.572-.144A1.564,1.564,0,0,1,189.491,126.1Z" transform="translate(-182.945 -125.91)" fill="#263238"/></g></g><g transform="translate(147.02 119.031)"><g transform="translate(0 0)"><path d="M208.262,142.239c.012.054-.406.126-1.06.469a5.155,5.155,0,0,0-2.127,2.18,4.342,4.342,0,0,0,.059,4.293,4.539,4.539,0,0,0,8.428-1.162,4.343,4.343,0,0,0-1.1-4.149,5.151,5.151,0,0,0-2.638-1.524c-.722-.153-1.144-.11-1.147-.164a2.425,2.425,0,0,1,1.185-.055,5.222,5.222,0,0,1,4.119,3.388,4.586,4.586,0,0,1,.1,2.636,5.043,5.043,0,0,1-9.395,1.3,4.592,4.592,0,0,1-.62-2.564,5.223,5.223,0,0,1,3.047-4.378A2.425,2.425,0,0,1,208.262,142.239Z" transform="translate(-204.052 -142.095)" fill="#263238"/></g></g><g transform="translate(39.917 40.782)"><path d="M136.853,88.99H133.3l-7.764-10.821v-7.1s-5.5-.338-4.853,8.961-.053,6.932-.053,6.932-11.676.045-12.647,1.06c-.705.737-1.025,12.335-1.147,18.627a6.812,6.812,0,0,0,4.826,6.86,5.1,5.1,0,0,0,1.257.169c2.912,0,17.793-2.367,17.793-2.367h6.145Z" transform="translate(-106.831 -71.066)" fill="#9866b7"/><g transform="translate(31.926 15.974)"><path d="M144.093,85.566,141.9,109.9h-6.093V86.055Z" transform="translate(-135.811 -85.566)" fill="#9866b7"/></g></g><path d="M194.6,96.132s-.036-.339-.079-1-.1-1.656-.177-2.937q-.055-.97-.122-2.164c-.082-.792-.249-1.65-.387-2.584s-.305-1.939-.474-3.013a10.6,10.6,0,0,0-.351-1.646q-.22-.839-.452-1.731a58.9,58.9,0,0,0-6.839-16.43,61.509,61.509,0,0,0-15.672-17.5l-2.665-1.987c-.936-.615-1.922-1.177-2.9-1.778l-1.478-.9a12.032,12.032,0,0,0-1.528-.844l-3.2-1.536c-.54-.256-1.076-.527-1.627-.772l-1.71-.624-3.467-1.265c-1.179-.39-2.411-.641-3.631-.974L146,35.978c-.31-.075-.617-.167-.931-.228l-.953-.144a57.216,57.216,0,0,0-7.79-.9c-1.329-.046-2.667-.177-4.015-.156l-4.077.209c-.683.047-1.375.043-2.058.133l-2.055.315c-1.372.227-2.765.388-4.144.672a65.177,65.177,0,0,0-8.214,2.409l-2.042.748c-.34.129-.687.243-1.023.384l-.987.476-3.979,1.92c-1.3.7-2.548,1.526-3.836,2.289-.63.4-1.3.748-1.9,1.2l-1.813,1.357A69.394,69.394,0,0,0,89.189,52.6l-3.131,3.448-.788.866c-.243.305-.47.625-.707.936l-1.41,1.886L81.738,61.63,80.5,63.656,79.259,65.7l-.621,1.023c-.186.353-.35.717-.527,1.076L76.02,72.137q-.833,2.272-1.671,4.561a65.77,65.77,0,0,0-3.178,19.425,65.824,65.824,0,0,0,3.174,19.433q.839,2.289,1.671,4.562,1.049,2.18,2.092,4.344l.525,1.077.621,1.023,1.238,2.039,1.24,2.027,1.417,1.895,1.409,1.887.707.936.788.867,3.132,3.448a69.165,69.165,0,0,0,6.987,5.938l1.813,1.358c.6.455,1.273.8,1.9,1.2,1.288.763,2.536,1.584,3.837,2.29l3.979,1.919.988.477c.336.141.683.256,1.023.383l2.042.749a65.248,65.248,0,0,0,8.215,2.409c1.379.284,2.774.445,4.145.672l2.053.315c.684.09,1.376.086,2.059.133l4.077.209c1.349.02,2.688-.11,4.017-.156a57.427,57.427,0,0,0,7.791-.9l.952-.144c.314-.062.621-.154.931-.229l1.846-.473c1.22-.333,2.452-.584,3.63-.974l3.468-1.265,1.71-.624,1.627-.772,3.2-1.537a12.084,12.084,0,0,0,1.527-.844l1.478-.9c.975-.6,1.962-1.164,2.9-1.779l2.665-1.986a61.5,61.5,0,0,0,15.671-17.5c.449-.746.91-1.468,1.329-2.2q.549-1.135,1.078-2.228l1.039-2.142c.164-.353.35-.692.491-1.045s.262-.711.391-1.061q.777-2.1,1.484-4.015c.435-1.289.7-2.562,1.025-3.742q.233-.891.452-1.731a10.723,10.723,0,0,0,.353-1.645l.473-3.013c.138-.934.305-1.792.387-2.584q.068-1.193.122-2.164.116-1.92.177-2.937c.043-.662.079-1,.079-1s0,.339-.021,1q-.041,1.018-.12,2.944l-.1,2.169c-.073.8-.231,1.657-.36,2.6l-.448,3.025a10.626,10.626,0,0,1-.339,1.654q-.215.844-.441,1.739c-.323,1.186-.576,2.468-1,3.764l-1.466,4.041-.388,1.069c-.14.356-.325.7-.488,1.052q-.506,1.058-1.033,2.157l-1.074,2.243c-.416.734-.876,1.462-1.324,2.213a61.615,61.615,0,0,1-15.7,17.659l-2.677,2.008c-.94.621-1.931,1.191-2.912,1.8l-1.486.906a12.328,12.328,0,0,1-1.536.854l-3.218,1.556c-.544.259-1.084.533-1.638.782l-1.72.632-3.491,1.281c-1.185.4-2.427.652-3.655.989l-1.86.48c-.312.076-.621.17-.937.232l-.96.148a57.719,57.719,0,0,1-7.85.926c-1.338.05-2.688.182-4.047.164l-4.11-.2c-.69-.046-1.386-.041-2.075-.13l-2.072-.315c-1.383-.226-2.789-.387-4.181-.672a65.6,65.6,0,0,1-8.288-2.418l-2.062-.754c-.344-.129-.693-.245-1.032-.386l-1-.479-4.017-1.932c-1.313-.711-2.572-1.537-3.872-2.306-.637-.407-1.316-.754-1.922-1.212l-1.831-1.368a69.841,69.841,0,0,1-7.054-5.985l-3.163-3.477-.794-.875-.715-.944-1.424-1.9-1.43-1.911L80.014,128.9l-1.25-2.058-.628-1.032-.531-1.087-2.113-4.383q-.841-2.294-1.688-4.6A66.3,66.3,0,0,1,70.6,96.124a66.286,66.286,0,0,1,3.211-19.606q.846-2.31,1.688-4.6l2.113-4.382c.177-.362.344-.73.532-1.086l.627-1.032,1.25-2.058,1.253-2.044L82.7,59.4l1.424-1.9c.239-.314.468-.637.715-.944l.794-.874L88.8,52.207a69.941,69.941,0,0,1,7.053-5.984l1.831-1.367c.607-.458,1.286-.805,1.921-1.212,1.3-.769,2.559-1.6,3.872-2.306l4.015-1.931,1-.479c.339-.142.69-.257,1.032-.387l2.062-.754a65.7,65.7,0,0,1,8.287-2.417c1.391-.285,2.8-.446,4.181-.672l2.071-.314c.69-.09,1.386-.085,2.076-.131l4.109-.2c1.361-.018,2.709.115,4.049.164a57.919,57.919,0,0,1,7.849.925l.958.148c.317.062.626.156.939.232l1.858.48c1.228.336,2.47.593,3.655.988l3.491,1.282,1.721.632c.554.248,1.094.522,1.637.781l3.218,1.556a12.112,12.112,0,0,1,1.536.854L164.7,43c.979.608,1.971,1.178,2.912,1.8q1.353,1.016,2.677,2.008a61.658,61.658,0,0,1,15.7,17.659A58.682,58.682,0,0,1,192.771,81q.228.894.441,1.739a10.634,10.634,0,0,1,.34,1.654q.24,1.618.448,3.026c.129.939.288,1.8.36,2.6l.1,2.17q.079,1.925.12,2.944C194.6,95.793,194.6,96.132,194.6,96.132Z" transform="translate(-70.597 -34.047)" fill="#263238"/></g><g transform="translate(102.956 76.987)"><g transform="translate(181.038)"><path d="M273.95,113.659h-.043a1.654,1.654,0,0,1-1.611-1.694l.375-14.708a1.654,1.654,0,0,1,2.142-1.536,10.485,10.485,0,0,0,8.262-1.033,9.567,9.567,0,0,0,4.679-5.978,9.763,9.763,0,0,0-1.518-7.477,10.613,10.613,0,0,0-6.816-4.741c-5.412-1.007-11.342,2.6-13.227,8.04a1.652,1.652,0,0,1-3.122-1.083c2.4-6.916,10-11.495,16.952-10.207A13.932,13.932,0,0,1,289,79.427a13.078,13.078,0,0,1,1.968,10.037,12.877,12.877,0,0,1-6.253,8.093,14.059,14.059,0,0,1-8.793,1.781L275.6,112.05A1.65,1.65,0,0,1,273.95,113.659Z" transform="translate(-262.979 -73.025)" fill="#263238"/><g transform="translate(8.699 45.483)"><path d="M275.708,116.729a2.416,2.416,0,1,1-2.416-2.417A2.416,2.416,0,0,1,275.708,116.729Z" transform="translate(-270.875 -114.312)" fill="#263238"/></g></g><g transform="translate(0 175.083)"><g transform="translate(0 6.381)"><path d="M109.837,266.475a11.466,11.466,0,0,1-6.892-2.191,11.077,11.077,0,0,1-4.219-7.574,10.419,10.419,0,0,1,2.151-7.858,10.267,10.267,0,0,1,7.33-3.572,11.156,11.156,0,0,1,6.527,1.6l4.356-8.256a1.653,1.653,0,1,1,2.924,1.542l-5.267,9.982a1.653,1.653,0,0,1-2.6.425,7.643,7.643,0,0,0-5.742-2,6.954,6.954,0,0,0-4.978,2.377,7.11,7.11,0,0,0-1.419,5.364,7.766,7.766,0,0,0,2.92,5.32c3.174,2.381,8.363,1.927,11.329-.988a1.652,1.652,0,1,1,2.316,2.356A12.526,12.526,0,0,1,109.837,266.475Z" transform="translate(-98.645 -237.746)" fill="#263238"/></g><g transform="translate(22.991)"><path d="M119.708,232.985a1.853,1.853,0,1,1,.837,2.484A1.853,1.853,0,0,1,119.708,232.985Z" transform="translate(-119.515 -231.954)" fill="#263238"/></g></g><g transform="translate(323.832 152.814)"><path d="M413.462,241.31a1.651,1.651,0,0,1-1.341-.684l-6.613-9.146a1.653,1.653,0,0,1,.771-2.521,7.651,7.651,0,0,0,4.337-4.26,6.953,6.953,0,0,0,.077-5.517,7.112,7.112,0,0,0-4.181-3.65,7.767,7.767,0,0,0-6.061.259c-3.542,1.791-5.435,6.643-4.138,10.595a1.652,1.652,0,0,1-3.139,1.032c-1.811-5.509.785-12.048,5.786-14.576a11.076,11.076,0,0,1,8.657-.424,10.414,10.414,0,0,1,6.092,5.413,10.26,10.26,0,0,1-.05,8.153,11.179,11.179,0,0,1-4.329,5.14l5.47,7.564a1.652,1.652,0,0,1-1.339,2.621Z" transform="translate(-392.598 -211.74)" fill="#263238"/><g transform="translate(23.244 31.437)"><path d="M417.026,241.006a1.854,1.854,0,1,1-2.6-.35A1.853,1.853,0,0,1,417.026,241.006Z" transform="translate(-413.698 -240.276)" fill="#263238"/></g></g></g></g></svg>