<svg xmlns="http://www.w3.org/2000/svg" width="560.767" height="318.858" viewBox="0 0 560.767 318.858"><g transform="translate(-22.733 -45.512)"><g transform="translate(27.739 45.512)"><g transform="translate(437.016 124.902)"><path d="M584.238,202.631H697.513l-18.453,13.315v26.2a5.47,5.47,0,0,1-5.47,5.47H584.238a5.47,5.47,0,0,1-5.47-5.47V208.1A5.47,5.47,0,0,1,584.238,202.631Z" transform="translate(-578.768 -202.631)" fill="#f5f5f5"/><g transform="translate(10.195 18.317)"><path d="M591.593,225.869c0,.11,17.084.2,38.154.2s38.158-.088,38.158-.2-17.081-.2-38.158-.2S591.593,225.76,591.593,225.869Z" transform="translate(-591.593 -225.672)" fill="#e0e0e0"/></g><g transform="translate(10.195 28.374)"><path d="M591.593,238.522c0,.109,17.084.2,38.154.2s38.158-.089,38.158-.2-17.081-.2-38.158-.2S591.593,238.412,591.593,238.522Z" transform="translate(-591.593 -238.324)" fill="#e0e0e0"/></g></g><g transform="translate(220.871 9.774)"><g transform="translate(44.277 18.463)"><rect width="5.301" height="17.757" fill="#e0e0e0"/></g><g transform="translate(0 15.89)"><rect width="5.301" height="20.329" fill="#e0e0e0"/></g><g transform="translate(11.069 11.653)"><rect width="5.301" height="24.567" fill="#e0e0e0"/></g><g transform="translate(22.139 13.001)"><rect width="5.301" height="23.219" fill="#e0e0e0"/></g><g transform="translate(33.208 5.145)"><rect width="5.301" height="31.074" fill="#e0e0e0"/></g><g transform="translate(55.346 5.297)"><rect width="5.301" height="30.923" fill="#e0e0e0"/></g><g transform="translate(66.415 15.453)"><rect width="5.301" height="20.767" fill="#e0e0e0"/></g><g transform="translate(77.484 6.659)"><rect width="5.301" height="29.561" fill="#e0e0e0"/></g><g transform="translate(88.554)"><rect width="5.301" height="36.22" fill="#e0e0e0"/></g><g transform="translate(99.623 6.508)"><rect width="5.301" height="29.712" fill="#e0e0e0"/></g></g><g transform="translate(421.125)"><path d="M603.121,89.858l43.839-6.7A44.347,44.347,0,1,1,607.99,45.78Z" transform="translate(-558.778 -45.512)" fill="#ebebeb"/><g transform="translate(53.244 0.408)"><path d="M631.079,46.025l-5.323,33.983,33.357-6.264S654.208,54.7,631.079,46.025Z" transform="translate(-625.756 -46.025)" fill="#e0e0e0"/></g></g><g transform="translate(17.844 102.841)"><g transform="translate(0 1.753)"><path d="M51.479,199.273a21.737,21.737,0,1,1,22.083,21.484A21.816,21.816,0,0,1,51.479,199.273Zm32.126-.518A10.393,10.393,0,1,0,73.38,209.362,10.428,10.428,0,0,0,83.6,198.755Z" transform="translate(-51.476 -177.085)" fill="#f5f5f5"/></g><g transform="translate(0 1.756)"><path d="M51.479,199.274a21.816,21.816,0,0,1,21.385-22.185l.182,11.394a10.441,10.441,0,0,0,.334,20.879l.182,11.394A21.807,21.807,0,0,1,51.479,199.274Z" transform="translate(-51.476 -177.089)" fill="#e0e0e0"/></g><g transform="translate(19.436)"><path d="M75.926,174.883a24.836,24.836,0,0,1,25.43,24.74l-13.269.215c-.107-6.735-5.232-10.975-11.935-10.866Z" transform="translate(-75.926 -174.88)" fill="#ebebeb"/></g></g><g transform="translate(0 201.307)"><g transform="translate(7.525)"><g transform="translate(123.908 2.141)"><rect width="27.629" height="32.846" fill="#f5f5f5"/></g><g transform="translate(0 0)"><rect width="124.86" height="37.053" fill="#e0e0e0"/></g><g transform="translate(121.513)"><path d="M222.212,301.859H191.351v-3.116h30.861a1.558,1.558,0,0,1,1.558,1.558h0A1.558,1.558,0,0,1,222.212,301.859Z" transform="translate(-191.351 -298.743)" fill="#e0e0e0"/></g><g transform="translate(121.513 33.937)"><path d="M222.212,344.549H191.351v-3.115h30.861a1.557,1.557,0,0,1,1.558,1.557h0A1.558,1.558,0,0,1,222.212,344.549Z" transform="translate(-191.351 -341.434)" fill="#e0e0e0"/></g><g transform="translate(100.291 0)"><rect width="14.752" height="37.053" fill="#ebebeb"/></g><g transform="translate(11.874 0.411)"><rect width="14.752" height="37.053" fill="#ebebeb"/></g><g transform="translate(124.827 7.411)"><path d="M222.23,308.229c0,.091-5.98.164-13.354.164s-13.355-.073-13.355-.164,5.978-.164,13.355-.164S222.23,308.138,222.23,308.229Z" transform="translate(-195.52 -308.065)" fill="#e0e0e0"/></g><g transform="translate(124.827 12.335)"><path d="M222.23,314.425c0,.091-5.98.164-13.354.164s-13.355-.073-13.355-.164,5.978-.165,13.355-.165S222.23,314.334,222.23,314.425Z" transform="translate(-195.52 -314.26)" fill="#e0e0e0"/></g><g transform="translate(124.827 18.4)"><path d="M222.23,322.054c0,.091-5.98.164-13.354.164s-13.355-.073-13.355-.164,5.978-.165,13.355-.165S222.23,321.963,222.23,322.054Z" transform="translate(-195.52 -321.889)" fill="#e0e0e0"/></g><g transform="translate(124.827 24.465)"><path d="M222.23,329.683c0,.091-5.98.164-13.354.164s-13.355-.073-13.355-.164,5.978-.164,13.355-.164S222.23,329.592,222.23,329.683Z" transform="translate(-195.52 -329.519)" fill="#e0e0e0"/></g><g transform="translate(124.827 30.529)"><path d="M222.23,337.312c0,.091-5.98.164-13.354.164s-13.355-.073-13.355-.164,5.978-.165,13.355-.165S222.23,337.221,222.23,337.312Z" transform="translate(-195.52 -337.147)" fill="#e0e0e0"/></g><g transform="translate(36.188 15.228)"><rect width="56.173" height="6.672" fill="#ebebeb"/></g></g><g transform="translate(11.659 37.053)"><g transform="translate(119.069 0.726)"><rect width="28.052" height="20.013" fill="#fafafa"/></g><g transform="translate(0 0)"><rect width="119.383" height="21.466" fill="#f5f5f5"/></g><g transform="translate(118.515)"><path d="M192.781,346.805h30.152a.726.726,0,0,0,.726-.726h0a.726.726,0,0,0-.726-.727H192.781Z" transform="translate(-192.781 -345.353)" fill="#f5f5f5"/></g><g transform="translate(118.515 20.014)"><path d="M0,0H30.459a.419.419,0,0,1,.419.419v.614a.419.419,0,0,1-.419.419H0a0,0,0,0,1,0,0V0A0,0,0,0,1,0,0Z" fill="#f5f5f5"/></g><g transform="translate(119.383 4.364)"><path d="M221.611,351.007c0,.091-6.21.165-13.869.165s-13.87-.073-13.87-.165,6.209-.164,13.87-.164S221.611,350.916,221.611,351.007Z" transform="translate(-193.873 -350.843)" fill="#e0e0e0"/></g><g transform="translate(119.383 8.151)"><path d="M221.611,355.77c0,.091-6.21.165-13.869.165s-13.87-.074-13.87-.165,6.209-.164,13.87-.164S221.611,355.679,221.611,355.77Z" transform="translate(-193.873 -355.606)" fill="#e0e0e0"/></g><g transform="translate(119.383 11.937)"><path d="M221.611,360.533c0,.091-6.21.165-13.869.165s-13.87-.074-13.87-.165,6.209-.164,13.87-.164S221.611,360.442,221.611,360.533Z" transform="translate(-193.873 -360.369)" fill="#e0e0e0"/></g><g transform="translate(119.383 15.723)"><path d="M221.611,365.3c0,.091-6.21.165-13.869.165s-13.87-.074-13.87-.165,6.209-.164,13.87-.164S221.611,365.205,221.611,365.3Z" transform="translate(-193.873 -365.132)" fill="#e0e0e0"/></g></g><g transform="translate(0 58.519)"><g transform="translate(134.403 1.907)"><rect width="28.633" height="54.253" fill="#ebebeb"/></g><rect width="134.403" height="58.825" fill="#e0e0e0"/><g transform="translate(130.729 55.01)"><path d="M228.027,445.37H193.478v-3.815h34.549a1.907,1.907,0,0,1,1.907,1.907h0A1.908,1.908,0,0,1,228.027,445.37Z" transform="translate(-193.478 -441.555)" fill="#e0e0e0"/></g><g transform="translate(130.729)"><path d="M0,0H35.355a1.1,1.1,0,0,1,1.1,1.1V2.714a1.1,1.1,0,0,1-1.1,1.1H0a0,0,0,0,1,0,0V0A0,0,0,0,1,0,0Z" fill="#e0e0e0"/></g><g transform="translate(134.403 9.016)"><path d="M226.733,383.862c0,.091-6.41.164-14.316.164s-14.317-.073-14.317-.164,6.409-.164,14.317-.164S226.733,383.771,226.733,383.862Z" transform="translate(-198.1 -383.698)" fill="#e0e0e0"/></g><g transform="translate(134.403 15.975)"><path d="M226.733,392.615c0,.091-6.41.165-14.316.165s-14.317-.074-14.317-.165,6.409-.164,14.317-.164S226.733,392.524,226.733,392.615Z" transform="translate(-198.1 -392.451)" fill="#e0e0e0"/></g><g transform="translate(134.403 22.933)"><path d="M226.733,401.368c0,.091-6.41.165-14.316.165s-14.317-.074-14.317-.165,6.409-.164,14.317-.164S226.733,401.277,226.733,401.368Z" transform="translate(-198.1 -401.204)" fill="#e0e0e0"/></g><g transform="translate(134.403 29.891)"><path d="M226.733,410.121c0,.091-6.41.165-14.316.165s-14.317-.074-14.317-.165,6.409-.164,14.317-.164S226.733,410.03,226.733,410.121Z" transform="translate(-198.1 -409.957)" fill="#e0e0e0"/></g><g transform="translate(134.403 36.849)"><path d="M226.733,418.874c0,.091-6.41.165-14.316.165s-14.317-.073-14.317-.165,6.409-.164,14.317-.164S226.733,418.783,226.733,418.874Z" transform="translate(-198.1 -418.71)" fill="#e0e0e0"/></g><g transform="translate(134.403 43.808)"><path d="M226.733,427.628c0,.09-6.41.164-14.316.164s-14.317-.074-14.317-.164,6.409-.165,14.317-.165S226.733,427.537,226.733,427.628Z" transform="translate(-198.1 -427.463)" fill="#e0e0e0"/></g><g transform="translate(134.403 50.766)"><path d="M226.733,436.381c0,.091-6.41.164-14.316.164s-14.317-.073-14.317-.164,6.409-.165,14.317-.165S226.733,436.29,226.733,436.381Z" transform="translate(-198.1 -436.216)" fill="#e0e0e0"/></g></g><g transform="translate(34.448 75.418)"><g transform="translate(0)"><path d="M83.907,409.346v3.274c0,3.941-1.971,6.194-5.772,6.194s-5.771-2.253-5.771-6.194V399.808c0-3.941,1.971-6.194,5.771-6.194s5.772,2.253,5.772,6.194V402.2h-3.66v-2.64c0-1.759-.774-2.428-2.006-2.428s-2.006.669-2.006,2.428v13.3c0,1.759.773,2.393,2.006,2.393s2.006-.634,2.006-2.393v-3.52Z" transform="translate(-72.363 -393.614)" fill="#ebebeb"/></g><g transform="translate(13.582)"><path d="M89.448,399.808c0-3.941,2.076-6.194,5.877-6.194s5.878,2.253,5.878,6.194V412.62c0,3.941-2.076,6.194-5.878,6.194s-5.877-2.253-5.877-6.194Zm3.871,13.058c0,1.759.774,2.428,2.006,2.428s2.006-.669,2.006-2.428v-13.3c0-1.759-.774-2.428-2.006-2.428s-2.006.669-2.006,2.428Z" transform="translate(-89.448 -393.614)" fill="#ebebeb"/></g><g transform="translate(27.833 0.282)"><path d="M107.375,393.969h3.871v21.116h6.37V418.6H107.375Z" transform="translate(-107.375 -393.969)" fill="#ebebeb"/></g><g transform="translate(39.444)"><path d="M121.981,399.808c0-3.941,2.076-6.194,5.877-6.194s5.878,2.253,5.878,6.194V412.62c0,3.941-2.076,6.194-5.878,6.194s-5.877-2.253-5.877-6.194Zm3.871,13.058c0,1.759.774,2.428,2.006,2.428s2.006-.669,2.006-2.428v-13.3c0-1.759-.774-2.428-2.006-2.428s-2.006.669-2.006,2.428Z" transform="translate(-121.981 -393.614)" fill="#ebebeb"/></g><g transform="translate(53.519 0.282)"><path d="M143.558,393.969v19.005c0,1.759.774,2.393,2.006,2.393s2.006-.634,2.006-2.393V393.969h3.66v18.759c0,3.941-1.971,6.194-5.772,6.194s-5.771-2.253-5.771-6.194V393.969Z" transform="translate(-139.687 -393.969)" fill="#ebebeb"/></g><g transform="translate(67.7 0.282)"><path d="M165.62,418.6a7.567,7.567,0,0,1-.352-3.026v-3.871c0-2.288-.774-3.132-2.534-3.132H161.4V418.6h-3.871V393.969h5.842c4.012,0,5.737,1.865,5.737,5.666v1.936c0,2.534-.81,4.189-2.534,5,1.936.809,2.569,2.675,2.569,5.244v3.8a7.253,7.253,0,0,0,.422,2.991ZM161.4,397.488v7.567h1.514c1.443,0,2.323-.634,2.323-2.605v-2.428c0-1.76-.6-2.534-1.971-2.534Z" transform="translate(-157.525 -393.969)" fill="#ebebeb"/></g></g><g transform="translate(42.331 44.296)"><g transform="translate(0 0.48)"><path d="M85.1,355.8H82.28l.148-.731h6.48l-.16.731H85.937l-1.452,7.269h-.834Z" transform="translate(-82.28 -355.068)" fill="#e0e0e0"/></g><g transform="translate(4.077 2.468)"><path d="M95.4,357.569l-4.388,6.79c-.743,1.142-1.3,1.5-2.172,1.5a1.951,1.951,0,0,1-1.429-.537l.434-.593a1.405,1.405,0,0,0,1.063.434c.515,0,.914-.24,1.383-.971l.423-.64-1.5-5.978h.823l1.246,5.12,3.279-5.12Z" transform="translate(-87.408 -357.569)" fill="#e0e0e0"/></g><g transform="translate(11.559 2.424)"><path d="M104.009,360.05a3.386,3.386,0,0,1-3.4,3.577,2.249,2.249,0,0,1-2.286-1.315l-.685,3.476H96.82l1.635-8.229h.777l-.195.961a3.044,3.044,0,0,1,2.344-1.006A2.429,2.429,0,0,1,104.009,360.05Zm-.822.046a1.761,1.761,0,0,0-1.978-1.875,2.624,2.624,0,0,0-2.594,2.822,1.753,1.753,0,0,0,1.977,1.863A2.62,2.62,0,0,0,103.187,360.1Z" transform="translate(-96.82 -357.513)" fill="#e0e0e0"/></g><g transform="translate(19.693 2.424)"><path d="M107.052,361.078a3.411,3.411,0,0,1,3.475-3.565,2.462,2.462,0,0,1,2.731,2.537,3.414,3.414,0,0,1-3.475,3.577A2.476,2.476,0,0,1,107.052,361.078Zm5.395-.983a1.76,1.76,0,0,0-1.977-1.875,2.639,2.639,0,0,0-2.606,2.822,1.753,1.753,0,0,0,1.977,1.863A2.629,2.629,0,0,0,112.447,360.1Z" transform="translate(-107.052 -357.513)" fill="#e0e0e0"/></g><g transform="translate(26.455 2.424)"><path d="M122.782,357.557l-1.052,5.281c-.423,2.125-1.543,3-3.5,3a3.813,3.813,0,0,1-2.674-.9l.48-.616a3.143,3.143,0,0,0,2.251.8,2.352,2.352,0,0,0,2.605-2.148l.138-.665a3.112,3.112,0,0,1-2.4,1.03,2.382,2.382,0,0,1-2.651-2.424,3.321,3.321,0,0,1,3.429-3.4,2.3,2.3,0,0,1,2.343,1.371l.251-1.327Zm-1.371,2.411c0-1.1-.743-1.747-1.989-1.747a2.548,2.548,0,0,0-2.617,2.65c0,1.1.731,1.749,1.988,1.749A2.556,2.556,0,0,0,121.411,359.969Z" transform="translate(-115.559 -357.513)" fill="#e0e0e0"/></g><g transform="translate(34.748 2.424)"><path d="M130.22,357.513l-.149.788c-.08,0-.138-.012-.229-.012a2.379,2.379,0,0,0-2.434,2.229l-.606,3.052h-.812l1.189-6.012h.777l-.206,1.1A2.718,2.718,0,0,1,130.22,357.513Z" transform="translate(-125.991 -357.513)" fill="#e0e0e0"/></g><g transform="translate(39.123 2.424)"><path d="M138.237,357.557l-1.2,6.012h-.777l.194-.949a3.08,3.08,0,0,1-2.343,1.006,2.424,2.424,0,0,1-2.618-2.548,3.381,3.381,0,0,1,3.4-3.565,2.258,2.258,0,0,1,2.285,1.3l.251-1.258Zm-1.347,2.538a1.76,1.76,0,0,0-1.977-1.875,2.639,2.639,0,0,0-2.606,2.822,1.752,1.752,0,0,0,1.977,1.863A2.629,2.629,0,0,0,136.889,360.1Z" transform="translate(-131.494 -357.513)" fill="#e0e0e0"/></g><g transform="translate(46.479 2.424)"><path d="M147.937,360.05a3.387,3.387,0,0,1-3.406,3.577,2.249,2.249,0,0,1-2.286-1.315l-.685,3.476h-.812l1.634-8.229h.777l-.194.961a3.042,3.042,0,0,1,2.344-1.006A2.43,2.43,0,0,1,147.937,360.05Zm-.823.046a1.76,1.76,0,0,0-1.977-1.875,2.624,2.624,0,0,0-2.595,2.822,1.753,1.753,0,0,0,1.977,1.863A2.62,2.62,0,0,0,147.114,360.1Z" transform="translate(-140.748 -357.513)" fill="#e0e0e0"/></g><g transform="translate(54.67)"><path d="M157.326,358.842a3.635,3.635,0,0,1-.069.685l-.685,3.417h-.812l.687-3.429a3.276,3.276,0,0,0,.056-.548c0-.857-.514-1.348-1.554-1.348a2.342,2.342,0,0,0-2.446,2.1l-.64,3.223h-.812l1.692-8.481h.812l-.674,3.371a2.932,2.932,0,0,1,2.3-.947A1.885,1.885,0,0,1,157.326,358.842Z" transform="translate(-151.051 -354.464)" fill="#e0e0e0"/></g><g transform="translate(60.552 2.468)"><path d="M166.439,357.569l-4.389,6.79c-.743,1.142-1.3,1.5-2.171,1.5a1.948,1.948,0,0,1-1.429-.537l.433-.593a1.406,1.406,0,0,0,1.063.434c.515,0,.914-.24,1.383-.971l.424-.64-1.5-5.978h.823l1.246,5.12,3.28-5.12Z" transform="translate(-158.451 -357.569)" fill="#e0e0e0"/></g></g></g><g transform="translate(7.044 1.015)"><path d="M159.827,46.789H37.891L57.755,61.123v28.2a5.889,5.889,0,0,0,5.888,5.889h96.185a5.889,5.889,0,0,0,5.889-5.889V52.678A5.889,5.889,0,0,0,159.827,46.789Z" transform="translate(-37.891 -46.789)" fill="#f5f5f5"/><g transform="translate(34.704 19.717)"><path d="M163.693,71.8c0,.118-18.39.213-41.071.213s-41.075-.1-41.075-.213,18.386-.212,41.075-.212S163.693,71.687,163.693,71.8Z" transform="translate(-81.546 -71.592)" fill="#e0e0e0"/></g><g transform="translate(34.704 30.544)"><path d="M163.693,85.424c0,.118-18.39.213-41.071.213s-41.075-.1-41.075-.213,18.386-.213,41.075-.213S163.693,85.306,163.693,85.424Z" transform="translate(-81.546 -85.211)" fill="#e0e0e0"/></g></g></g><g transform="translate(22.733 363.955)"><path d="M579.625,446.3c0,.114-124.674.207-278.433.207-153.812,0-278.459-.093-278.459-.207s124.648-.208,278.459-.208C454.951,446.093,579.625,446.186,579.625,446.3Z" transform="translate(-22.733 -446.093)" fill="#263238"/></g><g transform="translate(43.033 229.813)"><g transform="translate(450.174)"><g transform="translate(0 23.702)"><path d="M648.654,377.24s-21.073-24.253-29.024-48.506-4.174-21.469-4.174-21.469,10.735,23.559,18.885,34.939S657,370.282,657,370.282Z" transform="translate(-614.559 -307.167)" fill="#455a64"/></g><g transform="translate(35.994 26.948)"><path d="M662.138,311.88a1.228,1.228,0,0,0-2.285.781c1.285,8.519,4.061,28.511,3.952,41.478-.141,16.843.006,23.355.006,23.355h8.77s-1.557-34.821-3.538-45.436C667.653,324.612,664.7,316.348,662.138,311.88Z" transform="translate(-659.837 -311.25)" fill="#455a64"/></g><g transform="translate(43.076 23.944)"><path d="M668.746,373.887a92.89,92.89,0,0,0,7.219-26.187c.723-6.2-.566-14.579-2.483-25.761a69.383,69.383,0,0,1-1.109-12.4,2.092,2.092,0,0,1,3.929-.982c1.059,1.89,4.123,8.341,4.9,12.386,2.123,11.041,4.53,16.561,2.689,27.036s-8.634,26.611-8.634,26.611Z" transform="translate(-668.746 -307.472)" fill="#455a64"/></g><g transform="translate(50.976 10.519)"><path d="M678.684,371.132s23.136-49.72,24.74-57.1,7.056-24.374,7.7-23.412,1.6,9.942-2.566,20.2-21.971,61.82-21.971,61.82h-7.9" transform="translate(-678.684 -290.584)" fill="#455a64"/></g><g transform="translate(0.282 24.359)"><path d="M655.174,372.477a4.725,4.725,0,0,1-.648-.445c-.411-.311-1.034-.749-1.793-1.368a82.023,82.023,0,0,1-6.218-5.489,104.341,104.341,0,0,1-16.785-21.543,141.179,141.179,0,0,1-11.458-24.819c-1.164-3.3-2.013-6.006-2.564-7.884-.282-.936-.477-1.672-.614-2.169a4.731,4.731,0,0,1-.18-.766,4.685,4.685,0,0,1,.275.737q.261.8.7,2.14c.607,1.859,1.5,4.542,2.708,7.822a150.06,150.06,0,0,0,11.554,24.685,108.89,108.89,0,0,0,16.606,21.547c2.476,2.461,4.6,4.336,6.094,5.589.738.641,1.341,1.1,1.731,1.438A4.744,4.744,0,0,1,655.174,372.477Z" transform="translate(-614.914 -307.994)" fill="#263238"/></g><g transform="translate(37.135 28.088)"><path d="M667.212,349.586a8.361,8.361,0,0,1-.208-1.459c-.11-1.029-.254-2.371-.427-3.986-.366-3.363-.938-8-1.755-13.1s-1.732-9.682-2.439-12.99c-.342-1.588-.626-2.906-.844-3.918a8.4,8.4,0,0,1-.26-1.45,8.472,8.472,0,0,1,.447,1.4c.259.912.6,2.239,1,3.887.795,3.294,1.762,7.88,2.586,12.99s1.337,9.765,1.615,13.143c.14,1.689.231,3.057.27,4A8.521,8.521,0,0,1,667.212,349.586Z" transform="translate(-661.273 -312.684)" fill="#263238"/></g><g transform="translate(46.131 24.645)"><path d="M674.951,308.353a3.531,3.531,0,0,1,.273.632c.177.468.406,1.081.694,1.847.306.8.658,1.789.993,2.96s.789,2.483,1.125,3.981q.274,1.12.573,2.338c.194.814.332,1.675.509,2.559.378,1.766.611,3.68.892,5.689a84.941,84.941,0,0,1-.942,26.284c-.424,1.983-.793,3.876-1.3,5.611-.24.869-.44,1.718-.692,2.516s-.5,1.56-.738,2.291c-.442,1.469-.98,2.751-1.407,3.89s-.839,2.1-1.2,2.881l-.824,1.793a3.654,3.654,0,0,1-.317.611,3.565,3.565,0,0,1,.227-.652l.738-1.826c.335-.787.729-1.754,1.121-2.9s.914-2.429,1.332-3.9q.339-1.1.706-2.29c.242-.8.43-1.645.661-2.512.483-1.73.837-3.616,1.246-5.592a87.771,87.771,0,0,0,.937-26.146c-.267-2-.484-3.906-.843-5.666-.168-.882-.295-1.74-.479-2.553l-.54-2.336c-.312-1.5-.732-2.814-1.05-3.985s-.633-2.169-.91-2.977c-.251-.777-.451-1.4-.6-1.875A3.6,3.6,0,0,1,674.951,308.353Z" transform="translate(-672.588 -308.353)" fill="#263238"/></g><g transform="translate(54.758 11.558)"><path d="M711.831,291.89a.764.764,0,0,1-.018.223c-.028.175-.061.387-.1.646-.1.566-.23,1.405-.456,2.475-.447,2.139-1.191,5.217-2.348,8.951s-2.733,8.115-4.608,12.926-4.036,10.058-6.089,15.641c-2.086,5.573-3.693,11.013-5.2,15.95s-2.916,9.374-4.288,13.035a83.016,83.016,0,0,1-3.653,8.5c-.473.985-.9,1.719-1.175,2.225l-.324.568a.783.783,0,0,1-.125.185.748.748,0,0,1,.08-.209l.281-.591c.246-.519.644-1.266,1.089-2.262.932-1.971,2.186-4.868,3.5-8.539s2.708-8.1,4.179-13.047,3.083-10.4,5.174-15.989c2.059-5.6,4.242-10.836,6.13-15.636s3.507-9.153,4.7-12.866,1.991-6.765,2.494-8.887c.254-1.06.412-1.893.546-2.452l.15-.637A.764.764,0,0,1,711.831,291.89Z" transform="translate(-683.441 -291.89)" fill="#263238"/></g><g transform="translate(8.431)"><path d="M628.539,277.927a1.991,1.991,0,0,0-3.279,2.031,56.832,56.832,0,0,0,2.907,7.476c3.181,6.759,12.524,31.012,16.9,44.331S655.6,369.934,655.6,369.934l9.339-1.515s-8.544-40.829-16.893-55.539C641.338,301.059,634.629,283.977,628.539,277.927Z" transform="translate(-625.165 -277.351)" fill="#455a64"/><g transform="translate(22.449 62.744)"><path d="M653.41,356.279a5.757,5.757,0,0,1,.481,1.119c.277.732.653,1.8,1.077,3.135.86,2.665,1.913,6.386,2.973,10.52s1.939,7.9,2.553,10.625l.7,3.236a5.736,5.736,0,0,1,.193,1.2,5.87,5.87,0,0,1-.38-1.157c-.227-.851-.514-1.923-.855-3.2-.714-2.809-1.654-6.5-2.692-10.586-1.06-4.129-2.057-7.857-2.829-10.54-.369-1.266-.678-2.331-.924-3.176A5.766,5.766,0,0,1,653.41,356.279Z" transform="translate(-653.405 -356.279)" fill="#263238"/></g><g transform="translate(1.077 0.419)"><path d="M660.569,369.283a1.006,1.006,0,0,1-.052-.249l-.106-.735c-.1-.646-.185-1.6-.383-2.828-.343-2.453-.955-5.989-1.958-10.3a147.515,147.515,0,0,0-4.372-14.921c-1.915-5.533-4.318-11.512-7.041-17.7-5.495-12.36-10.983-23.323-14.59-31.429-1.824-4.045-3.235-7.345-4.164-9.646-.475-1.146-.813-2.048-1.05-2.656l-.259-.7a.128.128,0,1,1,.046-.019l.305.677c.274.634.653,1.51,1.135,2.619.983,2.276,2.442,5.553,4.3,9.575,3.685,8.062,9.221,19,14.725,31.375,2.727,6.2,5.122,12.195,7.019,17.751a140.442,140.442,0,0,1,4.282,14.99,104.567,104.567,0,0,1,1.808,10.354c.168,1.23.225,2.194.291,2.844.023.3.042.545.057.741A.935.935,0,0,1,660.569,369.283Z" transform="translate(-626.52 -277.878)" fill="#263238"/></g><g transform="translate(29.546 51.825)"><path d="M672.561,381.786a9.782,9.782,0,0,1-.315-1.569c-.186-1.1-.431-2.544-.727-4.294-.644-3.619-1.626-8.6-3.039-14.027-1.4-5.43-2.975-10.26-4.186-13.729l-1.461-4.1a10.037,10.037,0,0,1-.5-1.522,9.829,9.829,0,0,1,.677,1.451c.4.948.964,2.328,1.61,4.053a135.827,135.827,0,0,1,4.336,13.724,142.873,142.873,0,0,1,2.906,14.094c.266,1.823.469,3.3.573,4.324A9.946,9.946,0,0,1,672.561,381.786Z" transform="translate(-662.332 -342.544)" fill="#263238"/></g></g><g transform="translate(23.404 89.726)"><g transform="translate(7.517)"><rect width="36.454" height="44.415" fill="#9866b7"/></g><g transform="translate(7.517)" opacity="0.3"><rect width="36.454" height="44.415"/></g><rect width="32.342" height="44.415" fill="#9866b7"/></g></g><g transform="translate(0 68.889)"><path d="M80.976,370.024c-6.209-3.976-14.816-4.053-20.86.173-5.738,4.011-8.651,11.31-8.4,18.306s3.644,15.544,9.982,19.219l18.6-.073a24.993,24.993,0,0,0,10.237-18.774A21.716,21.716,0,0,0,80.976,370.024Z" transform="translate(-48.973 -364.629)" fill="#455a64"/><g transform="translate(21.027 3.078)"><path d="M76.535,408.571a8.387,8.387,0,0,1-.117-1.6c-.033-1.144-.074-2.609-.124-4.363-.094-3.684-.239-8.772-.485-14.387s-.55-10.7-.78-14.377c-.1-1.752-.192-3.215-.26-4.357a8.261,8.261,0,0,1-.024-1.6A8.35,8.35,0,0,1,75,369.465c.126,1.024.281,2.509.449,4.345.336,3.673.706,8.757.954,14.382s.325,10.72.312,14.409c-.006,1.844-.029,3.337-.065,4.368A8.266,8.266,0,0,1,76.535,408.571Z" transform="translate(-74.72 -367.881)" fill="#263238"/></g><g transform="translate(0.153 21.757)"><path d="M52.929,391.91c-.014.163-1.025.214-2.258.112s-2.223-.316-2.209-.479,1.024-.214,2.258-.112S52.942,391.746,52.929,391.91Z" transform="translate(-48.462 -391.378)" fill="#263238"/></g><g transform="translate(1.308 14.347)"><path d="M53.573,383.721c-.066.15-.938-.091-1.947-.539s-1.774-.932-1.707-1.082.938.091,1.948.539S53.639,383.571,53.573,383.721Z" transform="translate(-49.915 -382.056)" fill="#263238"/></g><g transform="translate(4.558 8.34)"><path d="M57.641,377.512c-.084.137-1.065-.325-2.084-1.171s-1.658-1.72-1.54-1.828.929.555,1.918,1.371S57.731,377.371,57.641,377.512Z" transform="translate(-54.003 -374.5)" fill="#263238"/></g><g transform="translate(9.843 3.432)"><path d="M62.253,371.851c-.15.066-.62-.668-1.049-1.64s-.656-1.813-.506-1.88.619.668,1.049,1.64S62.4,371.784,62.253,371.851Z" transform="translate(-60.652 -368.327)" fill="#263238"/></g><g transform="translate(15.253)"><path d="M68.744,367.846c-.146.068-.652-.713-.987-1.8s-.365-2.013-.206-2.04.447.822.773,1.863S68.9,367.776,68.744,367.846Z" transform="translate(-67.457 -364.009)" fill="#263238"/></g><g transform="translate(23.988 0.317)"><path d="M79.5,364.412c.154.054.06.722-.211,1.49s-.616,1.347-.771,1.293-.06-.722.211-1.49S79.346,364.357,79.5,364.412Z" transform="translate(-78.445 -364.408)" fill="#263238"/></g><g transform="translate(29.123 3.005)"><path d="M87.133,367.812c.112.12-.293.676-.9,1.24s-1.2.925-1.307.8.293-.675.9-1.24S87.022,367.691,87.133,367.812Z" transform="translate(-84.905 -367.789)" fill="#263238"/></g><g transform="translate(34.358 6.578)"><path d="M94.037,372.319c.092.136-.4.63-1.1,1.1s-1.343.75-1.435.614.4-.63,1.1-1.105S93.945,372.183,94.037,372.319Z" transform="translate(-91.489 -372.284)" fill="#263238"/></g><g transform="translate(37.138 11.915)"><path d="M98.7,379.043c.064.15-.713.626-1.737,1.064s-1.905.668-1.97.517.713-.626,1.737-1.064S98.632,378.892,98.7,379.043Z" transform="translate(-94.986 -378.997)" fill="#263238"/></g><g transform="translate(38.794 17.645)"><path d="M100.677,386.352c.02.162-.771.394-1.767.517s-1.82.091-1.84-.071.77-.4,1.766-.518S100.656,386.189,100.677,386.352Z" transform="translate(-97.069 -386.206)" fill="#263238"/></g><g transform="translate(39.676 23.388)"><path d="M101.712,395.011c-.065.151-.908-.071-1.882-.494s-1.712-.889-1.646-1.039.908.071,1.882.494S101.778,394.861,101.712,395.011Z" transform="translate(-98.18 -393.43)" fill="#263238"/></g><g transform="translate(38.592 28.571)"><path d="M100.721,402.508c-.052.149-1.118-.1-2.231-.836s-1.778-1.6-1.661-1.708.93.526,1.986,1.211S100.782,402.35,100.721,402.508Z" transform="translate(-96.815 -399.949)" fill="#263238"/></g><g transform="translate(36.389 33.63)"><path d="M96.946,409.421c-.1.127-.946-.371-1.76-1.25s-1.251-1.76-1.118-1.848.77.6,1.553,1.444S97.05,409.289,96.946,409.421Z" transform="translate(-94.044 -406.313)" fill="#263238"/></g><g transform="translate(4.58 37.364)"><path d="M58.288,411.042c.076.146-.815.759-1.989,1.371s-2.189.99-2.264.844.815-.759,1.99-1.371S58.212,410.9,58.288,411.042Z" transform="translate(-54.03 -411.011)" fill="#263238"/></g><g transform="translate(2.615 32.278)"><path d="M55,404.658c.068.149-.647.619-1.6,1.049s-1.773.657-1.84.509.646-.619,1.6-1.05S54.932,404.509,55,404.658Z" transform="translate(-51.559 -404.612)" fill="#263238"/></g><g transform="translate(0 27.707)"><path d="M52.28,398.987c.023.162-.856.421-1.964.579s-2.025.153-2.047-.01.855-.421,1.964-.579S52.257,398.825,52.28,398.987Z" transform="translate(-48.269 -398.862)" fill="#263238"/></g><g transform="translate(6.709 25.281)"><path d="M60.718,395.885c.048.153-.809.553-1.953.68s-2.069-.068-2.056-.227.906-.237,1.989-.363S60.67,395.724,60.718,395.885Z" transform="translate(-56.709 -395.81)" fill="#263238"/></g><g transform="translate(13.095 19.717)"><path d="M67.937,388.906c.048.153-.634.5-1.555.587s-1.657-.113-1.64-.273.726-.231,1.582-.318S67.889,388.746,67.937,388.906Z" transform="translate(-64.742 -388.812)" fill="#263238"/></g><g transform="translate(14.245 14.227)"><path d="M69.3,383.049c-.053.155-.793.041-1.65-.256s-1.51-.663-1.456-.818.793-.041,1.65.256S69.352,382.894,69.3,383.049Z" transform="translate(-66.188 -381.906)" fill="#263238"/></g><g transform="translate(18.082 8.748)"><path d="M72.331,377.144c-.114.114-.622-.221-.984-.851s-.4-1.235-.244-1.277.434.424.759.981S72.451,377.029,72.331,377.144Z" transform="translate(-71.015 -375.013)" fill="#263238"/></g><g transform="translate(14.187 29.166)"><path d="M68.863,400.8c.039.16-.6.453-1.429.655a5.477,5.477,0,0,1-1.2.177l-.118-.347c.215-.039.353-.03.381.033s-.06.172-.233.3l-.118-.347a5.47,5.47,0,0,1,1.147-.4C68.122,400.674,68.824,400.639,68.863,400.8Z" transform="translate(-66.116 -400.699)" fill="#263238"/></g><g transform="translate(14.217 37.091)"><path d="M70.019,410.715c.06.153-.756.617-1.822,1.036s-1.979.634-2.04.482.756-.616,1.823-1.035S69.959,410.564,70.019,410.715Z" transform="translate(-66.154 -410.667)" fill="#263238"/></g><g transform="translate(9.163 33.561)"><path d="M62.422,406.308c.052.155-.491.481-1.215.727s-1.354.32-1.407.165.491-.481,1.215-.727S62.368,406.153,62.422,406.308Z" transform="translate(-59.796 -406.227)" fill="#263238"/></g><g transform="translate(8.365 16.191)"><path d="M62.7,385.8c-.037.157-.985.064-2.08-.326s-1.89-.91-1.82-1.056.955.121,2.019.5S62.737,385.639,62.7,385.8Z" transform="translate(-58.793 -384.377)" fill="#263238"/></g><g transform="translate(24.781 15.839)"><path d="M82.162,383.968c.09.137-.444.648-1.192,1.142s-1.428.782-1.518.646.443-.648,1.192-1.142S82.072,383.831,82.162,383.968Z" transform="translate(-79.442 -383.934)" fill="#263238"/></g><g transform="translate(25.702 23.654)"><path d="M83.228,393.89c.033.16-.527.413-1.252.563s-1.34.142-1.373-.018.528-.413,1.253-.563S83.194,393.73,83.228,393.89Z" transform="translate(-80.601 -393.764)" fill="#263238"/></g><g transform="translate(25.93 31.07)"><path d="M84.249,404.693c-.069.149-.876-.078-1.8-.507s-1.622-.9-1.553-1.047.876.079,1.8.508S84.318,404.545,84.249,404.693Z" transform="translate(-80.888 -403.094)" fill="#263238"/></g><g transform="translate(25.344 39.019)"><path d="M82.061,415.4c-.127.1-.651-.324-1.171-.957s-.839-1.231-.711-1.335.65.324,1.17.957S82.188,415.3,82.061,415.4Z" transform="translate(-80.151 -413.092)" fill="#263238"/></g><g transform="translate(24.804 10.009)"><path d="M81.505,376.642c.1.126-.246.563-.839.859s-1.149.316-1.192.16.39-.42.925-.691S81.4,376.51,81.505,376.642Z" transform="translate(-79.471 -376.599)" fill="#263238"/></g><g transform="translate(31.019 17.948)"><path d="M90.572,386.665c.054.151-.637.531-1.581.661s-1.712-.044-1.7-.2.739-.259,1.619-.384S90.518,386.507,90.572,386.665Z" transform="translate(-87.29 -386.587)" fill="#263238"/></g><g transform="translate(29.385 10.821)"><path d="M88.663,377.668c.072.143-.613.633-1.588.943s-1.816.312-1.84.153.734-.421,1.66-.719S88.59,377.518,88.663,377.668Z" transform="translate(-85.234 -377.621)" fill="#263238"/></g><g transform="translate(30.917 28.154)"><path d="M92.175,400.385a4.522,4.522,0,0,1-2.588,0,4.53,4.53,0,0,1-2.423-.913,7.95,7.95,0,0,1,2.529.329A7.965,7.965,0,0,1,92.175,400.385Z" transform="translate(-87.162 -399.425)" fill="#263238"/></g><g transform="translate(30.074 36.425)"><path d="M89.184,412.918c-.1.127-.962-.381-1.823-1.248s-1.368-1.731-1.24-1.829.825.573,1.661,1.41S89.287,412.786,89.184,412.918Z" transform="translate(-86.101 -409.83)" fill="#263238"/></g><g transform="translate(8.53 2.401)"><path d="M71.431,367.033a26.932,26.932,0,0,0-5.206,4.115,25.409,25.409,0,0,0-6.485,14.335,32.184,32.184,0,0,0,.392,8.783,66.946,66.946,0,0,0,1.645,7.049c.57,1.984,1.093,3.574,1.444,4.676a10.926,10.926,0,0,1,.5,1.73A9.97,9.97,0,0,1,63,406.068c-.419-1.08-1-2.653-1.629-4.632a59.569,59.569,0,0,1-1.782-7.076,31.533,31.533,0,0,1-.442-8.946,24.993,24.993,0,0,1,6.773-14.557,18.618,18.618,0,0,1,3.884-3.035A11.579,11.579,0,0,1,71,367.2,1.4,1.4,0,0,1,71.431,367.033Z" transform="translate(-59 -367.03)" fill="#263238"/></g><g transform="translate(20.512 2.647)"><path d="M82.621,408.165a65.282,65.282,0,0,0,2.669-6.379,36.1,36.1,0,0,0,1.6-16.4,30.857,30.857,0,0,0-2.529-8.746,20.626,20.626,0,0,0-4.313-6.006,15.708,15.708,0,0,0-4.225-2.671c-1.1-.458-1.757-.565-1.747-.615a1.456,1.456,0,0,1,.486.037,8.966,8.966,0,0,1,1.345.363,14.623,14.623,0,0,1,4.419,2.57,20.323,20.323,0,0,1,4.529,6.086,30.382,30.382,0,0,1,2.623,8.9,34.871,34.871,0,0,1-1.787,16.621c-.335,1.025-.767,1.9-1.089,2.7-.382.766-.7,1.432-.988,1.959A11.238,11.238,0,0,1,82.621,408.165Z" transform="translate(-74.072 -367.338)" fill="#263238"/></g><g transform="translate(6.056 42.069)"><path d="M55.888,416.929H88.625l.2,6.552H55.888Z" transform="translate(-55.888 -416.929)" fill="#9866b7"/></g><g transform="translate(8.838 45.345)"><path d="M59.387,421.05l1.881,20H85.2l1.922-19.783Z" transform="translate(-59.387 -421.05)" fill="#9866b7"/></g><g transform="translate(6.064 48.403)"><path d="M88.828,425.194c0,.164-7.372.3-16.464.3s-16.466-.133-16.466-.3,7.371-.3,16.466-.3S88.828,425.03,88.828,425.194Z" transform="translate(-55.898 -424.897)" fill="#263238"/></g><g transform="translate(10.406 52.807)"><path d="M86.622,432.423a4.958,4.958,0,0,1-.7,1.25,18.13,18.13,0,0,1-2.539,3l-.151.144-.149-.156a47.1,47.1,0,0,0-6.415-5.616l.362-.016-2.844,2.5-3.363,2.928-.186.162-.187-.157-5.466-4.6.318-.035-2.828,3.451a8.026,8.026,0,0,1-1.111,1.215,8.057,8.057,0,0,1,.914-1.369l2.672-3.572.137-.183.182.148,5.548,4.5-.372.006,3.35-2.942,2.853-2.487.176-.153.187.137a41.871,41.871,0,0,1,6.385,5.8l-.3-.012A33.476,33.476,0,0,0,86.622,432.423Z" transform="translate(-61.36 -430.437)" fill="#263238"/></g></g></g><g transform="translate(101.836 114.083)"><g transform="translate(12.103)"><rect width="369.698" height="244.477" rx="14.567" fill="#455a64"/></g><g transform="translate(0 228.688)"><path d="M0,0H400.539a0,0,0,0,1,0,0V3.594a17.8,17.8,0,0,1-17.8,17.8H17.8A17.8,17.8,0,0,1,0,3.594V0A0,0,0,0,1,0,0Z" fill="#455a64"/></g><g transform="translate(160.507 226.396)"><path d="M324.147,416.56l4.97,7.906h69.939l4.615-7.906Z" transform="translate(-324.147 -416.56)" fill="#263238"/></g><g transform="translate(12.103 226.156)"><path d="M503.985,416.5c0,.133-82.055.24-183.252.24-101.232,0-183.269-.107-183.269-.24s82.038-.239,183.269-.239C421.93,416.259,503.985,416.366,503.985,416.5Z" transform="translate(-137.464 -416.259)" fill="#263238"/></g><g transform="translate(22.318 14.058)"><g transform="translate(0.371)"><path d="M3.273,0H343.8a3.273,3.273,0,0,1,3.273,3.273V202.6a3.273,3.273,0,0,1-3.273,3.273H3.272A3.272,3.272,0,0,1,0,202.6V3.273A3.273,3.273,0,0,1,3.273,0Z" fill="#ebebeb"/></g><g transform="translate(0 15.386)"><path d="M497.392,359.6H150.315l.371-190.789H497.392Z" transform="translate(-150.315 -168.808)" fill="#fff"/></g><g transform="translate(23.294 5.179)"><path d="M185.16,158.74a2.772,2.772,0,1,1-2.772-2.771A2.772,2.772,0,0,1,185.16,158.74Z" transform="translate(-179.617 -155.969)" fill="#263238"/></g><g transform="translate(6.493 5.179)"><path d="M164.027,158.74a2.772,2.772,0,1,1-2.772-2.771A2.772,2.772,0,0,1,164.027,158.74Z" transform="translate(-158.483 -155.969)" fill="#263238"/></g><g transform="translate(14.558 5.179)"><path d="M174.171,158.74a2.772,2.772,0,1,1-2.772-2.771A2.772,2.772,0,0,1,174.171,158.74Z" transform="translate(-168.627 -155.969)" fill="#263238"/></g></g><rect width="347.449" height="18.423" transform="translate(22.318 201.81)" fill="#263238"/><g transform="translate(32.534 207.309)"><g transform="translate(0 2.627)"><path d="M166.076,399.073v.59H163.31V399.2l1.491-1.416c.365-.348.429-.568.429-.777,0-.343-.236-.542-.7-.542a1.06,1.06,0,0,0-.879.391l-.487-.375a1.735,1.735,0,0,1,1.426-.622c.815,0,1.34.413,1.34,1.078a1.5,1.5,0,0,1-.622,1.185l-1,.955Z" transform="translate(-163.165 -395.855)" fill="#fff"/><path d="M167.3,397.447a.44.44,0,1,1,.879,0,.44.44,0,1,1-.879,0Zm0,2.043a.44.44,0,1,1,.879,0,.44.44,0,1,1-.879,0Z" transform="translate(-164.013 -396.09)" fill="#fff"/><path d="M170.22,395.923v3.754h-.7v-3.169h-.793v-.584Z" transform="translate(-164.306 -395.869)" fill="#fff"/><path d="M174.872,398.825h-.665v.852h-.676v-.852h-2.059v-.483l1.849-2.418h.746l-1.743,2.312h1.228v-.757h.654v.757h.665Z" transform="translate(-164.868 -395.869)" fill="#fff"/></g><g transform="translate(16.135 4.081)"><rect width="284.783" height="1.298" fill="#fff"/></g><g transform="translate(15.922 2.683)"><rect width="88.995" height="3.462" fill="#9866b7"/></g><g transform="translate(99.124 0.399)"><path d="M296.523,397.384a4.333,4.333,0,1,1-4.332-4.332A4.333,4.333,0,0,1,296.523,397.384Z" transform="translate(-287.857 -393.052)" fill="#9866b7"/></g><g transform="translate(305.093 2.046)"><path d="M549.95,397.767a1.251,1.251,0,0,1-1.373,1.218c-1.023,0-1.625-.659-1.625-1.867a1.778,1.778,0,0,1,1.839-1.995,1.882,1.882,0,0,1,.987.241l-.257.525a1.274,1.274,0,0,0-.713-.182c-.708,0-1.153.44-1.153,1.293v.006a1.281,1.281,0,0,1,1-.391A1.172,1.172,0,0,1,549.95,397.767Zm-.676.032c0-.391-.295-.637-.75-.637a.683.683,0,0,0-.762.643c0,.353.279.632.777.632A.651.651,0,0,0,549.274,397.8Z" transform="translate(-546.952 -395.124)" fill="#fff"/><path d="M551.15,396.716a.439.439,0,1,1,.878,0,.439.439,0,1,1-.878,0Zm0,2.043a.439.439,0,1,1,.878,0,.439.439,0,1,1-.878,0Z" transform="translate(-547.813 -395.359)" fill="#fff"/><path d="M552.82,397.055c0-1.234.676-1.931,1.565-1.931s1.572.7,1.572,1.931-.676,1.93-1.572,1.93S552.82,398.287,552.82,397.055Zm2.434,0c0-.906-.353-1.324-.869-1.324s-.863.418-.863,1.324.354,1.324.863,1.324S555.254,397.961,555.254,397.055Z" transform="translate(-548.155 -395.124)" fill="#fff"/><path d="M557.354,397.055c0-1.234.676-1.931,1.566-1.931s1.571.7,1.571,1.931-.675,1.93-1.571,1.93S557.354,398.287,557.354,397.055Zm2.435,0c0-.906-.354-1.324-.869-1.324s-.863.418-.863,1.324.354,1.324.863,1.324S559.789,397.961,559.789,397.055Z" transform="translate(-549.085 -395.124)" fill="#fff"/></g><g transform="translate(321.265)"><path d="M568.594,396.294h-1.3v-3.743h3.736v1.3h-2.437Z" transform="translate(-567.295 -392.551)" fill="#fff"/></g><g transform="translate(321.261 4.893)"><path d="M571.033,402.441H567.29v-3.735h1.3v2.437h2.445Z" transform="translate(-567.29 -398.705)" fill="#fff"/></g><g transform="translate(327.229 4.884)"><path d="M578.534,402.439H574.8v-1.3h2.438v-2.445h1.3Z" transform="translate(-574.798 -398.695)" fill="#fff"/></g><g transform="translate(327.225)"><path d="M578.536,396.286h-1.3v-2.437h-2.445v-1.3h3.743Z" transform="translate(-574.793 -392.551)" fill="#fff"/></g></g><g transform="translate(39.228 40.788)"><path d="M202.272,183.078H181.814l-10.229,17.717,10.229,17.716h20.457L212.5,200.795Z" transform="translate(-171.586 -183.078)" fill="#ebebeb"/><g transform="translate(8.491 1.536)"><path d="M185.674,204.659a18.263,18.263,0,0,1-2.5-3.225,6.139,6.139,0,0,1-.843-3.924c.13-.787.463-1.537.517-2.332.073-1.095-.387-2.239,0-3.265.607-1.6,2.766-1.852,4.075-2.96,1.019-.863,1.516-2.264,2.637-2.99a4.955,4.955,0,0,1,3.394-.456,12.823,12.823,0,0,0,3.475.3,22.9,22.9,0,0,0,2.408-.645,3.288,3.288,0,0,1,2.428.165,1.58,1.58,0,0,1,.652,2.124,2.642,2.642,0,0,1,3.409,1.856,4.015,4.015,0,0,1-1.5,3.917,8.8,8.8,0,0,1-4.055,1.654,16.97,16.97,0,0,1-12.1-1.885" transform="translate(-182.267 -185.01)" fill="#263238"/><g transform="translate(0.255 2.312)"><g transform="translate(2.499 0.912)"><path d="M205.351,209.863c-.138-2.536-.847-7.734-1.545-12.432a9.8,9.8,0,0,0-10.349-8.343l-.506.034c-5.438.684-7.9,5.685-7.062,11.1l1.6,19.515H200.76s-.314-3.424-.316-3.457C200.444,216.282,205.638,215.115,205.351,209.863Z" transform="translate(-185.732 -189.066)" fill="#ffbe9d"/><g transform="translate(7.745 25.653)"><path d="M202.445,222.823a12.233,12.233,0,0,1-6.971-1.487s1.87,3.668,7.074,2.845Z" transform="translate(-195.474 -221.336)" fill="#eb996e"/></g><g transform="translate(5.542 7.945)"><g transform="translate(0.695 2.366)"><g transform="translate(7.917)"><g transform="translate(0.738 1.926)"><path d="M205.959,205.089a.751.751,0,0,1-.672.8.718.718,0,0,1-.818-.624.752.752,0,0,1,.672-.8A.719.719,0,0,1,205.959,205.089Z" transform="translate(-204.466 -204.459)" fill="#263238"/></g><path d="M206.5,202.73c-.087.1-.682-.278-1.489-.222s-1.37.5-1.464.406c-.046-.041.037-.224.281-.428a2.057,2.057,0,0,1,1.165-.446,1.974,1.974,0,0,1,1.192.3C206.448,202.512,206.544,202.683,206.5,202.73Z" transform="translate(-203.537 -202.036)" fill="#263238"/></g><g transform="translate(0 0.68)"><g transform="translate(1.038 1.79)"><path d="M196.377,205.774a.751.751,0,0,1-.673.8.718.718,0,0,1-.817-.624.751.751,0,0,1,.671-.8A.719.719,0,0,1,196.377,205.774Z" transform="translate(-194.883 -205.144)" fill="#263238"/></g><path d="M196.542,203.586c-.086.1-.683-.277-1.488-.222s-1.37.5-1.464.406c-.046-.041.036-.223.282-.428a2.058,2.058,0,0,1,1.164-.446,1.978,1.978,0,0,1,1.193.3C196.489,203.368,196.585,203.54,196.542,203.586Z" transform="translate(-193.578 -202.892)" fill="#263238"/></g><g transform="translate(5.466 0.464)"><path d="M201.279,209.315a5.39,5.39,0,0,1,1.294-.324c.2-.035.4-.089.422-.232a1.053,1.053,0,0,0-.179-.6q-.34-.729-.714-1.527a27.007,27.007,0,0,1-1.642-4.011,27.111,27.111,0,0,1,1.96,3.869q.361.8.689,1.538a1.189,1.189,0,0,1,.161.8.513.513,0,0,1-.318.324,1.386,1.386,0,0,1-.347.072A5.283,5.283,0,0,1,201.279,209.315Z" transform="translate(-200.454 -202.62)" fill="#263238"/></g></g><g transform="translate(0 0.058)"><path d="M196.361,199.642c-.065.224-.878.174-1.816.351-.942.158-1.687.487-1.825.3-.062-.09.057-.305.351-.538a3.215,3.215,0,0,1,2.774-.5C196.2,199.375,196.388,199.535,196.361,199.642Z" transform="translate(-192.704 -199.134)" fill="#263238"/></g><g transform="translate(8.367)"><path d="M205.986,199.806c-.13.193-.7.04-1.367.076-.67.013-1.226.206-1.369.023-.063-.089.014-.279.25-.469a1.984,1.984,0,0,1,2.2-.079C205.952,199.529,206.042,199.713,205.986,199.806Z" transform="translate(-203.23 -199.06)" fill="#263238"/></g></g></g><g transform="translate(0 15.83)"><path d="M185.935,207.929c-.091-.033-3.677-.825-3.322,2.755s4.234,2.413,4.23,2.31S185.935,207.929,185.935,207.929Z" transform="translate(-182.588 -207.832)" fill="#ffbe9d"/><g transform="translate(0.927 1.217)"><path d="M185.5,212.132c-.017-.01-.059.05-.159.109a.625.625,0,0,1-.465.056,1.551,1.551,0,0,1-.851-1.314,2.063,2.063,0,0,1,.087-.91.721.721,0,0,1,.421-.525.318.318,0,0,1,.385.134c.058.1.042.169.062.173s.071-.068.027-.212a.4.4,0,0,0-.163-.211.475.475,0,0,0-.354-.057.88.88,0,0,0-.6.62,2.126,2.126,0,0,0-.118,1.019,1.628,1.628,0,0,0,1.063,1.456.672.672,0,0,0,.561-.151C185.5,212.219,185.509,212.138,185.5,212.132Z" transform="translate(-183.754 -209.364)" fill="#eb996e"/></g></g><g transform="translate(1.919)"><path d="M203.392,192.294c-.246,1.425-3.136,2.731-5.533,2.661-2.209-.064-3.3-1.161-4.9-1.94-1.016-.493-1.016-.493-2.4-.269-1.115.181-1.693,1.5-2.319,2.437,1.192,2.6.711,5.621.205,8.436a1.426,1.426,0,0,1-.363.855,1.142,1.142,0,0,1-1.451-.22,4.44,4.44,0,0,1-1.13-2.274,14.789,14.789,0,0,1-.355-5.821,10.067,10.067,0,0,1,2.422-5.255,9.537,9.537,0,0,1,6.507-2.97,11.716,11.716,0,0,1,6.942,1.971,6.865,6.865,0,0,1,2.373,2.39" transform="translate(-185.001 -187.919)" fill="#263238"/></g></g><path d="M201.416,213.081l-1.825-.851a.606.606,0,0,0-.331-.083.526.526,0,0,0-.316.214,1.7,1.7,0,0,0-.2,1.865,1.426,1.426,0,0,0,1.712.63,1.945,1.945,0,0,0,1.012-1.717Z" transform="translate(-185.606 -190.574)" fill="#eb996e"/><g transform="translate(12.653 21.273)"><path d="M200.436,214.908c.029.036-.381.293-1.069.1a1.678,1.678,0,0,1-.947-.769,1.74,1.74,0,0,1-.12-1.5,1.809,1.809,0,0,1,.442-.663,1.7,1.7,0,0,1,.31-.233.529.529,0,0,1,.481-.028c.417.232.7.43.979.61.534.355.851.6.822.648s-.4-.1-.97-.4l-.974-.509c-.076-.021-.068-.021-.141.018a1.358,1.358,0,0,0-.226.181,1.494,1.494,0,0,0-.336.519,1.419,1.419,0,0,0,.068,1.165,1.476,1.476,0,0,0,.714.677A3.879,3.879,0,0,0,200.436,214.908Z" transform="translate(-198.184 -211.77)" fill="#263238"/></g><g transform="translate(6.645 12.266)"><path d="M198.311,204.355c-.041,0-.036-.333-.195-.894a3.734,3.734,0,0,0-1.371-1.962,3.56,3.56,0,1,0,0,5.71,3.734,3.734,0,0,0,1.371-1.962c.159-.56.154-.9.195-.893.014,0,.024.082.029.241a2.772,2.772,0,0,1-.068.691,3.72,3.72,0,0,1-1.349,2.156,3.872,3.872,0,0,1-3.689.6,3.916,3.916,0,0,1,0-7.381,3.872,3.872,0,0,1,3.689.6,3.721,3.721,0,0,1,1.349,2.155,2.78,2.78,0,0,1,.068.692C198.335,204.272,198.325,204.355,198.311,204.355Z" transform="translate(-190.627 -200.44)" fill="#263238"/></g><g transform="translate(15.765 12.011)"><path d="M209.591,203.938c-.04,0-.036-.324-.192-.87a3.633,3.633,0,0,0-1.336-1.909,3.465,3.465,0,1,0,0,5.558,3.633,3.633,0,0,0,1.336-1.909c.156-.545.152-.871.192-.87.014,0,.025.08.03.234a2.7,2.7,0,0,1-.066.675,3.621,3.621,0,0,1-1.314,2.1,3.776,3.776,0,0,1-3.6.589,3.82,3.82,0,0,1,0-7.2,3.776,3.776,0,0,1,3.6.588,3.622,3.622,0,0,1,1.314,2.1,2.691,2.691,0,0,1,.066.674C209.616,203.858,209.606,203.938,209.591,203.938Z" transform="translate(-202.099 -200.119)" fill="#263238"/></g><g transform="translate(14.131 14.454)"><path d="M201.884,203.744c-.082.076-.436-.153-.913-.138-.479,0-.822.242-.907.171-.11-.058.224-.574.9-.585S201.99,203.681,201.884,203.744Z" transform="translate(-200.043 -203.192)" fill="#263238"/></g><g transform="translate(3.724 15.638)"><path d="M190.306,204.693c.068.092-.626.726-1.551,1.416a5.432,5.432,0,0,1-1.8,1.084c-.068-.091.626-.725,1.551-1.416A5.465,5.465,0,0,1,190.306,204.693Z" transform="translate(-186.952 -204.682)" fill="#263238"/></g></g><g transform="translate(48.275 17.329)"><path d="M273.391,205.084c0,.114-9.2.207-20.538.207s-20.54-.093-20.54-.207,9.194-.207,20.54-.207S273.391,204.97,273.391,205.084Z" transform="translate(-232.313 -204.877)" fill="#263238"/></g><g transform="translate(48.544 21.628)"><path d="M254.464,210.492c0,.114-4.883.207-10.906.207s-10.907-.093-10.907-.207,4.882-.207,10.907-.207S254.464,210.377,254.464,210.492Z" transform="translate(-232.651 -210.285)" fill="#263238"/></g></g></g><g transform="translate(196.692 102.105)"><path d="M436.289,245.093a31.318,31.318,0,0,1,14.752,19.055c3.834,13.736,15.577,49.508,15.577,49.508s6.71,7.894,7.429,13.74-.719,19.985-2.876,22.621a6.073,6.073,0,0,1-5.232,2.2L437.7,349.538,426.574,275.07Z" transform="translate(-279.498 -143.029)" fill="#9866b7"/><path d="M314.8,240.886s-20.194,6.333-25.227,11.846l16.536,76.926-.264,24.272h95.742c0-1.2.859-80.588.859-80.588l5.751-31.153-34.03-5.992-6.71-5.272-37.864,1.917-5.751,5.751Z" transform="translate(-251.407 -140.123)" fill="#9866b7"/><g transform="translate(54.506 165.97)" opacity="0.3"><path d="M326.685,327.012c-.295-.653-.716-1.358-1.418-1.5-1.153-.238-1.925,1.125-2.317,2.235A101.1,101.1,0,0,1,310.373,352.3l-.246,11.811c5.582-4.7,11.086-9.728,14.643-16.1S329.689,333.66,326.685,327.012Z" transform="translate(-310.127 -325.482)"/></g><path d="M279.729,258.357s-6.654,9.071-9.417,14.992-25.658,55.658-27.04,60.79-4.934,21.316,5.527,25.066h21.513L291.9,315.541l1.1-50.679Z" transform="translate(-241.562 -145.748)" fill="#9866b7"/><g transform="translate(3.926 178.437)"><path d="M272.7,344.643c-.029.033-.48-.423-1.47-.987a16.526,16.526,0,0,0-4.516-1.635,21.732,21.732,0,0,0-3.291-.463,13.112,13.112,0,0,0-3.773.246,14.067,14.067,0,0,0-7.243,4.546,19.619,19.619,0,0,0-4.1,7.624,38.063,38.063,0,0,0-1.294,7.038c-.2,2.035-.277,3.692-.347,4.836-.034.534-.061.971-.083,1.317a1.943,1.943,0,0,1-.056.459,1.955,1.955,0,0,1-.027-.461c0-.347,0-.785,0-1.321.021-1.146.052-2.807.217-4.856a36.367,36.367,0,0,1,1.219-7.119,19.69,19.69,0,0,1,4.157-7.791,14.3,14.3,0,0,1,7.469-4.644,13.266,13.266,0,0,1,3.879-.216,21.3,21.3,0,0,1,3.334.52,15.533,15.533,0,0,1,4.532,1.782,7.765,7.765,0,0,1,1.067.791A1.956,1.956,0,0,1,272.7,344.643Z" transform="translate(-246.501 -341.165)" fill="#263238"/></g><g transform="translate(19.925 173.052)"><path d="M266.627,334.56a2.516,2.516,0,0,1,.723-.116,12.289,12.289,0,0,1,2-.027,16.5,16.5,0,0,1,2.934.433,17.477,17.477,0,0,1,6.527,3.114,16.426,16.426,0,0,1,2.184,2.007,12.277,12.277,0,0,1,1.235,1.568,2.48,2.48,0,0,1,.365.635c-.064.045-.647-.816-1.812-2a18.9,18.9,0,0,0-2.2-1.9,18.738,18.738,0,0,0-6.392-3.049,18.906,18.906,0,0,0-2.864-.511C267.669,334.549,266.632,334.638,266.627,334.56Z" transform="translate(-266.627 -334.391)" fill="#263238"/></g><g transform="translate(14.583 169.992)"><path d="M284.7,331.378a4.645,4.645,0,0,1-1-.076c-.634-.082-1.556-.175-2.694-.259a45.919,45.919,0,0,0-17.6,2.105c-1.087.351-1.96.658-2.557.887a4.643,4.643,0,0,1-.949.308,4.581,4.581,0,0,1,.888-.458c.58-.275,1.443-.626,2.525-1.015a40.676,40.676,0,0,1,17.716-2.119c1.143.122,2.064.26,2.693.391A4.611,4.611,0,0,1,284.7,331.378Z" transform="translate(-259.907 -330.542)" fill="#263238"/></g><g transform="translate(72.435 98.468)"><path d="M360.9,270.435a1.369,1.369,0,0,1-.219-.258c-.153-.206-.347-.466-.587-.786l-2.162-3-7.493-10.573.334-.047-3.785,11.113-.085.25-.217-.139-.447-.287a22.977,22.977,0,0,1-4.684-3.956,27.843,27.843,0,0,1-3.344-4.625,38.59,38.59,0,0,1-3.681-8.9,60.109,60.109,0,0,1-1.394-6.337l-.3-1.735c-.036-.2-.076-.343-.1-.443a.474.474,0,0,1-.05-.147,7.238,7.238,0,0,1,.611,2.294c.308,1.5.74,3.67,1.516,6.286a39.509,39.509,0,0,0,3.729,8.787,27.877,27.877,0,0,0,3.315,4.545,22.8,22.8,0,0,0,4.606,3.879l.438.281-.3.11,3.819-11.1.122-.354.212.307,7.37,10.659,2.075,3.057.538.82A1.419,1.419,0,0,1,360.9,270.435Z" transform="translate(-332.68 -240.569)" fill="#263238"/></g><g transform="translate(125.369 165.057)" opacity="0.3"><path d="M399.477,324.334a43.487,43.487,0,0,0,5.532,25.8c4.456,7.748,10.982,14.654,19.116,18.36.263-7.895-.116-17.194.146-25.089Z" transform="translate(-399.269 -324.334)"/></g><g transform="translate(122.838 135.824)"><path d="M397.923,306.4s-3.478.966-.87,8.09,3.478,6.694,5.216,13.36,3.768,12.747,6.811,16.515,14.345,11.447,14.345,11.447l10.144-9.564s-1.672-7.127-1.27-11.968,1.415-16.723,1.27-18.751-2.319-6.955-2.319-6.955V305.2l-5.216-16.047s-2.9-1.3-3.912,3.333l-1.739-4.922s-2.753-.44-3.477,5.211.58,13.476.58,13.476l-1.449,9.853-2.173,6.666-1.884.289s-2.836-.774-4.388-6.111S401.836,305.241,397.923,306.4Z" transform="translate(-396.084 -287.56)" fill="#ffbe9d"/><g transform="translate(22.789 23.841)"><path d="M436.052,337.754a1.6,1.6,0,0,1-.048-.366c-.019-.276-.043-.627-.073-1.061-.052-.972-.124-2.317-.214-3.991-.157-3.46-.374-8.275-.627-13.9l.045.117a2.033,2.033,0,0,0-2.053-.535,3,3,0,0,0-1.88,1.378c-.886,1.425-.935,3.283-1.212,5.077-.55,4.061-1.074,7.928-1.552,11.453-.241,1.761-.5,3.436-.839,4.986a32.472,32.472,0,0,1-1.257,4.227,35.192,35.192,0,0,0-1.091,3.441,10.533,10.533,0,0,0-.328,2.683,8.42,8.42,0,0,0,.4,2.273,3.322,3.322,0,0,1-.243-.556,6.308,6.308,0,0,1-.319-1.711,10.286,10.286,0,0,1,.263-2.741,33.473,33.473,0,0,1,1.041-3.485,33.151,33.151,0,0,0,1.2-4.2c.326-1.538.567-3.2.8-4.964.467-3.526.98-7.395,1.518-11.457.128-.906.226-1.8.384-2.693a7.07,7.07,0,0,1,.894-2.548,3.408,3.408,0,0,1,2.133-1.549,2.425,2.425,0,0,1,2.441.674l.043.052,0,.065c.193,5.623.359,10.44.478,13.9.043,1.676.078,3.022.1,3.995,0,.436.009.788.011,1.064A1.592,1.592,0,0,1,436.052,337.754Z" transform="translate(-424.751 -317.551)" fill="#eb996e"/></g><g transform="translate(26.45 11.945)"><path d="M431.451,316.425a4.13,4.13,0,0,1-.428-.907,22.925,22.925,0,0,1-.849-2.6,26.076,26.076,0,0,1-.729-3.992,11.615,11.615,0,0,1-.043-2.42,5.168,5.168,0,0,1,.874-2.484,3.542,3.542,0,0,1,1.855-1.392l.156-.046.079.141c1.469,2.592,2.745,4.879,3.642,6.524l1.039,1.945a3.318,3.318,0,0,1,.333.73,3.332,3.332,0,0,1-.459-.658l-1.146-1.884c-.96-1.61-2.281-3.872-3.764-6.455l.235.094a3.165,3.165,0,0,0-1.633,1.24,4.823,4.823,0,0,0-.809,2.29,11.641,11.641,0,0,0,.02,2.339,29.278,29.278,0,0,0,.633,3.959c.255,1.115.527,2,.717,2.614A5.391,5.391,0,0,1,431.451,316.425Z" transform="translate(-429.356 -302.586)" fill="#eb996e"/></g><g transform="translate(25.693 3.642)"><path d="M428.831,315.588a3.97,3.97,0,0,1-.095-.924c-.027-.684-.061-1.526-.1-2.522-.068-2.13-.134-5.073-.181-8.323a71.489,71.489,0,0,1,.129-8.341,12.835,12.835,0,0,1,.543-2.482,3.117,3.117,0,0,1,.372-.854,23.476,23.476,0,0,0-.624,3.367c-.2,2.1-.031,5.05-.006,8.3.048,3.251.067,6.194.06,8.326-.012,1-.021,1.84-.029,2.524A4,4,0,0,1,428.831,315.588Z" transform="translate(-428.403 -292.142)" fill="#eb996e"/></g><g transform="translate(17.539 37.397)"><path d="M418.151,351.014c-.059-.049.576-.8,1.361-2.151a17.9,17.9,0,0,0,1.18-2.473,17.7,17.7,0,0,0,1.185-6.566,17.816,17.816,0,0,0-.24-2.731c-.262-1.543-.6-2.465-.523-2.491a2.214,2.214,0,0,1,.289.628,11.492,11.492,0,0,1,.522,1.808,15.562,15.562,0,0,1,.335,2.778,16.485,16.485,0,0,1-1.212,6.713,15.544,15.544,0,0,1-1.284,2.485,11.523,11.523,0,0,1-1.122,1.512C418.346,350.859,418.172,351.032,418.151,351.014Z" transform="translate(-418.147 -334.603)" fill="#eb996e"/></g><path d="M438.485,348.976l8.8,3.055s8.4-4.347,14.2,0,10.83,15.8,9.237,20.441c0,0-4,4.939-7.043,5.664s-14.873-2.142-19.794-3.177-13.408-6.553-13.408-6.553Z" transform="translate(-403.136 -300.153)" fill="#ffbe9d"/><g transform="translate(35.949 41.935)"><path d="M441.787,360.168a2.9,2.9,0,0,1-.094-.78c-.035-.6-.077-1.3-.126-2.126-.093-1.8-.214-4.279-.251-7.027a69.933,69.933,0,0,1,.2-7.039c.077-.9.176-1.623.266-2.12a2.868,2.868,0,0,1,.182-.765c.065.01-.072,1.113-.157,2.9s-.122,4.271-.081,7.013c.05,2.687.095,5.116.13,7.023.01.9.007,1.629-.006,2.133A2.9,2.9,0,0,1,441.787,360.168Z" transform="translate(-441.306 -340.311)" fill="#eb996e"/></g></g><g transform="translate(164.323 181.087)"><path d="M472.24,350.768a27.617,27.617,0,0,0-2.927-2.639,16.1,16.1,0,0,0-17.843-.983,27.843,27.843,0,0,0-3.2,2.3,4.41,4.41,0,0,1,.726-.786,14.362,14.362,0,0,1,2.324-1.767,15.824,15.824,0,0,1,18.169,1,14.3,14.3,0,0,1,2.116,2.012A4.375,4.375,0,0,1,472.24,350.768Z" transform="translate(-448.27 -344.499)" fill="#263238"/></g><g transform="translate(161.662 176.679)"><path d="M470.423,342.291a17.263,17.263,0,0,0-3.662-2.019,16.2,16.2,0,0,0-9.91-.3,23.009,23.009,0,0,0-5.125,2.133,24.328,24.328,0,0,0-3.712,2.623c-.988.843-1.743,1.579-2.262,2.091a6.381,6.381,0,0,1-.828.776,5.571,5.571,0,0,1,.711-.886,27.528,27.528,0,0,1,2.186-2.2,22.72,22.72,0,0,1,3.714-2.733,22.361,22.361,0,0,1,5.2-2.2,15.9,15.9,0,0,1,10.128.424,11.66,11.66,0,0,1,2.709,1.529,7.525,7.525,0,0,1,.645.547C470.363,342.207,470.432,342.281,470.423,342.291Z" transform="translate(-444.923 -338.953)" fill="#263238"/></g><g transform="translate(159.987 172.253)"><path d="M470.064,334.788c-.022.082-1.561-.388-4.117-.735a33.175,33.175,0,0,0-4.512-.286,32.819,32.819,0,0,0-10.856,1.91,33.252,33.252,0,0,0-4.143,1.809c-2.285,1.2-3.57,2.165-3.619,2.1a5.818,5.818,0,0,1,.881-.7,12.48,12.48,0,0,1,1.093-.747c.439-.272.927-.6,1.506-.9a29.867,29.867,0,0,1,4.153-1.91,31.086,31.086,0,0,1,10.985-1.933,29.91,29.91,0,0,1,4.554.378c.646.082,1.218.228,1.723.334a12.079,12.079,0,0,1,1.282.329A5.907,5.907,0,0,1,470.064,334.788Z" transform="translate(-442.816 -333.386)" fill="#263238"/></g><g transform="translate(98.135 95.811)"><path d="M386.67,237.227a7.349,7.349,0,0,1,.61,2.34,22.837,22.837,0,0,1-.334,6.829,40.746,40.746,0,0,1-1.138,4.759,36.179,36.179,0,0,1-2.312,5.287c-1.9,3.656-4.282,7.643-7.045,11.894l-.323.5v-.595c0-2.809-.009-5.758-.013-8.821l.309.148L369,265.558l.064-.095a78.181,78.181,0,0,0-3.3,17.846c-.726,9.675-.141,18.928.316,27.323.391,8.406.646,15.976.909,22.333s.482,11.5.673,15.051c.1,1.759.185,3.133.242,4.088.03.453.054.805.071,1.063.013.24.01.364.01.364s-.025-.122-.052-.36c-.027-.257-.064-.608-.111-1.06-.088-.933-.2-2.31-.32-4.085-.241-3.55-.515-8.692-.805-15.048s-.622-13.927-1-22.326c-.477-8.388-1.076-17.661-.347-27.373a78.007,78.007,0,0,1,3.335-17.936l.017-.057.047-.038,7.437-5.977.31-.249v.4c0,3.063-.01,6.011-.013,8.821l-.324-.1c5.461-8.469,9.9-15.828,10.586-21.782a23.521,23.521,0,0,0,.428-6.778,11.469,11.469,0,0,0-.326-1.762C386.722,237.432,386.67,237.227,386.67,237.227Z" transform="translate(-365.009 -237.227)" fill="#263238"/></g><path d="M373.686,366.219l-.284-.01a2.246,2.246,0,1,0,.284.01Z" transform="translate(-268.149 -167.863)" fill="#fff"/><g transform="translate(103.075 135.823)"><path d="M373.686,327.678l-.284-.01a2.241,2.241,0,1,0,.284.01Z" transform="translate(-371.224 -295.783)" fill="#fff"/><path d="M373.389,292.043a2.243,2.243,0,0,0,.3-4.473l-.284-.01a2.243,2.243,0,0,0-.013,4.484Z" transform="translate(-371.224 -287.559)" fill="#fff"/></g><g transform="translate(60.531)"><path d="M328.095,176.613a55.654,55.654,0,0,1-7.631-9.833,18.713,18.713,0,0,1-2.571-11.965c.393-2.4,1.413-4.685,1.575-7.112.223-3.338-1.181-6.826,0-9.956,1.85-4.891,8.434-5.647,12.424-9.025,3.108-2.631,4.623-6.9,8.042-9.116,2.987-1.933,6.825-1.891,10.348-1.393s7.068,1.387,10.594.913c2.514-.338,4.881-1.355,7.343-1.964s5.209-.77,7.4.5,3.424,4.387,1.986,6.476c4.087-1.884,9.277,1.3,10.4,5.659s-1.12,9.068-4.583,11.942-7.941,4.212-12.363,5.046c-12.519,2.359-26.1,1.028-36.887-5.747" transform="translate(-317.706 -116.703)" fill="#263238"/><g transform="translate(0.777 7.05)"><g transform="translate(7.621 2.781)"><path d="M374.271,221.238c-.611-4.739-1.111-8.693-1.142-9.184,0,0,15.837-3.559,14.964-19.572-.421-7.739-2.588-23.607-4.714-37.941a29.872,29.872,0,0,0-31.549-25.4l-1.544.1c-16.581,2.086-24.074,17.334-21.53,33.852l8.947,55.384s3.817,12.252,11.984,14.373l10.307,14.723,1.7-6.337,7.682-6.688a30.216,30.216,0,0,0,3.787-5.638A12.338,12.338,0,0,0,374.271,221.238Z" transform="translate(-328.27 -129.07)" fill="#ffbe9d"/><g transform="translate(23.614 78.218)"><path d="M379.231,232a37.293,37.293,0,0,1-21.256-4.534s5.7,11.186,21.57,8.677Z" transform="translate(-357.975 -227.463)" fill="#eb996e"/></g><g transform="translate(16.899 24.224)"><g transform="translate(2.118 7.213)"><g transform="translate(24.139)"><g transform="translate(2.253 5.872)"><path d="M389.945,177.924a2.291,2.291,0,0,1-2.049,2.453,2.191,2.191,0,0,1-2.493-1.9,2.291,2.291,0,0,1,2.046-2.454A2.192,2.192,0,0,1,389.945,177.924Z" transform="translate(-385.392 -176.003)" fill="#263238"/></g><path d="M391.6,170.733c-.263.316-2.08-.849-4.539-.677-2.458.135-4.177,1.521-4.464,1.238-.141-.125.112-.682.859-1.306A6.277,6.277,0,0,1,387,168.628a6.035,6.035,0,0,1,3.638.91C391.437,170.068,391.729,170.59,391.6,170.733Z" transform="translate(-382.558 -168.616)" fill="#263238"/></g><g transform="translate(0 2.075)"><g transform="translate(3.164 5.458)"><path d="M360.727,180.013a2.289,2.289,0,0,1-2.049,2.452,2.189,2.189,0,0,1-2.493-1.9,2.291,2.291,0,0,1,2.047-2.454A2.192,2.192,0,0,1,360.727,180.013Z" transform="translate(-356.173 -178.092)" fill="#263238"/></g><path d="M361.233,173.343c-.263.317-2.083-.847-4.539-.677-2.457.135-4.177,1.521-4.464,1.238-.14-.125.11-.681.861-1.306a6.278,6.278,0,0,1,3.549-1.36,6.043,6.043,0,0,1,3.638.911C361.069,172.679,361.363,173.2,361.233,173.343Z" transform="translate(-352.192 -171.226)" fill="#263238"/></g><g transform="translate(16.667 1.417)"><path d="M375.676,190.812c-.021-.139,1.49-.506,3.945-.988.623-.107,1.209-.271,1.286-.707a3.2,3.2,0,0,0-.544-1.832q-1.037-2.22-2.177-4.658c-3.034-6.634-5.275-12.106-5.007-12.226s2.945,5.16,5.979,11.8q1.1,2.455,2.1,4.69a3.645,3.645,0,0,1,.491,2.442,1.577,1.577,0,0,1-.971.987,4.264,4.264,0,0,1-1.057.219C377.24,190.836,375.695,190.951,375.676,190.812Z" transform="translate(-373.159 -170.398)" fill="#263238"/></g></g><g transform="translate(0 0.178)"><path d="M360.677,161.315c-.2.684-2.674.532-5.535,1.072-2.873.483-5.142,1.483-5.565.909-.189-.276.174-.932,1.072-1.642a9.8,9.8,0,0,1,8.457-1.51C360.192,160.5,360.761,160.991,360.677,161.315Z" transform="translate(-349.528 -159.766)" fill="#263238"/></g><g transform="translate(25.514)"><path d="M390.026,161.816c-.4.587-2.128.121-4.166.231-2.042.037-3.736.626-4.173.069-.192-.272.041-.85.759-1.429a6.042,6.042,0,0,1,6.72-.241C389.924,160.972,390.2,161.531,390.026,161.816Z" transform="translate(-381.623 -159.542)" fill="#263238"/></g></g></g><g transform="translate(0 48.269)"><path d="M328.89,186.586c-.281-.1-11.211-2.517-10.131,8.4s12.911,7.358,12.9,7.043S328.89,186.586,328.89,186.586Z" transform="translate(-318.684 -186.291)" fill="#ffbe9d"/><g transform="translate(2.827 3.712)"><path d="M327.55,199.4c-.052-.03-.177.152-.484.331a1.908,1.908,0,0,1-1.418.169c-1.195-.309-2.348-2.043-2.6-4.006a6.31,6.31,0,0,1,.262-2.775,2.207,2.207,0,0,1,1.286-1.6.972.972,0,0,1,1.173.41c.176.291.129.515.188.529.034.024.217-.206.084-.649a1.221,1.221,0,0,0-.5-.642A1.445,1.445,0,0,0,324.47,191a2.686,2.686,0,0,0-1.819,1.889,6.486,6.486,0,0,0-.358,3.108c.288,2.192,1.618,4.139,3.241,4.439a2.048,2.048,0,0,0,1.71-.461C327.556,199.666,327.589,199.417,327.55,199.4Z" transform="translate(-322.24 -190.96)" fill="#eb996e"/></g></g><g transform="translate(5.85)"><path d="M382.118,138.91c-.75,4.345-9.562,8.326-16.869,8.113-6.736-.2-10.063-3.538-14.958-5.914-3.1-1.5-3.1-1.5-7.3-.82-3.4.552-5.163,4.562-7.071,7.429,3.635,7.924,2.165,17.14.625,25.722a4.362,4.362,0,0,1-1.1,2.609c-1.227,1.081-3.217.433-4.424-.671-1.932-1.769-2.812-4.393-3.445-6.934a45.112,45.112,0,0,1-1.082-17.751,30.711,30.711,0,0,1,7.385-16.026,29.088,29.088,0,0,1,19.843-9.055,35.726,35.726,0,0,1,21.165,6.009,20.933,20.933,0,0,1,7.236,7.289" transform="translate(-326.043 -125.571)" fill="#263238"/></g></g><path d="M376.093,202.3l-5.564-2.595a1.873,1.873,0,0,0-1.012-.255,1.614,1.614,0,0,0-.963.653,5.175,5.175,0,0,0-.617,5.686,4.347,4.347,0,0,0,5.222,1.92c1.971-.816,2.93-3.107,3.084-5.236Z" transform="translate(-327.886 -133.667)" fill="#eb996e"/><g transform="translate(38.795 65.061)"><path d="M373.16,207.915c.016.048-.257.208-.813.324a4.824,4.824,0,0,1-2.394-.176,4.994,4.994,0,0,1-2.762-2.3,5.129,5.129,0,0,1-.339-4.388,5.362,5.362,0,0,1,1.292-1.946,4.955,4.955,0,0,1,.9-.682,1.47,1.47,0,0,1,.642-.2,1.454,1.454,0,0,1,.646.125,8.09,8.09,0,0,1,.867.492l.758.466,1.355.847a12.18,12.18,0,0,1,2.584,1.843,12.172,12.172,0,0,1-2.879-1.338l-1.406-.76-.779-.429a8.728,8.728,0,0,0-.786-.414.588.588,0,0,0-.609.058,4.387,4.387,0,0,0-.731.58,4.721,4.721,0,0,0-1.082,1.659,4.489,4.489,0,0,0,.235,3.726,4.589,4.589,0,0,0,2.3,2.114,5.446,5.446,0,0,0,2.155.4C372.842,207.906,373.143,207.855,373.16,207.915Z" transform="translate(-366.508 -198.545)" fill="#263238"/></g><g transform="translate(20.686 37.772)"><path d="M366.734,175.782a19.727,19.727,0,0,0-.434-2.763,11.364,11.364,0,0,0-4.157-6.182,11.217,11.217,0,0,0-10.626-1.582,11.237,11.237,0,0,0-5.2,3.909,11.153,11.153,0,0,0,0,13.235,11.237,11.237,0,0,0,5.2,3.91,11.3,11.3,0,0,0,14.783-7.764,19.727,19.727,0,0,0,.434-2.763.616.616,0,0,1,.012.185c0,.147,0,.326-.006.544a5.253,5.253,0,0,1-.07.883,7.973,7.973,0,0,1-.214,1.191,10.758,10.758,0,0,1-1.233,3.077,11.514,11.514,0,0,1-7.752,5.486,11.573,11.573,0,0,1-6.084-.48,11.579,11.579,0,0,1-5.4-4.029,11.523,11.523,0,0,1,0-13.715,11.578,11.578,0,0,1,5.4-4.027,11.582,11.582,0,0,1,6.084-.481,11.515,11.515,0,0,1,7.752,5.486,10.741,10.741,0,0,1,1.234,3.077,8.085,8.085,0,0,1,.214,1.192,5.245,5.245,0,0,1,.07.882c0,.218,0,.4.006.545A.608.608,0,0,1,366.734,175.782Z" transform="translate(-343.728 -164.217)" fill="#263238"/></g><g transform="translate(48.493 36.993)"><path d="M401.13,174.512a19.47,19.47,0,0,0-.425-2.692,11.069,11.069,0,0,0-4.05-6.021,10.923,10.923,0,0,0-10.351-1.54,10.942,10.942,0,0,0-5.063,3.807,10.866,10.866,0,0,0,0,12.891,10.953,10.953,0,0,0,5.064,3.809,11.014,11.014,0,0,0,14.4-7.562,19.471,19.471,0,0,0,.425-2.692,4.538,4.538,0,0,1,.006.71,5.2,5.2,0,0,1-.068.86,7.736,7.736,0,0,1-.208,1.161,11.182,11.182,0,0,1-8.756,8.348,11.288,11.288,0,0,1-5.93-.467,11.291,11.291,0,0,1-5.261-3.927,11.235,11.235,0,0,1,0-13.371,11.289,11.289,0,0,1,5.26-3.926,11.293,11.293,0,0,1,5.93-.467,11.18,11.18,0,0,1,8.757,8.348,7.816,7.816,0,0,1,.208,1.161,5.2,5.2,0,0,1,.068.86A4.552,4.552,0,0,1,401.13,174.512Z" transform="translate(-378.708 -163.238)" fill="#263238"/></g><g transform="translate(43.144 44.495)"><path d="M377.535,173.932c-.045.047-.308-.175-.791-.4a4.566,4.566,0,0,0-2-.439,4.508,4.508,0,0,0-1.985.508c-.474.247-.727.481-.773.436s.146-.349.621-.686a3.927,3.927,0,0,1,4.282-.075C377.374,173.591,377.572,173.9,377.535,173.932Z" transform="translate(-371.979 -172.674)" fill="#263238"/></g><g transform="translate(11.368 47.714)"><path d="M342.22,176.727a49.2,49.2,0,0,1-4.981,3.977,49.245,49.245,0,0,1-5.23,3.646,98.116,98.116,0,0,1,10.211-7.624Z" transform="translate(-332.007 -176.723)" fill="#263238"/></g></g><g transform="translate(72.529 99.457)" opacity="0.3"><path d="M332.975,241.813c-1.106,10.788,3,22.176,11.649,28.714a2.63,2.63,0,0,0,2.332.732,2.561,2.561,0,0,0,1.208-1.246,21.065,21.065,0,0,0,2.58-13.862c-1.371,3.608-2.546,7.15-3.93,10.924C339.274,262.5,334.575,252.763,332.975,241.813Z" transform="translate(-332.798 -241.813)"/></g><path d="M369.871,266.088l6.348-2.318,1.052,10.738s6.852-12.487,9.687-18.185,1.377-15.752,1.377-15.752,1.014,8.758-5.852,19.93l-5.182,8.423V260.1Z" transform="translate(-267.871 -142.101)" opacity="0.3"/><g transform="translate(5.741 177.25)" opacity="0.3"><path d="M271.178,340.989a16.972,16.972,0,0,0-9.2-1.154,17.745,17.745,0,0,0-9.157,3.464,10.22,10.22,0,0,0-4,8.642l.318.045c2.216-6,6.623-10.36,12.305-10.888a18.669,18.669,0,0,1,15.128,6.167C276.194,344.158,274.009,342.326,271.178,340.989Z" transform="translate(-248.784 -339.671)"/></g><g transform="translate(165.202 180.215)" opacity="0.3"><path d="M472.877,347.884a14.556,14.556,0,0,0-8.2-4.225,18.43,18.43,0,0,0-15.3,4.429l1.211-.983a19.3,19.3,0,0,1,10.189-2.769,14.75,14.75,0,0,1,9.713,3.88c2.373,2.262,3.8,5.315,5.161,8.3A10.4,10.4,0,0,0,472.877,347.884Z" transform="translate(-449.376 -343.401)"/></g><g transform="translate(147.768 113.13)"><path d="M427.449,280.706a3.916,3.916,0,0,1,.285-.868c.245-.628.547-1.4.9-2.31.77-1.948,1.824-4.641,2.938-7.634s2.075-5.722,2.766-7.7l.827-2.339a3.877,3.877,0,0,1,.351-.843,3.83,3.83,0,0,1-.2.891c-.152.567-.392,1.381-.7,2.382-.621,2-1.541,4.751-2.656,7.752s-2.216,5.68-3.056,7.6c-.419.96-.769,1.733-1.025,2.262A3.863,3.863,0,0,1,427.449,280.706Z" transform="translate(-427.445 -259.013)" fill="#263238"/></g><g transform="translate(44.087 118.622)"><path d="M300.486,282.9c-.112.023-.976-3.76-1.929-8.449s-1.636-8.509-1.524-8.531.975,3.759,1.929,8.45S300.6,282.88,300.486,282.9Z" transform="translate(-297.021 -265.922)" fill="#263238"/></g><g transform="translate(8.774 131.109)"><path d="M298.742,333.412c.251.126-2.912-24.772-2.912-24.772s2-18.9,3.119-19.77l.029-6.666s3.09-1.872,3.92,1.15c0,0,2.74-2.379,3.219,3.285s.58,11.452.58,11.452l6.1,15.25,1,.508s1.309-11.947,2.072-13.706,1.284-6.034,4.175-5.392,3.133,3.034,2.612,6.932-1.166,7.922-.926,10.439,1.385,8.059,1.033,12.461-2.762,9.047-5.293,12.307-7.364,10-9.992,12.036C306.564,349.635,298.742,333.412,298.742,333.412Z" transform="translate(-261.464 -281.63)" fill="#ffbe9d"/><g transform="translate(37.62 7.564)"><path d="M302.66,315.1a5.292,5.292,0,0,1,.017-1.066c.052-.765.119-1.735.2-2.893.186-2.44.471-5.81.812-9.528.176-1.855.343-3.622.5-5.242a9.34,9.34,0,0,0,.027-2.247,3.182,3.182,0,0,0-.76-1.719,3.424,3.424,0,0,0-2.49-1.092,6.562,6.562,0,0,0-1.038.133c0-.014.079-.057.248-.13a2.689,2.689,0,0,1,.785-.164,3.5,3.5,0,0,1,2.71,1.055,3.46,3.46,0,0,1,.885,1.863,9.425,9.425,0,0,1,.014,2.336c-.144,1.622-.3,3.39-.464,5.245-.341,3.719-.673,7.084-.933,9.518l-.33,2.88A5.215,5.215,0,0,1,302.66,315.1Z" transform="translate(-299.924 -291.145)" fill="#eb996e"/></g><g transform="translate(40.13 21.335)"><path d="M306.586,308.47a8.584,8.584,0,0,0-1.08,1.965,33.21,33.21,0,0,0-1.014,5.375c-.329,2.129-.649,4.052-.9,5.441a12.526,12.526,0,0,1-.493,2.235,12.542,12.542,0,0,1,.2-2.279c.179-1.4.453-3.332.781-5.46a25.692,25.692,0,0,1,1.15-5.418,5.145,5.145,0,0,1,.881-1.452C306.382,308.575,306.572,308.455,306.586,308.47Z" transform="translate(-303.081 -308.468)" fill="#eb996e"/></g><g transform="translate(41.381 1.396)"><path d="M304.668,283.386a3.117,3.117,0,0,1,.212.783c.111.509.25,1.25.4,2.169.3,1.836.637,4.391.847,7.225s.254,5.411.223,7.273c-.014.931-.042,1.684-.078,2.2a3.081,3.081,0,0,1-.095.806,26.274,26.274,0,0,1-.12-3.008c-.044-1.856-.136-4.419-.343-7.244s-.5-5.372-.724-7.215A26.219,26.219,0,0,1,304.668,283.386Z" transform="translate(-304.654 -283.386)" fill="#eb996e"/></g><g transform="translate(55.313 23.617)"><path d="M325.854,312.461a2.219,2.219,0,0,1-2.054.175c-1.167-.348-1.71-1.246-1.607-1.291a5.374,5.374,0,0,0,3.662,1.116Z" transform="translate(-322.181 -311.339)" fill="#eb996e"/></g><path d="M290.22,342.873l-16.112,6.771h-9.6s-9.5,2.963-10.956,11.864-1.67,13.482,2.5,14.583,15.965,1.223,21.808-.716,21.15-14.29,21.15-14.29l1.475-8.935Z" transform="translate(-252.6 -294.188)" fill="#ffbe9d"/><g transform="translate(36.548 43.897)"><path d="M303.421,351.475c-.021.019-.182-.13-.458-.421a9.867,9.867,0,0,1-1.047-1.332,18.206,18.206,0,0,1-2.251-5.1,30.211,30.211,0,0,1-.992-5.476,10.248,10.248,0,0,1-.063-2.3,16.676,16.676,0,0,1,.353,2.269,41.047,41.047,0,0,0,1.1,5.4,21.3,21.3,0,0,0,2.1,5.054C302.888,350.77,303.478,351.423,303.421,351.475Z" transform="translate(-298.575 -336.849)" fill="#eb996e"/></g></g><g transform="translate(49.892 170.384)"><path d="M311.614,353.108a16.624,16.624,0,0,0,.918-3.454,11.135,11.135,0,0,0-2.164-8.086c-.979-1.371-2.08-2.566-3.007-3.721a17.221,17.221,0,0,1-2.178-3.294,8.638,8.638,0,0,1-.808-2.541,2.936,2.936,0,0,1-.028-.977,11.029,11.029,0,0,0,1.1,3.386,18.431,18.431,0,0,0,2.212,3.183c.934,1.132,2.048,2.322,3.049,3.724a11.6,11.6,0,0,1,2.01,4.408,11.235,11.235,0,0,1,.107,3.957,10.169,10.169,0,0,1-.739,2.559,5.572,5.572,0,0,1-.325.646C311.676,353.042,311.627,353.114,311.614,353.108Z" transform="translate(-304.323 -331.035)" fill="#eb996e"/></g><g transform="translate(9.501 95.581)"><g transform="translate(15.354 43.599)"><path d="M280.317,306.262a80.706,80.706,0,0,1-3.926-7.143,80.294,80.294,0,0,1-3.558-7.335,80.729,80.729,0,0,1,3.926,7.144A80.232,80.232,0,0,1,280.317,306.262Z" transform="translate(-272.828 -291.783)" fill="#fff"/></g><g transform="translate(48.894 17.326)"><path d="M315.026,270.478a50.173,50.173,0,0,1,2.427-5.956,49.907,49.907,0,0,1,2.805-5.788,50.345,50.345,0,0,1-2.427,5.957A49.951,49.951,0,0,1,315.026,270.478Z" transform="translate(-315.019 -258.733)" fill="#fff"/></g><g transform="translate(67.43 39.458)"><path d="M345.324,295.012a72.589,72.589,0,0,1-6.984-8.437,72.559,72.559,0,0,1,6.984,8.437Z" transform="translate(-338.336 -286.573)" fill="#fff"/></g><g transform="translate(68.543 65.737)"><path d="M339.741,327.684a60,60,0,0,1,5.839-8.051,59.883,59.883,0,0,1-5.839,8.051Z" transform="translate(-339.736 -319.631)" fill="#fff"/></g><g transform="translate(55.719 98.788)"><path d="M328.531,372.781a7.646,7.646,0,0,1-.933-1.6c-.522-1.014-1.2-2.437-1.88-4.039s-1.235-3.078-1.6-4.158a7.72,7.72,0,0,1-.5-1.78,8.77,8.77,0,0,1,.775,1.677l1.712,4.1,1.763,4.077A8.827,8.827,0,0,1,328.531,372.781Z" transform="translate(-323.604 -361.206)" fill="#fff"/></g><g transform="translate(73.522 92.94)"><path d="M355.574,355.725A57.37,57.37,0,0,1,346,353.872a57.544,57.544,0,0,1,9.574,1.853Z" transform="translate(-346 -353.85)" fill="#fff"/></g><g transform="translate(100.505 50.386)"><path d="M379.945,310.576a117.846,117.846,0,0,1,9.508-10.253,118.5,118.5,0,0,1-9.508,10.253Z" transform="translate(-379.943 -300.32)" fill="#fff"/></g><g transform="translate(106.859 92.665)"><path d="M399.1,367.058c-.088.072-2.659-2.9-5.741-6.644s-5.511-6.835-5.422-6.908,2.658,2.9,5.742,6.645S399.189,366.985,399.1,367.058Z" transform="translate(-387.935 -353.504)" fill="#fff"/></g><g transform="translate(0 86.786)"><path d="M262.8,346.115c.059.114-2.29,1.305-4.849,3.27s-4.34,3.9-4.435,3.813a6.017,6.017,0,0,1,1.082-1.351,25.724,25.724,0,0,1,6.615-5.046A6.01,6.01,0,0,1,262.8,346.115Z" transform="translate(-253.514 -346.11)" fill="#fff"/></g><g transform="translate(11.75 69.225)"><path d="M272.382,324.02a32.868,32.868,0,0,1-4.08,6.134,32.8,32.8,0,0,1,4.08-6.134Z" transform="translate(-268.295 -324.018)" fill="#fff"/></g><g transform="translate(28.94 79.682)"><path d="M291.571,343.967a10.522,10.522,0,0,1-1.544-6.794c.123,0,.165,1.569.6,3.437S291.684,343.914,291.571,343.967Z" transform="translate(-289.918 -337.173)" fill="#fff"/></g><g transform="translate(26.598 31.641)"><path d="M293.156,276.786a23.647,23.647,0,0,1-6.184.879,23.645,23.645,0,0,1,6.184-.879Z" transform="translate(-286.972 -276.741)" fill="#fff"/></g><g transform="translate(38.302 12.021)"><path d="M307.259,252.07a24.531,24.531,0,0,1-5.562,3.082,24.449,24.449,0,0,1,5.562-3.082Z" transform="translate(-301.695 -252.059)" fill="#fff"/></g><g transform="translate(69.226 12.712)"><path d="M346.4,260.551a55.512,55.512,0,0,1-5.8-7.62,55.627,55.627,0,0,1,5.8,7.62Z" transform="translate(-340.596 -252.928)" fill="#fff"/></g><g transform="translate(109.783 32.37)"><path d="M396.432,285.388a19.449,19.449,0,0,1-4.809-7.73c.112-.048.968,1.806,2.3,3.932S396.525,285.308,396.432,285.388Z" transform="translate(-391.613 -277.657)" fill="#fff"/></g><g transform="translate(126.038 45.078)"><path d="M415.726,293.644a47.287,47.287,0,0,1-3.654,8.054,47.439,47.439,0,0,1,3.654-8.054Z" transform="translate(-412.062 -293.643)" fill="#fff"/></g><g transform="translate(124.096 15.193)"><path d="M417.336,265.322a44,44,0,0,1-4.016-4.5,44.055,44.055,0,0,1-3.7-4.768,88.1,88.1,0,0,1,7.714,9.271Z" transform="translate(-409.619 -256.05)" fill="#fff"/></g><g transform="translate(108.339)"><path d="M390.206,244.659a36.119,36.119,0,0,1-.3-7.721,36.257,36.257,0,0,1,.3,7.721Z" transform="translate(-389.797 -236.938)" fill="#fff"/></g><g transform="translate(117.682 6.647)"><path d="M411.422,245.331a60.01,60.01,0,0,1-9.872,1.32,60.033,60.033,0,0,1,9.872-1.32Z" transform="translate(-401.55 -245.299)" fill="#fff"/></g><g transform="translate(151.634 16.996)"><path d="M449.8,269.758a49.017,49.017,0,0,1-2.954-5.63,48.95,48.95,0,0,1-2.58-5.81,49,49,0,0,1,2.953,5.63A49.074,49.074,0,0,1,449.8,269.758Z" transform="translate(-444.259 -258.318)" fill="#fff"/></g><g transform="translate(152.164 38.267)"><path d="M444.949,294.045a50.582,50.582,0,0,1,1.791-8.969,50.582,50.582,0,0,1-1.791,8.969Z" transform="translate(-444.926 -285.076)" fill="#fff"/></g><g transform="translate(161.593 49.703)"><path d="M461.12,311.815a51.863,51.863,0,0,1-2.358-6.108,51.9,51.9,0,0,1-1.967-6.245,103.461,103.461,0,0,1,4.325,12.354Z" transform="translate(-456.787 -299.462)" fill="#fff"/></g><g transform="translate(156.598 66.706)"><path d="M457.918,324.869a13.977,13.977,0,0,1-7.412-4.015c.081-.1,1.546,1.115,3.594,2.216S457.954,324.75,457.918,324.869Z" transform="translate(-450.503 -320.849)" fill="#fff"/></g><g transform="translate(179.125 84.934)"><path d="M481.328,349.339a22.48,22.48,0,0,1-2.473-5.558,22.4,22.4,0,0,1,2.473,5.558Z" transform="translate(-478.841 -343.779)" fill="#fff"/></g><g transform="translate(76.792 110.973)"><path d="M350.986,383.622a30.85,30.85,0,0,1-.824-7.087,30.872,30.872,0,0,1,.824,7.087Z" transform="translate(-350.113 -376.535)" fill="#fff"/></g><g transform="translate(131.637 109.897)"><path d="M419.133,381.98a29.242,29.242,0,0,1,1.445-6.8,29.353,29.353,0,0,1-1.445,6.8Z" transform="translate(-419.105 -375.182)" fill="#fff"/></g></g></g><g transform="translate(348.212 94.132)"><g transform="translate(0 0)"><g transform="translate(0 0.16)"><path d="M432.164,169.333l6.983-12.306a32.971,32.971,0,1,1,7.9,8.785l.011.014Z" transform="translate(-432.164 -106.874)" fill="#fafafa"/></g><g transform="translate(0.001)"><path d="M432.165,169.291l14.913-3.408.153-.035-.1-.125-.011-.015-.142.142a33.752,33.752,0,0,0,6.771,4.082,33.038,33.038,0,0,0,9.028,2.578,29.7,29.7,0,0,0,5.213.264c.9-.051,1.81-.073,2.731-.15l2.782-.421A33.224,33.224,0,0,0,494.085,159a32.852,32.852,0,0,0,5.565-12.721,33.583,33.583,0,0,0-.389-14.648,32.492,32.492,0,0,0-7.058-13.542l-1.345-1.479c-.442-.5-.969-.908-1.448-1.364-.5-.432-.954-.921-1.492-1.3l-1.58-1.181a13.847,13.847,0,0,0-1.637-1.083l-1.67-1.014-1.749-.849a15.31,15.31,0,0,0-1.766-.785,33.586,33.586,0,0,0-14.76-2.268,32.484,32.484,0,0,0-13.547,4A33.4,33.4,0,0,0,435.58,130a35.565,35.565,0,0,0-1.431,10.71,32.746,32.746,0,0,0,1.612,9.246,33.41,33.41,0,0,0,3.3,7.085l0-.1-6.9,12.354c.346-.6,2.553-4.428,7.067-12.257l.029-.049-.031-.05a33.4,33.4,0,0,1-3.239-7.058,32.6,32.6,0,0,1-1.56-9.179,35.41,35.41,0,0,1,1.453-10.609,33.114,33.114,0,0,1,15.506-19,32.138,32.138,0,0,1,13.395-3.94,33.231,33.231,0,0,1,14.581,2.251,15.082,15.082,0,0,1,1.744.776l1.727.839,1.65,1a13.605,13.605,0,0,1,1.616,1.07l1.561,1.167c.533.377.979.86,1.474,1.286.473.452.994.856,1.43,1.348l1.328,1.461a32.11,32.11,0,0,1,6.974,13.374,33.2,33.2,0,0,1,.4,14.472,32.5,32.5,0,0,1-5.484,12.579,32.926,32.926,0,0,1-20.333,13.112l-2.755.424c-.912.079-1.816.1-2.7.157a29.374,29.374,0,0,1-5.168-.243,32.877,32.877,0,0,1-8.966-2.519,33.719,33.719,0,0,1-6.748-4.018l-.613-.469.471.611.011.015.057-.161Z" transform="translate(-432.165 -106.673)" fill="#263238"/></g><g transform="translate(17.767 28.484)"><g transform="translate(26.145 0.001)"><path d="M487.4,145.721a3.216,3.216,0,1,0,3.216-3.216A3.216,3.216,0,0,0,487.4,145.721Z" transform="translate(-487.402 -142.505)" fill="#263238"/></g><g transform="translate(13.271 0.001)"><path d="M471.208,145.721a3.217,3.217,0,1,0,3.217-3.216A3.217,3.217,0,0,0,471.208,145.721Z" transform="translate(-471.208 -142.505)" fill="#263238"/></g><path d="M454.946,144.113a3.216,3.216,0,1,0,4.394-1.177A3.215,3.215,0,0,0,454.946,144.113Z" transform="translate(-454.514 -142.504)" fill="#263238"/></g></g></g></g></svg>