<svg xmlns="http://www.w3.org/2000/svg" width="397.76" height="396.703" viewBox="0 0 397.76 396.703"><g transform="translate(338.07 -2462.736)"><path d="M-244.156,409.139c16.6,12.95,29.653,28.851,39.92,47.234a188.5,188.5,0,0,1,20.552,57.439c2.323,12.311,3.2,24.864,5.86,37.141,4.283,19.759,11.862,38.385,19.178,57.114,6.329,16.2,11.452,32.588,10.943,50.4-.4,13.891-4.453,26.7-9.584,39.275a103.447,103.447,0,0,1-23.241,34.94,95.127,95.127,0,0,1-50.09,26.131c-30.48,5.683-59.251-.509-87.343-12.194-6.91-2.874-13.134-7.452-20.758-8.581-.176-1.615,1.116-2.241,2.089-3.053,10.678-8.9,13.043-17.21,8.633-30.413-.518-1.553-1.025-3.11-1.676-4.614-2.857-9.267-8.266-15.891-18.239-17.907a22.128,22.128,0,0,0-24.59,12.677c-.666,1.5-1.118,3.083-1.841,4.562-3.716,6.591-6.506,13.373-4.681,21.2a2.956,2.956,0,0,1-.729,2.706c-27.666-6.87-55.685-12.436-82.467-22.556-28.739-10.86-49.948-30.007-64.894-56.954-14.552-26.236-19.874-54.2-17.925-83.688,1.07-16.209,5.634-31.748,12.144-46.707,9.988-22.951,25.209-42.085,43.328-58.87,20.692-19.168,43.353-35.908,68.506-48.717,18.8-9.574,38.9-16.033,59.609-20.358a16.683,16.683,0,0,1,2.943-.1c.725,1.261-.344,1.745-1.068,2.273-1.321.962-2.83,1.626-4.206,2.513-7.673,4.948-8.151,7.878-2.369,14.775.939,1.12,2.1,2.09,2.312,3.67.031,1.681-2.258,2.662-1.365,4.6.517.883,1.129,1.7,1.655,2.572a10.884,10.884,0,0,0,2.015,2.375,2.43,2.43,0,0,1,.6,1.135,4.235,4.235,0,0,1-1.618,2.772,6.752,6.752,0,0,1-1.06.748,34.514,34.514,0,0,0-5.519,3.111,8.8,8.8,0,0,1-1.072.678,17.378,17.378,0,0,0-4.753,3.042c-2.028,1.305-4.368,2.172-5.834,4.255-1.615,5.481-1.7,11.2-2.717,16.775a17.862,17.862,0,0,1-.3,3.189c-1.564,11.817-2.91,23.658-4.658,35.447-1.221,8.232-3.222,16.349-3.609,24.7-1.065,2.781-3.768,2.5-5.948,3.205-1.3.4-2.73.394-3.941,1.128-2.392,1.89-1.035,4.235-.775,6.447a4.972,4.972,0,0,1-.319,2.818c-4.888,5.88-10.633,11.005-13.968,18.194a69.4,69.4,0,0,0-6.921,29.367c-.009,3.221.885,5.777,3.741,7.452,7.621,7.632,16.657,11.045,27.464,9.453a10.328,10.328,0,0,1,5.308.54c2.372,1.154,1.2,4.451,3.43,5.692a16.7,16.7,0,0,1,1.422,1.334c.31.276.613.564.925.834a2.719,2.719,0,0,0,3.327-.134,7.135,7.135,0,0,1,1.311-1.362,3.737,3.737,0,0,1,1.267-.267c5.246-.266,3.916-4.731,4.9-7.711a2.65,2.65,0,0,1,.786-.981c1.176-.176.754-.833.425-1.468.592-2.732,4.327-3.406,4.248-6.576a34.951,34.951,0,0,0,1.89-9.085c.09-3.416,2.08-5.382,5.221-6.25a32.6,32.6,0,0,1,22.912,1.548c5.919,2.714,8.758,7.558,8.916,14.028.083,1.561.889,2.9,1.34,4.359a5.884,5.884,0,0,1,.1,3.01c-2.267,4.557-6.214,7.526-10.075,10.548-9.916,7.759-20.871,14.129-29.613,23.469-10.368,11.078-12.874,24.31-11.9,38.73.179,2.648,1.81,4.108,4.41,4.51,11.6.1,23.19.073,34.769,0,3.293-.329,4.595-2.478,4.332-5.443-1.162-13.14,6.126-21.555,15.752-28.693,8.8-6.53,18.236-12.209,26.066-20.048,12.6-12.608,17.9-27.572,16.5-45.437a59.44,59.44,0,0,0-18.885-39.858,59.965,59.965,0,0,0-9.53-6.91c-1.654-1.053-3.459-1.911-4.466-3.735a3.053,3.053,0,0,1-.348-1.865c1.566-5.884-.363-10.354-5.343-13.676a5.026,5.026,0,0,1-1.671-2.314,10.031,10.031,0,0,0-3.91-5.456c-2.272-1.565-5.1-2.537-5.989-5.589.037-6.812.446-13.628.93-20.4.372-5.189.584-10.363.732-15.554.112-3.96.7-7.79,3.5-10.885,4.065-4.684,8.269-9.25,12.747-13.55,2.488-2.466,5.22-4.71,7.115-7.73a57.889,57.889,0,0,1,4.041-4.37,28.274,28.274,0,0,0,4.809-5.5,26.48,26.48,0,0,1,2.179-2.547c3.261-4.549,2.955-5.213-3.281-7.071-9.55-2.622-19.117-4.951-29.144-4.636-3.552.112-6.987,1.7-10.593.762-2.239-.693-2.159-1.827-.954-3.616,3.227-4.791,2.529-6.14-3.349-6.713-1.342-.131-2.741-.04-2.987-1.763-.142-.985.052-2.006,1.507-1.8,18.938-.626,37.7.371,55.768,6.753,5.357,1.892,10.551,4.254,15.8,6.451,1.64.686,3.12,1.831,5.049,1.544.233,3.995,2.384,5.25,6.095,4.272a9.868,9.868,0,0,1,6,3.527c.1,2.345-2.249,2.979-3.2,4.592-.645,1.093-1.849,2.285-.594,3.436,1.365,1.253,2.649.277,3.76-.827C-247.628,410.706-246.9,408.236-244.156,409.139Z" transform="translate(207.358 2088.723)" fill="#dccde5"/><path d="M-325.056,704.326c7.819,16.881,4.71,28.693-10.233,38.884-16.891,7.711-34.005,1.919-41.717-15.055-2.746-9-.383-17.114,4.281-24.833,13.817-16.879,35.675-12.614,44.619-2.232C-327.14,702.212-326.4,703.558-325.056,704.326Z" transform="translate(204.177 2083.219)" fill="#8e5cac"/><path d="M-352.808,754.113c15.083,0,27.986.792,40.607,4.182a17.11,17.11,0,0,1,2.84.9c3.047,1.429,7.746,1.859,7.557,6.052-.178,3.979-4.7,4.785-7.9,5.866-10.644,3.6-21.792,4.485-32.889,4.916-15.458.6-30.9-.041-46.02-3.838a40.937,40.937,0,0,1-8.373-3.092c-4.647-2.338-4.71-5.483-.134-7.959,6.841-3.7,14.471-4.7,22.032-5.7A149.248,149.248,0,0,1-352.808,754.113Z" transform="translate(204.228 2083.219)" fill="#263238"/><path d="M-361.241,409.3c-1.751-2.132-3.625-4.177-5.229-6.415-3.32-4.629-2.838-7.255,1.344-11.162,2.9-2.711,7.072-3.4,9.717-6.429,1.7-3.592,3.295-7.133,8.381-4.059,1.962,1.186,2.017-1.07,2.312-2.108,1.046-3.69,3.152-6.126,7.112-4.706,3.5,1.254,4.888,4.135,3.383,7.9-1.048,1.3-2,3.19.82,2.428,3.763-1.017,6.1.087,7.622,3.269,1.792,3.742-1.672,4.628-3.7,6.278-.421.343-.275.846.2,1.166a2.305,2.305,0,0,1,.731,2.06c-.536,1.917-1.988,2.828-3.741,3.407-2.385.4-4.136-.924-5.835-2.253a9.5,9.5,0,0,0-7.97-1.922c-2.963.58-6.242.469-4.891,5.689.734,2.834-1.707,6.185-2.442,9.4-.35,1.529-2.029,2.163-3.684,1.326a18.657,18.657,0,0,1-4.235-2.584A1,1,0,0,1-361.241,409.3Z" transform="translate(204.125 2088.723)" fill="#263238"/><path d="M-239.156,409.531a6.1,6.1,0,0,0-3.8,3.626c-1.288,3.912-4.579,2.675-6.379,1.718-2.073-1.1-.534-3.652.558-5.134a34.916,34.916,0,0,1,4.585-4.4c-.1-1.78,2.261-3.9-.516-5.292-2.563-1.29-3.959.729-5.439,2.3-2.165,1.14-4.6,1.443-6.429-.074-1.591-1.318-.2-3.316.246-4.99a11.5,11.5,0,0,1,10.9-5.662c4.366.191,8.555,1.433,10.381,6.243C-233.137,402.922-235.519,406.44-239.156,409.531Z" transform="translate(202.371 2088.723)" fill="#8c59a9"/><path d="M-303.057,518.334c12.813,7.15,23.364,16.506,29.08,30.4,10.675,25.955,5.94,55.02-18.31,73.766-8.423,6.511-17.591,11.983-25.655,18.982-7.1,6.164-11.074,13.551-10.25,23.175.284,3.323-.105,6.422-4.1,7.465-12.938-.6-25.877-.5-38.816-.05-2.641-.939-3.861-2.822-4.108-5.608q-2.714-30.592,21.831-49c7.847-5.86,15.894-11.457,23.647-17.438,2.864-2.209,5.143-5.176,7.689-7.8,4.456-.587,3.256,4.093,5.339,5.714a24.518,24.518,0,0,0,3.887,3.293,11.713,11.713,0,0,1,1.067.726c.53.391,1.029.819,1.536,1.237,2.45,1.331,4.848,1.346,6.47-1.086,2.131-3.2,1.644-6.491-.5-9.582a11.739,11.739,0,0,1-.738-1.114,17.645,17.645,0,0,0-2.317-3.191,10.291,10.291,0,0,1-.819-1.109c-.83-1.477-2.152-2.613-2.888-4.166a6.687,6.687,0,0,1-.43-1.581c.642-12.993,2.709-25.827,4.156-38.728.613-5.461,1.2-10.924,1.837-16.381C-305.126,523.539-305.308,520.533-303.057,518.334Z" transform="translate(203.586 2085.525)" fill="#8e5cac"/><path d="M-303.057,518.334q-3.487,29.534-6.949,59.07c-.227,1.962-.113,3.963-.158,5.946-4.177,2.992-9,2.773-13.78,2.781-.808-11.033-3.888-13.423-14.605-16.158a31.893,31.893,0,0,0-17.665.883c-1.621.512-3.3.993-3.035,3.226.5,4.258-1.21,8.125-2.083,12.14-1.438,1.474-2.3-.406-3.42-.647-8.233-1.766-8.531-1.678-14.354,5.9a10.754,10.754,0,0,0-1.263,2.384c-.608,1.285-1.156,2.628-2.753,3.005a2.718,2.718,0,0,1-1.347-.407c-5.98-.1-11.964-.39-17.938-.255-4.707.107-7.568-2.955-10.817-5.458-1.972-1.518-3.9-3.1-5.848-4.646,1.32-3.118,4.158-2.366,6.358-2.04,9.588,1.421,19.223.454,28.825.867,4.669.2,5.679-1.071,6.205-5.754,1.316-11.7-1.4-23.1-2.478-34.624-.756-8.084-2.112-16.107-2.453-24.23.077-1.663-.627-3.206-.78-4.835-.962-5.826,1.493-10.333,5.511-14.237a7.106,7.106,0,0,1,2.7-1.562c5.332-1.593,10.268-4.42,15.94-5,1.961-.2,3.881-.717,5.863-.242.76.14,1.485.42,2.25.542a39.452,39.452,0,0,0,17.771,0c.756-.111,1.479-.374,2.225-.523,4.992-.509,9.472,1.374,14.012,3a24.652,24.652,0,0,0,5.292,1.443,2.736,2.736,0,0,1,1.354.49c.408.695.645,1.677,1.252,2.042C-302.6,505.437-301.12,511.247-303.057,518.334Z" transform="translate(204.457 2086.514)" fill="#263238"/><path d="M-381.332,519.468c1.83,16.489,3.8,32.964,5.4,49.475a64.15,64.15,0,0,1-.444,13.826c-.426,3.5-3.384,4.093-6.48,3.889-10.292-.679-20.634.039-30.916-1.119-1.726-.2-3.656-.709-5.3.563-4.377-1.624-4.319-5.245-4.183-9.014.689-18.988,6.9-35.424,21.919-47.832,2.141-2.239,5.208-2.553,7.833-3.786C-389.078,524.217-384.755,522.757-381.332,519.468Z" transform="translate(205.098 2086.333)" fill="#8e5cac"/><path d="M-310.933,499.4c-1.735,1.88-3.442.334-5.006-.207-4.985-1.725-9.87-3.767-15.257-3.894-3.41-4.8-2.525-10.572-3.08-15.852-1.42-13.488-2.949-26.978-3.876-40.519a40.747,40.747,0,0,1,1.333-13.263,4.683,4.683,0,0,1,1.824-2.58c2.34-.833,3.416.584,4.017,2.462.942,2.941,2,5.845,2.9,8.8-.888-3.108-1.981-6.152-2.991-9.221-1.555-4.725-.842-5.737,4.244-6.067,3.268-.213,6.618.653,9.794-.724,3.1-2.589,4.953-6.511,8.85-8.229,4.831-1.033,9.486.675,14.238.914.664.055-.033-1.044.094-.39.011.055-.085.075-.286.086-1.3.067-2.681.47-3.814-.371-.829-.616.069-1.065.441-1.514-8.571,2.847-16.618-.386-24.8-2.12a8.979,8.979,0,0,1-3.3-1.055,4.612,4.612,0,0,1-1.47-4.59c.081-5.012,3.545-5.53,7.424-5.745,10.717-.593,21.085,1.214,31.279,4.3.311.087.621.205.941.282,5.493,1.309,7.826,1.8,3.36,8.53l-1.79,1.935c-1.725,2.032-4.149,3.464-5.2,6.072l-3.681,3.929c-2.468,2.662-5.609,4.715-7.3,8.079l-12.175,12.86c-1.928-.917-2.131-2.423-1.278-4.143a45.965,45.965,0,0,0,2.147-6.015c-.777,1.7-.808,3.746-2.522,5.394-1.76-3.212-.389-6.183-.041-9.136.156-.66-1.047-.113-.387-.2.189-.026.262.122.222.447-2.357,19.229-3.188,38.581-4.6,57.886-.111,1.523-.709,3.26.559,4.684l5.9,4.087C-313.234,496.082-311.635,497.453-310.933,499.4Z" transform="translate(203.426 2088.723)" fill="#7c7c7c"/><path d="M-220.772,594.911c12.944.05,22.091,6.026,24.664,16.144,2.293,9.019-.311,16.4-7.575,22.134-2.479,1.958-5.159,3.664-7.608,5.657-1.664,1.354-3.868,2.927-3.715,5.1.462,6.589-3.766,5.993-8.044,5.944-8.62-.1-10.247-2.461-7.1-10.7,1.492-3.907,4.52-6.508,7.721-8.948a89.534,89.534,0,0,0,7.5-5.778c2.923-2.766,4.772-6.169,2.715-10.28-2.09-4.177-5.987-5.052-10.175-4.706-4.21.347-8.361,1.815-8.793,6.543-.437,4.795-2.918,5.257-6.6,4.813-.824-.1-1.642-.276-2.469-.337-7.86-.586-8.625-1.778-6.136-9.621C-243.219,600.9-233.533,594.861-220.772,594.911Z" transform="translate(200.756 2085.221)" fill="#263238"/><path d="M-353.214,495.306c-6.059.418-11.983,1.391-17.467,4.207-1.415.727-2.781,1.893-4.5.678a1.776,1.776,0,0,1-.32-1.309c1.478-5.316,5.82-7.989,9.976-10.827,1.193-2.652-.32-5.048-.714-7.552-1.925-10.208-3.583-20.477-8-30.015-1.4-3.51-2.54-7.115-3.965-10.618-.932-2.291-1.588-4.722-.036-7.09,1.186-2.24,3.874-2.093,5.577-3.512a20.33,20.33,0,0,0,5.427-3.019l-.041.024c2.247-1.516,4.964-2.208,7.039-4.025l-.038-.042c2.856.511,1.681,2.549,1.508,4.131-.3,2.71-1.742,5.2-1.928,8.184,2.561-.5,4.058-3.886,6.883-1.737a6.454,6.454,0,0,1,1.565,1.806,11,11,0,0,1,1.382,5.024c.121,16.165.062,32.326.029,48.487C-350.838,490.718-350.494,493.544-353.214,495.306Z" transform="translate(204.439 2088.723)" fill="#7c7c7c"/><path d="M-459.693,473.121c10.7.059,18.033,4.444,20.707,12.375,2.755,8.168.409,15.494-6.3,20.9-4.234,3.407-10.3,5.437-10.177,12.5.02,1.2-1.177,1.467-2.23,1.486-1.663.03-3.328.032-4.992.031-6.953,0-7.742-1.165-5.8-7.871,1.036-3.576,3.347-6.046,6.173-8.2,2.376-1.815,4.811-3.56,7.1-5.484,2.793-2.353,4.106-5.484,2.664-8.919-1.552-3.7-5.107-4.688-8.75-4.416-3.659.274-6.739,1.8-7.828,5.818-.966,3.57-7.057,5.653-11.96,3.722-3.828-1.508-2.013-4.749-1.34-7.256C-479.857,478.2-471.751,473.054-459.693,473.121Z" transform="translate(206.218 2087.186)" fill="#8c58a8"/><path d="M-377.148,501.368c-2.476,4.353-6.469,8.144-5.159,13.9-.721.789-1.444,1.576-2.661,1.495a4.119,4.119,0,0,1-1.519-.613c-3.141-1.007-3.735-3.109-3.27-6.229,1.44-9.658,3.474-19.221,4.554-28.935.986-8.877,2.693-17.672,3.064-26.62l.112-3.139c2.246-4,.8-8.949,3.193-13.312,3.1,4.338,3.439,9.448,5.986,13.57a38.306,38.306,0,0,0,2.525,7.522c2.067,5.055.947,10.135.267,15.22a10.308,10.308,0,0,1-.338,1.555c-.924,4.852-1.712,9.734-2.887,14.539C-374.469,494.04-374.922,498.015-377.148,501.368Z" transform="translate(204.681 2087.635)" fill="#7c7c7c"/><path d="M-334.156,423.413l-1.071,1.354c-.254.891-1.064,1.1-1.764,1.45-2.651.9-5.147-.2-7.7-.588-2.265-.307-3.813-1.978-5.7-3-.408-.2-.8-.44-1.19-.677-1.879-1.7-4.946-.5-6.628-2.685l.037.021a8.173,8.173,0,0,1-3.044-2.955l-1.465-1.98c-2.344-2.383.476-2.9,1.473-4.078,2.43.624,6.492-1.556,7.667-4.113.924-2.011,4.032-3.749.044-6.188-1.162-.71.873-2.516,2.216-3.029,4.956-1.891,9.849-2.895,14.43,1.144,1.307,1.152,2.726,2.507,4.779,2.314,1.994-.113,1.5,1.447,1.721,2.535-.293,2.161.348,4.232.645,6.337a17.077,17.077,0,0,1,.739,5.873,6.186,6.186,0,0,1-1.115,3.494C-332.006,419.742-332.069,422.445-334.156,423.413Z" transform="translate(204.111 2088.723)" fill="#fdfdfd"/><path d="M-502.323,577.308l-2.865,2.929c-1.208,4.749-4.67,2.819-7.566,2.557-1.68-1.914-.946-3.836-.011-5.754a47.063,47.063,0,0,1,3.273-5.525l1.313-.208c1.6-.7,3.243-1.287,4.9-1.835,2.735-.722,5.456-1.042,8.122.277a16.151,16.151,0,0,1,4.958,1.558l2.955,2.728a8.577,8.577,0,0,1,1.644,4.412c1.376,5.789-1.377,9.8-5.656,13.164q-.363.348-.725.7a7.372,7.372,0,0,0-3.746,3.6c-2.327,4.051-4.356,4.477-8.9,1.925.085-1.6-.46-3.272.488-4.787-.141-1.459,1.425-1.692,1.93-2.687,1.454-.952,2.665-2.234,4.187-3.093l1.78-1.787c2.133-1.618,2.828-3.841,1.43-6.021C-496.54,576.764-499.472,576.845-502.323,577.308Z" transform="translate(207.358 2085.837)" fill="#dccde5"/><path d="M-325.056,704.326c-1.828,1.319-2.191-.716-2.9-1.433-12.231-12.311-29.076-12.905-41.9-1.386-.863.775-1.584,1.727-2.869,1.815,3.059-8.037,7.562-14.665,16.29-17.492a23.582,23.582,0,0,1,29.521,13.377C-326.208,700.877-325.671,702.618-325.056,704.326Z" transform="translate(204.162 2084.248)" fill="#273339"/><path d="M-222.472,675.107c-4.9.117-9.516-4.039-9.743-8.776-.228-4.759,4-9,9.166-9.183,5.463-.193,9.944,3.792,9.955,8.854C-213.084,670.8-217.392,674.985-222.472,675.107Z" transform="translate(201.991 2084.667)" fill="#273339"/><path d="M-417.3,421.459c3.9.463,7.561,1.39,8.877,5.469,1.306,4.044.155,7.529-3.552,9.994a7.637,7.637,0,0,0-3.466,4.049c-.877,2.674-3.5,1.752-5.045,1.187-1.68-.615-.82-2.631-.34-3.959.848-2.345,3.176-3.313,4.93-4.809,1.7-1.447,2.848-3.337,1.005-5.087-1.893-1.8-4.894-1.9-5.988.583-1.515,3.431-4.447,3.221-5.9,1.878-1.84-1.7-.116-4.3,1.451-6.088C-423.2,422.237-420.215,421.77-417.3,421.459Z" transform="translate(205.336 2088.723)" fill="#273339"/><path d="M-453.247,534.841c-.043,4.184-3.713,7.5-8.362,7.552-4.813.055-8.484-3.414-8.446-7.983.033-4.041,3.94-7.334,8.6-7.243C-456.839,527.256-453.2,530.653-453.247,534.841Z" transform="translate(206.074 2086.545)" fill="#8c59a9"/><path d="M-275.207,673.336q.48.7.958,1.409c.852,2.986,1.022,5.894-.973,8.557l-1.867,1.964c-2.24,1.059-3.371,3.129-4.638,5.085-4.793,1.355-5.484.691-4.449-4.269q1.839-1.891,3.679-3.784c1.406-.08,2.066-1.424,3.233-1.908.4-4.489-2.73-4.125-5.619-4.1-2.37,0-2.065,3.255-4.248,3.492-1.193-.118-2.477.32-3.525-.616-1.063-2.377.337-4.112,1.527-5.9l4.873-2.976C-282.351,670.5-278.283,670.118-275.207,673.336Z" transform="translate(203.03 2084.449)" fill="#dbcce4"/><path d="M-380.351,591.265c.585-.79,1.143-1.6,1.76-2.365,1.626-2.014,3.923-5.957,4.807-5.664,3.542,1.171,7.034.995,10.566,1.273.668.053.444,1.972,1.886,1.713.11,3.415-4.224,3.259-4.873,6.064a.582.582,0,0,1,.243.592c-.052.212-.111.318-.176.318a1.927,1.927,0,0,1-.921.151c-1.588,1.007-1.088,3.523-3.069,4.249-1.951.182-2.828-1.1-3.561-2.586-.99-1.651-2.782-1.181-4.235-1.62C-379.023,593.058-380.646,593.227-380.351,591.265Z" transform="translate(204.53 2085.754)" fill="#7b7b7c"/><path d="M-323.944,586.131c4.182-2.966,9.343-1.081,13.78-2.781l-.044-.067c.861,1.449,2.059,2.646,3.019,4.022l-.02-.026c.864,1.454,2.064,2.657,3.026,4.037l-.012-.032c-.175,2.631-2.355,1.873-3.839,2.291-1.936.084-3.819.283-4.818,2.331a1.955,1.955,0,0,1-1.607.917c-1.7-.234-2.451-1.7-3.553-2.719-1.3-1.7-3.149-2.9-4.227-4.792A4.29,4.29,0,0,1-323.944,586.131Z" transform="translate(203.556 2085.759)" fill="#7b7b7c"/><path d="M-320.117,490.228c-2.644-3.189-.971-6.87-.87-10.234.248-8.265,1.42-16.5,1.618-24.767.252-10.451,1.8-20.7,3.26-32.294,2.05,4.971-.778,8.511.335,13,1.3-3.49,2.358-6.34,3.417-9.19,1.075,5.237-4.26,9.265-1.857,14.575-2.653,2.541-3.585,5.719-3.763,9.317C-318.63,463.834-319.394,477.03-320.117,490.228Z" transform="translate(203.617 2088.723)" fill="#484f54"/><path d="M-373.29,594.371l2.936,3.138c.785,2.839-.105,4.542-3.214,4.742l-.294-.049-.3.012c-1.8,1.973-3.927,1.742-6.145.926l-.837-.664c-1.372-1.795-3.645-3.311-1.875-6.075l1.879-2.964C-378.365,592.426-375.7,592.295-373.29,594.371Z" transform="translate(204.625 2085.646)" fill="#fbfbfb"/><path d="M-382.139,454.368c1.2.8,1.033,2.038.85,3.154-2.746,16.788-3.954,33.822-7.749,50.428-.964,4.22,1.243,6.046,3.775,8.171-1.12,1.456-2.672.517-4.019.732a1.916,1.916,0,0,1-1.094-.525c-1.7-5.177.5-10.093,1.28-15.024,2.341-14.87,4.857-29.706,5.953-44.74A7.106,7.106,0,0,1-382.139,454.368Z" transform="translate(204.774 2087.421)" fill="#4b5258"/><path d="M-287.317,400.408c-10.132-2.462-20.231-4.808-30.842-4.195-4.02.233-7.349.258-8.073,5.113a.876.876,0,0,1-1.18.069c-.7-1.353-.683-3.027-1.85-4.176l-.009-1.756a89.6,89.6,0,0,1,43.009,4.06C-286.162,400.355-286.279,400.93-287.317,400.408Z" transform="translate(203.409 2088.723)" fill="#5b5f67"/><path d="M-503.224,612.295a2.145,2.145,0,0,1-.984-2.053,3.4,3.4,0,0,1-1.212-3c.926-1.506,1.419-3.389,3.43-3.953h3.614c2.347,1.755,5.627,3.2,2.266,6.846-.121,1.54-.678,2.744-2.371,3.07C-500.1,613.088-501.821,613.526-503.224,612.295Z" transform="translate(207.358 2085.506)" fill="#d6c8e0"/><path d="M-246.5,418.328c2.459.268,4.137,1.458,4.2,4.014.058,2.476-1.2,4.063-3.871,4.129-2.564.065-4.109-1.034-4.119-3.761C-250.3,420.155-248.922,418.793-246.5,418.328Z" transform="translate(202.442 2088.723)" fill="#8d5aaa"/><path d="M-358.207,419.265c2.3.9,5.345-.826,7.086,2.024a2.8,2.8,0,0,1-1.1.866c-5.709.648-4.788,5.986-6.822,9.47,4.3-2.134,4.4-2.1,4.816,1.672-2.629-1.476-3.283,1.277-4.757,2.247-.79.52-1.371,1.727-2.448,1.289-1.421-.579-.928-2.034-.682-3.025.79-3.179,1.807-6.3,2.7-9.456a1.975,1.975,0,0,0-.863-2.145Q-359.24,420.734-358.207,419.265Z" transform="translate(204.284 2088.723)" fill="#4b5356"/><path d="M-250.15,402.348c-.272-2.676,1.137-3.91,3.626-4.137,1.86-.169,3.731.015,4.586,1.955,1.058,2.405-.283,3.98-2.257,5.176C-246.569,405.119-247.979,402.977-250.15,402.348Z" transform="translate(202.433 2088.723)" fill="#f3f1f4"/><path d="M-373.285,451.507c-2.8-3.592-2.838-8.408-5.756-12.641-.434,3.6-.854,6.737-1.172,9.885-.126,1.245-.264,2.339-1.814,2.478q.969-8.174,1.933-16.348c.134-1.145,1.12-1.505,1.858-2.1-.057,6.323,3.984,11.454,5.078,17.443A.759.759,0,0,1-373.285,451.507Z" transform="translate(204.628 2088.723)" fill="#434b50"/><path d="M-418.333,444.879c2.16.253,3.6,1.334,3.654,3.445A3.348,3.348,0,0,1-418.42,452a3.2,3.2,0,0,1-3.27-3.6A3.494,3.494,0,0,1-418.333,444.879Z" transform="translate(205.302 2088.723)" fill="#2e393f"/><path d="M-371.106,672.075c2.963-1.624,6.161-.664,9.234-.722,8.279-.157,16.563-.081,24.845-.03,1.6.01,3.344-.534,4.737.8Z" transform="translate(204.21 2084.647)" fill="#7f5b99"/><path d="M-283.24,693.308l1.325.241c.888,1.836,2.311,3.608.7,5.748l-1.057,1.012c-2.459,1.253-3.813-.148-4.951-2.064-.115-1.788.2-3.341,2.178-3.983A2.606,2.606,0,0,1-283.24,693.308Z" transform="translate(203.071 2084.271)" fill="#c6bbd0"/><path d="M-373.568,602.251a6.2,6.2,0,0,0,3.214-4.742c1.172-1.329.5-4.115,3.3-4.162-.122,3.335.635,6.919-3.027,9.138C-371.413,603.288-372.532,604.331-373.568,602.251Z" transform="translate(204.506 2085.644)" fill="#666c73"/><path d="M-504.112,598.222c3.662.55,6.942.586,8.534-3.858.348-.971,1.34-3.267,3.6-2.058a31.464,31.464,0,0,0-3.527,5.664c-1.784,4.027-5.456,2.763-8.688,1.444A.673.673,0,0,1-504.112,598.222Z" transform="translate(207.358 2085.674)" fill="#828190"/><path d="M-502.323,577.308c3.521-2.328,6.431-.887,8.391,2.032,1.727,2.572.868,4.994-2.309,6.142C-494,579.5-494.071,579.4-502.323,577.308Z" transform="translate(207.358 2085.891)" fill="#7d7c8b"/><path d="M-491.255,591.611c3.119-3.9,6.258-7.794,5.144-13.329q.537-.681,1.082-.006C-483.39,584.051-485.318,588.181-491.255,591.611Z" transform="translate(207.358 2085.834)" fill="#7c7b8a"/><path d="M-513.106,582.2c2.722-.321,5.951,1.406,7.918-1.961,1.984,2.525.334,3.734-1.844,3.964-2.018.213-4.3.752-6.161-.848q-.438-.42-.253-.793T-513.106,582.2Z" transform="translate(207.358 2085.871)" fill="#82808f"/><path d="M-322.239,589.312q2.51,2,5.017,3.995c.687.87.533,2.013.965,2.967a3.7,3.7,0,0,1-.453,3.066c-3.467-1.1-1.457-6.315-5.337-7.1Z" transform="translate(203.658 2085.701)" fill="#545267"/><path d="M-287.317,400.408l1.055-.885c6.506,1.954,6.985,3.9,2.2,8.918-.174-.255-.536-.7-.494-.738C-280.17,403.25-283.33,401.675-287.317,400.408Z" transform="translate(203.076 2088.723)" fill="#5d6169"/><path d="M-275.207,673.336c-3.29-2.44-7.571-1.283-11.049-3.044C-281.895,668.847-278.039,669.234-275.207,673.336Z" transform="translate(203.008 2084.64)" fill="#6c6d7a"/><path d="M-286.176,686.082c-.191,3.737.718,5.807,4.755,3.14q.606-.807,1.1.073l-.867,2.039a6.44,6.44,0,0,1-6.028-.039C-288.483,689.236-288.079,687.51-286.176,686.082Z" transform="translate(203.074 2084.388)" fill="#747482"/><path d="M-302.039,428.456c.758-4.206,4.148-6.034,7.3-8.079A34.814,34.814,0,0,1-302.039,428.456Z" transform="translate(203.311 2088.723)" fill="#61646c"/><path d="M-393.156,526.34a21.724,21.724,0,0,1-8.179,2.916q.093-1.488.185-2.975c.171-.135.341-.269.511-.407a28.367,28.367,0,0,1,6.451-.32A2.261,2.261,0,0,1-393.156,526.34Z" transform="translate(204.957 2086.631)" fill="#625a74"/><path d="M-495.188,570.107a19.615,19.615,0,0,0-8.046,0c-.413-.249-.986-.292-1.129-.885,3.072-1.174,6.134-1.721,9.162.131q.525.243.356.5C-494.958,570.02-495.072,570.107-495.188,570.107Z" transform="translate(207.358 2086.053)" fill="#616470"/><path d="M-496.11,610.14c1.769-3.117-.648-4.849-2.266-6.846,3.021-.453,3.692,1.833,4.21,3.913C-493.834,608.541-493.667,610.365-496.11,610.14Z" transform="translate(207.358 2085.531)" fill="#838190"/><path d="M-380.306,603.14l6.145-.925q.008.787.014,1.579c-1.877,1.875-3.983,1-6.058.505Q-380.256,603.72-380.306,603.14Z" transform="translate(204.621 2085.579)" fill="#d2d5d6"/><path d="M-291.129,673.268c-.158,2.016-1.61,3.815-1,5.96a1.629,1.629,0,0,1-.978.87C-295.259,677.006-293.539,675.037-291.129,673.268Z" transform="translate(203.224 2084.557)" fill="#7e7d8c"/><path d="M-291.057,416.448c-.029-3.534,2.834-4.591,5.2-6.072A18.014,18.014,0,0,1-291.057,416.448Z" transform="translate(203.151 2088.723)" fill="#5e6269"/><path d="M-390.376,516.328l1.024-.092c.038,3.921-2.669,3.861-5.423,3.741a2.293,2.293,0,0,1-1.48-1.728Z" transform="translate(204.88 2086.758)" fill="#8a8c96"/><path d="M-287.216,691.295l6.028.039-2.052,1.974-1.812.955C-284.968,692.686-286.59,692.355-287.216,691.295Z" transform="translate(203.079 2084.349)" fill="#a29cae"/><path d="M-383.018,596.4c-.724,2.441,2.061,3.8,1.875,6.075-4.288-.248-2.562-3.82-3.326-6.016Z" transform="translate(204.708 2085.633)" fill="#485057"/><path d="M-360.234,422.248c-1.612,2.625-4.256,3.446-7.039,4.025A11.825,11.825,0,0,1-360.234,422.248Z" transform="translate(204.398 2088.723)" fill="#51575d"/><path d="M-310.933,499.4c-1.481-1.448-3.279-2.69-3.288-5.089a6.815,6.815,0,0,1,3.74,5.092Z" transform="translate(203.548 2087.056)" fill="#565b62"/><path d="M-281.22,699.3l-.7-5.749C-280.152,695.28-277.845,696.944-281.22,699.3Z" transform="translate(203.03 2084.287)" fill="#6f6f7d"/><path d="M-275.222,683.3c1.284-2.743.823-5.684.973-8.557C-272.413,677.843-272.016,680.777-275.222,683.3Z" transform="translate(202.92 2084.518)" fill="#626572"/><path d="M-513.106,582.2l-.087,1.155c-2.413-3.134-.89-5.843.922-8.52a.955.955,0,0,1,.091,1.483A13.614,13.614,0,0,0-513.106,582.2Z" transform="translate(207.358 2085.915)" fill="#5c606a"/><path d="M-503.224,612.295c1.585.286,3.338-.3,4.743.915C-500.285,614.064-502.053,614.727-503.224,612.295Z" transform="translate(207.358 2085.448)" fill="#4b515b"/><path d="M-501.99,603.293l-2.966,4.083q-.611.774-1.132-.063C-505.283,605.4-505.136,602.818-501.99,603.293Z" transform="translate(207.358 2085.551)" fill="#787886"/><path d="M-287.228,698.245c1.36,1.385,2.88,2.385,4.951,2.064C-285.073,702.37-286.51,701.169-287.228,698.245Z" transform="translate(203.09 2083.219)" fill="#545963"/><path d="M-401.15,526.281c-1.023-2.36-3.185-4.9,1.036-6.417a3.1,3.1,0,0,1,.224,1.322c-.281,1.739.136,3.659-1.291,5.109Z" transform="translate(205.011 2086.695)" fill="#575d65"/><path d="M-512.18,576.317l-.091-1.48c.284-1.649,1.714-2.335,2.78-3.324C-508.883,573.958-511.333,574.688-512.18,576.317Z" transform="translate(207.358 2085.988)" fill="#807f8e"/><path d="M-400.2,519.783l.084.079c.649-2.056,2.432-1.408,3.858-1.613l.971.909C-396.769,520.57-398.223,522.224-400.2,519.783Z" transform="translate(204.958 2086.735)" fill="#444d54"/><path d="M-367.232,426.249c-1.136,2.216-3.1,2.935-5.427,3.019C-371.148,427.727-369.5,426.424-367.232,426.249Z" transform="translate(204.499 2088.723)" fill="#50565d"/><path d="M-361.206,410.273c-.466,1.369-2.217,2.273-1.474,4.078-2.168-1.982-2.134-2.1,1.439-5.049A3.164,3.164,0,0,1-361.206,410.273Z" transform="translate(204.377 2088.723)" fill="#81838e"/><path d="M-288.329,679.206c.642-1.57.847-3.657,3.446-2.912l-2.161,3.027A.752.752,0,0,1-288.329,679.206Z" transform="translate(203.124 2084.552)" fill="#878595"/><path d="M-280.321,689.295l-1.1-.073a4.618,4.618,0,0,1,4.33-3.956Z" transform="translate(203.001 2084.42)" fill="#737482"/><path d="M-504.363,569.219l1.129.885c-1.688.239-3.117,1.541-4.945,1.2A4.793,4.793,0,0,1-504.363,569.219Z" transform="translate(207.358 2086.037)" fill="#5d616b"/><path d="M-495.188,570.107q0-.379-.013-.757a4.771,4.771,0,0,1,5,1.957C-492.056,571.716-493.463,570.252-495.188,570.107Z" transform="translate(207.358 2086.037)" fill="#606370"/><path d="M-288.329,679.206l1.285.115c-1.773,2.2-3.966,1.122-6.066.777l.978-.87Z" transform="translate(203.176 2084.531)" fill="#5a5f69"/><path d="M-380.2,604.3c2.038.055,4.089.266,6.059-.5C-375.956,606.488-378.053,605.721-380.2,604.3Z" transform="translate(204.62 2085.564)" fill="#3d474d"/><path d="M-504.112,598.222l-.084,1.192c-1.82-2.138-1.53-4.256.058-6.364Q-504.124,595.635-504.112,598.222Z" transform="translate(207.358 2085.677)" fill="#4b525b"/><path d="M-498.021,587.269a5.423,5.423,0,0,1-4.187,3.093C-501.353,588.6-500.208,587.228-498.021,587.269Z" transform="translate(207.358 2085.782)" fill="#747482"/><path d="M-485.029,578.276l-1.082.006q-.566-2.124-1.132-4.247A4.477,4.477,0,0,1-485.029,578.276Z" transform="translate(207.358 2085.957)" fill="#5e626d"/><path d="M-279.264,680.39c-.942.864-1.146,2.978-3.232,1.908C-281.7,681.192-281.052,679.824-279.264,680.39Z" transform="translate(203.031 2084.508)" fill="#878595"/><path d="M-506.088,607.313l1.131.063q.375,1.433.749,2.867C-506.439,610.295-506.28,608.815-506.088,607.313Z" transform="translate(207.358 2085.507)" fill="#727280"/><path d="M-361.214,416.331a4.829,4.829,0,0,1,3.044,2.955C-360.155,419.3-361.109,418.254-361.214,416.331Z" transform="translate(204.328 2088.723)" fill="#92909d"/><path d="M-366.138,593.2q-.041-.454-.067-.91l.741.641Z" transform="translate(204.427 2085.729)" fill="#313b42"/><path d="M-329.262,397.219c4.934-.894,1.244,2.912,2.262,4.152.577,2.589-1,2.854-2.941,2.727a2.114,2.114,0,0,1-1.292-1.036c-.017-.969.105-1.983-.837-2.661C-331.762,398.786-329.3,399.068-329.262,397.219Z" transform="translate(203.827 2088.723)" fill="#f3f4f4"/><path d="M-309.206,592.324c1.68-.3,3.617.641,5.011-1.04,3.751,2.945,3.753,6.739,2.166,10.684-1.362,3.386-4.336,3.693-7.513,3.345-1.241-.136-1.644-.919-1.814-1.976a1.963,1.963,0,0,1,1.225-.506c1.757.063,3.7.74,4.732-1.487,2.44-5.281,2.44-5.281-3.85-7.779A.948.948,0,0,1-309.206,592.324Z" transform="translate(203.436 2085.641)" fill="#494e5a"/><path d="M-316.71,599.34q-.231-1.455-.463-2.912c1.219-.356,1.841,1.767,3.217.775a4.51,4.51,0,0,1,1.464,3.885,2.4,2.4,0,0,1-.78,1.184Z" transform="translate(203.588 2085.635)" fill="#c2c5c6"/><path d="M-307.189,587.3c-1.665-.846-2.922-2-3.019-4.022C-308.555,584.138-307.321,585.308-307.189,587.3Z" transform="translate(203.489 2085.83)" fill="#4c495b"/><path d="M-309.946,603.406l-1.409-.069q-.424-.5-.845-.993c.2-.2.4-.393.6-.593,1.933-.83,3.8-.955,5.535.494C-306.689,604.872-308.457,603.674-309.946,603.406Z" transform="translate(203.492 2085.593)" fill="#4d585c"/><path d="M-304.183,591.316a4.687,4.687,0,0,1-3.026-4.037A4.859,4.859,0,0,1-304.183,591.316Z" transform="translate(203.439 2085.775)" fill="#484758"/><path d="M-313.272,602.272l.048-1.083c.858-.115,1.25.2,1.023,1.1v.054Z" transform="translate(203.557 2085.605)" fill="#5e676b"/><path d="M-356.255,524.363c4.556-2.912,8.643-6.461,14.776-6.176,5.5.256,9.03,3.762,13.259,6.207a2,2,0,0,1,1.057.909c-.256,10.619,1.727,21.18.759,32.417-7.27-3.951-14.969-4.842-22.954-4.554-2.869.1-6.488,2.848-8.33.236-1.425-2.021-.578-5.753-.482-8.716.21-6.466.584-12.926.891-19.388A2.207,2.207,0,0,1-356.255,524.363Z" transform="translate(204.041 2086.535)" fill="#8e5cac"/><path d="M-332.261,496.284c-6.615,1.383-13.228,1.764-19.835-.047,1.4-19.26.731-38.551.9-57.825.026-1.149.011-2.315.977-3.173A2.224,2.224,0,0,1-348,435.2c2.141,1.642,4.4,2.493,7,.968a2.647,2.647,0,0,1,2.987.287c2.122,17.341,3.589,34.744,5.243,52.127C-332.524,491.138-330.719,493.615-332.261,496.284Z" transform="translate(204.034 2087.736)" fill="#905eae"/><path d="M-350.357,437.33c.092,18.2.6,36.41-.821,54.587a32.4,32.4,0,0,1-.919,4.32l-1.117-.931a28.057,28.057,0,0,0,.969-7.825c-.023-16.395.041-32.79.076-49.184C-351.666,437.784-351.4,436.826-350.357,437.33Z" transform="translate(204.196 2087.71)" fill="#52525f"/><path d="M-332.261,496.284q-3.017-29.018-6.03-58.036a2.037,2.037,0,0,0-1.182-1.98c-.522-2.865,0-5.7.244-8.545a2.842,2.842,0,0,1,2.1-2.182l1.9-.773c-2.931,8.534-1.215,17.233-.594,25.814.856,11.822,2.4,23.6,3.64,35.389q.494,4.666.984,9.333Z" transform="translate(203.927 2088.723)" fill="#454854"/><path d="M-393.156,526.34l-1.407-.182c.35-1.991,2.011-2.565,3.563-2.814,4.148-.666,6.219-3.136,6.827-7.106.362-.826,1.1-.922,1.867-.967q.486,2.1.974,4.2C-383.158,525.4-388.728,524.887-393.156,526.34Z" transform="translate(204.812 2086.735)" fill="#5a546d"/><path d="M-327.163,525.3l-1.057-.909c1.747-1.823.794-4.093.955-6.156.349-4.446,1.665-8.4,5.059-11.507C-326.472,512.252-325.06,519.252-327.163,525.3Z" transform="translate(203.758 2086.819)" fill="#55595c"/><path d="M-377.148,501.368a32.138,32.138,0,0,1,2.938-11.051.8.8,0,0,1,1.262.189c.78,3.2-1.362,5.7-2.073,8.538q-.078.574-.157,1.148C-375.532,501.088-376.314,501.272-377.148,501.368Z" transform="translate(204.581 2087.089)" fill="#51575d"/><path d="M-358.2,514.323c-.827-3.1-1.336-6.274-2.562-9.281a11.561,11.561,0,0,1,3.5,9.308Q-357.749,514.985-358.2,514.323Z" transform="translate(204.317 2086.886)" fill="#4c5255"/><path d="M-358.2,514.323a6.962,6.962,0,0,1,.936.027c.559,3.315-.947,6.838,1.008,10.013l-1.025.935C-359.293,521.783-357.741,517.969-358.2,514.323Z" transform="translate(204.288 2086.749)" fill="#66656a"/><path d="M-373.29,594.371c-2.521-1.116-5.183-1.037-7.849-.934a2.115,2.115,0,0,1,.789-2.172C-378.584,593.635-374.431,590.577-373.29,594.371Z" transform="translate(204.623 2085.727)" fill="#4d5559"/><path d="M-339.8,506.592c-.556-3.248.746-4.424,2.4-5.469C-338.05,502.607-338.7,504.091-339.8,506.592Z" transform="translate(203.982 2086.959)" fill="#505557"/><path d="M-344.265,507.368c-1.813-.872-2.074-2.62-2.521-4.266a5.059,5.059,0,0,1,2.622,4.18Z" transform="translate(204.094 2086.938)" fill="#53575a"/><path d="M-344.164,507.282c1.339,1.1,1.813,2.52,1.937,4.644a5.027,5.027,0,0,1-2.037-4.559Z" transform="translate(204.057 2086.878)" fill="#53575a"/><path d="M-330.974,418.222q.411-1.5.821-3c1.066-2.487.309-4.852-.486-7.216.061-1.277-.448-2.591.265-3.822,2.482-1.352,3.923.981,5.836,1.646,5.226.361,10.075,2.567,15.275,3.1,1.417.144,1.989,1.063.932,2.4-3.239,2.071-5.275,5.326-7.889,8.012-4.582.881-9.212.238-13.817.4C-330.854,419.758-331.724,419.383-330.974,418.222Z" transform="translate(203.646 2088.723)" fill="#dacbe3"/><path d="M-308.331,411.321c.084-1.594-1.051-1.7-2.219-1.948-4.9-1.062-9.789-2.2-14.682-3.307l-.012-.659c4.609-.5,8.8,1.384,13.086,2.488,6.093,1.569,12.025,1.806,18.341-1-.65,2.348-2.548,1.961-3.61,3.25h5.679a11.848,11.848,0,0,1-9.351.745A9.92,9.92,0,0,0-308.331,411.321Z" transform="translate(203.439 2088.723)" fill="#434b50"/><path d="M-330.974,418.222c4.8,1.893,9.9-.11,14.754,1.111-3.74,2.046-7.78.735-11.669.941-3.074.162-3.862,1.262-2.844,4.042,1.256,3.43,2.422,6.892,3.663,10.328.389,1.075,1.314,2.539-.249,2.951-2.093.55-.845-1.373-1.208-2.183-1.8-4.031-1.142-9.241-5.629-12C-333.115,421.671-332.991,419.366-330.974,418.222Z" transform="translate(203.749 2088.723)" fill="#4a5155"/><path d="M-322.2,453.307c-2.239,2.666-5.1,2.723-8.082,1.765a3.807,3.807,0,0,1-2.915-4.11c.16-2.2,1.837-2.493,3.573-2.586,1.653-.088,3.308-.175,4.962-.185,1.139-.007,2.822-1.61,3.272.505.311,1.459,1.934,3.584-.84,4.641-1.665-2.511-3.8-3.4-7.1-1.818C-327.186,453.931-324.032,451.324-322.2,453.307Z" transform="translate(203.782 2087.696)" fill="#40484d"/><path d="M-325.244,405.407c-.005.22,0,.439.012.659-1.762-.293-2.921-2.305-4.981-1.746q-.358-.311-.229-.609c.085-.2.169-.3.252-.3,1.368-.205,3.211.331,3.19-2.044a4.287,4.287,0,0,0,.768-.045A7.409,7.409,0,0,0-325.244,405.407Z" transform="translate(203.803 2088.723)" fill="#364046"/><path d="M-375.021,499.044q.791-4.365,1.58-8.732c.081-5.112,1.783-9.974,2.318-15.015l-.054.113c1.007-2.633.289-5.8,2.765-8.659,1.107,5,2.39,9.431,2.706,14.07.667,2.789,1.894,5.5,1.164,8.484C-369.475,491-372.377,494.885-375.021,499.044Z" transform="translate(204.5 2087.343)" fill="#dacbe3"/><path d="M-354.222,433.3c-.174-2.009-.612-3.56-2.9-1.537-1.1.973-2.138,2.014-4.315,4.077,1.645-5.01,2.977-8.605,3.989-12.288.87-3.162,3.266-2.035,5.237-2.225,2.339,3.673,1.41,7.635.918,11.52a1.581,1.581,0,0,1-2.128,1.455Z" transform="translate(204.272 2088.723)" fill="#7c7c7c"/><path d="M-360.208,450.15c2.637.813,6.768-1.579,6.935,3.443.156,4.659-3.937,4.771-6.689,4.534s-7.314.541-7.182-4.632C-367,447.738-362.376,451.488-360.208,450.15Z" transform="translate(204.344 2087.66)" fill="#4a5154"/><path d="M-366,481.316l-2.565-13.02c-1.766,2.042-.542,5.182-2.609,7.114a43,43,0,0,0-2.107-23.9q.061-.638.126-1.28c4.926,9.782,6.763,20.354,7.947,31.094A.462.462,0,0,1-366,481.316Z" transform="translate(204.49 2087.592)" fill="#474e53"/><path d="M-353.419,434.3c2.656-4.115.418-8.686,1.21-12.975l1.088-.035a2.032,2.032,0,0,0,.85.051c.558,4.628,2.093,9.176,1.135,13.928-1.03.318-1.056,1.231-1.22,2.062l-1.814.967Q-352.794,436.3-353.419,434.3Z" transform="translate(204.187 2088.723)" fill="#40494e"/><path d="M-366,481.316l.792,0c.856,2.609,2.937,5.115.669,7.986Z" transform="translate(204.411 2087.225)" fill="#474e54"/><path d="M-384.173,516.238c1.528,3.32.676,5.653-2.772,7.079-2.509,1.037-5.416,1-7.618,2.841-2.2.361-4.385,1.419-6.618.137.423-2.156-.847-4.568.984-6.512l4.913-.625c2.483.053,4.963.1,5.932-2.922,1.308-2.035,2.754.91,4.089-.115Z" transform="translate(204.895 2086.73)" fill="#f9fafa"/><path d="M-371.123,475.3c.535,5.207-1.232,10.058-2.318,15.015q-.384,0-.769,0C-373.548,485.235-373.009,480.127-371.123,475.3Z" transform="translate(204.541 2087.283)" fill="#4d535a"/><path d="M-349.136,435.268a22.389,22.389,0,0,1-1.135-13.928l5.087,2.992c2.072,1.508,5.084.946,6.856,3.114-.053,2.983.952,6.1-1.145,8.822l-1.8,1.206c-2.544.958-4.716-.2-6.915-1.214Q-348.663,435.763-349.136,435.268Z" transform="translate(204.079 2088.723)" fill="#f9fafa"/><path d="M-338.328,427.446c-2.309-.987-5.241-.6-6.856-3.114l8.057,1.209Z" transform="translate(204.022 2088.723)" fill="#888e92"/><path d="M-330.19,403.415a6.355,6.355,0,0,1-.023.9q.014,1.967.029,3.933c.607,1.05-.038,1.116-.835,1.063.346-2.1-1.5-4.123-.214-6.254Z" transform="translate(203.853 2088.723)" fill="#596068"/><path d="M-331.019,409.316l.835-1.063c1.428,2.316,1.732,4.638.031,6.968C-330.011,413.189-329.93,411.167-331.019,409.316Z" transform="translate(203.84 2088.723)" fill="#4d555c"/><path d="M-337.774,410.6c-2.393,1.921-3.3.758-4.591-1.424Z" transform="translate(204.005 2088.723)" fill="#898f92"/><path d="M-345.99,404.634c.294-.939.536-1.758,1.309-1.524.381.115.711,1.016.717,1.566.006.5,0,1.562-1,1.205C-345.444,405.708-345.726,404.974-345.99,404.634Z" transform="translate(204.086 2088.723)" fill="#687074"/><path d="M-336.113,413.363c.326-1.718.72-2.964,1.738-2.747,1.486.317.2,1.133-.123,1.616C-334.744,412.6-335.267,412.792-336.113,413.363Z" transform="translate(203.92 2088.723)" fill="#959a9d"/><path d="M-337.849,402.338c-.571-.3-.522-.957-.384-1.572.088-.39.063-1.133.84-.791a1.238,1.238,0,0,1,.716,1.607C-336.816,402.047-337.039,402.534-337.849,402.338Z" transform="translate(203.962 2088.723)" fill="#404a50"/><path d="M-312.2,602.289l-1.023-1.1q-.537-1.989-1.073-3.976-.406-.408-.175-.658a.546.546,0,0,1,.391-.209l.921-1.005a3.654,3.654,0,0,1,3.945-2.03c7.544.228,8.59,2.2,4.77,8.979-.572.547-1.143.656-1.714,0Z" transform="translate(203.471 2085.65)" fill="#f8f9f9"/><path d="M-309.215,593.311l-3.945,2.029c-.148-2.926,2.326-2.417,3.954-3.017Q-309.231,592.818-309.215,593.311Z" transform="translate(203.529 2085.713)" fill="#585f63"/><path d="M-314.081,596.346q-.114.432-.216.867c-1.612,2.131-1.932-.468-2.876-.785q-.024-1.56-.049-3.121C-315.918,594.054-315.754,595.98-314.081,596.346Z" transform="translate(203.603 2085.686)" fill="#585f63"/><path d="M-306.159,602.288l1.715,0c-1.407,2.481-3.279,2.663-5.5,1.116C-308.684,603.034-307,604.087-306.159,602.288Z" transform="translate(203.46 2085.583)" fill="#f1f2f1"/><path d="M-348.19,436.26l6.915,1.214C-343.948,439.166-346.177,438.329-348.19,436.26Z" transform="translate(204.082 2088.723)" fill="#624a7b"/><path d="M-322.2,453.307c-2.279-.325-4.314,1.814-6.674.66-1.152-.563-2.821-.812-2.9-2.318-.1-1.863,1.914-1.724,2.941-1.842,2.865-.329,7.017-2.457,6.6,3.53Z" transform="translate(203.785 2088.723)" fill="#79797a"/><path d="M-360.2,452.087c1.989.633,4.892-.933,4.821,2.3-.056,2.585-2.868,2.745-4.505,2.59-1.842-.175-5.045-.134-5.005-2.813C-364.832,450.637-361.436,453.283-360.2,452.087Z" transform="translate(204.339 2087.641)" fill="#7c7c7c"/></g></svg>